<?xml version="1.0" encoding="utf-8"?>
<!-- Generator: Adobe Illustrator 19.0.0, SVG Export Plug-In . SVG Version: 6.00 Build 0)  -->
<svg version="1.1" id="Capa_1" xmlns="http://www.w3.org/2000/svg" xmlns:xlink="http://www.w3.org/1999/xlink" x="0px" y="0px"
	 viewBox="-379 -186.3 864 512" style="enable-background:new -379 -186.3 864 512;" xml:space="preserve">
<style type="text/css">
	.st0{fill:#2850A7;}
	.st1{fill:#3367D6;}
	.st2{fill:#FFFFFF;}
</style>
<g>
	<g>
		<path class="st0" d="M80.9,84.9c0-19.7-8.6-38.4-23.6-51.1c5.7-9.3,8.7-20,8.7-31c0-30.3-22.7-55.7-52.8-59.3
			c0.3-2.6,0.5-5.2,0.5-7.9c0.1-32.9-26.5-59.6-59.4-59.7c-19.4,0-37.5,9.3-48.7,25.1c-19-26.8-56.2-33.2-83-14.2
			c-5.5,3.9-10.3,8.7-14.2,14.2c-19.1-26.8-56.3-33.1-83.2-13.9c-18,12.8-27.4,34.5-24.5,56.4c-30.1,3.6-52.7,29-52.8,59.3
			c0,10.9,3,21.7,8.7,31c-28.2,24.1-31.6,66.5-7.6,94.7c2.3,2.7,4.8,5.2,7.6,7.6c-5.7,9.3-8.7,20-8.7,31c0,33,26.8,59.7,59.7,59.7
			h44.8v82.1H-270c-4.1,0-7.5,3.3-7.5,7.5c0,4.1,3.3,7.5,7.5,7.5h253.8c4.1,0,7.5-3.3,7.5-7.5c0-4.1-3.3-7.5-7.5-7.5h-22.4v-82.1
			H6.2c33,0,59.7-26.8,59.7-59.7c0-10.9-3-21.7-8.7-31C72.3,123.2,80.9,104.5,80.9,84.9z M-292.4,211.7c-24.7,0-44.7-20-44.8-44.7
			c0-10.1,3.4-20,9.8-27.9c2.6-3.2,2-7.9-1.2-10.5c-0.2-0.1-0.3-0.2-0.5-0.3c-23.9-16.1-30.3-48.6-14.2-72.5
			c3.8-5.6,8.6-10.4,14.2-14.2c3.4-2.3,4.3-6.9,2-10.4c-0.1-0.2-0.2-0.3-0.3-0.5c-6.4-7.9-9.8-17.8-9.8-27.9
			c0-24.7,20.1-44.8,44.8-44.8l1.9,0.1c2.4,0.1,4.7-1,6.2-2.9c1.5-1.9,2-4.4,1.2-6.7c-7-23.7,6.6-48.6,30.3-55.6
			c21.1-6.2,43.6,3.8,53.1,23.6c0,0.1,0,0.1-0.1,0.2c-0.9,2.8-1.6,5.7-2.2,8.6c-0.1,0.5-0.1,1-0.2,1.5c-0.9,5.5-1,11.1-0.2,16.7
			C-232.3-53-255-27.5-255,2.8c0,10.9,3,21.7,8.7,31c-0.1,0.1-0.2,0.2-0.4,0.4l-34.7-34.7c-3-2.9-7.7-2.8-10.6,0.2
			c-2.8,2.9-2.8,7.5,0,10.4l35.2,35.2c-20.9,28.4-16.3,68.1,10.5,90.9c-2.9,4.7-5.1,9.8-6.5,15.1l-26.7-26.7
			c-3-2.9-7.7-2.8-10.6,0.2c-2.8,2.9-2.8,7.5,0,10.4l35.3,35.3c0.1,1,0.1,2.1,0.2,3.1c0.1,0.7,0.2,1.4,0.3,2.1
			c0.2,1.4,0.4,2.8,0.7,4.1c0.2,0.8,0.4,1.6,0.6,2.4c0.3,1.2,0.6,2.4,1,3.6c0.3,0.8,0.6,1.6,0.9,2.4c0.4,1.1,0.8,2.2,1.3,3.2
			c0.4,0.8,0.7,1.6,1.1,2.4c0.5,1,1,2,1.6,3c0.4,0.7,0.9,1.5,1.4,2.2c0.6,0.9,1.2,1.9,1.9,2.8c0.5,0.8,1.1,1.4,1.6,2.1
			c0.7,0.9,1.4,1.7,2.1,2.6c0.6,0.7,1.2,1.3,1.8,2c0.7,0.8,1.6,1.6,2.4,2.3c0.4,0.4,0.8,0.8,1.2,1.2H-292.4z M-150.5,308.8h-82.1
			v-82.1h82.1V308.8z M-143.1-27.1c-4.1,0-7.5,3.3-7.5,7.5v52.9l-33.9-33.9c-3-2.9-7.7-2.8-10.6,0.2c-2.8,2.9-2.8,7.5,0,10.4
			l44.5,44.5v102.1l-32.1-32.1c-3-2.9-7.7-2.8-10.5,0.2c-2.8,2.9-2.8,7.5,0,10.4l42.6,42.6v34.2h-44.8c-24.7,0-44.8-20.1-44.8-44.8
			c0-10.1,3.4-20,9.8-27.9c2.6-3.2,2-7.9-1.2-10.5c-0.2-0.1-0.3-0.2-0.5-0.3c-23.9-16.1-30.3-48.6-14.2-72.5
			c3.8-5.6,8.6-10.4,14.2-14.2c3.4-2.3,4.3-6.9,2-10.4c-0.1-0.2-0.2-0.3-0.4-0.5c-6.4-7.9-9.8-17.8-9.8-27.9
			C-240.1-22-220-42-195.3-42l1.9,0.1c2.4,0.1,4.7-0.9,6.2-2.9c1.5-1.9,2-4.4,1.3-6.7c-1.3-4.2-1.9-8.5-1.9-12.9
			c0-2.8,0.3-5.5,0.8-8.2c0-0.1,0-0.2,0-0.3c0.5-2.7,1.3-5.3,2.3-7.9c6.7-17.1,23.2-28.3,41.6-28.4c18.4,0,34.9,11.3,41.6,28.4
			c1,2.6,1.8,5.2,2.3,7.9c0,0.1,0,0.2,0,0.3c0.5,2.7,0.8,5.4,0.8,8.2c0,4.4-0.6,8.7-1.9,12.9c-0.7,2.3-0.2,4.8,1.3,6.7
			c1.5,1.9,3.8,3,6.2,2.9l1.9-0.1C-66.1-42-46.1-22-46,2.8c0,10.2-3.4,20-9.8,27.9c-2.6,3.2-2,7.9,1.2,10.5c0.2,0.1,0.3,0.2,0.5,0.4
			C-30.2,57.6-23.9,90.1-40,114c-3.8,5.6-8.6,10.4-14.2,14.2c-3.4,2.3-4.3,6.9-2,10.4c0.1,0.2,0.2,0.3,0.4,0.5
			c6.4,7.9,9.8,17.8,9.8,27.9c0,24.7-20.1,44.8-44.8,44.8h-44.8V109.8c0.6-0.3,1.1-0.6,1.5-1l48.5-48.5c2.9-3,2.8-7.7-0.2-10.6
			c-2.9-2.8-7.5-2.8-10.4,0l-39.5,39.5V-19.6C-135.6-23.8-138.9-27.1-143.1-27.1z M-53.5,308.8h-82.1v-82.1h82.1V308.8z M40.9,138.6
			c0.1,0.2,0.2,0.3,0.4,0.5C47.6,147,51,156.8,51,167c0,24.7-20.1,44.8-44.8,44.8h-57.6c0.4-0.4,0.8-0.8,1.2-1.2
			c0.8-0.8,1.6-1.5,2.4-2.3c0.6-0.6,1.2-1.3,1.8-2c0.8-0.8,1.4-1.7,2.1-2.6c0.6-0.7,1.1-1.4,1.6-2.1c0.6-0.9,1.3-1.8,1.9-2.8
			c0.5-0.7,0.9-1.5,1.4-2.2c0.6-1,1.1-2,1.6-3c0.4-0.8,0.7-1.6,1.1-2.4c0.5-1.1,0.9-2.2,1.3-3.2c0.3-0.8,0.6-1.6,0.9-2.4
			c0.4-1.2,0.7-2.4,1-3.6c0.2-0.8,0.4-1.6,0.6-2.4c0.3-1.3,0.5-2.7,0.7-4.1c0.1-0.7,0.2-1.4,0.3-2.1c0.2-2.1,0.3-4.3,0.3-6.4
			c0-10.9-3-21.7-8.7-31c14.1-12,22.6-29.4,23.4-47.9l27.9-27.8c2.9-3,2.8-7.7-0.2-10.6c-2.9-2.8-7.5-2.8-10.4,0l-19.1,19.1
			c-3.3-13.7-10.9-25.9-21.6-35.1c5.7-9.3,8.7-20.1,8.7-31c0-30.3-22.7-55.7-52.8-59.3c0.8-5.5,0.7-11.1-0.2-16.7
			c-0.1-0.5-0.1-1-0.2-1.5c-0.5-2.9-1.2-5.8-2.2-8.6c0-0.1,0-0.1-0.1-0.2c10.7-22.3,37.4-31.8,59.7-21.1C-7-95.1,3-72.6-3.2-51.5
			c-0.7,2.3-0.2,4.8,1.2,6.7c1.5,1.9,3.8,3,6.2,2.9l2-0.1C31-42,51-22,51,2.8c0,10.2-3.4,20-9.8,27.9c-2.6,3.2-2,7.9,1.2,10.5
			c0.2,0.1,0.3,0.2,0.5,0.4C66.8,57.6,73.2,90.1,57.1,114c-3.8,5.6-8.6,10.4-14.2,14.2C39.4,130.5,38.6,135.2,40.9,138.6z"/>
		<path class="st1" d="M40.9,138.6c0.1,0.2,0.2,0.3,0.4,0.5C47.6,147,51,156.8,51,167c0,24.7-20.1,44.8-44.8,44.8h-57.6
			c0.4-0.4,0.8-0.8,1.2-1.2c0.8-0.8,1.6-1.5,2.4-2.3c0.6-0.6,1.2-1.3,1.8-2c0.8-0.8,1.4-1.7,2.1-2.6c0.6-0.7,1.1-1.4,1.6-2.1
			c0.6-0.9,1.3-1.8,1.9-2.8c0.5-0.7,0.9-1.5,1.4-2.2c0.6-1,1.1-2,1.6-3c0.4-0.8,0.7-1.6,1.1-2.4c0.5-1.1,0.9-2.2,1.3-3.2
			c0.3-0.8,0.6-1.6,0.9-2.4c0.4-1.2,0.7-2.4,1-3.6c0.2-0.8,0.4-1.6,0.6-2.4c0.3-1.3,0.5-2.7,0.7-4.1c0.1-0.7,0.2-1.4,0.3-2.1
			c0.2-2.1,0.3-4.3,0.3-6.4c0-10.9-3-21.7-8.7-31c14.1-12,22.6-29.4,23.4-47.9l27.9-27.8c2.9-3,2.8-7.7-0.2-10.6
			c-2.9-2.8-7.5-2.8-10.4,0l-19.1,19.1c-3.3-13.7-10.9-25.9-21.6-35.1c5.7-9.3,8.7-20.1,8.7-31c0-30.3-22.7-55.7-52.8-59.3
			c0.8-5.5,0.7-11.1-0.2-16.7c-0.1-0.5-0.1-1-0.2-1.5c-0.5-2.9-1.2-5.8-2.2-8.6c0-0.1,0-0.1-0.1-0.2c10.7-22.3,37.4-31.8,59.7-21.1
			C-7-95.1,3-72.6-3.2-51.5c-0.7,2.3-0.2,4.8,1.2,6.7c1.5,1.9,3.8,3,6.2,2.9l2-0.1C31-42,51-22,51,2.8c0,10.2-3.4,20-9.8,27.9
			c-2.6,3.2-2,7.9,1.2,10.5c0.2,0.1,0.3,0.2,0.5,0.4C66.8,57.6,73.2,90.1,57.1,114c-3.8,5.6-8.6,10.4-14.2,14.2
			C39.4,130.5,38.6,135.2,40.9,138.6z"/>
		<path class="st1" d="M-56.2,138.6c0.1,0.2,0.2,0.3,0.4,0.5c6.4,7.9,9.8,17.8,9.8,27.9c0,24.7-20.1,44.8-44.8,44.8h-44.8V109.8
			c0.6-0.3,1.1-0.6,1.5-1l48.5-48.5c2.9-3,2.8-7.7-0.2-10.6c-2.9-2.8-7.5-2.8-10.4,0l-39.5,39.5V-19.6c0-4.1-3.3-7.5-7.5-7.5
			s-7.5,3.3-7.5,7.5v52.9l-33.9-33.9c-3-2.9-7.7-2.8-10.6,0.2c-2.8,2.9-2.8,7.5,0,10.4l44.5,44.5v102.1l-32.1-32.1
			c-3-2.9-7.7-2.8-10.5,0.2c-2.8,2.9-2.8,7.5,0,10.4l42.6,42.6v34.2h-44.8c-24.7,0-44.8-20.1-44.8-44.8c0-10.1,3.4-20,9.8-27.9
			c2.6-3.2,2-7.9-1.2-10.5c-0.2-0.1-0.3-0.2-0.5-0.3c-23.9-16.1-30.3-48.6-14.2-72.5c3.8-5.6,8.6-10.4,14.2-14.2
			c3.4-2.3,4.3-6.9,2-10.4c-0.1-0.2-0.2-0.3-0.4-0.5c-6.4-7.9-9.8-17.8-9.8-27.9C-240.1-22-220-42-195.3-42l1.9,0.1
			c2.4,0.1,4.7-0.9,6.2-2.9c1.5-1.9,2-4.4,1.3-6.7c-1.3-4.2-1.9-8.5-1.9-12.9c0-2.8,0.3-5.5,0.8-8.2c0-0.1,0-0.2,0-0.3
			c0.5-2.7,1.3-5.3,2.3-7.9c6.7-17.1,23.2-28.3,41.6-28.4c18.4,0,34.9,11.3,41.6,28.4c1,2.6,1.8,5.2,2.3,7.9c0,0.1,0,0.2,0,0.3
			c0.5,2.7,0.8,5.4,0.8,8.2c0,4.4-0.6,8.7-1.9,12.9c-0.7,2.3-0.2,4.8,1.3,6.7c1.5,1.9,3.8,3,6.2,2.9l1.9-0.1
			C-66.1-42-46.1-22-46,2.8c0,10.2-3.4,20-9.8,27.9c-2.6,3.2-2,7.9,1.2,10.5c0.2,0.1,0.3,0.2,0.5,0.4C-30.2,57.6-23.9,90.1-40,114
			c-3.8,5.6-8.6,10.4-14.2,14.2C-57.6,130.5-58.5,135.2-56.2,138.6z"/>
		<path class="st1" d="M-199.6-83.5c0,0.1,0,0.1-0.1,0.2c-0.9,2.8-1.6,5.7-2.2,8.6c-0.1,0.5-0.1,1-0.2,1.5c-0.9,5.5-1,11.1-0.2,16.7
			C-232.3-53-255-27.5-255,2.8c0,10.9,3,21.7,8.7,31c-0.1,0.1-0.2,0.2-0.4,0.4l-34.7-34.7c-3-2.9-7.7-2.8-10.6,0.2
			c-2.8,2.9-2.8,7.5,0,10.4l35.2,35.2c-20.9,28.4-16.3,68.1,10.5,90.9c-2.9,4.7-5.1,9.8-6.5,15.1l-26.7-26.7
			c-3-2.9-7.7-2.8-10.6,0.2c-2.8,2.9-2.8,7.5,0,10.4l35.3,35.3c0.1,1,0.1,2.1,0.2,3.1c0.1,0.7,0.2,1.4,0.3,2.1
			c0.2,1.4,0.4,2.8,0.7,4.1c0.2,0.8,0.4,1.6,0.6,2.4c0.3,1.2,0.6,2.4,1,3.6c0.3,0.8,0.6,1.6,0.9,2.4c0.4,1.1,0.8,2.2,1.3,3.2
			c0.4,0.8,0.7,1.6,1.1,2.4c0.5,1,1,2,1.6,3c0.4,0.7,0.9,1.5,1.4,2.2c0.6,0.9,1.2,1.9,1.9,2.8c0.5,0.8,1.1,1.4,1.6,2.1
			c0.7,0.9,1.4,1.7,2.1,2.6c0.6,0.7,1.2,1.3,1.8,2c0.7,0.8,1.6,1.6,2.4,2.3c0.4,0.4,0.8,0.8,1.2,1.2h-57.6
			c-24.7,0-44.7-20-44.8-44.7c0-10.1,3.4-20,9.8-27.9c2.6-3.2,2-7.9-1.2-10.5c-0.2-0.1-0.3-0.2-0.5-0.3
			c-23.9-16.1-30.3-48.6-14.2-72.5c3.8-5.6,8.6-10.4,14.2-14.2c3.4-2.3,4.3-6.9,2-10.4c-0.1-0.2-0.2-0.3-0.3-0.5
			c-6.4-7.9-9.8-17.8-9.8-27.9c0-24.7,20.1-44.8,44.8-44.8l1.9,0.1c2.4,0.1,4.7-1,6.2-2.9c1.5-1.9,2-4.4,1.2-6.7
			c-7-23.7,6.6-48.6,30.3-55.6C-231.6-113.4-209.1-103.4-199.6-83.5z"/>
	</g>
</g>
<g>
	<g>
		<path class="st2" d="M377.3,305.5L377.3,305.5l35.9,0.1v-0.1H377.3z M323.3,179.8v125.8h0.1V179.8c0-4.8,3.8-8.8,8.5-9
			C327.1,171,323.3,175,323.3,179.8z M242.4,179.8v125.8h0.1L242.4,179.8c0.1-4.8,3.8-8.8,8.6-9C246.2,171,242.4,175,242.4,179.8z
			 M161.6,179.8v125.8h0.1V179.8c0-4.8,3.8-8.8,8.5-9C165.4,171,161.6,175,161.6,179.8z M116.7,305.5L116.7,305.5l0.1-116.8h-0.1
			V305.5z"/>
		<path class="st0" d="M481,181.3L431.1,148V54c0-5-4-9-9-9h-35.9V9.1c0-5-4-9-9-9h-72.4c-4.1-38.8-34.2-69.3-71.4-71.6v-18.2h53.9
			c5,0,9-4,9-9v-44.9c0-5-4-9-9-9h-71.9v82.2c-33,6.3-58.6,34.9-62.4,70.5H80.8c-5,0-9,4-9,9V45H35.9c-5,0-9,4-9,9v94L-23,181.3
			c-2.5,1.7-4,4.5-4,7.5v125.8c0,5,4,9,9,9h494c5,0,9-4,9-9V188.7C485,185.7,483.5,182.9,481,181.3z M233.5-134.6h44.9v27h-44.9
			V-134.6z M26.9,305.5H-9v-112l35.9-23.9C26.9,169.6,26.9,305.5,26.9,305.5z M171.6-2c0.1-0.7,0.2-1.4,0.4-2.1
			c0.1-0.7,0.3-1.4,0.4-2c0.2-0.7,0.3-1.4,0.5-2c3.3-12.7,10.3-23.7,19.5-31.8c0.5-0.4,1-0.8,1.5-1.2s1-0.8,1.5-1.2s1-0.8,1.5-1.2
			s1.1-0.7,1.6-1.1c0.5-0.4,1.1-0.7,1.6-1s1.1-0.7,1.7-1c0.5-0.3,1.1-0.6,1.7-0.9c1.1-0.6,2.3-1.2,3.5-1.7l0,0
			c1.2-0.5,2.4-1,3.7-1.5c5.8-2.1,12-3.2,18.4-3.2c29.3,0,53.7,23.5,57.7,53.9H171.3C171.4-0.6,171.5-1.3,171.6-2z M89.8,18.1h278.5
			v27H89.8V18.1z M116.8,305.5H98.7V188.7h18.1C116.8,188.7,116.8,305.5,116.8,305.5z M197.6,305.5h-18V188.7h18V305.5z
			 M278.4,305.5h-18V188.7h18V305.5z M359.3,305.5h-18V188.7h18V305.5z M413.2,305.6h-35.9v-0.1h-0.1V179.8c0-4.7-3.5-8.5-8.1-9
			c-0.2,0-0.3,0-0.5,0c-0.1,0-0.3,0-0.4,0h-35.9c-0.2,0-0.3,0-0.5,0c-0.1,0-0.3,0-0.5,0c0,0,0,0-0.1,0l0,0l0,0
			c-0.2,0-0.5,0.1-0.7,0.1l0,0c-0.3,0-0.5,0.1-0.8,0.2l0,0c-0.2,0.1-0.5,0.1-0.7,0.3c-0.2,0.1-0.4,0.1-0.6,0.2
			c-0.1,0-0.2,0.1-0.3,0.1l0,0c-0.2,0.1-0.4,0.2-0.6,0.4c0,0-0.1,0-0.1,0.1c-0.2,0.1-0.3,0.2-0.4,0.3c0,0,0,0-0.1,0
			s-0.1,0.1-0.2,0.1c-0.2,0.1-0.3,0.3-0.5,0.4l-0.1,0.1c-0.1,0.1-0.2,0.2-0.3,0.3l-0.1,0.1c-0.2,0.2-0.3,0.4-0.5,0.6
			c-0.2,0.2-0.3,0.4-0.4,0.6c-0.1,0.1-0.2,0.2-0.2,0.4c-0.1,0.3-0.3,0.5-0.4,0.8c0,0.1-0.1,0.2-0.1,0.3c-0.1,0.3-0.2,0.6-0.3,0.9
			c0,0.1-0.1,0.2-0.1,0.3s-0.1,0.3-0.1,0.4c0,0.1,0,0.1,0,0.2c0,0.2,0,0.3-0.1,0.4c0,0.1,0,0.2,0,0.3l0,0c0,0.2,0,0.3,0,0.5
			c0,0.1,0,0.2,0,0.3s0,0.2,0,0.3v125.8h-27.1V179.8c0-4.7-3.5-8.5-8.1-9c-0.1,0-0.3,0-0.4,0s-0.3,0-0.4,0h-35.9c-0.2,0-0.3,0-0.5,0
			s-0.3,0-0.5,0c0,0,0,0-0.1,0l0,0l0,0c-0.2,0-0.5,0.1-0.7,0.1l0,0c-0.3,0-0.5,0.1-0.8,0.2l0,0c-0.2,0.1-0.5,0.1-0.7,0.3
			c-0.2,0.1-0.4,0.1-0.6,0.2c-0.1,0-0.2,0.1-0.3,0.1l0,0c-0.2,0.1-0.4,0.2-0.6,0.4c-0.1,0-0.1,0-0.1,0.1c-0.2,0.1-0.3,0.2-0.5,0.3
			c0,0,0,0-0.1,0s-0.1,0.1-0.2,0.1c-0.2,0.1-0.3,0.3-0.5,0.4l-0.1,0.1c-0.1,0.1-0.2,0.2-0.3,0.3l-0.1,0.1c-0.2,0.2-0.3,0.4-0.5,0.6
			c-0.2,0.2-0.3,0.4-0.4,0.6c-0.1,0.1-0.2,0.2-0.2,0.4c-0.1,0.3-0.3,0.5-0.4,0.8c0,0.1-0.1,0.2-0.1,0.3c-0.1,0.3-0.2,0.6-0.3,0.9
			c0,0.1-0.1,0.2-0.1,0.3s-0.1,0.3-0.1,0.4c0,0.1,0,0.1,0,0.2c0,0.2,0,0.3-0.1,0.4c0,0.1,0,0.2,0,0.3l0,0c0,0.2,0,0.3,0,0.5
			c0,0.1,0,0.2,0,0.3s0,0.2,0,0.3v125.8h-27V179.8c0-4.7-3.5-8.5-8.1-9c-0.1,0-0.3,0-0.5,0c-0.1,0-0.3,0-0.4,0h-35.9
			c-0.2,0-0.3,0-0.5,0c-0.1,0-0.3,0-0.4,0h-0.1l0,0l0,0c-0.2,0-0.5,0.1-0.7,0.1l0,0c-0.3,0-0.5,0.1-0.8,0.2l0,0
			c-0.2,0.1-0.5,0.1-0.7,0.3c-0.2,0.1-0.4,0.1-0.6,0.2c-0.1,0-0.2,0.1-0.3,0.1l0,0c-0.2,0.1-0.4,0.2-0.6,0.4c0,0-0.1,0-0.1,0.1
			c-0.2,0.1-0.3,0.2-0.5,0.3c0,0,0,0-0.1,0s-0.1,0.1-0.2,0.1c-0.2,0.1-0.3,0.3-0.5,0.4l-0.1,0.1c-0.1,0.1-0.2,0.2-0.3,0.3
			c-0.1,0-0.1,0.1-0.1,0.1c-0.2,0.2-0.3,0.4-0.5,0.6c-0.2,0.2-0.3,0.4-0.4,0.6c-0.1,0.1-0.2,0.2-0.2,0.4c-0.1,0.3-0.3,0.5-0.4,0.8
			c0,0.1-0.1,0.2-0.1,0.3c-0.1,0.3-0.2,0.6-0.3,0.9c0,0.1-0.1,0.2-0.1,0.3s-0.1,0.3-0.1,0.4c0,0.1,0,0.1,0,0.2c0,0.2,0,0.3-0.1,0.4
			c0,0.1,0,0.2,0,0.3l0,0c0,0.2,0,0.3,0,0.5c0,0.1,0,0.2,0,0.3s0,0.2,0,0.3v125.8h-27.1V179.8c0-4.7-3.5-8.5-8.1-9
			c-0.2,0-0.3,0-0.5,0c-0.1,0-0.3,0-0.4,0H89.8c-5,0-9,4-9,9v125.8H44.9V63h368.3L413.2,305.6L413.2,305.6z M467,305.5h-35.9V169.6
			l35.9,23.9V305.5z"/>
		<polygon class="st1" points="467,193.5 467,305.5 431.1,305.5 431.1,169.6 		"/>
		<rect x="341.3" y="188.7" class="st1" width="18" height="116.8"/>
		<rect x="260.4" y="188.7" class="st1" width="18" height="116.8"/>
		<rect x="179.6" y="188.7" class="st1" width="18" height="116.8"/>
		<rect x="98.8" y="188.7" class="st1" width="18" height="116.8"/>
		<polygon class="st1" points="26.9,169.6 26.9,305.5 -9,305.5 -9,193.5 		"/>
		<path class="st1" d="M44.9,63v242.5h35.9V179.8c0-5,4-9,9-9h35.9c0.1,0,0.3,0,0.4,0s0.3,0,0.5,0c4.6,0.4,8.2,4.2,8.2,9v125.8h27
			V179.8c0-0.1,0-0.2,0-0.3s0-0.2,0-0.3c0-0.2,0-0.3,0-0.5l0,0c0-0.1,0-0.2,0-0.3c0-0.2,0-0.3,0.1-0.4c0-0.1,0-0.1,0-0.2
			c0-0.1,0.1-0.3,0.1-0.4c0-0.1,0-0.2,0.1-0.3c0.1-0.3,0.2-0.6,0.3-0.9c0-0.1,0.1-0.2,0.1-0.3c0.1-0.3,0.3-0.5,0.4-0.8
			c0.1-0.1,0.1-0.2,0.2-0.4c0.1-0.2,0.3-0.4,0.4-0.6c0.2-0.2,0.3-0.4,0.5-0.6l0.1-0.1c0.1-0.1,0.2-0.2,0.3-0.3l0.1-0.1
			c0.2-0.2,0.3-0.3,0.5-0.4c0.1,0,0.1-0.1,0.2-0.1c0,0,0,0,0.1,0c0.1-0.1,0.3-0.2,0.5-0.3l0.1-0.1c0.2-0.1,0.4-0.2,0.6-0.4l0,0
			c0.1-0.1,0.2-0.1,0.3-0.1c0.2-0.1,0.4-0.2,0.6-0.2c0.2-0.1,0.5-0.2,0.7-0.3l0,0c0.3-0.1,0.5-0.2,0.8-0.2l0,0
			c0.2,0,0.5-0.1,0.7-0.1l0,0l0,0c0,0,0,0,0.1,0s0.3,0,0.4,0c0.2,0,0.3,0,0.5,0h35.9c0.1,0,0.3,0,0.4,0c0.2,0,0.3,0,0.5,0
			c4.6,0.4,8.2,4.2,8.2,9v125.8h26.9V179.8c0-0.1,0-0.2,0-0.3s0-0.2,0-0.3c0-0.2,0-0.3,0-0.5l0,0c0-0.1,0-0.2,0-0.3
			c0-0.2,0-0.3,0.1-0.4c0-0.1,0-0.1,0-0.2c0-0.1,0-0.3,0.1-0.4c0-0.1,0-0.2,0.1-0.3c0.1-0.3,0.2-0.6,0.3-0.9c0-0.1,0.1-0.2,0.1-0.3
			c0.1-0.3,0.3-0.5,0.4-0.8c0.1-0.1,0.1-0.2,0.2-0.4c0.1-0.2,0.3-0.4,0.4-0.6c0.2-0.2,0.3-0.4,0.5-0.6l0.1-0.1
			c0.1-0.1,0.2-0.2,0.3-0.3l0.1-0.1c0.2-0.2,0.3-0.3,0.5-0.4c0,0,0.1-0.1,0.2-0.1c0,0,0,0,0.1,0c0.1-0.1,0.3-0.2,0.5-0.3l0.1-0.1
			c0.2-0.1,0.4-0.2,0.6-0.4l0,0c0.1-0.1,0.2-0.1,0.3-0.1c0.2-0.1,0.4-0.2,0.6-0.2c0.2-0.1,0.5-0.2,0.7-0.3l0,0
			c0.3-0.1,0.5-0.2,0.8-0.2l0,0c0.2,0,0.5-0.1,0.7-0.1l0,0l0,0c0,0,0,0,0.1,0s0.3,0,0.5,0s0.3,0,0.5,0h35.9c0.1,0,0.3,0,0.4,0
			s0.3,0,0.4,0c4.6,0.4,8.2,4.2,8.2,9v125.8h27V179.8c0-0.1,0-0.2,0-0.3s0-0.2,0-0.3c0-0.2,0-0.3,0-0.5l0,0c0-0.1,0-0.2,0-0.3
			c0-0.2,0-0.3,0.1-0.4c0-0.1,0-0.1,0-0.2c0-0.1,0-0.3,0.1-0.4c0-0.1,0-0.2,0.1-0.3c0.1-0.3,0.2-0.6,0.3-0.9c0-0.1,0.1-0.2,0.1-0.3
			c0.1-0.3,0.3-0.5,0.4-0.8c0.1-0.1,0.1-0.2,0.2-0.4s0.3-0.4,0.4-0.6c0.2-0.2,0.3-0.4,0.5-0.6l0.1-0.1c0.1-0.1,0.2-0.2,0.3-0.3
			l0.1-0.1c0.2-0.2,0.3-0.3,0.5-0.4c0,0,0.1-0.1,0.2-0.1c0,0,0,0,0.1,0c0.1-0.1,0.3-0.2,0.4-0.3l0.1-0.1c0.2-0.1,0.4-0.2,0.6-0.4
			l0,0c0.1-0.1,0.2-0.1,0.3-0.1c0.2-0.1,0.4-0.2,0.6-0.2c0.2-0.1,0.5-0.2,0.7-0.3l0,0c0.3-0.1,0.5-0.2,0.8-0.2l0,0
			c0.2,0,0.5-0.1,0.7-0.1l0,0l0,0h0.1c0.2,0,0.3,0,0.5,0s0.3,0,0.5,0H368c0.1,0,0.3,0,0.4,0c0.2,0,0.3,0,0.5,0
			c4.6,0.4,8.2,4.2,8.2,9v125.8H413V63H44.9z M134.7,134.8c0,5-4,9-9,9H89.8c-5,0-9-4-9-9V98.9c0-5,4-9,9-9h35.9c5,0,9,4,9,9
			L134.7,134.8L134.7,134.8z M215.5,134.8c0,5-4,9-9,9h-35.9c-5,0-9-4-9-9V98.9c0-5,4-9,9-9h35.9c5,0,9,4,9,9V134.8z M296.4,134.8
			c0,5-4,9-9,9h-35.9c-5,0-9-4-9-9V98.9c0-5,4-9,9-9h35.9c0.2,0,0.4,0,0.6,0c0.8,0,1.5,0.2,2.2,0.4c0.2,0,0.3,0.1,0.5,0.2
			c0.4,0.2,0.8,0.3,1.1,0.5c0.2,0.1,0.4,0.2,0.7,0.4c0.1,0.1,0.3,0.2,0.4,0.3c1,0.8,1.9,1.7,2.5,2.9c0.2,0.3,0.3,0.5,0.4,0.8
			s0.2,0.5,0.3,0.8c0.1,0.2,0.1,0.4,0.2,0.7c0,0.1,0,0.1,0,0.2c0,0.2,0.1,0.3,0.1,0.5c0,0.3,0.1,0.6,0.1,0.9c0,0.2,0,0.3,0,0.5v35.8
			H296.4z M377.2,134.8c0,5-4,9-9,9h-35.9c-5,0-9-4-9-9V98.9c0-5,4-9,9-9h35.9c5,0,9,4,9,9V134.8z"/>
		<rect x="89.8" y="18.1" class="st1" width="278.5" height="27"/>
		<rect x="233.5" y="-134.6" class="st1" width="44.9" height="27"/>
		<path class="st1" d="M286.7,0.1H171.3c3-22.3,16.9-40.9,35.7-49.2l0,0c1.2-0.5,2.4-1,3.7-1.5c5.8-2.1,12-3.2,18.4-3.2
			C258.3-53.8,282.7-30.3,286.7,0.1z"/>
		<path class="st2" d="M116.7,107.9v17.9H98.8v0.1h18L116.7,107.9L116.7,107.9z"/>
		<path class="st0" d="M125.7,89.9H89.8c-5,0-9,4-9,9v35.9c0,5,4,9,9,9h35.9c5,0,9-4,9-9V98.9C134.7,93.9,130.7,89.9,125.7,89.9z
			 M116.8,125.9h-18v-0.1h-0.1v-18h18v0.1h0.1V125.9z"/>
		<rect x="98.8" y="107.9" class="st1" width="18" height="18"/>
		<path class="st2" d="M179.6,125.8L179.6,125.8l18,0.1v-0.1H179.6z"/>
		<path class="st0" d="M206.5,89.9h-35.9c-5,0-9,4-9,9v35.9c0,5,4,9,9,9h35.9c5,0,9-4,9-9V98.9C215.5,93.9,211.5,89.9,206.5,89.9z
			 M197.6,125.9h-18v-18.1h18V125.9z"/>
		<rect x="179.6" y="107.9" class="st1" width="18" height="18"/>
		<path class="st2" d="M260.4,125.9h18v-0.1L260.4,125.9L260.4,125.9z"/>
		<path class="st0" d="M296.4,98.5c0-0.3,0-0.6-0.1-0.9c0-0.1,0-0.3-0.1-0.5c0-0.1,0-0.1,0-0.2c0-0.2-0.1-0.5-0.2-0.7
			c-0.1-0.3-0.2-0.6-0.3-0.8c-0.1-0.3-0.2-0.5-0.4-0.8c-0.7-1.3-1.7-2.4-2.9-3.2c-0.2-0.1-0.4-0.3-0.7-0.4c-0.3-0.2-0.7-0.4-1.1-0.5
			c-0.2-0.1-0.3-0.1-0.5-0.2c-0.7-0.2-1.5-0.4-2.2-0.4c-0.2,0-0.4,0-0.6,0h-35.9c-5,0-9,4-9,9v35.9c0,5,4,9,9,9h35.9c5,0,9-4,9-9
			V98.9C296.4,98.8,296.4,98.6,296.4,98.5z M278.4,125.9h-18v-18.1h18V125.9z"/>
		<rect x="260.4" y="107.9" class="st1" width="18" height="18"/>
		<path class="st2" d="M341.3,125.8L341.3,125.8l18,0.1v-0.1H341.3z"/>
		<path class="st0" d="M368.2,89.9h-35.9c-5,0-9,4-9,9v35.9c0,5,4,9,9,9h35.9c5,0,9-4,9-9V98.9C377.2,93.9,373.2,89.9,368.2,89.9z
			 M359.3,125.9h-18v-18.1h18V125.9z"/>
		<rect x="341.3" y="107.9" class="st1" width="18" height="18"/>
	</g>
</g>
</svg>
