<?xml version="1.0" encoding="utf-8"?>
<!-- Generator: Adobe Illustrator 19.0.0, SVG Export Plug-In . SVG Version: 6.00 Build 0)  -->
<svg version="1.1" id="Capa_1" xmlns="http://www.w3.org/2000/svg" xmlns:xlink="http://www.w3.org/1999/xlink" x="0px" y="0px"
	 viewBox="-27 -265.3 921 591" style="enable-background:new -27 -265.3 921 591;" xml:space="preserve">
<style type="text/css">
	.st0{fill:#2850A7;}
	.st1{fill:#3367D6;}
</style>
<g transform="translate(-1)">
	<g>
		<g>
			<path class="st0" d="M887.7,116.1c4.1,0,7.3-3.3,7.3-7.3c0-4.1-3.3-7.3-7.3-7.3h-7.3v-22h7.3c4.1,0,7.3-3.3,7.3-7.3
				c0-4-3.3-7.3-7.3-7.3h-7.3c0-4.1-3.3-7.3-7.3-7.3c-4.1,0-7.3,3.3-7.3,7.3H748.3c0-4.1-3.3-7.3-7.3-7.3c-4.1,0-7.3,3.3-7.3,7.3
				h-7.3c-4,0-7.3,3.3-7.3,7.3c0,4,3.3,7.3,7.3,7.3h7.3v22h-7.3c-4,0-7.3,3.3-7.3,7.3c0,4.1,3.3,7.3,7.3,7.3h7.3v7.3h-7.3
				c-4,0-7.3,3.3-7.3,7.3c0,4,3.3,7.3,7.3,7.3h7.3v22H609V99.4c10.8,6.1,23.1,9.3,35.5,9.3c41.6-0.6,74.9-34.8,74.5-76.4
				c0.2-29-16-55.6-41.8-68.7c8.5-11.6,13-25.6,13-39.9c0.3-31.7-22-59.1-53-65.4c7.9-17.3,6.5-37.4-3.6-53.5
				c-10.1-16.1-27.6-26.1-46.6-26.6c-0.2,0-0.4,0-0.6,0c-3.9-25.2-25.8-43.8-51.3-43.5c-25.5,0.3-47,19.3-50.3,44.6
				c-18.6,3.6-31.4,20.7-29.6,39.5c1.8,18.8,17.6,33.2,36.5,33.2h42.7c0.7,2.1,1.5,4.2,2.4,6.2c-31,6.3-53.3,33.8-53,65.4
				c-0.1,14.4,4.5,28.4,13,39.9c-25.8,13.1-42,39.7-41.7,68.7c-0.5,41.6,32.8,75.8,74.5,76.4c12.5,0,24.7-3.2,35.5-9.3v60.7H462.3
				c-4,0-7.3,3.3-7.3,7.3c0,4,3.3,7.3,7.3,7.3h425.3c4.1,0,7.3-3.3,7.3-7.3c0-4-3.3-7.3-7.3-7.3h-7.3v-22h7.3c4.1,0,7.3-3.3,7.3-7.3
				c0-4-3.3-7.3-7.3-7.3h-7.3v-7.3H887.7z M531.7-165.1c0,0.9,0.1,1.7,0.1,2.5h-40.2c-12.2,0-22-9.8-22-22c0-12.2,9.8-22,22-22
				c2,0,3.8-0.8,5.2-2.1c1.4-1.4,2.1-3.2,2.1-5.2c0-19.1,14.7-35.1,33.8-36.6c19.1-1.5,36.1,12,39,30.9
				C547.8-212.3,531.6-190.2,531.7-165.1z M594.3,160.1h-14.7V88.6c2.6-2.4,5.1-5.1,7.3-7.9c2.3,2.8,4.7,5.4,7.3,7.9V160.1z
				 M595.2,66.9l48.3-48.3c2.8-2.9,2.8-7.5,0-10.3c-2.8-2.8-7.5-2.9-10.3,0L594.3,47v-74.6l34.5-34.5c2.8-2.9,2.8-7.5,0-10.3
				c-2.9-2.9-7.5-2.9-10.3,0l-24.1,24.1v-33.6c0-4-3.3-7.3-7.3-7.3c-4.1,0-7.3,3.3-7.3,7.3v33.6l-24.1-24.1c-2.9-2.8-7.5-2.8-10.3,0
				c-2.8,2.9-2.9,7.5,0,10.3l34.5,34.5V47L540.8,8.2c-2.9-2.8-7.5-2.8-10.3,0c-2.9,2.8-2.9,7.5,0,10.3l48.3,48.3
				C568,83.7,549.5,94,529.5,94.1c-33.6-0.6-60.3-28.2-59.8-61.8c-0.3-26.5,16.5-50.3,41.6-58.8c2.4-0.8,4.3-2.8,4.8-5.3
				c0.6-2.5-0.2-5.1-2-6.9c-10.1-9.9-15.7-23.5-15.6-37.6c-0.5-28,21.6-51.1,49.6-51.9c3,0.3,5.9-1.3,7.4-4c1.2-2.5,1-5.4-0.6-7.6
				c-5.4-7.3-8.4-16.2-8.4-25.3c-0.4-22.8,17.8-41.6,40.6-42c22.8,0.4,41,19.2,40.6,42c0,9.1-3,18-8.4,25.3
				c-1.6,2.2-1.8,5.2-0.5,7.6c1.3,2.5,3.9,4,6.7,4c28.2,0.5,50.6,23.7,50.2,51.9c0.1,14.1-5.6,27.7-15.6,37.6
				c-1.8,1.8-2.6,4.4-2,6.9c0.6,2.5,2.4,4.5,4.8,5.3c28.2,9.8,45.3,38.4,40.9,67.9c-4.5,29.5-29.3,51.6-59.1,52.7
				C624.5,94,606,83.7,595.2,66.9z M865.7,160.1H748.3v-22h117.3V160.1z M865.7,123.4H748.3v-7.3h117.3V123.4z M865.7,101.4H748.3
				v-22h117.3V101.4z"/>
			<path class="st1" d="M531.7-165.1c0,0.9,0.1,1.7,0.1,2.5h-40.2c-12.2,0-22-9.8-22-22c0-12.2,9.8-22,22-22c2,0,3.8-0.8,5.2-2.1
				c1.4-1.4,2.1-3.2,2.1-5.2c0-19.1,14.7-35.1,33.8-36.6c19.1-1.5,36.1,12,39,30.9C547.8-212.3,531.6-190.2,531.7-165.1z"/>
			<path class="st1" d="M703.6,41.3c-4.5,29.5-29.3,51.6-59.1,52.7c-20-0.1-38.6-10.3-49.3-27.2l48.3-48.3c2.8-2.9,2.8-7.5,0-10.3
				c-2.8-2.8-7.5-2.9-10.3,0L594.3,47v-74.6l34.5-34.5c2.8-2.9,2.8-7.5,0-10.3c-2.9-2.9-7.5-2.9-10.3,0l-24.1,24.1v-33.6
				c0-4-3.3-7.3-7.3-7.3c-4.1,0-7.3,3.3-7.3,7.3v33.6l-24.1-24.1c-2.9-2.8-7.5-2.8-10.3,0c-2.8,2.9-2.9,7.5,0,10.3l34.5,34.5V47
				L540.8,8.2c-2.9-2.8-7.5-2.8-10.3,0c-2.9,2.8-2.9,7.5,0,10.3l48.3,48.3C568,83.7,549.5,94,529.5,94.1
				c-33.6-0.6-60.3-28.2-59.8-61.8c-0.3-26.5,16.5-50.3,41.6-58.8c2.4-0.8,4.3-2.8,4.8-5.3c0.6-2.5-0.2-5.1-2-6.9
				c-10.1-9.9-15.7-23.5-15.6-37.6c-0.5-28,21.6-51.1,49.6-51.9c3,0.3,5.9-1.3,7.4-4c1.2-2.5,1-5.4-0.6-7.6
				c-5.4-7.3-8.4-16.2-8.4-25.3c-0.4-22.8,17.8-41.6,40.6-42c22.8,0.4,41,19.2,40.6,42c0,9.1-3,18-8.4,25.3
				c-1.6,2.2-1.8,5.2-0.5,7.6c1.3,2.5,3.9,4,6.7,4c28.2,0.5,50.6,23.7,50.2,51.9c0.1,14.1-5.6,27.7-15.6,37.6
				c-1.8,1.8-2.6,4.4-2,6.9c0.6,2.5,2.4,4.5,4.8,5.3C690.9-16.7,708.1,11.8,703.6,41.3z"/>
			<path class="st0" d="M865.2-154.6c-3.4-25.5-25.1-44.6-50.9-44.6c-25.8,0-47.5,19.1-50.9,44.6c-18.6,3.6-31.4,20.7-29.6,39.5
				c1.8,18.8,17.6,33.2,36.5,33.2h88c18.9,0,34.7-14.4,36.5-33.2C896.6-134,883.8-151.1,865.2-154.6z M858.3-96.6h-88
				c-12.2,0-22-9.8-22-22c0-12.2,9.8-22,22-22c1.9,0,3.8-0.8,5.2-2.1c1.4-1.4,2.1-3.2,2.1-5.2c0-20.3,16.4-36.7,36.7-36.7
				c20.2,0,36.7,16.4,36.7,36.7c0,1.9,0.8,3.8,2.1,5.2c1.4,1.4,3.2,2.1,5.2,2.1c12.2,0,22,9.8,22,22
				C880.3-106.5,870.5-96.6,858.3-96.6z"/>
			<path class="st1" d="M880.3-118.6c0,12.2-9.8,22-22,22h-88c-12.2,0-22-9.8-22-22c0-12.2,9.8-22,22-22c1.9,0,3.8-0.8,5.2-2.1
				c1.4-1.4,2.1-3.2,2.1-5.2c0-20.3,16.4-36.7,36.7-36.7c20.2,0,36.7,16.4,36.7,36.7c0,1.9,0.8,3.8,2.1,5.2c1.4,1.4,3.2,2.1,5.2,2.1
				C870.5-140.6,880.3-130.8,880.3-118.6z"/>
		</g>
	</g>
</g>
<g>
	<path class="st0" d="M474.8,305.3H463V46.9l6.2,2.9c1.4,0.6,2.8,1,4.3,1c1.9,0,3.8-0.5,5.5-1.6c2.9-1.9,4.7-5.1,4.7-8.6v-41
		c0-4-2.3-7.6-5.9-9.3l-35.2-16.4v-66.4c0-5.6-4.6-10.2-10.2-10.2h-60.8c-5.6,0-10.2,4.6-10.2,10.2V-64L171-153
		c-3-1.4-6.5-1.3-9.3,0.4l-183.4,103c-3.3,1.8-5.3,5.2-5.3,8.9v41c0,3.6,1.9,7,5,8.8s7,1.9,10.2,0.1l5.5-3.1v299.2h-10.1
		c-5.6,0-10.2,4.6-10.2,10.2s4.6,10.2,10.2,10.2h491.1c5.6,0,10.2-4.6,10.2-10.2S480.4,305.3,474.8,305.3z M381.9-54.9v-27.4h40.3
		v46.6l-40.3-18.8C381.9-54.7,381.9-54.8,381.9-54.9z M-6.6-17.1v-17.6l173.7-97.5L463.3,6v18.5L171-111.9c-1.4-0.6-2.8-1-4.3-1
		c-1.7,0-3.5,0.4-5,1.3L-6.6-17.1z M442.5,305.3H14.2V-5c0-0.1,0-0.2,0-0.3l152.9-85.9L442.5,37.3V305.3z"/>
	<path class="st1" d="M422.3-82.3v46.6L382-54.5c0-0.1,0-0.2,0-0.4v-27.4H422.3z"/>
	<path class="st1" d="M463.3,6v18.5L171-111.9c-1.4-0.6-2.8-1-4.3-1c-1.7,0-3.5,0.4-5,1.3L-6.6-17.1v-17.6l173.7-97.5L463.3,6z"/>
	<path class="st1" d="M167.1-91.2L14.2-5.3c0,0.1,0,0.2,0,0.3v310.3h428.4v-268L167.1-91.2z M218.2,274.9c0,5.6-4.6,10.2-10.2,10.2
		H45c-5.6,0-10.2-4.6-10.2-10.2V142c0-5.6,4.6-10.2,10.2-10.2h163c5.6,0,10.2,4.6,10.2,10.2V274.9z M218.2,101.4
		c0,5.6-4.6,10.2-10.2,10.2H45c-5.6,0-10.2-4.6-10.2-10.2V19.5c0,0,0,0,0-0.1c-0.1-3.7,1.8-7.2,5.2-9.1l126-70.8
		c0.2-0.1,0.4-0.2,0.5-0.3c2.9-2.2,6.9-2.7,10.4-1l35.3,16.5c0.1,0,0.1,0.1,0.2,0.1c0.2,0.1,0.4,0.2,0.5,0.3s0.3,0.2,0.4,0.2
		c0.1,0.1,0.3,0.2,0.4,0.3c0.1,0.1,0.3,0.2,0.4,0.3c0.1,0.1,0.2,0.2,0.3,0.3s0.3,0.3,0.4,0.4l0.3,0.3c0.1,0.1,0.3,0.3,0.4,0.4
		c0.1,0.1,0.2,0.2,0.3,0.3s0.2,0.3,0.3,0.4c0.1,0.1,0.2,0.3,0.3,0.4c0.1,0.1,0.2,0.3,0.3,0.4c0.1,0.2,0.2,0.3,0.3,0.5
		c0.1,0.1,0.1,0.3,0.2,0.4c0.1,0.2,0.2,0.3,0.2,0.5c0,0.1,0.1,0.2,0.1,0.4c0.1,0.2,0.1,0.4,0.2,0.6c0,0.1,0.1,0.3,0.1,0.4
		c0,0.2,0.1,0.3,0.1,0.5s0.1,0.3,0.1,0.5s0,0.3,0,0.5s0,0.4,0,0.6c0,0.1,0,0.2,0,0.2v137.5H218.2z M422.4,274.9
		c0,5.6-4.6,10.2-10.2,10.2H248.8c-5.6,0-10.2-4.6-10.2-10.2V142c0-5.6,4.6-10.2,10.2-10.2h163.4c5.6,0,10.2,4.6,10.2,10.2
		L422.4,274.9L422.4,274.9z M422.4,101.4c0,5.6-4.6,10.2-10.2,10.2H248.8c-5.6,0-10.2-4.6-10.2-10.2V-16.7c0-5.8,4.8-10.4,10.5-10.2
		c1.6-0.1,3.2,0.2,4.7,1L416.5,50c3.6,1.7,5.9,5.3,5.9,9.3V101.4z"/>
	<path class="st0" d="M207.9,131.8h-163c-5.6,0-10.2,4.6-10.2,10.2v132.9c0,5.6,4.6,10.2,10.2,10.2h163c5.6,0,10.2-4.6,10.2-10.2
		V142C218.2,136.4,213.6,131.8,207.9,131.8z M116.2,264.6H55.1V152.2h61.1V264.6z M197.7,264.6h-61.1V152.2h61.1L197.7,264.6
		L197.7,264.6z"/>
	<rect x="55.1" y="152.2" class="st1" width="61.1" height="112.4"/>
	<rect x="136.6" y="152.2" class="st1" width="61.1" height="112.4"/>
	<path class="st0" d="M412.3,131.8H248.8c-5.6,0-10.2,4.6-10.2,10.2v132.9c0,5.6,4.6,10.2,10.2,10.2h163.4c5.6,0,10.2-4.6,10.2-10.2
		V142C422.4,136.4,417.9,131.8,412.3,131.8z M320.3,264.6H259V152.2h61.3V264.6z M402,264.6h-61.3V152.2H402V264.6z"/>
	<rect x="259" y="152.2" class="st1" width="61.3" height="112.4"/>
	<rect x="340.8" y="152.2" class="st1" width="61.3" height="112.4"/>
	<path class="st0" d="M416.5,50L253.8-25.9c-1.5-0.7-3.1-1-4.7-1c-5.7-0.2-10.5,4.5-10.5,10.2v118.1c0,5.6,4.6,10.2,10.2,10.2h163.4
		c5.6,0,10.2-4.6,10.2-10.2V59.3C422.4,55.3,420.1,51.7,416.5,50z M320.3,91.2H259V-1l61.3,28.6V91.2z M402,91.2h-61.3v-54L402,65.8
		V91.2z"/>
	<polygon class="st1" points="402,65.8 402,91.2 340.8,91.2 340.8,37.2 	"/>
	<polygon class="st1" points="320.3,27.6 320.3,91.2 259,91.2 259,-1 	"/>
	<path class="st0" d="M218.1-36.3c0-0.2,0-0.4,0-0.6c0-0.2,0-0.3,0-0.5s0-0.3-0.1-0.5c0-0.2-0.1-0.3-0.1-0.5c0-0.1-0.1-0.3-0.1-0.4
		c0-0.2-0.1-0.4-0.2-0.6c0-0.1-0.1-0.3-0.1-0.4c-0.1-0.2-0.1-0.4-0.2-0.5c-0.1-0.1-0.1-0.3-0.2-0.4c-0.1-0.2-0.2-0.3-0.3-0.5
		c-0.1-0.1-0.2-0.3-0.3-0.4c-0.1-0.1-0.2-0.3-0.3-0.4c-0.1-0.1-0.2-0.3-0.3-0.4c-0.1-0.1-0.2-0.2-0.3-0.3s-0.3-0.3-0.4-0.4l-0.3-0.3
		c-0.1-0.1-0.3-0.3-0.4-0.4c-0.1-0.1-0.2-0.2-0.3-0.3s-0.3-0.2-0.4-0.3c-0.1-0.1-0.3-0.2-0.4-0.3c-0.1-0.1-0.3-0.1-0.4-0.2
		c-0.2-0.1-0.4-0.2-0.5-0.3c-0.1,0-0.1-0.1-0.2-0.1l-35.4-16.5c-3.5-1.6-7.5-1.1-10.4,1c-0.2,0.1-0.4,0.2-0.5,0.3L39.9,10.3
		c-3.4,1.9-5.3,5.5-5.2,9.1c0,0,0,0,0,0.1v81.9c0,5.6,4.6,10.2,10.2,10.2h163c5.6,0,10.2-4.6,10.2-10.2V-36.1
		C218.2-36.2,218.1-36.2,218.1-36.3z M116.2,91.2H55.1v-66l61.1-34.3V91.2z M197.7,91.2h-61.1V-20.6l36.5-20.5l24.6,11.5L197.7,91.2
		L197.7,91.2z"/>
	<polygon class="st1" points="197.7,-29.6 197.7,91.2 136.6,91.2 136.6,-20.6 173.1,-41.1 	"/>
	<polygon class="st1" points="116.2,-9.1 116.2,91.2 55.1,91.2 55.1,25.2 	"/>
</g>
</svg>
