<?xml version="1.0" encoding="utf-8"?>
<!-- Generator: Adobe Illustrator 21.0.0, SVG Export Plug-In . SVG Version: 6.00 Build 0)  -->
<svg version="1.1" id="Layer_1" xmlns="http://www.w3.org/2000/svg" xmlns:xlink="http://www.w3.org/1999/xlink" x="0px" y="0px"
	 viewBox="0 0 512 512" style="enable-background:new 0 0 512 512;" xml:space="preserve">
<style type="text/css">
	.st0{fill:#254DA9;}
	.st1{fill:#2F63D9;}
</style>
<g>
	<g>
		<g>
			<path class="st0" d="M512,306.4v-3.3c0-11.9-9.7-21.6-21.6-21.6h-7.8l-6.7-142.1c-0.2-4.5-3.9-7.9-8.5-7.7
				c-4.5,0.2-7.9,4-7.7,8.5l6.7,141.4h-66l9.4-199.3h47.1l1.4,29.6c0.2,4.5,4,7.9,8.5,7.7c4.5-0.2,7.9-4,7.7-8.5l-1.7-36.5
				c0-0.3,0-0.5,0-0.8l-1.5-30.3c0-0.2,0-0.3,0-0.5L470,16.2h2.2c4.5,0,8.1-3.6,8.1-8.1c0-4.5-3.6-8.1-8.1-8.1h-77.7
				c-4.5,0-8.1,3.6-8.1,8.1c0,4.5,3.6,8.1,8.1,8.1h2.2l-1.3,26.7c0,0.2,0,0.3,0,0.5L394,73.7c0,0.3,0,0.6,0,0.8l-9.8,207h-10.6
				l-9.8-207c0-0.3,0-0.5,0-0.8l-1.5-30.3c0-0.2,0-0.3,0-0.5l-1.3-26.7h2.2c4.5,0,8.1-3.6,8.1-8.1c0-4.5-3.6-8.1-8.1-8.1h-77.7
				c-4.5,0-8.1,3.6-8.1,8.1c0,4.5,3.6,8.1,8.1,8.1h2.2l-1.3,26.7c0,0.2,0,0.3,0,0.5l-1.5,30.3c0,0.3,0,0.6,0,0.8l-9.8,207h-12.2v-18
				c0-3-1.6-5.7-4.3-7.1c-2.6-1.4-5.8-1.3-8.3,0.4l-64.9,42.8v-36c0-3-1.6-5.7-4.2-7.1c-2.6-1.4-5.8-1.3-8.3,0.4l-64.9,42.8v-36
				c0-3-1.6-5.7-4.2-7.1c-2.6-1.4-5.8-1.3-8.3,0.4l-77.4,51c-2.3,1.5-3.6,4-3.6,6.8v152.2C6.1,469.6,0,477.7,0,487.1v3.3
				C0,502.3,9.7,512,21.6,512h468.8c11.9,0,21.6-9.7,21.6-21.6v-3.3c0-9.8-6.6-18.1-15.6-20.7V327.1
				C505.4,324.5,512,316.2,512,306.4z M412.9,16.2h40.9l0.9,19.5H412L412.9,16.2z M411.2,51.8h44.3l0.7,14.2h-45.6L411.2,51.8z
				 M303.8,16.2h40.9l0.9,19.5h-42.7L303.8,16.2z M302.2,51.8h44.3l0.7,14.2h-45.6L302.2,51.8z M300.7,82.1h47.2l9.4,199.3h-66
				L300.7,82.1z M185.5,318.8l61.2-40.4v187h-61.2V318.8z M108.1,318.8l61.2-40.4v187h-61.2V318.8z M30.7,318.8L92,278.5v187H30.7
				V318.8z M495.8,490.4c0,3-2.4,5.4-5.4,5.4H21.6c-3,0-5.4-2.4-5.4-5.4v-3.3c0-3,2.4-5.4,5.4-5.4h468.8c3,0,5.4,2.4,5.4,5.4V490.4z
				 M495.8,306.4c0,3-2.4,5.4-5.4,5.4h-61.2c-4.5,0-8.1,3.6-8.1,8.1c0,4.5,3.6,8.1,8.1,8.1h51v137.5H262.9V328h138.6
				c4.5,0,8.1-3.6,8.1-8.1c0-4.5-3.6-8.1-8.1-8.1H262.9v-14.2h227.5c3,0,5.4,2.4,5.4,5.4V306.4z"/>
			<polygon class="st1" points="347.1,66 301.5,66 302.2,51.8 346.4,51.8 			"/>
			<polygon class="st1" points="345.7,35.6 302.9,35.6 303.8,16.2 344.8,16.2 			"/>
			<polygon class="st1" points="454.7,35.6 412,35.6 412.9,16.2 453.8,16.2 			"/>
			<polygon class="st1" points="456.2,66 410.5,66 411.2,51.8 455.5,51.8 			"/>
			<polygon class="st1" points="357.3,281.5 291.3,281.5 300.7,82.1 347.9,82.1 			"/>
			<path class="st1" d="M495.8,487.1v3.3c0,3-2.4,5.4-5.4,5.4H21.6c-3,0-5.4-2.4-5.4-5.4v-3.3c0-3,2.4-5.4,5.4-5.4h468.8
				C493.4,481.7,495.8,484.1,495.8,487.1z"/>
			<path class="st1" d="M490.4,297.6H262.9v14.2h138.6c4.5,0,8.1,3.6,8.1,8.1c0,4.5-3.6,8.1-8.1,8.1H262.9v137.5h217.3V328h-51
				c-4.5,0-8.1-3.6-8.1-8.1c0-4.5,3.6-8.1,8.1-8.1h61.2c3,0,5.4-2.4,5.4-5.4v-3.3C495.8,300.1,493.4,297.6,490.4,297.6z
				 M457.9,342.5c4.5,0,8.1,3.6,8.1,8.1v92.2c0,4.5-3.6,8.1-8.1,8.1H286c-4.5,0-8.1-3.6-8.1-8.1v-92.2c0-4.5,3.6-8.1,8.1-8.1H457.9z
				"/>
			<path class="st1" d="M185.5,318.8v146.7h61.2v-187L185.5,318.8z M228.7,385h-25.2c-4.5,0-8.1-3.6-8.1-8.1c0-4.5,3.6-8.1,8.1-8.1
				h25.2c4.5,0,8.1,3.6,8.1,8.1C236.8,381.4,233.2,385,228.7,385z M228.7,358.7h-25.2c-4.5,0-8.1-3.6-8.1-8.1c0-4.5,3.6-8.1,8.1-8.1
				h25.2c4.5,0,8.1,3.6,8.1,8.1C236.8,355.1,233.2,358.7,228.7,358.7z"/>
			<path class="st1" d="M30.7,318.8v146.7H92v-187L30.7,318.8z M73.9,385H48.8c-4.5,0-8.1-3.6-8.1-8.1c0-4.5,3.6-8.1,8.1-8.1h25.1
				c4.5,0,8.1,3.6,8.1,8.1C82,381.4,78.4,385,73.9,385z M73.9,358.7H48.8c-4.5,0-8.1-3.6-8.1-8.1c0-4.5,3.6-8.1,8.1-8.1h25.1
				c4.5,0,8.1,3.6,8.1,8.1C82,355.1,78.4,358.7,73.9,358.7z"/>
			<path class="st1" d="M108.1,318.8v146.7h61.2v-187L108.1,318.8z M151.3,385h-25.1c-4.5,0-8.1-3.6-8.1-8.1c0-4.5,3.6-8.1,8.1-8.1
				h25.1c4.5,0,8.1,3.6,8.1,8.1C159.4,381.4,155.8,385,151.3,385z M151.3,358.7h-25.1c-4.5,0-8.1-3.6-8.1-8.1c0-4.5,3.6-8.1,8.1-8.1
				h25.1c4.5,0,8.1,3.6,8.1,8.1C159.4,355.1,155.8,358.7,151.3,358.7z"/>
			<path class="st0" d="M457.9,342.5H286c-4.5,0-8.1,3.6-8.1,8.1v92.2c0,4.5,3.6,8.1,8.1,8.1h171.9c4.5,0,8.1-3.6,8.1-8.1v-92.2
				C466,346.2,462.4,342.5,457.9,342.5z M335.2,434.8h-41.1v-30h41.1V434.8z M335.2,388.7h-41.1v-29.9h41.1V388.7z M392.5,434.8
				h-41.1v-30h41.1V434.8z M392.5,388.7h-41.1v-29.9h41.1V388.7z M449.8,434.8h-41.1v-30h41.1V434.8z M449.8,388.7h-41.1v-29.9h41.1
				V388.7z"/>
			<rect x="408.7" y="358.7" class="st1" width="41.1" height="29.9"/>
			<rect x="408.7" y="404.8" class="st1" width="41.1" height="30"/>
			<rect x="351.4" y="404.8" class="st1" width="41.1" height="30"/>
			<rect x="351.4" y="358.7" class="st1" width="41.1" height="29.9"/>
			<rect x="294.1" y="358.7" class="st1" width="41.1" height="29.9"/>
			<rect x="294.1" y="404.8" class="st1" width="41.1" height="30"/>
			<path class="st0" d="M236.8,350.6c0,4.5-3.6,8.1-8.1,8.1h-25.2c-4.5,0-8.1-3.6-8.1-8.1c0-4.5,3.6-8.1,8.1-8.1h25.2
				C233.2,342.5,236.8,346.2,236.8,350.6z"/>
			<path class="st0" d="M236.8,376.9c0,4.5-3.6,8.1-8.1,8.1h-25.2c-4.5,0-8.1-3.6-8.1-8.1c0-4.5,3.6-8.1,8.1-8.1h25.2
				C233.2,368.8,236.8,372.5,236.8,376.9z"/>
			<path class="st0" d="M159.4,350.6c0,4.5-3.6,8.1-8.1,8.1h-25.1c-4.5,0-8.1-3.6-8.1-8.1c0-4.5,3.6-8.1,8.1-8.1h25.1
				C155.8,342.5,159.4,346.2,159.4,350.6z"/>
			<path class="st0" d="M159.4,376.9c0,4.5-3.6,8.1-8.1,8.1h-25.1c-4.5,0-8.1-3.6-8.1-8.1c0-4.5,3.6-8.1,8.1-8.1h25.1
				C155.8,368.8,159.4,372.5,159.4,376.9z"/>
			<path class="st0" d="M82,350.6c0,4.5-3.6,8.1-8.1,8.1H48.8c-4.5,0-8.1-3.6-8.1-8.1c0-4.5,3.6-8.1,8.1-8.1h25.1
				C78.4,342.5,82,346.2,82,350.6z"/>
			<path class="st0" d="M82,376.9c0,4.5-3.6,8.1-8.1,8.1H48.8c-4.5,0-8.1-3.6-8.1-8.1c0-4.5,3.6-8.1,8.1-8.1h25.1
				C78.4,368.8,82,372.5,82,376.9z"/>
		</g>
	</g>
</g>
</svg>
