<?xml version="1.0" encoding="utf-8"?>
<!-- Generator: Adobe Illustrator 19.0.0, SVG Export Plug-In . SVG Version: 6.00 Build 0)  -->
<svg version="1.1" id="Capa_1" xmlns="http://www.w3.org/2000/svg" xmlns:xlink="http://www.w3.org/1999/xlink" x="0px" y="0px"
	 viewBox="-27 -186.3 512 512" style="enable-background:new -27 -186.3 512 512;" xml:space="preserve">
<style type="text/css">
	.st0{fill:#2850A7;}
	.st1{fill:#3367D6;}
</style>
<g>
	<g>
		<g>
			<path class="st0" d="M476.7-37.6c4.6,0,8.3-3.7,8.3-8.3V-178c0-4.6-3.7-8.3-8.3-8.3H-18.7c-4.6,0-8.3,3.7-8.3,8.3v132.1
				c0,4.6,3.7,8.3,8.3,8.3h8.3v297.3h-8.3c-4.6,0-8.3,3.7-8.3,8.3v49.5c0,4.6,3.7,8.3,8.3,8.3h495.5c4.6,0,8.3-3.7,8.3-8.3V268
				c0-4.6-3.7-8.3-8.3-8.3h-8.3V-37.6H476.7z M435.5-169.7h33v82.6h-33V-169.7z M385.9-169.7h33v82.6h-33V-169.7z M336.3-169.7h33
				v82.6h-33V-169.7z M286.8-169.7h33v82.6h-33V-169.7z M237.3-169.7h33v82.6h-33L237.3-169.7L237.3-169.7z M187.7-169.7h33v82.6
				h-33V-169.7z M138.2-169.7h33v82.6h-33V-169.7z M88.6-169.7h33v82.6h-33V-169.7z M39.1-169.7h33v82.6h-33V-169.7z M-10.5-169.7
				h33v82.6h-33V-169.7z M468.5,309.2h-479v-33h479V309.2z M328.1,94.5H129.9c-4.6,0-8.3,3.7-8.3,8.3v156.9H6V-37.6h446v297.3H336.3
				V102.8C336.3,98.2,332.7,94.5,328.1,94.5z M319.8,111v148.7h-82.6V111H319.8z M220.7,111v148.7h-82.6V111H220.7z M-10.5-54.1
				v-16.5h479v16.5H-10.5z"/>
			<rect x="-10.5" y="-70.7" class="st1" width="479" height="16.5"/>
			<rect x="385.9" y="-169.7" class="st1" width="33" height="82.6"/>
			<rect x="435.5" y="-169.7" class="st1" width="33" height="82.6"/>
			<rect x="-10.5" y="-169.7" class="st1" width="33" height="82.6"/>
			<rect x="39.1" y="-169.7" class="st1" width="33" height="82.6"/>
			<rect x="88.6" y="-169.7" class="st1" width="33" height="82.6"/>
			<rect x="138.2" y="-169.7" class="st1" width="33" height="82.6"/>
			<rect x="187.7" y="-169.7" class="st1" width="33" height="82.6"/>
			<rect x="237.3" y="-169.7" class="st1" width="33" height="82.6"/>
			<rect x="-10.5" y="276.2" class="st1" width="479" height="33"/>
			<rect x="286.8" y="-169.7" class="st1" width="33" height="82.6"/>
			<rect x="336.3" y="-169.7" class="st1" width="33" height="82.6"/>
			<path class="st1" d="M138.2,111v148.7h82.6V111H138.2z M204.2,210.1h-16.5v-33h16.5V210.1z"/>
			<path class="st1" d="M237.3,111v148.7h82.6V111H237.3z M270.3,210.1h-16.5v-33h16.5V210.1z"/>
			<path class="st1" d="M6-37.6v297.3h115.6V102.8c0-4.6,3.7-8.3,8.3-8.3H328c4.6,0,8.3,3.7,8.3,8.3v156.9H452V-37.6H6z M402.4,53.2
				c0,4.6-3.7,8.3-8.3,8.3h-24.8v8.3c0,4.6-3.7,8.3-8.3,8.3h-33c-4.6,0-8.3-3.7-8.3-8.3V53.2H138.2v16.5c0,4.6-3.7,8.3-8.3,8.3h-33
				c-4.6,0-8.3-3.7-8.3-8.3v-8.3H63.8c-4.6,0-8.3-3.7-8.3-8.3V3.7c0-4.6,3.7-8.3,8.3-8.3h24.8v-8.3c0-4.6,3.7-8.3,8.3-8.3h33
				c4.6,0,8.3,3.7,8.3,8.3V3.7h181.7v-16.5c0-4.6,3.7-8.3,8.3-8.3h33c4.6,0,8.3,3.7,8.3,8.3v8.3h24.8c4.6,0,8.3,3.7,8.3,8.3v49.4
				H402.4z"/>
			<path class="st0" d="M394.2-4.6h-24.8v-8.3c0-4.6-3.7-8.3-8.3-8.3h-33c-4.6,0-8.3,3.7-8.3,8.3V3.7H138.2v-16.5
				c0-4.6-3.7-8.3-8.3-8.3h-33c-4.6,0-8.3,3.7-8.3,8.3v8.3H63.8c-4.6,0-8.3,3.7-8.3,8.3v49.5c0,4.6,3.7,8.3,8.3,8.3h24.8v8.3
				c0,4.6,3.7,8.3,8.3,8.3h33c4.6,0,8.3-3.7,8.3-8.3V53.2h181.7v16.5c0,4.6,3.7,8.3,8.3,8.3h33c4.6,0,8.3-3.7,8.3-8.3v-8.3h24.8
				c4.6,0,8.3-3.7,8.3-8.3V3.7C402.4-0.9,398.7-4.6,394.2-4.6z M88.6,45H72.1V12h16.5V45z M121.7,61.5h-16.5V-4.6h16.5V61.5z
				 M319.8,36.7H138.2V20.2h181.7v16.5H319.8z M352.9,61.5h-16.5V-4.6h16.5V61.5z M385.9,45h-16.5V12h16.5V45z"/>
			<rect x="336.3" y="-4.6" class="st1" width="16.5" height="66.1"/>
			<rect x="369.4" y="11.9" class="st1" width="16.5" height="33"/>
			<rect x="72.1" y="11.9" class="st1" width="16.5" height="33"/>
			<rect x="105.1" y="-4.6" class="st1" width="16.5" height="66.1"/>
			<rect x="138.2" y="20.2" class="st1" width="181.7" height="16.5"/>
			<rect x="187.7" y="177.1" class="st0" width="16.5" height="33"/>
			<rect x="253.8" y="177.1" class="st0" width="16.5" height="33"/>
		</g>
	</g>
</g>
</svg>
