<?xml version="1.0" encoding="utf-8"?>
<!-- Generator: Adobe Illustrator 19.0.0, SVG Export Plug-In . SVG Version: 6.00 Build 0)  -->
<svg version="1.1" id="Capa_1" xmlns="http://www.w3.org/2000/svg" xmlns:xlink="http://www.w3.org/1999/xlink" x="0px" y="0px"
	 viewBox="-43 -170.3 746 480" style="enable-background:new -43 -170.3 746 480;" xml:space="preserve">
<style type="text/css">
	.st0{fill:#FFFFFF;}
	.st1{fill:#3367D6;}
</style>
<g>
	<g>
		<path class="st0" d="M696,23.9c0-13-5.7-25.4-15.6-33.8c3.8-6.2,5.8-13.2,5.7-20.5c0-20-15-36.8-34.9-39.2
			c0.2-1.7,0.3-3.5,0.3-5.2c0-21.7-17.5-39.4-39.3-39.5c-12.8,0-24.8,6.2-32.2,16.6c-12.6-17.7-37.1-21.9-54.9-9.4
			c-3.6,2.6-6.8,5.7-9.3,9.4c-12.6-17.7-37.2-21.8-55-9.2c-11.9,8.5-18.1,22.8-16.2,37.3c-19.9,2.4-34.8,19.2-34.9,39.2
			c0,7.2,2,14.3,5.7,20.5c-18.7,15.9-20.9,43.9-5,62.6c1.5,1.8,3.2,3.5,5,5c-3.8,6.2-5.8,13.3-5.7,20.5c0,21.8,17.7,39.4,39.5,39.5
			h29.6v54.3h-14.8c-2.7,0-4.9,2.2-4.9,4.9c0,2.7,2.2,4.9,4.9,4.9h167.7c2.7,0,4.9-2.2,4.9-4.9c0-2.7-2.2-4.9-4.9-4.9h-14.8v-54.3
			h29.6c21.8,0,39.4-17.7,39.5-39.5c0-7.2-2-14.3-5.7-20.5C690.3,49.2,696,36.9,696,23.9z M449.3,107.7c-16.3,0-29.5-13.2-29.6-29.6
			c0-6.7,2.3-13.2,6.5-18.4c1.7-2.1,1.3-5.2-0.8-6.9c-0.1-0.1-0.2-0.2-0.3-0.2c-15.8-10.6-20-32.1-9.4-47.9c2.5-3.7,5.7-6.9,9.4-9.4
			c2.3-1.5,2.9-4.6,1.3-6.9c-0.1-0.1-0.2-0.2-0.2-0.3c-4.2-5.2-6.5-11.7-6.5-18.5c0-16.3,13.3-29.6,29.6-29.6l1.3,0.1
			c1.6,0.1,3.1-0.6,4.1-1.9c1-1.3,1.3-2.9,0.8-4.4c-4.6-15.7,4.3-32.1,20-36.8c13.9-4.1,28.8,2.5,35.1,15.6c0,0.1,0,0.1,0,0.2
			c-0.6,1.8-1.1,3.7-1.4,5.7c-0.1,0.3-0.1,0.7-0.2,1c-0.6,3.6-0.6,7.3-0.1,11C489-67.3,474-50.4,474-30.4c0,7.2,2,14.3,5.7,20.5
			c-0.1,0.1-0.2,0.2-0.3,0.2l-23-23c-2-1.9-5.1-1.8-7,0.1c-1.8,1.9-1.8,4.9,0,6.9l23.3,23.3c-13.8,18.8-10.8,45,6.9,60.1
			c-1.9,3.1-3.4,6.5-4.3,10L457.8,50c-2-1.9-5.1-1.8-7,0.1c-1.8,1.9-1.8,4.9,0,6.8l23.3,23.3c0,0.7,0.1,1.4,0.1,2
			c0.1,0.5,0.2,0.9,0.2,1.4c0.1,0.9,0.3,1.8,0.5,2.7c0.1,0.5,0.3,1,0.4,1.6c0.2,0.8,0.4,1.6,0.7,2.3c0.2,0.5,0.4,1.1,0.6,1.6
			c0.3,0.7,0.5,1.4,0.9,2.1c0.2,0.5,0.5,1.1,0.8,1.6c0.3,0.7,0.7,1.3,1,2c0.3,0.5,0.6,1,0.9,1.5c0.4,0.6,0.8,1.2,1.2,1.8
			c0.3,0.5,0.7,0.9,1.1,1.4c0.5,0.6,0.9,1.1,1.4,1.7c0.4,0.4,0.8,0.9,1.2,1.3c0.5,0.5,1,1,1.6,1.5c0.3,0.3,0.5,0.5,0.8,0.8H449.3z
			 M543.1,171.9h-54.3v-54.3h54.3V171.9z M548-50.1c-2.7,0-4.9,2.2-4.9,4.9v35l-22.4-22.4c-2-1.9-5.1-1.8-7,0.1
			c-1.8,1.9-1.8,4.9,0,6.9l29.4,29.4v67.5L521.9,50c-2-1.9-5.1-1.8-7,0.1c-1.8,1.9-1.8,4.9,0,6.8l28.2,28.2v22.6h-29.6
			c-16.3,0-29.6-13.3-29.6-29.6c0-6.7,2.3-13.2,6.5-18.4c1.7-2.1,1.3-5.2-0.8-6.9c-0.1-0.1-0.2-0.2-0.3-0.2
			c-15.8-10.6-20-32.1-9.4-47.9c2.5-3.7,5.7-6.9,9.4-9.4c2.3-1.5,2.9-4.6,1.3-6.9c-0.1-0.1-0.2-0.2-0.2-0.3
			c-4.2-5.2-6.5-11.7-6.5-18.5c0-16.3,13.3-29.6,29.6-29.6l1.3,0.1c1.6,0.1,3.1-0.6,4.1-1.9c1-1.3,1.3-2.9,0.8-4.4
			c-0.8-2.8-1.3-5.6-1.3-8.5c0-1.8,0.2-3.6,0.5-5.4c0-0.1,0-0.1,0-0.2c0.4-1.8,0.9-3.5,1.5-5.2c4.5-11.3,15.4-18.7,27.5-18.8
			c12.2,0,23.1,7.5,27.5,18.8c0.7,1.7,1.2,3.5,1.5,5.3c0,0.1,0,0.1,0,0.2c0.3,1.8,0.5,3.6,0.5,5.4c0,2.9-0.4,5.8-1.3,8.5
			c-0.5,1.5-0.2,3.2,0.8,4.4c1,1.3,2.5,2,4.1,1.9l1.3-0.1c16.3,0,29.6,13.3,29.6,29.6c0,6.7-2.3,13.2-6.5,18.5
			c-1.7,2.1-1.4,5.2,0.8,6.9c0.1,0.1,0.2,0.2,0.3,0.2c15.8,10.6,20,32.1,9.4,47.9c-2.5,3.7-5.7,6.9-9.4,9.4
			c-2.3,1.5-2.8,4.6-1.3,6.8c0.1,0.1,0.2,0.2,0.2,0.3c4.2,5.2,6.5,11.7,6.5,18.4c0,16.3-13.3,29.6-29.6,29.6h-29.6V40.4
			c0.4-0.2,0.7-0.4,1-0.7L586,7.6c1.9-2,1.8-5.1-0.1-7c-1.9-1.8-4.9-1.8-6.9,0l-26.1,26.1v-72C552.9-47.9,550.7-50.1,548-50.1z
			 M607.2,171.9h-54.3v-54.3h54.3V171.9z M669.5,59.4c0.1,0.1,0.2,0.2,0.2,0.3c4.2,5.2,6.5,11.7,6.5,18.4
			c0,16.3-13.3,29.6-29.6,29.6h-38.1c0.3-0.2,0.5-0.5,0.8-0.8c0.5-0.5,1.1-1,1.6-1.5c0.4-0.4,0.8-0.9,1.2-1.3c0.5-0.5,1-1.1,1.4-1.7
			c0.4-0.5,0.7-0.9,1.1-1.4c0.4-0.6,0.8-1.2,1.2-1.8c0.3-0.5,0.6-1,0.9-1.5c0.4-0.7,0.7-1.3,1.1-2c0.3-0.5,0.5-1,0.8-1.6
			c0.3-0.7,0.6-1.4,0.9-2.2c0.2-0.5,0.4-1.1,0.6-1.6c0.3-0.8,0.5-1.6,0.7-2.4c0.1-0.5,0.3-1,0.4-1.6c0.2-0.9,0.3-1.8,0.5-2.7
			c0.1-0.5,0.2-0.9,0.2-1.4c0.1-1.4,0.2-2.8,0.2-4.2c0-7.2-2-14.3-5.7-20.5c9.3-8,14.9-19.4,15.5-31.6l18.4-18.4
			c1.9-2,1.8-5.1-0.1-7c-1.9-1.8-5-1.8-6.9,0l-12.6,12.6c-2.2-9-7.2-17.1-14.3-23.2c3.8-6.2,5.8-13.3,5.7-20.5
			c0-20-15-36.8-34.9-39.2c0.5-3.7,0.5-7.4-0.1-11c0-0.3-0.1-0.7-0.2-1c-0.3-1.9-0.8-3.8-1.4-5.7c0-0.1,0-0.1,0-0.2
			c7-14.8,24.7-21,39.5-13.9c13.1,6.3,19.7,21.1,15.6,35.1c-0.5,1.5-0.2,3.2,0.8,4.4c1,1.3,2.5,2,4.1,1.9l1.3-0.1
			c16.3,0,29.6,13.3,29.6,29.6c0,6.7-2.3,13.2-6.5,18.5c-1.7,2.1-1.4,5.2,0.8,6.9c0.1,0.1,0.2,0.2,0.3,0.2
			c15.8,10.6,20,32.1,9.4,47.9c-2.5,3.7-5.7,6.9-9.4,9.4C668.6,54,668,57.1,669.5,59.4z"/>
		<path class="st1" d="M669.5,59.4c0.1,0.1,0.2,0.2,0.2,0.3c4.2,5.2,6.5,11.7,6.5,18.4c0,16.3-13.3,29.6-29.6,29.6h-38.1
			c0.3-0.2,0.5-0.5,0.8-0.8c0.5-0.5,1.1-1,1.6-1.5c0.4-0.4,0.8-0.9,1.2-1.3c0.5-0.5,1-1.1,1.4-1.7c0.4-0.5,0.7-0.9,1.1-1.4
			c0.4-0.6,0.8-1.2,1.2-1.8c0.3-0.5,0.6-1,0.9-1.5c0.4-0.7,0.7-1.3,1.1-2c0.3-0.5,0.5-1,0.8-1.6c0.3-0.7,0.6-1.4,0.9-2.2
			c0.2-0.5,0.4-1.1,0.6-1.6c0.3-0.8,0.5-1.6,0.7-2.4c0.1-0.5,0.3-1,0.4-1.6c0.2-0.9,0.3-1.8,0.5-2.7c0.1-0.5,0.2-0.9,0.2-1.4
			c0.1-1.4,0.2-2.8,0.2-4.2c0-7.2-2-14.3-5.7-20.5c9.3-8,14.9-19.4,15.5-31.6l18.4-18.4c1.9-2,1.8-5.1-0.1-7c-1.9-1.8-5-1.8-6.9,0
			l-12.6,12.6c-2.2-9-7.2-17.1-14.3-23.2c3.8-6.2,5.8-13.3,5.7-20.5c0-20-15-36.8-34.9-39.2c0.5-3.7,0.5-7.4-0.1-11
			c0-0.3-0.1-0.7-0.2-1c-0.3-1.9-0.8-3.8-1.4-5.7c0-0.1,0-0.1,0-0.2c7-14.8,24.7-21,39.5-13.9c13.1,6.3,19.7,21.1,15.6,35.1
			c-0.5,1.5-0.2,3.2,0.8,4.4c1,1.3,2.5,2,4.1,1.9l1.3-0.1c16.3,0,29.6,13.3,29.6,29.6c0,6.7-2.3,13.2-6.5,18.5
			c-1.7,2.1-1.4,5.2,0.8,6.9c0.1,0.1,0.2,0.2,0.3,0.2c15.8,10.6,20,32.1,9.4,47.9c-2.5,3.7-5.7,6.9-9.4,9.4
			C668.6,54,668,57.1,669.5,59.4z"/>
		<path class="st1" d="M605.4,59.4c0.1,0.1,0.2,0.2,0.2,0.3c4.2,5.2,6.5,11.7,6.5,18.4c0,16.3-13.3,29.6-29.6,29.6h-29.6V40.4
			c0.4-0.2,0.7-0.4,1-0.7L586,7.6c1.9-2,1.8-5.1-0.1-7c-1.9-1.8-4.9-1.8-6.9,0l-26.1,26.1v-72c0-2.7-2.2-4.9-4.9-4.9
			c-2.7,0-4.9,2.2-4.9,4.9v35l-22.4-22.4c-2-1.9-5.1-1.8-7,0.1c-1.8,1.9-1.8,4.9,0,6.9l29.4,29.4v67.5L521.9,50
			c-2-1.9-5.1-1.8-7,0.1c-1.8,1.9-1.8,4.9,0,6.8l28.2,28.2v22.6h-29.6c-16.3,0-29.6-13.3-29.6-29.6c0-6.7,2.3-13.2,6.5-18.4
			c1.7-2.1,1.3-5.2-0.8-6.9c-0.1-0.1-0.2-0.2-0.3-0.2c-15.8-10.6-20-32.1-9.4-47.9c2.5-3.7,5.7-6.9,9.4-9.4c2.3-1.5,2.9-4.6,1.3-6.9
			c-0.1-0.1-0.2-0.2-0.2-0.3c-4.2-5.2-6.5-11.7-6.5-18.5c0-16.3,13.3-29.6,29.6-29.6l1.3,0.1c1.6,0.1,3.1-0.6,4.1-1.9
			c1-1.3,1.3-2.9,0.8-4.4c-0.8-2.8-1.3-5.6-1.3-8.5c0-1.8,0.2-3.6,0.5-5.4c0-0.1,0-0.1,0-0.2c0.4-1.8,0.9-3.5,1.5-5.2
			c4.5-11.3,15.4-18.7,27.5-18.8c12.2,0,23.1,7.5,27.5,18.8c0.7,1.7,1.2,3.5,1.5,5.3c0,0.1,0,0.1,0,0.2c0.3,1.8,0.5,3.6,0.5,5.4
			c0,2.9-0.4,5.8-1.3,8.5c-0.5,1.5-0.2,3.2,0.8,4.4c1,1.3,2.5,2,4.1,1.9l1.3-0.1c16.3,0,29.6,13.3,29.6,29.6
			c0,6.7-2.3,13.2-6.5,18.5c-1.7,2.1-1.4,5.2,0.8,6.9c0.1,0.1,0.2,0.2,0.3,0.2c15.8,10.6,20,32.1,9.4,47.9c-2.5,3.7-5.7,6.9-9.4,9.4
			C604.5,54,603.9,57.1,605.4,59.4z"/>
		<path class="st1" d="M510.6-87.4c0,0.1,0,0.1,0,0.2c-0.6,1.8-1.1,3.7-1.4,5.7c-0.1,0.3-0.1,0.7-0.2,1c-0.6,3.6-0.6,7.3-0.1,11
			C489-67.3,474-50.4,474-30.4c0,7.2,2,14.3,5.7,20.5c-0.1,0.1-0.2,0.2-0.3,0.2l-23-23c-2-1.9-5.1-1.8-7,0.1c-1.8,1.9-1.8,4.9,0,6.9
			l23.3,23.3c-13.8,18.8-10.8,45,6.9,60.1c-1.9,3.1-3.4,6.5-4.3,10L457.8,50c-2-1.9-5.1-1.8-7,0.1c-1.8,1.9-1.8,4.9,0,6.8l23.3,23.3
			c0,0.7,0.1,1.4,0.1,2c0.1,0.5,0.2,0.9,0.2,1.4c0.1,0.9,0.3,1.8,0.5,2.7c0.1,0.5,0.3,1,0.4,1.6c0.2,0.8,0.4,1.6,0.7,2.3
			c0.2,0.5,0.4,1.1,0.6,1.6c0.3,0.7,0.5,1.4,0.9,2.1c0.2,0.5,0.5,1.1,0.8,1.6c0.3,0.7,0.7,1.3,1,2c0.3,0.5,0.6,1,0.9,1.5
			c0.4,0.6,0.8,1.2,1.2,1.8c0.3,0.5,0.7,0.9,1.1,1.4c0.5,0.6,0.9,1.1,1.4,1.7c0.4,0.4,0.8,0.9,1.2,1.3c0.5,0.5,1,1,1.6,1.5
			c0.3,0.3,0.5,0.5,0.8,0.8h-38.1c-16.3,0-29.5-13.2-29.6-29.6c0-6.7,2.3-13.2,6.5-18.4c1.7-2.1,1.3-5.2-0.8-6.9
			c-0.1-0.1-0.2-0.2-0.3-0.2c-15.8-10.6-20-32.1-9.4-47.9c2.5-3.7,5.7-6.9,9.4-9.4c2.3-1.5,2.9-4.6,1.3-6.9
			c-0.1-0.1-0.2-0.2-0.2-0.3c-4.2-5.2-6.5-11.7-6.5-18.5c0-16.3,13.3-29.6,29.6-29.6l1.3,0.1c1.6,0.1,3.1-0.6,4.1-1.9
			c1-1.3,1.3-2.9,0.8-4.4c-4.6-15.7,4.3-32.1,20-36.8C489.5-107.1,504.3-100.5,510.6-87.4z"/>
	</g>
</g>
<path class="st1" d="M-27-26.3v320c0,4.4-3.6,8-8,8h88v-328H-27z M13,261.7c0,4.4-3.6,8-8,8h-8c-4.4,0-8-3.6-8-8v-8c0-4.4,3.6-8,8-8
	h8c4.4,0,8,3.6,8,8V261.7z M13,229.7c0,4.4-3.6,8-8,8h-8c-4.4,0-8-3.6-8-8v-8c0-4.4,3.6-8,8-8h8c4.4,0,8,3.6,8,8V229.7z M13,197.7
	c0,4.4-3.6,8-8,8h-8c-4.4,0-8-3.6-8-8v-8c0-4.4,3.6-8,8-8h8c4.4,0,8,3.6,8,8V197.7z M13,165.7c0,4.4-3.6,8-8,8h-8c-4.4,0-8-3.6-8-8
	v-8c0-4.4,3.6-8,8-8h8c4.4,0,8,3.6,8,8V165.7z M13,133.7c0,4.4-3.6,8-8,8h-8c-4.4,0-8-3.6-8-8v-8c0-4.4,3.6-8,8-8h8c4.4,0,8,3.6,8,8
	V133.7z M13,101.7c0,4.4-3.6,8-8,8h-8c-4.4,0-8-3.6-8-8v-8c0-4.4,3.6-8,8-8h8c4.4,0,8,3.6,8,8V101.7z M13,69.7c0,4.4-3.6,8-8,8h-8
	c-4.4,0-8-3.6-8-8v-8c0-4.4,3.6-8,8-8h8c4.4,0,8,3.6,8,8V69.7z M13,37.7c0,4.4-3.6,8-8,8h-8c-4.4,0-8-3.6-8-8v-8c0-4.4,3.6-8,8-8h8
	c4.4,0,8,3.6,8,8V37.7z M13,5.7c0,4.4-3.6,8-8,8h-8c-4.4,0-8-3.6-8-8v-8c0-4.4,3.6-8,8-8h8c4.4,0,8,3.6,8,8V5.7z M45,261.7
	c0,4.4-3.6,8-8,8h-8c-4.4,0-8-3.6-8-8v-8c0-4.4,3.6-8,8-8h8c4.4,0,8,3.6,8,8V261.7z M45,229.7c0,4.4-3.6,8-8,8h-8c-4.4,0-8-3.6-8-8
	v-8c0-4.4,3.6-8,8-8h8c4.4,0,8,3.6,8,8V229.7z M45,197.7c0,4.4-3.6,8-8,8h-8c-4.4,0-8-3.6-8-8v-8c0-4.4,3.6-8,8-8h8c4.4,0,8,3.6,8,8
	V197.7z M45,165.7c0,4.4-3.6,8-8,8h-8c-4.4,0-8-3.6-8-8v-8c0-4.4,3.6-8,8-8h8c4.4,0,8,3.6,8,8V165.7z M45,133.7c0,4.4-3.6,8-8,8h-8
	c-4.4,0-8-3.6-8-8v-8c0-4.4,3.6-8,8-8h8c4.4,0,8,3.6,8,8V133.7z M45,101.7c0,4.4-3.6,8-8,8h-8c-4.4,0-8-3.6-8-8v-8c0-4.4,3.6-8,8-8
	h8c4.4,0,8,3.6,8,8V101.7z M45,69.7c0,4.4-3.6,8-8,8h-8c-4.4,0-8-3.6-8-8v-8c0-4.4,3.6-8,8-8h8c4.4,0,8,3.6,8,8V69.7z M45,37.7
	c0,4.4-3.6,8-8,8h-8c-4.4,0-8-3.6-8-8v-8c0-4.4,3.6-8,8-8h8c4.4,0,8,3.6,8,8V37.7z M45,5.7c0,4.4-3.6,8-8,8h-8c-4.4,0-8-3.6-8-8v-8
	c0-4.4,3.6-8,8-8h8c4.4,0,8,3.6,8,8V5.7z"/>
<rect x="157" y="221.7" class="st1" width="32" height="72"/>
<rect x="205" y="221.7" class="st1" width="32" height="72"/>
<rect x="101" y="-114.3" class="st1" width="32" height="32"/>
<path class="st1" d="M101-34.3v32h32v-32H101z M101-34.3v32h32v-32H101z M101-34.3v32h32v-32H101z M181-114.3v32h32v-32H181z
	 M181-34.3v32h32v-32H181z M181-114.3v32h32v-32H181z M181-34.3v32h32v-32H181z M101-34.3v32h32v-32H101z M101-34.3v32h32v-32H101z
	 M181-114.3v32h32v-32H181z M181-34.3v32h32v-32H181z M261-114.3v32h32v-32H261z M261-34.3v32h32v-32H261z M261-114.3v32h32v-32H261
	z M261-34.3v32h32v-32H261z M181-114.3v32h32v-32H181z M181-34.3v32h32v-32H181z M101-34.3v32h32v-32H101z M101-34.3v32h32v-32H101z
	 M181-114.3v32h32v-32H181z M181-34.3v32h32v-32H181z M261-114.3v32h32v-32H261z M261-34.3v32h32v-32H261z M261,45.7v32h32v-32H261z
	 M261,125.7v32h32v-32H261z M261-114.3v32h32v-32H261z M261-34.3v32h32v-32H261z M261,45.7v32h32v-32H261z M261,125.7v32h32v-32H261
	z M181-114.3v32h32v-32H181z M181-34.3v32h32v-32H181z M101-34.3v32h32v-32H101z M101-34.3v32h32v-32H101z M181-114.3v32h32v-32H181
	z M181-34.3v32h32v-32H181z M181,45.7v32h32v-32H181z M181,125.7v32h32v-32H181z M261-114.3v32h32v-32H261z M261-34.3v32h32v-32H261
	z M261,45.7v32h32v-32H261z M261,125.7v32h32v-32H261z M261-114.3v32h32v-32H261z M261-34.3v32h32v-32H261z M261,45.7v32h32v-32H261
	z M261,125.7v32h32v-32H261z M181-114.3v32h32v-32H181z M181-34.3v32h32v-32H181z M181,45.7v32h32v-32H181z M181,125.7v32h32v-32
	H181z M101-34.3v32h32v-32H101z M101-34.3v32h32v-32H101z M101,45.7v32h32v-32H101z M101,125.7v32h32v-32H101z M181-114.3v32h32v-32
	H181z M181-34.3v32h32v-32H181z M181,45.7v32h32v-32H181z M181,125.7v32h32v-32H181z M261-114.3v32h32v-32H261z M261-34.3v32h32v-32
	H261z M261,45.7v32h32v-32H261z M261,125.7v32h32v-32H261z M261-114.3v32h32v-32H261z M261-34.3v32h32v-32H261z M261,45.7v32h32v-32
	H261z M261,125.7v32h32v-32H261z M181-114.3v32h32v-32H181z M181-34.3v32h32v-32H181z M181,45.7v32h32v-32H181z M181,125.7v32h32
	v-32H181z M101-34.3v32h32v-32H101z M101,45.7v32h32v-32H101z M101,125.7v32h32v-32H101z M101-34.3v32h32v-32H101z M101,45.7v32h32
	v-32H101z M101,125.7v32h32v-32H101z M181-114.3v32h32v-32H181z M181-34.3v32h32v-32H181z M181,45.7v32h32v-32H181z M181,125.7v32
	h32v-32H181z M261-114.3v32h32v-32H261z M261-34.3v32h32v-32H261z M261,45.7v32h32v-32H261z M261,125.7v32h32v-32H261z M261-114.3
	v32h32v-32H261z M261-34.3v32h32v-32H261z M261,45.7v32h32v-32H261z M261,125.7v32h32v-32H261z M181-114.3v32h32v-32H181z M181-34.3
	v32h32v-32H181z M181,45.7v32h32v-32H181z M181,125.7v32h32v-32H181z M101-34.3v32h32v-32H101z M101,45.7v32h32v-32H101z M101,125.7
	v32h32v-32H101z M101-34.3v32h32v-32H101z M101,45.7v32h32v-32H101z M101,125.7v32h32v-32H101z M181-114.3v32h32v-32H181z M181-34.3
	v32h32v-32H181z M181,45.7v32h32v-32H181z M181,125.7v32h32v-32H181z M261-114.3v32h32v-32H261z M261-34.3v32h32v-32H261z M261,45.7
	v32h32v-32H261z M261,125.7v32h32v-32H261z M261-114.3v32h32v-32H261z M261-34.3v32h32v-32H261z M261,45.7v32h32v-32H261z
	 M261,125.7v32h32v-32H261z M181-114.3v32h32v-32H181z M181-34.3v32h32v-32H181z M181,45.7v32h32v-32H181z M181,125.7v32h32v-32H181
	z M101-34.3v32h32v-32H101z M101,45.7v32h32v-32H101z M101,125.7v32h32v-32H101z M101-34.3v32h32v-32H101z M101,45.7v32h32v-32H101z
	 M101,125.7v32h32v-32H101z M181-114.3v32h32v-32H181z M181-34.3v32h32v-32H181z M181,45.7v32h32v-32H181z M181,125.7v32h32v-32H181
	z M261-114.3v32h32v-32H261z M261-34.3v32h32v-32H261z M261,45.7v32h32v-32H261z M261,125.7v32h32v-32H261z M261-114.3v32h32v-32
	H261z M261-34.3v32h32v-32H261z M261,45.7v32h32v-32H261z M261,125.7v32h32v-32H261z M181-114.3v32h32v-32H181z M181-34.3v32h32v-32
	H181z M181,45.7v32h32v-32H181z M181,125.7v32h32v-32H181z M101-34.3v32h32v-32H101z M101,45.7v32h32v-32H101z M101,125.7v32h32v-32
	H101z M101-34.3v32h32v-32H101z M101,45.7v32h32v-32H101z M101,125.7v32h32v-32H101z M181-114.3v32h32v-32H181z M181-34.3v32h32v-32
	H181z M181,45.7v32h32v-32H181z M181,125.7v32h32v-32H181z M261-114.3v32h32v-32H261z M261-34.3v32h32v-32H261z M261,45.7v32h32v-32
	H261z M261,125.7v32h32v-32H261z M261-114.3v32h32v-32H261z M261-34.3v32h32v-32H261z M261,45.7v32h32v-32H261z M261,125.7v32h32
	v-32H261z M181-114.3v32h32v-32H181z M181-34.3v32h32v-32H181z M181,45.7v32h32v-32H181z M181,125.7v32h32v-32H181z M101-34.3v32h32
	v-32H101z M101,45.7v32h32v-32H101z M101,125.7v32h32v-32H101z M101-34.3v32h32v-32H101z M101,45.7v32h32v-32H101z M101,125.7v32h32
	v-32H101z M181-114.3v32h32v-32H181z M181-34.3v32h32v-32H181z M181,45.7v32h32v-32H181z M181,125.7v32h32v-32H181z M261-114.3v32
	h32v-32H261z M261-34.3v32h32v-32H261z M261,45.7v32h32v-32H261z M261,125.7v32h32v-32H261z M261-114.3v32h32v-32H261z M261-34.3v32
	h32v-32H261z M261,45.7v32h32v-32H261z M261,125.7v32h32v-32H261z M181-114.3v32h32v-32H181z M181-34.3v32h32v-32H181z M181,45.7v32
	h32v-32H181z M181,125.7v32h32v-32H181z M101-34.3v32h32v-32H101z M101,45.7v32h32v-32H101z M101,125.7v32h32v-32H101z M101-34.3v32
	h32v-32H101z M101,45.7v32h32v-32H101z M101,125.7v32h32v-32H101z M181-114.3v32h32v-32H181z M181-34.3v32h32v-32H181z M181,45.7v32
	h32v-32H181z M181,125.7v32h32v-32H181z M261-114.3v32h32v-32H261z M261-34.3v32h32v-32H261z M261,45.7v32h32v-32H261z M261,125.7
	v32h32v-32H261z M261-114.3v32h32v-32H261z M261-34.3v32h32v-32H261z M261,45.7v32h32v-32H261z M261,125.7v32h32v-32H261z
	 M181-114.3v32h32v-32H181z M181-34.3v32h32v-32H181z M181,45.7v32h32v-32H181z M181,125.7v32h32v-32H181z M101-34.3v32h32v-32H101z
	 M101,45.7v32h32v-32H101z M101,125.7v32h32v-32H101z M101-34.3v32h32v-32H101z M101,45.7v32h32v-32H101z M101,125.7v32h32v-32H101z
	 M181-114.3v32h32v-32H181z M181-34.3v32h32v-32H181z M181,45.7v32h32v-32H181z M181,125.7v32h32v-32H181z M261-114.3v32h32v-32H261
	z M261-34.3v32h32v-32H261z M261,45.7v32h32v-32H261z M261,125.7v32h32v-32H261z M261-114.3v32h32v-32H261z M261-34.3v32h32v-32H261
	z M261,45.7v32h32v-32H261z M261,125.7v32h32v-32H261z M181-114.3v32h32v-32H181z M181-34.3v32h32v-32H181z M181,45.7v32h32v-32H181
	z M181,125.7v32h32v-32H181z M101-34.3v32h32v-32H101z M101,45.7v32h32v-32H101z M101,125.7v32h32v-32H101z M101-34.3v32h32v-32H101
	z M101,45.7v32h32v-32H101z M101,125.7v32h32v-32H101z M181-114.3v32h32v-32H181z M181-34.3v32h32v-32H181z M181,45.7v32h32v-32H181
	z M181,125.7v32h32v-32H181z M261-114.3v32h32v-32H261z M261-34.3v32h32v-32H261z M261,45.7v32h32v-32H261z M261,125.7v32h32v-32
	H261z M261-114.3v32h32v-32H261z M261-34.3v32h32v-32H261z M261,45.7v32h32v-32H261z M261,125.7v32h32v-32H261z M181-114.3v32h32
	v-32H181z M181-34.3v32h32v-32H181z M181,45.7v32h32v-32H181z M181,125.7v32h32v-32H181z M101-34.3v32h32v-32H101z M101,45.7v32h32
	v-32H101z M101,125.7v32h32v-32H101z M101-34.3v32h32v-32H101z M101,45.7v32h32v-32H101z M101,125.7v32h32v-32H101z M181-114.3v32
	h32v-32H181z M181-34.3v32h32v-32H181z M181,45.7v32h32v-32H181z M181,125.7v32h32v-32H181z M261-114.3v32h32v-32H261z M261-34.3v32
	h32v-32H261z M261,45.7v32h32v-32H261z M261,125.7v32h32v-32H261z M261-114.3v32h32v-32H261z M261-34.3v32h32v-32H261z M261,45.7v32
	h32v-32H261z M261,125.7v32h32v-32H261z M181-114.3v32h32v-32H181z M181-34.3v32h32v-32H181z M181,45.7v32h32v-32H181z M181,125.7
	v32h32v-32H181z M101-34.3v32h32v-32H101z M101,45.7v32h32v-32H101z M101,125.7v32h32v-32H101z M101-34.3v32h32v-32H101z M101,45.7
	v32h32v-32H101z M101,125.7v32h32v-32H101z M181-114.3v32h32v-32H181z M181-34.3v32h32v-32H181z M181,45.7v32h32v-32H181z
	 M181,125.7v32h32v-32H181z M261-114.3v32h32v-32H261z M261-34.3v32h32v-32H261z M261,45.7v32h32v-32H261z M261,125.7v32h32v-32H261
	z M261-114.3v32h32v-32H261z M261-34.3v32h32v-32H261z M261,45.7v32h32v-32H261z M261,125.7v32h32v-32H261z M181-114.3v32h32v-32
	H181z M181-34.3v32h32v-32H181z M181,45.7v32h32v-32H181z M181,125.7v32h32v-32H181z M101-34.3v32h32v-32H101z M101,45.7v32h32v-32
	H101z M101,125.7v32h32v-32H101z M101-34.3v32h32v-32H101z M101,45.7v32h32v-32H101z M101,125.7v32h32v-32H101z M181-114.3v32h32
	v-32H181z M181-34.3v32h32v-32H181z M181,45.7v32h32v-32H181z M181,125.7v32h32v-32H181z M261-114.3v32h32v-32H261z M261-34.3v32h32
	v-32H261z M261,45.7v32h32v-32H261z M261,125.7v32h32v-32H261z M261-114.3v32h32v-32H261z M261-34.3v32h32v-32H261z M261,45.7v32h32
	v-32H261z M261,125.7v32h32v-32H261z M181-114.3v32h32v-32H181z M181-34.3v32h32v-32H181z M181,45.7v32h32v-32H181z M181,125.7v32
	h32v-32H181z M101-34.3v32h32v-32H101z M101,45.7v32h32v-32H101z M101,125.7v32h32v-32H101z M101-34.3v32h32v-32H101z M101,45.7v32
	h32v-32H101z M101,125.7v32h32v-32H101z M181-114.3v32h32v-32H181z M181-34.3v32h32v-32H181z M181,45.7v32h32v-32H181z M181,125.7
	v32h32v-32H181z M261-114.3v32h32v-32H261z M261-34.3v32h32v-32H261z M261,45.7v32h32v-32H261z M261,125.7v32h32v-32H261z
	 M261-114.3v32h32v-32H261z M261-34.3v32h32v-32H261z M261,45.7v32h32v-32H261z M261,125.7v32h32v-32H261z M181-114.3v32h32v-32H181
	z M181-34.3v32h32v-32H181z M181,45.7v32h32v-32H181z M181,125.7v32h32v-32H181z M101-34.3v32h32v-32H101z M101,45.7v32h32v-32H101z
	 M101,125.7v32h32v-32H101z M69-146.3v440h72v-80c0-4.4,3.6-8,8-8h96c4.4,0,8,3.6,8,8v80h72v-440H69z M149,165.7c0,4.4-3.6,8-8,8H93
	c-4.4,0-8-3.6-8-8v-48c0-4.4,3.6-8,8-8h48c4.4,0,8,3.6,8,8V165.7z M149,85.7c0,4.4-3.6,8-8,8H93c-4.4,0-8-3.6-8-8v-48
	c0-4.4,3.6-8,8-8h48c4.4,0,8,3.6,8,8V85.7z M149,5.7c0,4.4-3.6,8-8,8H93c-4.4,0-8-3.6-8-8v-48c0-4.4,3.6-8,8-8h48c4.4,0,8,3.6,8,8
	V5.7z M149-74.3c0,4.4-3.6,8-8,8H93c-4.4,0-8-3.6-8-8v-48c0-4.4,3.6-8,8-8h48c4.4,0,8,3.6,8,8V-74.3z M229,165.7c0,4.4-3.6,8-8,8
	h-48c-4.4,0-8-3.6-8-8v-48c0-4.4,3.6-8,8-8h48c4.4,0,8,3.6,8,8V165.7z M229,85.7c0,4.4-3.6,8-8,8h-48c-4.4,0-8-3.6-8-8v-48
	c0-4.4,3.6-8,8-8h48c4.4,0,8,3.6,8,8V85.7z M229,5.7c0,4.4-3.6,8-8,8h-48c-4.4,0-8-3.6-8-8v-48c0-4.4,3.6-8,8-8h48c4.4,0,8,3.6,8,8
	V5.7z M229-74.3c0,4.4-3.6,8-8,8h-48c-4.4,0-8-3.6-8-8v-48c0-4.4,3.6-8,8-8h48c4.4,0,8,3.6,8,8V-74.3z M309,165.7c0,4.4-3.6,8-8,8
	h-48c-4.4,0-8-3.6-8-8v-48c0-4.4,3.6-8,8-8h48c4.4,0,8,3.6,8,8V165.7z M309,85.7c0,4.4-3.6,8-8,8h-48c-4.4,0-8-3.6-8-8v-48
	c0-4.4,3.6-8,8-8h48c4.4,0,8,3.6,8,8V85.7z M309,5.7c0,4.4-3.6,8-8,8h-48c-4.4,0-8-3.6-8-8v-48c0-4.4,3.6-8,8-8h48c4.4,0,8,3.6,8,8
	V5.7z M309-74.3c0,4.4-3.6,8-8,8h-48c-4.4,0-8-3.6-8-8v-48c0-4.4,3.6-8,8-8h48c4.4,0,8,3.6,8,8V-74.3z M261,157.7h32v-32h-32V157.7z
	 M261,77.7h32v-32h-32V77.7z M261-2.3h32v-32h-32V-2.3z M261-82.3h32v-32h-32V-82.3z M181,157.7h32v-32h-32V157.7z M181,77.7h32v-32
	h-32V77.7z M181-2.3h32v-32h-32V-2.3z M181-82.3h32v-32h-32V-82.3z M101,157.7h32v-32h-32V157.7z M101,77.7h32v-32h-32V77.7z
	 M101-2.3h32v-32h-32V-2.3z M101,125.7v32h32v-32H101z M101,45.7v32h32v-32H101z M101-34.3v32h32v-32H101z M181,125.7v32h32v-32H181
	z M181,45.7v32h32v-32H181z M181-34.3v32h32v-32H181z M181-114.3v32h32v-32H181z M261,125.7v32h32v-32H261z M261,45.7v32h32v-32H261
	z M261-34.3v32h32v-32H261z M261-114.3v32h32v-32H261z M261,125.7v32h32v-32H261z M261,45.7v32h32v-32H261z M261-34.3v32h32v-32H261
	z M261-114.3v32h32v-32H261z M181,125.7v32h32v-32H181z M181,45.7v32h32v-32H181z M181-34.3v32h32v-32H181z M181-114.3v32h32v-32
	H181z M101,125.7v32h32v-32H101z M101,45.7v32h32v-32H101z M101-34.3v32h32v-32H101z M101,125.7v32h32v-32H101z M101,45.7v32h32v-32
	H101z M101-34.3v32h32v-32H101z M181,125.7v32h32v-32H181z M181,45.7v32h32v-32H181z M181-34.3v32h32v-32H181z M181-114.3v32h32v-32
	H181z M261,125.7v32h32v-32H261z M261,45.7v32h32v-32H261z M261-34.3v32h32v-32H261z M261-114.3v32h32v-32H261z M261,125.7v32h32
	v-32H261z M261,45.7v32h32v-32H261z M261-34.3v32h32v-32H261z M261-114.3v32h32v-32H261z M181,125.7v32h32v-32H181z M181,45.7v32h32
	v-32H181z M181-34.3v32h32v-32H181z M181-114.3v32h32v-32H181z M101,125.7v32h32v-32H101z M101,45.7v32h32v-32H101z M101-34.3v32h32
	v-32H101z M101,125.7v32h32v-32H101z M101,45.7v32h32v-32H101z M101-34.3v32h32v-32H101z M181,125.7v32h32v-32H181z M181,45.7v32h32
	v-32H181z M181-34.3v32h32v-32H181z M181-114.3v32h32v-32H181z M261,125.7v32h32v-32H261z M261,45.7v32h32v-32H261z M261-34.3v32h32
	v-32H261z M261-114.3v32h32v-32H261z M261,125.7v32h32v-32H261z M261,45.7v32h32v-32H261z M261-34.3v32h32v-32H261z M261-114.3v32
	h32v-32H261z M181,125.7v32h32v-32H181z M181,45.7v32h32v-32H181z M181-34.3v32h32v-32H181z M181-114.3v32h32v-32H181z M101,125.7
	v32h32v-32H101z M101,45.7v32h32v-32H101z M101-34.3v32h32v-32H101z M101,125.7v32h32v-32H101z M101,45.7v32h32v-32H101z M101-34.3
	v32h32v-32H101z M181,125.7v32h32v-32H181z M181,45.7v32h32v-32H181z M181-34.3v32h32v-32H181z M181-114.3v32h32v-32H181z
	 M261,125.7v32h32v-32H261z M261,45.7v32h32v-32H261z M261-34.3v32h32v-32H261z M261-114.3v32h32v-32H261z M261,125.7v32h32v-32H261
	z M261,45.7v32h32v-32H261z M261-34.3v32h32v-32H261z M261-114.3v32h32v-32H261z M181,125.7v32h32v-32H181z M181,45.7v32h32v-32H181
	z M181-34.3v32h32v-32H181z M181-114.3v32h32v-32H181z M101,125.7v32h32v-32H101z M101,45.7v32h32v-32H101z M101-34.3v32h32v-32H101
	z M101,125.7v32h32v-32H101z M101,45.7v32h32v-32H101z M101-34.3v32h32v-32H101z M181,125.7v32h32v-32H181z M181,45.7v32h32v-32H181
	z M181-34.3v32h32v-32H181z M181-114.3v32h32v-32H181z M261,125.7v32h32v-32H261z M261,45.7v32h32v-32H261z M261-34.3v32h32v-32H261
	z M261-114.3v32h32v-32H261z M261,125.7v32h32v-32H261z M261,45.7v32h32v-32H261z M261-34.3v32h32v-32H261z M261-114.3v32h32v-32
	H261z M181,125.7v32h32v-32H181z M181,45.7v32h32v-32H181z M181-34.3v32h32v-32H181z M181-114.3v32h32v-32H181z M101,125.7v32h32
	v-32H101z M101,45.7v32h32v-32H101z M101-34.3v32h32v-32H101z M101,125.7v32h32v-32H101z M101,45.7v32h32v-32H101z M101-34.3v32h32
	v-32H101z M181,125.7v32h32v-32H181z M181,45.7v32h32v-32H181z M181-34.3v32h32v-32H181z M181-114.3v32h32v-32H181z M261,125.7v32
	h32v-32H261z M261,45.7v32h32v-32H261z M261-34.3v32h32v-32H261z M261-114.3v32h32v-32H261z M261,125.7v32h32v-32H261z M261,45.7v32
	h32v-32H261z M261-34.3v32h32v-32H261z M261-114.3v32h32v-32H261z M181,125.7v32h32v-32H181z M181,45.7v32h32v-32H181z M181-34.3v32
	h32v-32H181z M181-114.3v32h32v-32H181z M101,125.7v32h32v-32H101z M101,45.7v32h32v-32H101z M101-34.3v32h32v-32H101z M101,125.7
	v32h32v-32H101z M101,45.7v32h32v-32H101z M101-34.3v32h32v-32H101z M181,125.7v32h32v-32H181z M181,45.7v32h32v-32H181z M181-34.3
	v32h32v-32H181z M181-114.3v32h32v-32H181z M261,125.7v32h32v-32H261z M261,45.7v32h32v-32H261z M261-34.3v32h32v-32H261z
	 M261-114.3v32h32v-32H261z M261,125.7v32h32v-32H261z M261,45.7v32h32v-32H261z M261-34.3v32h32v-32H261z M261-114.3v32h32v-32H261
	z M181,125.7v32h32v-32H181z M181,45.7v32h32v-32H181z M181-34.3v32h32v-32H181z M181-114.3v32h32v-32H181z M101,125.7v32h32v-32
	H101z M101,45.7v32h32v-32H101z M101-34.3v32h32v-32H101z M101,125.7v32h32v-32H101z M101,45.7v32h32v-32H101z M101-34.3v32h32v-32
	H101z M181,125.7v32h32v-32H181z M181,45.7v32h32v-32H181z M181-34.3v32h32v-32H181z M181-114.3v32h32v-32H181z M261,125.7v32h32
	v-32H261z M261,45.7v32h32v-32H261z M261-34.3v32h32v-32H261z M261-114.3v32h32v-32H261z M261,125.7v32h32v-32H261z M261,45.7v32h32
	v-32H261z M261-34.3v32h32v-32H261z M261-114.3v32h32v-32H261z M181,125.7v32h32v-32H181z M181,45.7v32h32v-32H181z M181-34.3v32h32
	v-32H181z M181-114.3v32h32v-32H181z M101,125.7v32h32v-32H101z M101,45.7v32h32v-32H101z M101-34.3v32h32v-32H101z M101,125.7v32
	h32v-32H101z M101,45.7v32h32v-32H101z M101-34.3v32h32v-32H101z M181,125.7v32h32v-32H181z M181,45.7v32h32v-32H181z M181-34.3v32
	h32v-32H181z M181-114.3v32h32v-32H181z M261,125.7v32h32v-32H261z M261,45.7v32h32v-32H261z M261-34.3v32h32v-32H261z M261-114.3
	v32h32v-32H261z M261,125.7v32h32v-32H261z M261,45.7v32h32v-32H261z M261-34.3v32h32v-32H261z M261-114.3v32h32v-32H261z
	 M181,125.7v32h32v-32H181z M181,45.7v32h32v-32H181z M181-34.3v32h32v-32H181z M181-114.3v32h32v-32H181z M101,125.7v32h32v-32H101
	z M101,45.7v32h32v-32H101z M101-34.3v32h32v-32H101z M101,125.7v32h32v-32H101z M101,45.7v32h32v-32H101z M101-34.3v32h32v-32H101z
	 M181,125.7v32h32v-32H181z M181,45.7v32h32v-32H181z M181-34.3v32h32v-32H181z M181-114.3v32h32v-32H181z M261,125.7v32h32v-32H261
	z M261,45.7v32h32v-32H261z M261-34.3v32h32v-32H261z M261-114.3v32h32v-32H261z M261,125.7v32h32v-32H261z M261,45.7v32h32v-32H261
	z M261-34.3v32h32v-32H261z M261-114.3v32h32v-32H261z M181,125.7v32h32v-32H181z M181,45.7v32h32v-32H181z M181-34.3v32h32v-32H181
	z M181-114.3v32h32v-32H181z M101,125.7v32h32v-32H101z M101,45.7v32h32v-32H101z M101-34.3v32h32v-32H101z M101,125.7v32h32v-32
	H101z M101,45.7v32h32v-32H101z M101-34.3v32h32v-32H101z M181,125.7v32h32v-32H181z M181,45.7v32h32v-32H181z M181-34.3v32h32v-32
	H181z M181-114.3v32h32v-32H181z M261,125.7v32h32v-32H261z M261,45.7v32h32v-32H261z M261-34.3v32h32v-32H261z M261-114.3v32h32
	v-32H261z M261,125.7v32h32v-32H261z M261,45.7v32h32v-32H261z M261-34.3v32h32v-32H261z M261-114.3v32h32v-32H261z M181,125.7v32
	h32v-32H181z M181,45.7v32h32v-32H181z M181-34.3v32h32v-32H181z M181-114.3v32h32v-32H181z M101,125.7v32h32v-32H101z M101,45.7v32
	h32v-32H101z M101-34.3v32h32v-32H101z M101,125.7v32h32v-32H101z M101,45.7v32h32v-32H101z M101-34.3v32h32v-32H101z M181,125.7v32
	h32v-32H181z M181,45.7v32h32v-32H181z M181-34.3v32h32v-32H181z M181-114.3v32h32v-32H181z M261,125.7v32h32v-32H261z M261,45.7v32
	h32v-32H261z M261-34.3v32h32v-32H261z M261-114.3v32h32v-32H261z M261,125.7v32h32v-32H261z M261,45.7v32h32v-32H261z M261-34.3v32
	h32v-32H261z M261-114.3v32h32v-32H261z M181,125.7v32h32v-32H181z M181,45.7v32h32v-32H181z M181-34.3v32h32v-32H181z M181-114.3
	v32h32v-32H181z M101,125.7v32h32v-32H101z M101,45.7v32h32v-32H101z M101-34.3v32h32v-32H101z M101,125.7v32h32v-32H101z M101-34.3
	v32h32v-32H101z M181,125.7v32h32v-32H181z M181,45.7v32h32v-32H181z M181-34.3v32h32v-32H181z M181-114.3v32h32v-32H181z
	 M261,125.7v32h32v-32H261z M261,45.7v32h32v-32H261z M261-34.3v32h32v-32H261z M261-114.3v32h32v-32H261z M261,125.7v32h32v-32H261
	z M261,45.7v32h32v-32H261z M261-34.3v32h32v-32H261z M261-114.3v32h32v-32H261z M181,125.7v32h32v-32H181z M181,45.7v32h32v-32H181
	z M181-34.3v32h32v-32H181z M181-114.3v32h32v-32H181z M101,125.7v32h32v-32H101z M101-34.3v32h32v-32H101z M101-34.3v32h32v-32H101
	z M181,45.7v32h32v-32H181z M181-34.3v32h32v-32H181z M181-114.3v32h32v-32H181z M261,125.7v32h32v-32H261z M261,45.7v32h32v-32H261
	z M261-34.3v32h32v-32H261z M261-114.3v32h32v-32H261z M261,125.7v32h32v-32H261z M261,45.7v32h32v-32H261z M261-34.3v32h32v-32H261
	z M261-114.3v32h32v-32H261z M181,45.7v32h32v-32H181z M181-34.3v32h32v-32H181z M181-114.3v32h32v-32H181z M101-34.3v32h32v-32H101
	z M101-34.3v32h32v-32H101z M181-34.3v32h32v-32H181z M181-114.3v32h32v-32H181z M261,125.7v32h32v-32H261z M261-34.3v32h32v-32H261
	z M261-114.3v32h32v-32H261z M261,125.7v32h32v-32H261z M261-34.3v32h32v-32H261z M261-114.3v32h32v-32H261z M181-34.3v32h32v-32
	H181z M181-114.3v32h32v-32H181z M101-34.3v32h32v-32H101z M101-34.3v32h32v-32H101z M181-34.3v32h32v-32H181z M181-114.3v32h32v-32
	H181z M261-34.3v32h32v-32H261z M261-34.3v32h32v-32H261z M181-34.3v32h32v-32H181z M181-114.3v32h32v-32H181z M101-34.3v32h32v-32
	H101z M101-34.3v32h32v-32H101z M181-114.3v32h32v-32H181z M181-114.3v32h32v-32H181z M101-34.3v32h32v-32H101z"/>
<rect x="373" y="-42.3" class="st1" width="16" height="16"/>
<path class="st1" d="M373,21.7v16h16v-16H373z M373,21.7v16h16v-16H373z M373,21.7v16h16v-16H373z M373,85.7v16h16v-16H373z
	 M373,149.7v16h16v-16H373z M373,21.7v16h16v-16H373z M373,85.7v16h16v-16H373z M373,149.7v16h16v-16H373z M373,21.7v16h16v-16H373z
	 M373,85.7v16h16v-16H373z M373,149.7v16h16v-16H373z M373,213.7v16h16v-16H373z M373,21.7v16h16v-16H373z M373,85.7v16h16v-16H373z
	 M373,149.7v16h16v-16H373z M373,213.7v16h16v-16H373z M373,21.7v16h16v-16H373z M373,85.7v16h16v-16H373z M373,149.7v16h16v-16H373
	z M373,213.7v16h16v-16H373z M373,21.7v16h16v-16H373z M373,85.7v16h16v-16H373z M373,149.7v16h16v-16H373z M373,213.7v16h16v-16
	H373z M373,21.7v16h16v-16H373z M373,85.7v16h16v-16H373z M373,149.7v16h16v-16H373z M373,213.7v16h16v-16H373z M373,21.7v16h16v-16
	H373z M373,85.7v16h16v-16H373z M373,149.7v16h16v-16H373z M373,213.7v16h16v-16H373z M373,21.7v16h16v-16H373z M373,85.7v16h16v-16
	H373z M373,149.7v16h16v-16H373z M373,213.7v16h16v-16H373z M373,21.7v16h16v-16H373z M373,85.7v16h16v-16H373z M373,149.7v16h16
	v-16H373z M373,213.7v16h16v-16H373z M421,293.7v-368h-80v376h88C424.6,301.7,421,298.1,421,293.7z M405,237.7c0,4.4-3.6,8-8,8h-32
	c-4.4,0-8-3.6-8-8v-32c0-4.4,3.6-8,8-8h32c4.4,0,8,3.6,8,8V237.7z M405,173.7c0,4.4-3.6,8-8,8h-32c-4.4,0-8-3.6-8-8v-32
	c0-4.4,3.6-8,8-8h32c4.4,0,8,3.6,8,8V173.7z M405,109.7c0,4.4-3.6,8-8,8h-32c-4.4,0-8-3.6-8-8v-32c0-4.4,3.6-8,8-8h32
	c4.4,0,8,3.6,8,8V109.7z M405,45.7c0,4.4-3.6,8-8,8h-32c-4.4,0-8-3.6-8-8v-32c0-4.4,3.6-8,8-8h32c4.4,0,8,3.6,8,8V45.7z M405-18.3
	c0,4.4-3.6,8-8,8h-32c-4.4,0-8-3.6-8-8v-32c0-4.4,3.6-8,8-8h32c4.4,0,8,3.6,8,8V-18.3z M373,229.7h16v-16h-16V229.7z M373,165.7h16
	v-16h-16V165.7z M373,101.7h16v-16h-16V101.7z M373,37.7h16v-16h-16V37.7z M373,213.7v16h16v-16H373z M373,149.7v16h16v-16H373z
	 M373,85.7v16h16v-16H373z M373,21.7v16h16v-16H373z M373,213.7v16h16v-16H373z M373,149.7v16h16v-16H373z M373,85.7v16h16v-16H373z
	 M373,21.7v16h16v-16H373z M373,213.7v16h16v-16H373z M373,149.7v16h16v-16H373z M373,85.7v16h16v-16H373z M373,21.7v16h16v-16H373z
	 M373,213.7v16h16v-16H373z M373,149.7v16h16v-16H373z M373,85.7v16h16v-16H373z M373,21.7v16h16v-16H373z M373,213.7v16h16v-16H373
	z M373,149.7v16h16v-16H373z M373,85.7v16h16v-16H373z M373,21.7v16h16v-16H373z M373,213.7v16h16v-16H373z M373,149.7v16h16v-16
	H373z M373,85.7v16h16v-16H373z M373,21.7v16h16v-16H373z M373,213.7v16h16v-16H373z M373,149.7v16h16v-16H373z M373,85.7v16h16v-16
	H373z M373,21.7v16h16v-16H373z M373,213.7v16h16v-16H373z M373,149.7v16h16v-16H373z M373,85.7v16h16v-16H373z M373,21.7v16h16v-16
	H373z M373,85.7v16h16v-16H373z M373,21.7v16h16v-16H373z M373,85.7v16h16v-16H373z M373,21.7v16h16v-16H373z"/>
<path class="st0" d="M397,69.7h-32c-4.4,0-8,3.6-8,8v32c0,4.4,3.6,8,8,8h32c4.4,0,8-3.6,8-8v-32C405,73.3,401.4,69.7,397,69.7z
	 M389,101.7h-16v-16h16V101.7z"/>
<path class="st0" d="M397,5.7h-32c-4.4,0-8,3.6-8,8v32c0,4.4,3.6,8,8,8h32c4.4,0,8-3.6,8-8v-32C405,9.3,401.4,5.7,397,5.7z
	 M389,37.7h-16v-16h16V37.7z"/>
<path class="st1" d="M394,119.4v8h-8C390.4,127.4,394,123.8,394,119.4z"/>
<g>
	<g>
		<path class="st0" d="M53-34.3v8h-80v320c0,4.4-3.6,8-8,8v-336L53-34.3L53-34.3z"/>
		<path class="st0" d="M437-82.3v376c0,4.4-3.6,8-8,8s-8-3.6-8-8v-368h-80v376h-3v-384L437-82.3L437-82.3z"/>
		<path class="st0" d="M338-82.3h99c0-4.4-3.6-8-8-8h-88v-64c0-4.4-3.6-8-8-8H61c-4.4,0-8,3.6-8,8v112h-88c-4.4,0-8,3.6-8,8v328
			c0,4.4,3.6,8,8,8v-336h88v336c0,4.4,3.6,8,8,8h272c4.4,0,8-3.6,8-8h-3V-82.3z M332,301.7H60v-455.3h272V301.7z"/>
		<path class="st0" d="M60-153.5v455.3h272v-455.3H60z M69-146.3h256v440h-72v-80c0-4.4-3.6-8-8-8h-96c-4.4,0-8,3.6-8,8v80H69
			V-146.3z M237,221.7v72h-32v-72H237z M189,221.7v72h-32v-72H189z"/>
	</g>
</g>
<g>
	<g>
		<path class="st0" d="M141-130.3H93c-4.4,0-8,3.6-8,8v48c0,4.4,3.6,8,8,8h48c4.4,0,8-3.6,8-8v-48C149-126.7,145.4-130.3,141-130.3z
			 M133-82.3h-32v-32h32V-82.3z"/>
	</g>
</g>
<g>
	<g>
		<path class="st0" d="M221-130.3h-48c-4.4,0-8,3.6-8,8v48c0,4.4,3.6,8,8,8h48c4.4,0,8-3.6,8-8v-48C229-126.7,225.4-130.3,221-130.3
			z M213-82.3h-32v-32h32V-82.3z"/>
	</g>
</g>
<g>
	<g>
		<path class="st0" d="M301-130.3h-48c-4.4,0-8,3.6-8,8v48c0,4.4,3.6,8,8,8h48c4.4,0,8-3.6,8-8v-48C309-126.7,305.4-130.3,301-130.3
			z M293-82.3h-32v-32h32V-82.3z"/>
	</g>
</g>
<g>
	<g>
		<path class="st0" d="M141-50.3H93c-4.4,0-8,3.6-8,8v48c0,4.4,3.6,8,8,8h48c4.4,0,8-3.6,8-8v-48C149-46.7,145.4-50.3,141-50.3z
			 M133-2.3h-32v-32h32V-2.3z"/>
	</g>
</g>
<g>
	<g>
		<path class="st0" d="M221-50.3h-48c-4.4,0-8,3.6-8,8v48c0,4.4,3.6,8,8,8h48c4.4,0,8-3.6,8-8v-48C229-46.7,225.4-50.3,221-50.3z
			 M213-2.3h-32v-32h32V-2.3z"/>
	</g>
</g>
<g>
	<g>
		<path class="st0" d="M301-50.3h-48c-4.4,0-8,3.6-8,8v48c0,4.4,3.6,8,8,8h48c4.4,0,8-3.6,8-8v-48C309-46.7,305.4-50.3,301-50.3z
			 M293-2.3h-32v-32h32V-2.3z"/>
	</g>
</g>
<g>
	<g>
		<path class="st0" d="M141,29.7H93c-4.4,0-8,3.6-8,8v48c0,4.4,3.6,8,8,8h48c4.4,0,8-3.6,8-8v-48C149,33.3,145.4,29.7,141,29.7z
			 M133,77.7h-32v-32h32V77.7z"/>
	</g>
</g>
<g>
	<g>
		<path class="st0" d="M221,29.7h-48c-4.4,0-8,3.6-8,8v48c0,4.4,3.6,8,8,8h48c4.4,0,8-3.6,8-8v-48C229,33.3,225.4,29.7,221,29.7z
			 M213,77.7h-32v-32h32V77.7z"/>
	</g>
</g>
<g>
	<g>
		<path class="st0" d="M301,29.7h-48c-4.4,0-8,3.6-8,8v48c0,4.4,3.6,8,8,8h48c4.4,0,8-3.6,8-8v-48C309,33.3,305.4,29.7,301,29.7z
			 M293,77.7h-32v-32h32V77.7z"/>
	</g>
</g>
<g>
	<g>
		<path class="st0" d="M141,109.7H93c-4.4,0-8,3.6-8,8v48c0,4.4,3.6,8,8,8h48c4.4,0,8-3.6,8-8v-48C149,113.3,145.4,109.7,141,109.7z
			 M133,157.7h-32v-32h32V157.7z"/>
	</g>
</g>
<g>
	<g>
		<path class="st0" d="M221,109.7h-48c-4.4,0-8,3.6-8,8v48c0,4.4,3.6,8,8,8h48c4.4,0,8-3.6,8-8v-48C229,113.3,225.4,109.7,221,109.7
			z M213,157.7h-32v-32h32V157.7z"/>
	</g>
</g>
<g>
	<g>
		<path class="st0" d="M301,109.7h-48c-4.4,0-8,3.6-8,8v48c0,4.4,3.6,8,8,8h48c4.4,0,8-3.6,8-8v-48C309,113.3,305.4,109.7,301,109.7
			z M293,157.7h-32v-32h32V157.7z"/>
	</g>
</g>
<g>
	<g>
		<path class="st0" d="M13-2.3v8c0,4.4-3.6,8-8,8h-8c-4.4,0-8-3.6-8-8v-8c0-4.4,3.6-8,8-8h8C9.4-10.3,13-6.7,13-2.3z"/>
	</g>
</g>
<g>
	<g>
		<path class="st0" d="M45-2.3v8c0,4.4-3.6,8-8,8h-8c-4.4,0-8-3.6-8-8v-8c0-4.4,3.6-8,8-8h8C41.4-10.3,45-6.7,45-2.3z"/>
	</g>
</g>
<g>
	<g>
		<path class="st0" d="M13,29.7v8c0,4.4-3.6,8-8,8h-8c-4.4,0-8-3.6-8-8v-8c0-4.4,3.6-8,8-8h8C9.4,21.7,13,25.3,13,29.7z"/>
	</g>
</g>
<g>
	<g>
		<path class="st0" d="M45,29.7v8c0,4.4-3.6,8-8,8h-8c-4.4,0-8-3.6-8-8v-8c0-4.4,3.6-8,8-8h8C41.4,21.7,45,25.3,45,29.7z"/>
	</g>
</g>
<g>
	<g>
		<path class="st0" d="M13,61.7v8c0,4.4-3.6,8-8,8h-8c-4.4,0-8-3.6-8-8v-8c0-4.4,3.6-8,8-8h8C9.4,53.7,13,57.3,13,61.7z"/>
	</g>
</g>
<g>
	<g>
		<path class="st0" d="M45,61.7v8c0,4.4-3.6,8-8,8h-8c-4.4,0-8-3.6-8-8v-8c0-4.4,3.6-8,8-8h8C41.4,53.7,45,57.3,45,61.7z"/>
	</g>
</g>
<g>
	<g>
		<path class="st0" d="M13,93.7v8c0,4.4-3.6,8-8,8h-8c-4.4,0-8-3.6-8-8v-8c0-4.4,3.6-8,8-8h8C9.4,85.7,13,89.3,13,93.7z"/>
	</g>
</g>
<g>
	<g>
		<path class="st0" d="M45,93.7v8c0,4.4-3.6,8-8,8h-8c-4.4,0-8-3.6-8-8v-8c0-4.4,3.6-8,8-8h8C41.4,85.7,45,89.3,45,93.7z"/>
	</g>
</g>
<g>
	<g>
		<path class="st0" d="M13,125.7v8c0,4.4-3.6,8-8,8h-8c-4.4,0-8-3.6-8-8v-8c0-4.4,3.6-8,8-8h8C9.4,117.7,13,121.3,13,125.7z"/>
	</g>
</g>
<g>
	<g>
		<path class="st0" d="M45,125.7v8c0,4.4-3.6,8-8,8h-8c-4.4,0-8-3.6-8-8v-8c0-4.4,3.6-8,8-8h8C41.4,117.7,45,121.3,45,125.7z"/>
	</g>
</g>
<g>
	<g>
		<path class="st0" d="M13,157.7v8c0,4.4-3.6,8-8,8h-8c-4.4,0-8-3.6-8-8v-8c0-4.4,3.6-8,8-8h8C9.4,149.7,13,153.3,13,157.7z"/>
	</g>
</g>
<g>
	<g>
		<path class="st0" d="M45,157.7v8c0,4.4-3.6,8-8,8h-8c-4.4,0-8-3.6-8-8v-8c0-4.4,3.6-8,8-8h8C41.4,149.7,45,153.3,45,157.7z"/>
	</g>
</g>
<g>
	<g>
		<path class="st0" d="M13,189.7v8c0,4.4-3.6,8-8,8h-8c-4.4,0-8-3.6-8-8v-8c0-4.4,3.6-8,8-8h8C9.4,181.7,13,185.3,13,189.7z"/>
	</g>
</g>
<g>
	<g>
		<path class="st0" d="M45,189.7v8c0,4.4-3.6,8-8,8h-8c-4.4,0-8-3.6-8-8v-8c0-4.4,3.6-8,8-8h8C41.4,181.7,45,185.3,45,189.7z"/>
	</g>
</g>
<g>
	<g>
		<path class="st0" d="M13,221.7v8c0,4.4-3.6,8-8,8h-8c-4.4,0-8-3.6-8-8v-8c0-4.4,3.6-8,8-8h8C9.4,213.7,13,217.3,13,221.7z"/>
	</g>
</g>
<g>
	<g>
		<path class="st0" d="M45,221.7v8c0,4.4-3.6,8-8,8h-8c-4.4,0-8-3.6-8-8v-8c0-4.4,3.6-8,8-8h8C41.4,213.7,45,217.3,45,221.7z"/>
	</g>
</g>
<g>
	<g>
		<path class="st0" d="M13,253.7v8c0,4.4-3.6,8-8,8h-8c-4.4,0-8-3.6-8-8v-8c0-4.4,3.6-8,8-8h8C9.4,245.7,13,249.3,13,253.7z"/>
	</g>
</g>
<g>
	<g>
		<path class="st0" d="M45,253.7v8c0,4.4-3.6,8-8,8h-8c-4.4,0-8-3.6-8-8v-8c0-4.4,3.6-8,8-8h8C41.4,245.7,45,249.3,45,253.7z"/>
	</g>
</g>
<g>
	<g>
		<path class="st0" d="M397-58.3h-32c-4.4,0-8,3.6-8,8v32c0,4.4,3.6,8,8,8h32c4.4,0,8-3.6,8-8v-32C405-54.7,401.4-58.3,397-58.3z
			 M389-26.3h-16v-16h16V-26.3z"/>
	</g>
</g>
<g>
	<g>
		<path class="st0" d="M397,5.7h-32c-4.4,0-8,3.6-8,8v32c0,4.4,3.6,8,8,8h32c4.4,0,8-3.6,8-8v-32C405,9.3,401.4,5.7,397,5.7z
			 M389,37.7h-16v-16h16V37.7z"/>
	</g>
</g>
<g>
	<g>
		<path class="st0" d="M397,69.7h-32c-4.4,0-8,3.6-8,8v32c0,4.4,3.6,8,8,8h32c4.4,0,8-3.6,8-8v-32C405,73.3,401.4,69.7,397,69.7z
			 M389,101.7h-16v-16h16V101.7z"/>
	</g>
</g>
<g>
	<g>
		<path class="st0" d="M397,133.7h-32c-4.4,0-8,3.6-8,8v32c0,4.4,3.6,8,8,8h32c4.4,0,8-3.6,8-8v-32C405,137.3,401.4,133.7,397,133.7
			z M389,165.7h-16v-16h16V165.7z"/>
	</g>
</g>
<g>
	<g>
		<path class="st0" d="M397,197.7h-32c-4.4,0-8,3.6-8,8v32c0,4.4,3.6,8,8,8h32c4.4,0,8-3.6,8-8v-32C405,201.3,401.4,197.7,397,197.7
			z M389,229.7h-16v-16h16V229.7z"/>
	</g>
</g>
</svg>
