<?xml version="1.0" encoding="utf-8"?>
<!-- Generator: Adobe Illustrator 19.0.0, SVG Export Plug-In . SVG Version: 6.00 Build 0)  -->
<svg version="1.1" id="Capa_1" xmlns="http://www.w3.org/2000/svg" xmlns:xlink="http://www.w3.org/1999/xlink" x="0px" y="0px"
	 viewBox="-27 -186.3 512 512" style="enable-background:new -27 -186.3 512 512;" xml:space="preserve">
<style type="text/css">
	.st0{fill:#2850A7;}
	.st1{fill:#3367D6;}
</style>
<g>
	<g>
		<path class="st0" d="M280.2,258v51.2h-17.1v-42.7h-25.6V258h-17.1v8.5h-25.6v42.7h-17.1V258c0-4.7,3.8-8.5,8.5-8.5h85.3
			C276.4,249.4,280.2,253.2,280.2,258z"/>
	</g>
</g>
<g>
	<g>
		<rect x="220.5" y="266.5" class="st0" width="17.1" height="42.7"/>
		<rect x="220.5" y="258" class="st0" width="17.1" height="8.5"/>
	</g>
</g>
<g>
	<g>
		<path class="st0" d="M322.9-66.3v17.1h-8.5c-4.7,0-8.5,3.8-8.5,8.5v-25.6H322.9z"/>
		<path class="st0" d="M186.3,326.2h-42.7c4.7,0,8.5-3.8,8.5-8.5v-8.5h25.6v8.5C177.8,322.4,181.6,326.2,186.3,326.2z"/>
		<rect x="220.5" y="309.2" class="st0" width="17.1" height="8.5"/>
		<path class="st0" d="M280.2,309.2v8.5c0,4.7-3.8,8.5-8.5,8.5h-85.3c-4.7,0-8.5-3.8-8.5-8.5v-8.5h42.7v8.5h17.1v-8.5H280.2z"/>
		<path class="st0" d="M314.3,326.2h-42.7c4.7,0,8.5-3.8,8.5-8.5v-8.5h25.6v8.5C305.8,322.4,309.6,326.2,314.3,326.2z"/>
		<path class="st0" d="M152.2-66.3v25.6c0-4.7-3.8-8.5-8.5-8.5h-8.5v-17.1H152.2z"/>
		<rect x="194.9" y="266.5" class="st1" width="25.6" height="42.7"/>
		<rect x="237.5" y="266.5" class="st1" width="25.6" height="42.7"/>
		<path class="st1" d="M152.2-66.3v375.5h25.6V258c0-4.7,3.8-8.5,8.5-8.5h85.3c4.7,0,8.5,3.8,8.5,8.5v51.2h25.6V-66.3H152.2z
			 M186.3,232.4h-17.1v-25.6h17.1V232.4z M186.3,189.7h-17.1v-25.6h17.1V189.7z M186.3,147h-17.1v-25.6h17.1V147z M186.3,104.4
			h-17.1V78.8h17.1V104.4z M186.3,61.7h-17.1V36.1h17.1V61.7z M186.3,19h-17.1V-6.6h17.1V19z M186.3-23.6h-17.1v-25.6h17.1V-23.6z
			 M220.5,232.4h-17.1v-25.6h17.1V232.4z M220.5,189.7h-17.1v-25.6h17.1V189.7z M220.5,147h-17.1v-25.6h17.1V147z M220.5,104.4
			h-17.1V78.8h17.1V104.4z M220.5,61.7h-17.1V36.1h17.1V61.7z M220.5,19h-17.1V-6.6h17.1V19z M220.5-23.6h-17.1v-25.6h17.1V-23.6z
			 M254.6,232.4h-17.1v-25.6h17.1V232.4z M254.6,189.7h-17.1v-25.6h17.1V189.7z M254.6,147h-17.1v-25.6h17.1V147z M254.6,104.4
			h-17.1V78.8h17.1V104.4z M254.6,61.7h-17.1V36.1h17.1V61.7z M254.6,19h-17.1V-6.6h17.1V19z M254.6-23.6h-17.1v-25.6h17.1V-23.6z
			 M288.7,232.4h-17.1v-25.6h17.1V232.4z M288.7,189.7h-17.1v-25.6h17.1V189.7z M288.7,147h-17.1v-25.6h17.1V147z M288.7,104.4
			h-17.1V78.8h17.1V104.4z M288.7,61.7h-17.1V36.1h17.1V61.7z M288.7,19h-17.1V-6.6h17.1V19z M288.7-23.6h-17.1v-25.6h17.1V-23.6z"
			/>
	</g>
</g>
<g>
	<g>
		<path class="st0" d="M75.4,326.2v-17.1h-8.5V-32.2h8.5v-17.1h59.7v17.1H83.9v341.3h51.2v8.5c0,4.7,3.8,8.5,8.5,8.5H75.4V326.2z"/>
		<path class="st0" d="M152.2-40.7v358.4c0,4.7-3.8,8.5-8.5,8.5s-8.5-3.8-8.5-8.5V-49.2h8.5C148.4-49.2,152.2-45.4,152.2-40.7z"/>
		<path class="st1" d="M83.9-32.2v341.3h51.2V-32.2H83.9z M118.1,275H101v-25.6h17.1V275z M118.1,232.4H101v-25.6h17.1V232.4z
			 M118.1,189.7H101v-25.6h17.1V189.7z M118.1,147H101v-25.6h17.1V147z M118.1,104.4H101V78.8h17.1V104.4z M118.1,61.7H101V36.1
			h17.1V61.7z M118.1,19H101V-6.6h17.1V19z"/>
	</g>
</g>
<g>
	<g>
		<path class="st0" d="M75.4-49.2c-4.7,0-8.5,3.8-8.5,8.5v8.5H49.8v-17.1L75.4-49.2L75.4-49.2z"/>
		<path class="st0" d="M75.4-49.2v17.1h-8.5v-8.5C66.9-45.4,70.7-49.2,75.4-49.2z"/>
	</g>
</g>
<g>
	<g>
		<path class="st0" d="M322.9-74.8v8.5H135.1v-8.5c0-4.7,3.8-8.5,8.5-8.5h170.7C319-83.4,322.9-79.5,322.9-74.8z"/>
		<path class="st0" d="M143.7-83.4c-4.7,0-8.5,3.8-8.5,8.5v8.5h-17.1v-17.1h25.6V-83.4z"/>
		<path class="st0" d="M339.9-83.4v17.1h-17.1v-8.5c0-4.7-3.8-8.5-8.5-8.5h25.6V-83.4z"/>
	</g>
</g>
<g>
	<g>
		<rect x="169.3" y="206.8" class="st0" width="17.1" height="25.6"/>
	</g>
</g>
<g>
	<g>
		<rect x="203.4" y="206.8" class="st0" width="17.1" height="25.6"/>
	</g>
</g>
<g>
	<g>
		<rect x="237.5" y="206.8" class="st0" width="17.1" height="25.6"/>
	</g>
</g>
<g>
	<g>
		<rect x="271.7" y="206.8" class="st0" width="17.1" height="25.6"/>
	</g>
</g>
<g>
	<g>
		<rect x="169.3" y="164.1" class="st0" width="17.1" height="25.6"/>
	</g>
</g>
<g>
	<g>
		<rect x="203.4" y="164.1" class="st0" width="17.1" height="25.6"/>
	</g>
</g>
<g>
	<g>
		<rect x="237.5" y="164.1" class="st0" width="17.1" height="25.6"/>
	</g>
</g>
<g>
	<g>
		<rect x="271.7" y="164.1" class="st0" width="17.1" height="25.6"/>
	</g>
</g>
<g>
	<g>
		<rect x="169.3" y="121.4" class="st0" width="17.1" height="25.6"/>
	</g>
</g>
<g>
	<g>
		<rect x="203.4" y="121.4" class="st0" width="17.1" height="25.6"/>
	</g>
</g>
<g>
	<g>
		<rect x="237.5" y="121.4" class="st0" width="17.1" height="25.6"/>
	</g>
</g>
<g>
	<g>
		<rect x="271.7" y="121.4" class="st0" width="17.1" height="25.6"/>
	</g>
</g>
<g>
	<g>
		<rect x="169.3" y="78.8" class="st0" width="17.1" height="25.6"/>
	</g>
</g>
<g>
	<g>
		<rect x="203.4" y="78.8" class="st0" width="17.1" height="25.6"/>
	</g>
</g>
<g>
	<g>
		<rect x="237.5" y="78.8" class="st0" width="17.1" height="25.6"/>
	</g>
</g>
<g>
	<g>
		<rect x="271.7" y="78.8" class="st0" width="17.1" height="25.6"/>
	</g>
</g>
<g>
	<g>
		<rect x="169.3" y="36.1" class="st0" width="17.1" height="25.6"/>
	</g>
</g>
<g>
	<g>
		<rect x="203.4" y="36.1" class="st0" width="17.1" height="25.6"/>
	</g>
</g>
<g>
	<g>
		<rect x="237.5" y="36.1" class="st0" width="17.1" height="25.6"/>
	</g>
</g>
<g>
	<g>
		<rect x="271.7" y="36.1" class="st0" width="17.1" height="25.6"/>
	</g>
</g>
<g>
	<g>
		<rect x="169.3" y="-6.6" class="st0" width="17.1" height="25.6"/>
	</g>
</g>
<g>
	<g>
		<rect x="203.4" y="-6.6" class="st0" width="17.1" height="25.6"/>
	</g>
</g>
<g>
	<g>
		<rect x="237.5" y="-6.6" class="st0" width="17.1" height="25.6"/>
	</g>
</g>
<g>
	<g>
		<rect x="271.7" y="-6.6" class="st0" width="17.1" height="25.6"/>
	</g>
</g>
<g>
	<g>
		<rect x="169.3" y="-49.2" class="st0" width="17.1" height="25.6"/>
	</g>
</g>
<g>
	<g>
		<rect x="203.4" y="-49.2" class="st0" width="17.1" height="25.6"/>
	</g>
</g>
<g>
	<g>
		<rect x="237.5" y="-49.2" class="st0" width="17.1" height="25.6"/>
	</g>
</g>
<g>
	<g>
		<rect x="271.7" y="-49.2" class="st0" width="17.1" height="25.6"/>
	</g>
</g>
<g>
	<g>
		<rect x="101" y="249.4" class="st0" width="17.1" height="25.6"/>
	</g>
</g>
<g>
	<g>
		<rect x="101" y="206.8" class="st0" width="17.1" height="25.6"/>
	</g>
</g>
<g>
	<g>
		<rect x="101" y="164.1" class="st0" width="17.1" height="25.6"/>
	</g>
</g>
<g>
	<g>
		<rect x="101" y="121.4" class="st0" width="17.1" height="25.6"/>
	</g>
</g>
<g>
	<g>
		<rect x="101" y="78.8" class="st0" width="17.1" height="25.6"/>
	</g>
</g>
<g>
	<g>
		<rect x="101" y="36.1" class="st0" width="17.1" height="25.6"/>
	</g>
</g>
<g>
	<g>
		<rect x="101" y="-6.6" class="st0" width="17.1" height="25.6"/>
	</g>
</g>
<g>
	<g>
		<path class="st0" d="M322.9-49.2v366.9c0,4.7-3.8,8.5-8.5,8.5s-8.5-3.8-8.5-8.5V-40.7c0-4.7,3.8-8.5,8.5-8.5H322.9z"/>
		<path class="st0" d="M391.1-32.2v341.3h-8.5v17.1h-68.3c4.7,0,8.5-3.8,8.5-8.5v-8.5H374V-32.2h-51.2v-17.1h59.7v17.1H391.1z"/>
		<path class="st1" d="M322.9-32.2v341.3h51.2V-32.2H322.9z M357,275h-17.1v-25.6H357V275z M357,232.4h-17.1v-25.6H357V232.4z
			 M357,189.7h-17.1v-25.6H357V189.7z M357,147h-17.1v-25.6H357V147z M357,104.4h-17.1V78.8H357V104.4z M357,61.7h-17.1V36.1H357
			V61.7z M357,19h-17.1V-6.6H357V19z"/>
	</g>
</g>
<g>
	<g>
		<path class="st0" d="M391.1-40.7v8.5h-8.5v-17.1C387.3-49.2,391.1-45.4,391.1-40.7z"/>
		<path class="st0" d="M408.2-49.2v17.1h-17.1v-8.5c0-4.7-3.8-8.5-8.5-8.5L408.2-49.2L408.2-49.2z"/>
	</g>
</g>
<g>
	<g>
		<rect x="339.9" y="249.4" class="st0" width="17.1" height="25.6"/>
	</g>
</g>
<g>
	<g>
		<rect x="339.9" y="206.8" class="st0" width="17.1" height="25.6"/>
	</g>
</g>
<g>
	<g>
		<rect x="339.9" y="164.1" class="st0" width="17.1" height="25.6"/>
	</g>
</g>
<g>
	<g>
		<rect x="339.9" y="121.4" class="st0" width="17.1" height="25.6"/>
	</g>
</g>
<g>
	<g>
		<rect x="339.9" y="78.8" class="st0" width="17.1" height="25.6"/>
	</g>
</g>
<g>
	<g>
		<rect x="339.9" y="36.1" class="st0" width="17.1" height="25.6"/>
	</g>
</g>
<g>
	<g>
		<rect x="339.9" y="-6.6" class="st0" width="17.1" height="25.6"/>
	</g>
</g>
<g>
	<g>
		<path class="st0" d="M75.4,326.2H-27v-17.1H7.1v8.5h17.1v-8.5h42.7v8.5C66.9,322.4,70.7,326.2,75.4,326.2z"/>
		<path class="st0" d="M75.4,309.2v17.1c-4.7,0-8.5-3.8-8.5-8.5v-8.5h8.5V309.2z"/>
	</g>
</g>
<g>
	<g>
		<path class="st0" d="M485,309.2v17.1H382.6c4.7,0,8.5-3.8,8.5-8.5v-8.5h42.7v8.5h17.1v-8.5H485V309.2z"/>
		<path class="st0" d="M391.1,309.2v8.5c0,4.7-3.8,8.5-8.5,8.5v-17.1h8.5V309.2z"/>
	</g>
</g>
<g>
	<g>
		<polygon class="st0" points="24.2,138.5 24.2,164.1 15.7,170.5 7.1,164.1 7.1,138.5 		"/>
		<polygon class="st0" points="24.2,198.2 24.2,309.2 7.1,309.2 7.1,198.2 15.7,191.8 		"/>
		<rect x="7.1" y="309.2" class="st0" width="17.1" height="8.5"/>
	</g>
</g>
<g>
	<g>
		<polygon class="st0" points="7.1,164.1 7.1,176.9 1.5,181.2 -23.6,162.4 -13.3,148.7 		"/>
		<polygon class="st0" points="54.9,199.9 44.7,213.6 24.2,198.2 24.2,185.4 29.9,181.2 		"/>
		<polygon class="st0" points="15.7,170.5 7.1,176.9 7.1,164.1 		"/>
		<polygon class="st0" points="24.2,185.4 24.2,198.2 15.7,191.8 		"/>
	</g>
</g>
<g>
	<g>
		<polygon class="st0" points="7.1,185.4 7.1,198.2 -13.4,213.6 -23.6,200 1.5,181.2 		"/>
		<polygon class="st0" points="54.9,162.4 29.9,181.2 24.2,176.9 24.2,164.1 44.7,148.7 		"/>
		<polygon class="st0" points="24.2,176.9 24.2,185.4 15.7,191.8 7.1,185.4 7.1,176.9 15.7,170.5 		"/>
		<polygon class="st0" points="7.1,176.9 7.1,185.4 1.5,181.2 		"/>
		<polygon class="st0" points="15.7,191.8 7.1,198.2 7.1,185.4 		"/>
		<polygon class="st0" points="24.2,164.1 24.2,176.9 15.7,170.5 		"/>
		<polygon class="st0" points="29.9,181.2 24.2,185.4 24.2,176.9 		"/>
	</g>
</g>
<g>
	<g>
		<polygon class="st0" points="450.9,138.5 450.9,164.1 442.3,170.5 433.8,164.1 433.8,138.5 		"/>
		<polygon class="st0" points="450.9,198.2 450.9,309.2 433.8,309.2 433.8,198.2 442.3,191.8 		"/>
		<rect x="433.8" y="309.2" class="st0" width="17.1" height="8.5"/>
	</g>
</g>
<g>
	<g>
		<polygon class="st0" points="442.3,170.5 433.8,176.9 433.8,164.1 		"/>
		<polygon class="st0" points="433.8,164.1 433.8,176.9 428.1,181.2 403.1,162.4 413.3,148.7 		"/>
		<polygon class="st0" points="450.9,185.4 450.9,198.2 442.3,191.8 		"/>
		<polygon class="st0" points="481.6,199.9 471.3,213.6 450.9,198.2 450.9,185.4 456.5,181.2 		"/>
	</g>
</g>
<g>
	<g>
		<polygon class="st0" points="433.8,176.9 433.8,185.4 428.1,181.2 		"/>
		<polygon class="st0" points="456.5,181.2 450.9,185.4 450.9,176.9 		"/>
		<polygon class="st0" points="450.9,164.1 450.9,176.9 442.3,170.5 		"/>
		<polygon class="st0" points="442.3,191.8 433.8,198.2 433.8,185.4 		"/>
		<polygon class="st0" points="433.8,185.4 433.8,198.2 413.3,213.6 403,200 428.1,181.2 		"/>
		<polygon class="st0" points="450.9,176.9 450.9,185.4 442.3,191.8 433.8,185.4 433.8,176.9 442.3,170.5 		"/>
		<polygon class="st0" points="481.5,162.4 456.5,181.2 450.9,176.9 450.9,164.1 471.3,148.8 		"/>
	</g>
</g>
</svg>
