<?xml version="1.0" encoding="utf-8"?>
<!-- Generator: Adobe Illustrator 19.0.0, SVG Export Plug-In . SVG Version: 6.00 Build 0)  -->
<svg version="1.1" id="Layer_1" xmlns="http://www.w3.org/2000/svg" xmlns:xlink="http://www.w3.org/1999/xlink" x="0px" y="0px"
	 viewBox="-27 -186.3 512 512" style="enable-background:new -27 -186.3 512 512;" xml:space="preserve">
<style type="text/css">
	.st0{fill:#2850A7;}
	.st1{fill:#3367D6;}
</style>
<g>
	<g>
		<g>
			<path class="st0" d="M321.8,15.6c-10.8-42.1-48.8-72-92.8-72s-82,29.9-92.8,72h-163v55.7h511.7V15.6H321.8z M469.2,55.6H-11.2
				V31.3H149l1.2-6.4c7-38,40.1-65.6,78.8-65.6c38.6,0,71.8,27.6,78.8,65.6l1.2,6.4h160.2V55.6z"/>
			<path class="st1" d="M308.9,31.3l-1.2-6.4c-7-38-40.1-65.6-78.8-65.6s-71.8,27.6-78.8,65.6l-1.2,6.4H-11.2v24.3h480.3V31.3H308.9
				z M245,39.3h-32V23.6h32V39.3z M269,7.3h-80V-8.4h80V7.3z"/>
			<path class="st0" d="M21.2,119.6v151.7h159.7V119.6H21.2z M165.2,255.6H36.8V135.3h128.3L165.2,255.6L165.2,255.6z"/>
			<path class="st0" d="M277.2,111.6v159.7h159.7V111.6H277.2z M421.2,255.6H292.8V127.3h128.3v128.3H421.2z"/>
			<path class="st0" d="M468.8,287.6V95.3h7.8V79.6H-18.7v15.7h7.8v192.3H-27v15.7h512v-15.7H468.8z M245.2,287.6h-32.3v-88.3h32.3
				V287.6z M453.2,287.6H260.8v-104h-63.7v104H4.8V95.3h448.3v192.3H453.2z"/>
			<rect x="212.8" y="199.3" class="st1" width="32.3" height="88.3"/>
			<path class="st1" d="M4.8,95.3v192.3h192.3v-104h63.7v104h192.3V95.3H4.8z M180.8,271.3H21.2V119.6h159.7L180.8,271.3
				L180.8,271.3z M260.8,175.3h-63.7v-63.7h63.7V175.3z M436.8,271.3H277.2V111.6h159.7v159.7H436.8z"/>
			<path class="st1" d="M292.8,127.3v128.3h128.3V127.3H292.8z M402.6,181l-16,16l-11.1-11.1l16-16L402.6,181z M319.4,145.9
				l11.1,11.1l-16,16l-11.1-11.1L319.4,145.9z M303.4,209.9l72-72l11.1,11.1l-72,72L303.4,209.9z M412.8,247.3h-63.7v-39.7h63.7
				V247.3z"/>
			<path class="st1" d="M36.8,135.3v120.3h128.3V135.3H36.8z M45.2,143.6h95.7v55.7H45.2V143.6z M66.6,245l-11.1-11.1l28-28
				L94.6,217L66.6,245z M114.6,245l-11.1-11.1l28-28l11.1,11.1L114.6,245z"/>
			<path class="st0" d="M45.2,143.6v55.7h95.7v-55.7H45.2z M125.2,183.6H60.8v-24.3h64.3L125.2,183.6L125.2,183.6z"/>
			<rect x="60.8" y="159.3" class="st1" width="64.3" height="24.3"/>
			<rect x="189" y="-8.4" class="st0" width="80" height="15.7"/>
			<rect x="213" y="23.6" class="st0" width="32" height="15.7"/>
			<path class="st0" d="M349.2,207.6v39.7h63.7v-39.7H349.2z M397.2,231.6h-32.3v-8.3h32.3V231.6z"/>
			<rect x="364.8" y="223.3" class="st1" width="32.3" height="8.3"/>
			<path class="st0" d="M197.2,111.6v63.7h63.7v-63.7H197.2z M245.2,159.6h-32.3v-32.3h32.3V159.6z"/>
			<rect x="212.8" y="127.3" class="st1" width="32.3" height="32.3"/>
			
				<rect x="305.7" y="151.6" transform="matrix(-0.7071 0.7071 -0.7071 -0.7071 653.9285 48.051)" class="st0" width="22.6" height="15.7"/>
			<polygon class="st0" points="402.6,181 386.6,197 375.5,185.9 391.5,169.9 			"/>
			
				<rect x="294.1" y="171.6" transform="matrix(-0.7071 0.7071 -0.7071 -0.7071 715.869 62.4144)" class="st0" width="101.8" height="15.7"/>
			
				<rect x="55.2" y="217.6" transform="matrix(-0.7071 0.7071 -0.7071 -0.7071 287.4781 331.8955)" class="st0" width="39.6" height="15.7"/>
			
				<rect x="103.2" y="217.6" transform="matrix(-0.7071 0.7071 -0.7071 -0.7071 369.4189 297.9552)" class="st0" width="39.6" height="15.7"/>
		</g>
	</g>
</g>
</svg>
