<?xml version="1.0" encoding="utf-8"?>
<!-- Generator: Adobe Illustrator 19.0.0, SVG Export Plug-In . SVG Version: 6.00 Build 0)  -->
<svg version="1.1" id="Layer_1" xmlns="http://www.w3.org/2000/svg" xmlns:xlink="http://www.w3.org/1999/xlink" x="0px" y="0px"
	 viewBox="-27 -186.3 512 512" style="enable-background:new -27 -186.3 512 512;" xml:space="preserve">
<style type="text/css">
	.st0{fill:#FFFFFF;}
	.st1{fill:#3367D6;}
</style>
<g>
	<g>
		<g>
			<path class="st0" d="M321.8,11.5c-10.8-42.1-48.8-72-92.8-72s-82,29.9-92.8,72h-163v55.7h511.7V11.5H321.8z M469.2,51.5H-11.2
				V27.2H149l1.2-6.4c7-38,40.1-65.6,78.8-65.6c38.6,0,71.8,27.6,78.8,65.6l1.2,6.4h160.2V51.5z"/>
			<path class="st1" d="M308.9,27.2l-1.2-6.4c-7-38-40.1-65.6-78.8-65.6s-71.8,27.6-78.8,65.6l-1.2,6.4H-11.2v24.3h480.3V27.2H308.9
				z M245,35.2h-32V19.5h32V35.2z M269,3.2h-80v-15.7h80V3.2z"/>
			<path class="st0" d="M468.8,283.5V91.2h7.8V75.5H-18.7v15.7h7.8v192.3H-27v15.7h512v-15.7H468.8z M245.2,283.5h-32.3v-88.3h32.3
				V283.5z M453.2,283.5H260.8v-104h-63.7v104H4.8V91.2h448.3v192.3H453.2z"/>
			<rect x="212.8" y="195.2" class="st1" width="32.3" height="88.3"/>
			<path class="st1" d="M4.8,91.2v192.3h192.3v-104h63.7v104h192.3V91.2H4.8z M180.8,267.2H21.2V115.5h159.7L180.8,267.2
				L180.8,267.2z M260.8,171.2h-63.7v-63.7h63.7V171.2z M436.8,267.2H277.2V107.5h159.7v159.7H436.8z"/>
			<path class="st0" d="M277.2,107.5v159.7h159.7V107.5H277.2z M421.2,251.5H292.8V123.2h128.3v128.3H421.2z"/>
			<path class="st0" d="M21.2,115.5v151.7h159.7V115.5H21.2z M165.2,251.5H36.8V131.2h128.3L165.2,251.5L165.2,251.5z"/>
			<path class="st1" d="M292.8,123.2v128.3h128.3V123.2H292.8z M402.6,176.9l-16,16l-11.1-11.1l16-16L402.6,176.9z M319.4,141.8
				l11.1,11.1l-16,16l-11.1-11.1L319.4,141.8z M303.4,205.8l72-72l11.1,11.1l-72,72L303.4,205.8z M412.8,243.2h-63.7v-39.7h63.7
				V243.2z"/>
			<path class="st1" d="M36.8,131.2v120.3h128.3V131.2H36.8z M45.2,139.5h95.7v55.7H45.2V139.5z M66.6,240.9l-11.1-11.1l28-28
				l11.1,11.1L66.6,240.9z M114.6,240.9l-11.1-11.1l28-28l11.1,11.1L114.6,240.9z"/>
			<path class="st0" d="M45.2,139.5v55.7h95.7v-55.7H45.2z M125.2,179.5H60.8v-24.3h64.3L125.2,179.5L125.2,179.5z"/>
			<rect x="60.8" y="155.2" class="st1" width="64.3" height="24.3"/>
			<rect x="189" y="-12.5" class="st0" width="80" height="15.7"/>
			<rect x="213" y="19.5" class="st0" width="32" height="15.7"/>
			<path class="st0" d="M349.2,203.5v39.7h63.7v-39.7H349.2z M397.2,227.5h-32.3v-8.3h32.3V227.5z"/>
			<rect x="364.8" y="219.2" class="st1" width="32.3" height="8.3"/>
			<path class="st0" d="M197.2,107.5v63.7h63.7v-63.7H197.2z M245.2,155.5h-32.3v-32.3h32.3V155.5z"/>
			<rect x="212.8" y="123.2" class="st1" width="32.3" height="32.3"/>
			
				<rect x="305.7" y="147.4" transform="matrix(-0.7071 0.7071 -0.7071 -0.7071 650.9858 40.9469)" class="st0" width="22.6" height="15.7"/>
			<polygon class="st0" points="402.6,176.9 386.6,192.9 375.5,181.8 391.5,165.8 			"/>
			
				<rect x="294.1" y="167.5" transform="matrix(-0.7071 0.7071 -0.7071 -0.7071 712.9263 55.3103)" class="st0" width="101.8" height="15.7"/>
			
				<rect x="55.2" y="213.5" transform="matrix(-0.7071 0.7071 -0.7071 -0.7071 284.5355 324.7914)" class="st0" width="39.6" height="15.7"/>
			
				<rect x="103.2" y="213.5" transform="matrix(-0.7071 0.7071 -0.7071 -0.7071 366.4763 290.8511)" class="st0" width="39.6" height="15.7"/>
		</g>
	</g>
</g>
</svg>
