<?xml version="1.0" encoding="utf-8"?>
<!-- Generator: Adobe Illustrator 19.0.0, SVG Export Plug-In . SVG Version: 6.00 Build 0)  -->
<svg version="1.1" id="Capa_1" xmlns="http://www.w3.org/2000/svg" xmlns:xlink="http://www.w3.org/1999/xlink" x="0px" y="0px"
	 viewBox="-27 -186.3 887 512" style="enable-background:new -27 -186.3 887 512;" xml:space="preserve">
<style type="text/css">
	.st0{fill:#2850A7;}
	.st1{fill:#3367D6;}
</style>
<g>
	<g>
		<path class="st0" d="M834,84.4c0-19.9-8.7-38.8-23.9-51.7c5.8-9.4,8.8-20.3,8.8-31.3c-0.1-30.6-23-56.3-53.3-59.9
			c0.3-2.6,0.5-5.3,0.5-8c0.1-33.3-26.8-60.3-60.1-60.3c-19.6,0-37.9,9.4-49.3,25.4c-19.2-27.1-56.8-33.5-83.9-14.3
			c-5.5,3.9-10.4,8.8-14.3,14.3c-19.3-27.1-56.9-33.4-84-14.1c-18.2,13-27.7,34.9-24.8,57c-30.4,3.6-53.3,29.3-53.3,59.9
			c0,11,3,21.9,8.8,31.3c-28.5,24.3-32,67.2-7.6,95.7c2.3,2.8,4.9,5.3,7.6,7.6c-5.8,9.4-8.8,20.3-8.8,31.3c0,33.3,27,60.3,60.3,60.3
			h45.3v83h-22.6c-4.2,0-7.5,3.4-7.5,7.6c0,4.2,3.4,7.5,7.5,7.5H736c4.2,0,7.6-3.4,7.6-7.5c0-4.2-3.4-7.6-7.6-7.6h-22.6v-83h45.3
			c33.3,0,60.3-27,60.4-60.3c0-11-3-21.9-8.8-31.3C825.3,123.1,834,104.2,834,84.4z M456.9,212.5c-25,0-45.2-20.2-45.3-45.2
			c0-10.3,3.5-20.2,9.9-28.2c2.6-3.3,2.1-8-1.2-10.6c-0.2-0.1-0.3-0.2-0.5-0.4c-24.2-16.3-30.6-49.1-14.3-73.3
			c3.8-5.7,8.7-10.5,14.3-14.3c3.5-2.3,4.4-7,2-10.5c-0.1-0.2-0.2-0.3-0.3-0.5c-6.4-8-9.9-17.9-9.9-28.2c0-25,20.3-45.2,45.3-45.3
			l2,0.1c2.4,0.1,4.8-1,6.3-2.9c1.5-1.9,2-4.5,1.3-6.8c-7.1-24,6.6-49.1,30.6-56.2c21.3-6.3,44,3.8,53.6,23.9c0,0.1,0,0.1-0.1,0.2
			c-0.9,2.8-1.7,5.7-2.2,8.7c-0.1,0.5-0.1,1-0.2,1.5c-0.9,5.6-1,11.2-0.2,16.8c-30.4,3.6-53.3,29.4-53.3,60c0,11,3,21.9,8.8,31.3
			c-0.1,0.1-0.3,0.3-0.4,0.4L467.9-2.1c-3-2.9-7.8-2.8-10.7,0.2c-2.8,2.9-2.8,7.6,0,10.5l35.5,35.5c-21.2,28.7-16.5,68.8,10.6,91.9
			c-2.9,4.7-5.1,9.9-6.6,15.3l-27-27c-3-2.9-7.8-2.8-10.7,0.2c-2.8,2.9-2.8,7.6,0,10.5l35.7,35.7c0.1,1,0.1,2.1,0.2,3.1
			c0.1,0.7,0.2,1.4,0.3,2.1c0.2,1.4,0.4,2.8,0.7,4.1c0.2,0.8,0.4,1.6,0.6,2.4c0.3,1.2,0.6,2.4,1,3.6c0.3,0.8,0.6,1.6,0.9,2.5
			c0.4,1.1,0.8,2.2,1.3,3.3c0.4,0.8,0.8,1.6,1.2,2.4c0.5,1,1,2.1,1.6,3c0.5,0.8,0.9,1.5,1.4,2.3c0.6,1,1.2,1.9,1.9,2.8
			c0.5,0.8,1.1,1.5,1.6,2.2c0.7,0.9,1.4,1.7,2.1,2.6c0.6,0.7,1.2,1.4,1.8,2c0.8,0.8,1.6,1.6,2.4,2.4c0.4,0.4,0.8,0.8,1.2,1.2H456.9z
			 M600.2,310.6h-83v-83h83V310.6z M607.8-28.8c-4.2,0-7.5,3.4-7.5,7.5v53.5L565.9-2.1c-3-2.9-7.8-2.8-10.7,0.2
			c-2.8,2.9-2.8,7.6,0,10.5l45,44.9v103.1l-32.4-32.4c-3-2.9-7.8-2.8-10.7,0.2c-2.8,2.9-2.8,7.6,0,10.5l43.1,43v34.6H555
			c-25,0-45.3-20.3-45.3-45.3c0-10.3,3.5-20.2,9.9-28.2c2.6-3.3,2.1-8-1.2-10.6c-0.2-0.1-0.3-0.2-0.5-0.4
			c-24.2-16.3-30.6-49.1-14.3-73.3c3.8-5.7,8.7-10.5,14.3-14.3c3.4-2.3,4.4-7,2-10.5c-0.1-0.2-0.2-0.3-0.4-0.5
			c-6.4-8-9.9-17.9-9.9-28.2c0-25,20.3-45.2,45.3-45.3l2,0.1c2.4,0.1,4.8-1,6.3-2.9c1.5-1.9,2-4.5,1.3-6.8c-1.3-4.2-1.9-8.6-1.9-13
			c0-2.8,0.3-5.6,0.8-8.3c0-0.1,0-0.2,0-0.3c0.5-2.7,1.3-5.4,2.4-8c6.8-17.3,23.5-28.6,42.1-28.7c18.6,0,35.3,11.4,42.1,28.7
			c1,2.6,1.8,5.3,2.4,8c0,0.1,0,0.2,0,0.3c0.5,2.7,0.8,5.5,0.8,8.2c0,4.4-0.7,8.8-1.9,13c-0.7,2.3-0.2,4.9,1.3,6.8
			c1.5,2,3.8,3,6.3,2.9l2-0.1c25,0,45.2,20.3,45.3,45.3c0,10.3-3.5,20.2-9.9,28.2c-2.6,3.3-2.1,8,1.2,10.6c0.2,0.1,0.3,0.2,0.5,0.4
			c24.2,16.3,30.6,49.1,14.3,73.3c-3.8,5.7-8.7,10.5-14.3,14.3c-3.5,2.3-4.4,7-2,10.5c0.1,0.2,0.2,0.3,0.4,0.5
			c6.4,8,9.9,18,9.9,28.2c0,25-20.3,45.2-45.3,45.3h-45.3v-103c0.6-0.3,1.1-0.6,1.6-1l49-49c2.9-3,2.8-7.8-0.2-10.7
			c-2.9-2.8-7.5-2.8-10.5,0l-39.9,39.9v-110C615.3-25.4,611.9-28.8,607.8-28.8z M698.3,310.6h-83v-83h83V310.6z M793.6,138.6
			c0.1,0.2,0.2,0.3,0.4,0.5c6.4,8,9.9,18,9.9,28.2c0,25-20.3,45.2-45.3,45.3h-58.2c0.4-0.4,0.8-0.8,1.2-1.2c0.8-0.8,1.6-1.6,2.4-2.4
			c0.6-0.7,1.2-1.3,1.8-2c0.8-0.8,1.5-1.7,2.1-2.6c0.6-0.7,1.1-1.4,1.6-2.2c0.7-0.9,1.3-1.8,1.9-2.8c0.5-0.8,1-1.5,1.4-2.3
			c0.6-1,1.1-2,1.6-3c0.4-0.8,0.8-1.6,1.2-2.4c0.5-1.1,0.9-2.2,1.3-3.3c0.3-0.8,0.6-1.6,0.9-2.5c0.4-1.2,0.7-2.4,1-3.6
			c0.2-0.8,0.4-1.6,0.6-2.4c0.3-1.4,0.5-2.8,0.7-4.2c0.1-0.7,0.2-1.4,0.3-2.1c0.2-2.2,0.4-4.3,0.4-6.5c0-11-3-21.9-8.8-31.3
			c14.2-12.2,22.8-29.7,23.7-48.4L764,59.5c2.9-3,2.8-7.8-0.2-10.7c-2.9-2.8-7.6-2.8-10.5,0L734,68.1c-3.4-13.8-11-26.2-21.8-35.4
			c5.8-9.4,8.8-20.3,8.8-31.3c-0.1-30.6-23-56.3-53.3-59.9c0.8-5.6,0.7-11.3-0.2-16.8c-0.1-0.5-0.2-1-0.2-1.5
			c-0.5-2.9-1.2-5.8-2.2-8.6c0-0.1,0-0.2,0-0.2c10.8-22.5,37.8-32.1,60.4-21.3c20,9.6,30.2,32.3,23.9,53.6c-0.7,2.3-0.2,4.9,1.3,6.8
			c1.5,1.9,3.8,3,6.3,2.9l2-0.1c25,0,45.2,20.3,45.3,45.3c0,10.3-3.5,20.2-9.9,28.2c-2.6,3.3-2.1,8,1.2,10.6
			c0.2,0.1,0.3,0.2,0.5,0.4c24.2,16.3,30.6,49.1,14.3,73.3c-3.8,5.7-8.7,10.5-14.3,14.3C792.2,130.5,791.3,135.2,793.6,138.6z"/>
		<path class="st1" d="M793.6,138.6c0.1,0.2,0.2,0.3,0.4,0.5c6.4,8,9.9,17.9,9.9,28.2c0,25-20.3,45.2-45.3,45.3h-58.2
			c0.4-0.4,0.8-0.8,1.2-1.2c0.8-0.8,1.6-1.5,2.4-2.4c0.6-0.7,1.2-1.3,1.8-2c0.8-0.8,1.5-1.7,2.1-2.6c0.6-0.7,1.1-1.4,1.6-2.2
			c0.7-0.9,1.3-1.8,1.9-2.8c0.5-0.8,1-1.5,1.4-2.3c0.6-1,1.1-2,1.6-3c0.4-0.8,0.8-1.6,1.2-2.4c0.5-1.1,0.9-2.2,1.3-3.3
			c0.3-0.8,0.6-1.6,0.9-2.5c0.4-1.2,0.7-2.4,1-3.6c0.2-0.8,0.4-1.6,0.6-2.4c0.3-1.4,0.5-2.8,0.7-4.1c0.1-0.7,0.2-1.4,0.3-2.1
			c0.2-2.2,0.4-4.3,0.4-6.5c0-11-3-21.9-8.8-31.3c14.2-12.2,22.8-29.7,23.7-48.4l28.1-28.1c2.9-3,2.8-7.8-0.2-10.7
			c-2.9-2.8-7.6-2.8-10.5,0L734,68.2c-3.4-13.8-11-26.2-21.8-35.4c5.8-9.4,8.8-20.3,8.8-31.3c0-30.6-22.9-56.3-53.3-59.9
			c0.8-5.6,0.7-11.3-0.2-16.8c-0.1-0.5-0.1-1-0.2-1.5c-0.5-2.9-1.2-5.8-2.2-8.7c0-0.1,0-0.2-0.1-0.2c10.8-22.6,37.8-32.1,60.4-21.3
			c20,9.6,30.2,32.3,23.9,53.6c-0.7,2.3-0.2,4.9,1.3,6.8c1.5,1.9,3.8,3,6.3,2.9l2-0.1c25,0,45.2,20.3,45.3,45.3
			c0,10.3-3.5,20.2-9.9,28.2c-2.6,3.3-2.1,8,1.2,10.6c0.2,0.1,0.3,0.2,0.5,0.4c24.2,16.3,30.6,49.1,14.3,73.3
			c-3.8,5.7-8.7,10.5-14.3,14.3C792.2,130.5,791.3,135.2,793.6,138.6z"/>
		<path class="st1" d="M695.5,138.6c0.1,0.2,0.2,0.3,0.4,0.5c6.4,8,9.9,17.9,9.9,28.2c0,25-20.3,45.2-45.3,45.3h-45.3v-103
			c0.6-0.3,1.1-0.6,1.6-1l49-49c2.9-3,2.8-7.8-0.2-10.7c-2.9-2.8-7.5-2.8-10.5,0l-39.9,39.9v-110c0-4.2-3.4-7.5-7.5-7.5
			s-7.5,3.4-7.5,7.5v53.5L565.9-2.1c-3-2.9-7.8-2.8-10.7,0.2c-2.8,2.9-2.8,7.6,0,10.5l44.9,44.9v103.1l-32.4-32.4
			c-3-2.9-7.8-2.8-10.7,0.2c-2.8,2.9-2.8,7.6,0,10.5l43.1,43.1v34.6h-45.3c-25,0-45.2-20.3-45.3-45.3c0-10.3,3.5-20.2,9.9-28.2
			c2.6-3.3,2.1-8-1.2-10.6c-0.2-0.1-0.3-0.2-0.5-0.4c-24.2-16.3-30.6-49.1-14.3-73.3c3.8-5.7,8.7-10.5,14.3-14.3
			c3.4-2.3,4.4-7,2-10.5c-0.1-0.2-0.2-0.3-0.4-0.5c-6.4-8-9.9-17.9-9.9-28.2c0-25,20.3-45.2,45.3-45.3l2,0.1c2.4,0.1,4.8-1,6.2-2.9
			c1.5-1.9,2-4.5,1.3-6.8c-1.3-4.2-1.9-8.6-1.9-13c0-2.8,0.3-5.6,0.8-8.3c0-0.1,0-0.2,0-0.3c0.5-2.7,1.3-5.4,2.4-8
			c6.8-17.3,23.5-28.6,42.1-28.7c18.6,0,35.3,11.4,42.1,28.7c1,2.6,1.8,5.3,2.4,8c0,0.1,0,0.2,0,0.3c0.5,2.7,0.8,5.5,0.8,8.2
			c0,4.4-0.7,8.8-1.9,13c-0.7,2.3-0.2,4.9,1.3,6.8c1.5,2,3.8,3,6.2,2.9l2-0.1c25,0,45.2,20.3,45.3,45.3c0,10.3-3.5,20.2-9.9,28.2
			c-2.6,3.3-2.1,8,1.2,10.6c0.2,0.1,0.3,0.2,0.5,0.4c24.2,16.3,30.6,49.1,14.3,73.3c-3.8,5.7-8.7,10.5-14.3,14.3
			C694.1,130.5,693.2,135.2,695.5,138.6z"/>
		<path class="st1" d="M550.6-85.8c0,0.1,0,0.2-0.1,0.2c-0.9,2.8-1.7,5.7-2.2,8.7c-0.1,0.5-0.2,1-0.2,1.5c-0.9,5.6-1,11.2-0.2,16.8
			c-30.4,3.6-53.3,29.4-53.3,60c0,11,3,21.9,8.8,31.3c-0.1,0.1-0.2,0.2-0.4,0.4L467.9-2.1c-3-2.9-7.8-2.8-10.7,0.2
			c-2.8,2.9-2.8,7.6,0,10.5l35.5,35.5c-21.1,28.7-16.5,68.8,10.6,91.9c-2.9,4.7-5.1,9.9-6.6,15.2l-27-27c-3-2.9-7.8-2.8-10.7,0.2
			c-2.8,2.9-2.8,7.6,0,10.5l35.7,35.7c0.1,1.1,0.1,2.1,0.2,3.1c0.1,0.7,0.2,1.4,0.3,2.1c0.2,1.4,0.4,2.8,0.7,4.1
			c0.2,0.8,0.4,1.6,0.6,2.4c0.3,1.2,0.6,2.4,1,3.6c0.3,0.8,0.6,1.6,0.9,2.5c0.4,1.1,0.8,2.2,1.3,3.3c0.4,0.8,0.8,1.6,1.2,2.4
			c0.5,1,1,2.1,1.6,3c0.5,0.8,0.9,1.5,1.4,2.3c0.6,1,1.2,1.9,1.9,2.8c0.5,0.8,1.1,1.5,1.6,2.2c0.7,0.9,1.4,1.7,2.1,2.6
			c0.6,0.7,1.2,1.4,1.8,2c0.8,0.8,1.6,1.6,2.4,2.4c0.4,0.4,0.8,0.8,1.2,1.2h-58.2c-25,0-45.2-20.2-45.3-45.2
			c0-10.3,3.5-20.2,9.9-28.2c2.6-3.3,2.1-8-1.2-10.6c-0.2-0.1-0.3-0.2-0.5-0.4c-24.2-16.3-30.6-49.1-14.3-73.3
			c3.8-5.7,8.7-10.5,14.3-14.3c3.5-2.3,4.4-7,2-10.5c-0.1-0.2-0.2-0.3-0.4-0.5c-6.4-8-9.9-17.9-9.9-28.2c0-25,20.3-45.2,45.3-45.3
			l2,0.1c2.4,0.1,4.8-1,6.3-2.9c1.5-1.9,2-4.5,1.3-6.8c-7.1-24,6.6-49.1,30.6-56.2C518.3-116,541-105.9,550.6-85.8z"/>
	</g>
</g>
<g>
	<path class="st0" d="M483.2-86.5c0-0.8-0.2-1.7-0.4-2.5l-35.2-76.7c-5.7-12.4-18.2-20.5-31.9-20.5H57.2c-13.7,0-26.2,8-31.9,20.4
		L-9.4-90.5l-0.5,1.2c-0.3,1.2-0.4,2.4-0.3,3.6c-0.6,1.3-0.9,2.8-0.9,4.3v57.3c0,12,3.1,23.2,8.5,33v62.7c-3.9,4.3-6.8,9.7-7.9,15.6
		c-0.9,5.1-0.6,10.5,0.9,15.6c0.8,2.8,0.2,6.2-1.8,9.1c-8.9,13.2-10.8,31.6-4.5,45.8c0.9,2.2,2.1,4.2,3.5,6c2,2.7,2.7,6.2,1.9,9.4
		c-0.5,1.8-0.8,3.5-0.9,5.3c-0.7,7.6,0.9,15.1,2.1,21c1.3,6.3,3.3,15.8,10.4,21.8c3.8,3.2,8.4,4.9,13.5,5.2v30.9h-25l-4.3,0.2
		l-5.2,6.5l10.3,61.6h485.1V8.9c5.4-9.8,8.5-21,8.5-33v-58.8C484-84.2,483.7-85.4,483.2-86.5z M415.7-169.1c7,0,13.5,4.1,16.4,10.5
		l30.5,66.3H363l-7-38.4l-7-38.4H415.7L415.7-169.1z M244.9-169.1h15.5c-3.9,0.8-7,4.1-7,8.2c0,4.7,3.8,8.5,8.5,8.5
		c4.7,0,8.5-3.8,8.5-8.5c0-4.2-3-7.5-7-8.2h48.1c-3.9,0.8-7,4.1-7,8.2c0,4.7,3.8,8.5,8.5,8.5s8.5-3.8,8.5-8.5c0-4.2-3-7.5-7-8.2
		h16.9l4.7,25.8c-3.5,1.1-6.1,4.2-6.1,8c0,4.7,3.8,8.5,8.5,8.5c0.2,0,0.4-0.1,0.5-0.1l6.3,34.6H244.9V-169.1z M244.9-75.2h102.4V-24
		c0,28.2-23,51.2-51.2,51.2s-51.2-23-51.2-51.2L244.9-75.2L244.9-75.2z M134.1-130.7l7-38.4h86.8v76.8H127.1L134.1-130.7z
		 M125.4-75.2h102.5V-24c0,23.8-16.3,43.7-38.3,49.5c2.4-1.5,4.1-4.1,4.1-7.1c0-4.7-3.8-8.5-8.5-8.5s-8.5,3.8-8.5,8.5
		c0,4.3,3.2,7.6,7.3,8.3c-2.4,0.3-4.8,0.6-7.3,0.6c-28.2,0-51.2-23-51.2-51.2v-51.3H125.4z M26.8-128.4c1.4,0.9,3,1.6,4.7,1.6
		c4.7,0,8.5-3.8,8.5-8.5c0-4-2.7-7.1-6.4-8.1l7-15.2c2.4-5.3,7.3-8.8,12.9-10c-2.9,1.4-5,4.3-5,7.7c0,4.7,3.8,8.5,8.5,8.5
		s8.5-3.8,8.5-8.5c0-4.2-3-7.5-7-8.2h48c-3.9,0.8-6.9,4.1-6.9,8.2c0,4.7,3.8,8.5,8.5,8.5s8.5-3.8,8.5-8.5c0-4.2-3-7.5-7-8.2h13.8
		l-7,38.4l-2.7,14.8c-1.5-1.4-3.5-2.3-5.7-2.3c-4.7,0-8.5,3.8-8.5,8.5s3.8,8.5,8.5,8.5c1.1,0,2.2-0.3,3.1-0.6l-1.7,9.5H10.2
		L26.8-128.4z M6-75.2h102.4V-24c0,28.2-23,51.2-51.2,51.2c-2,0-4-0.2-6-0.4c-0.7-0.1-1.4-0.2-2-0.3c-1.3-0.2-2.5-0.4-3.8-0.7
		c-0.8-0.2-1.6-0.4-2.4-0.6c-1.1-0.3-2.2-0.7-3.3-1.1c-0.8-0.3-1.5-0.5-2.3-0.8c-1.6-0.7-3.2-1.5-4.7-2.3c-0.8-0.4-1.5-0.9-2.3-1.4
		c-0.9-0.6-1.8-1.2-2.7-1.8c-0.7-0.5-1.3-1-2-1.5c-1.1-0.9-2.2-1.8-3.3-2.8c-0.3-0.3-0.7-0.6-1-0.9c-1.5-1.5-2.9-3-4.2-4.7l-0.1-0.1
		c-1.3-1.7-2.6-3.5-3.7-5.4c-0.3-0.5-0.6-1-0.9-1.5l-0.3-0.6C8.2-6.9,6-15.2,6-24V-75.2z M12.2,208.5c-2.6-2.3-3.9-8.4-4.8-12.4
		c-1.1-5.1-2.3-10.9-1.8-15.9c0.1-0.9,0.2-1.9,0.5-2.8c2-8.1,0.3-17-4.7-23.7c-0.6-0.8-1.2-1.8-1.6-2.7c-3.9-8.9-2.7-21,3-29.4
		c4.8-7.2,6.3-15.7,4-23.5c-0.7-2.5-0.9-5.2-0.5-7.7c0.6-3.2,2.3-6.2,4.5-8.2l0.6-0.5c0.8-0.7,1.5-1.1,2.1-1.4l7.7-6.3
		c0.6-0.6,1.4-1.1,2.2-1.4c0.2-0.1,0.4-0.1,0.6-0.2c1.6-0.6,3.3-0.7,4.7-0.7c0.9,0,1.7,0.1,2.3,0.2c3.1,0.4,5.9,1.5,8.3,3l1.9,1.5
		c0.9,0.7,1.6,1.5,2.2,2.1c0.6,0.8,1.2,1.5,1.7,2.4c1.3,2.5,1.7,6,1.1,9c-1.6,7.7,0.3,15.8,5.3,21.8c1,1.2,1.8,2.9,2.1,4.5
		c0.2,1.1,0.3,2.2,0.3,3.4c0,3.6-1,7.7-2.9,12.7l0,0c-1.7,4.2-3.5,7.7-5.6,10.5c-4.2,5.8-5.7,13.3-4.4,20.8c0.4,2.5,1.2,5,2.2,7.5
		c1,2.3,1.6,5,1.7,7.6c0.1,2.7-0.1,5.4-0.9,7.8c-0.4,1.4-0.9,2.7-1.5,3.9c-1.2,2.5-2.7,4.8-4.7,7c-0.1,0.1-0.2,0.2-0.3,0.3
		c-0.9,1-1.8,1.9-2.8,2.8c-3.4,3-6.9,5.2-9.5,6.5h-0.1c-1.3,0.7-2.7,1.2-4.1,1.7C17.5,209.8,14.2,210.2,12.2,208.5z M61.9,177.7
		c-0.3-4.7-1.3-9.3-3.1-13.4c-1.8-4.2-1.7-8.7,0.3-11.5c0.8-1.1,1.6-2.5,2.4-3.8c1.9-3.2,3.7-6.6,5.3-10.5c3.9-9.7,5-18.1,3.5-25.7
		c-0.9-4.4-2.9-8.6-5.7-12c-1.6-1.9-2.3-4.9-1.7-7.4c0.5-2.2,0.6-4.5,0.6-6.8c0-0.6,0-1.2-0.1-1.7c-0.1-2-0.4-4-0.9-5.9
		c-0.1-0.2,0-0.4-0.1-0.7h191.2v179.2h-222v-34.7c0.5-0.2,1-0.5,1.4-0.7c4.8-2.5,9-5.4,12.8-8.7l0,0c0.1-0.1,0.1-0.1,0.2-0.2
		c1.6-1.5,3.2-3,4.6-4.6c0.2-0.3,0.4-0.5,0.6-0.8c1.1-1.3,2.1-2.6,3-4c0.4-0.6,0.8-1.2,1.2-1.8c0.7-1.1,1.3-2.3,1.9-3.4
		c0.3-0.6,0.6-1.2,0.9-1.8c0.8-1.8,1.5-3.5,2.1-5.4c0.7-2.2,1.1-4.4,1.4-6.7C61.9,182.4,61.9,180.1,61.9,177.7z M41.4,308.8H4.7
		L-1,274.7h48.1L41.4,308.8z M424.2,308.8H304.7V78.4h119.5V308.8L424.2,308.8z M458.2,308.8H441V61.3H287.7v247.5h-229l5.7-34.1
		h206.1V61.3H49.6c-4.7-3.2-10.2-5.4-16.3-6.3c-2.2-0.3-4.4-0.4-6.4-0.3c-0.6,0-1.1,0.1-1.6,0.1c-1.6,0.1-3.2,0.4-4.6,0.8
		c-0.4,0.1-0.9,0.2-1.3,0.3c-1.7,0.5-3.3,1.1-4.8,1.9V29.3c4.9,4,10.3,7.1,16.1,9.6c0,0,0,0,0.1,0c1.9,0.8,3.8,1.5,5.8,2.1
		c0.3,0.1,0.7,0.2,1,0.3c1.7,0.5,3.3,0.9,5.1,1.3c0.5,0.1,1,0.2,1.5,0.3c1.6,0.3,3.2,0.6,4.9,0.8c0.6,0.1,1.1,0.2,1.7,0.2
		c2.2,0.2,4.4,0.3,6.6,0.3c2.9,0,5.7-0.2,8.5-0.6c0.8-0.1,1.6-0.2,2.4-0.4c2.1-0.3,4.2-0.8,6.2-1.3c0.7-0.2,1.4-0.3,2.1-0.5
		c2.6-0.8,5.2-1.7,7.7-2.7c0.4-0.2,0.7-0.4,1.1-0.5c2.1-1,4.2-2,6.1-3.2c0.7-0.4,1.4-0.8,2-1.2c1.8-1.1,3.5-2.3,5.2-3.6
		c0.5-0.4,1-0.7,1.4-1.1c2.1-1.7,4-3.5,5.9-5.4c0.4-0.4,0.8-0.9,1.2-1.3c1.5-1.5,2.8-3.2,4.1-4.8c0.5-0.6,1-1.3,1.4-1.9
		c1.3-1.9,2.6-3.8,3.7-5.8c0.2-0.3,0.4-0.5,0.5-0.8c0.2,0.3,0.4,0.5,0.5,0.8c1.1,2,2.4,3.9,3.7,5.8c0.5,0.7,0.9,1.3,1.4,1.9
		c1.3,1.7,2.7,3.3,4.1,4.8c0.4,0.5,0.8,0.9,1.2,1.3c1.9,1.9,3.8,3.7,5.9,5.4c0.5,0.4,1,0.7,1.4,1.1c1.7,1.3,3.4,2.5,5.2,3.6
		c0.7,0.4,1.3,0.8,2,1.2c2,1.1,4,2.2,6.2,3.2c0.4,0.2,0.7,0.4,1.1,0.5c2.5,1.1,5,2,7.7,2.7c0.7,0.2,1.4,0.4,2.1,0.5
		c2,0.5,4.1,1,6.2,1.3c0.8,0.1,1.6,0.3,2.4,0.4c2.8,0.3,5.6,0.6,8.5,0.6s5.7-0.2,8.5-0.6c0.8-0.1,1.6-0.2,2.4-0.4
		c2.1-0.3,4.2-0.8,6.2-1.3c0.7-0.2,1.4-0.3,2.1-0.5c2.6-0.8,5.2-1.7,7.7-2.7c0.4-0.2,0.7-0.4,1.1-0.5c2.1-1,4.2-2,6.2-3.2
		c0.7-0.4,1.4-0.8,2-1.2c1.8-1.1,3.5-2.3,5.2-3.6c0.5-0.4,1-0.7,1.4-1.1c2.1-1.7,4-3.5,5.9-5.4c0.4-0.4,0.8-0.9,1.2-1.3
		c1.4-1.5,2.8-3.2,4.1-4.8c0.5-0.6,1-1.3,1.4-1.9c1.3-1.9,2.6-3.8,3.7-5.8c0.2-0.3,0.4-0.5,0.5-0.8c0.2,0.3,0.4,0.5,0.5,0.8
		c1.1,2,2.4,3.9,3.7,5.8c0.5,0.7,0.9,1.3,1.4,1.9c1.3,1.7,2.7,3.3,4.1,4.8c0.4,0.5,0.8,0.9,1.2,1.3c1.9,1.9,3.8,3.7,5.9,5.4
		c0.5,0.4,1,0.7,1.4,1.1c1.7,1.3,3.4,2.5,5.2,3.6c0.7,0.4,1.3,0.8,2,1.2c2,1.1,4,2.2,6.1,3.2c0.4,0.2,0.7,0.4,1.1,0.5
		c2.5,1.1,5,2,7.7,2.7c0.7,0.2,1.4,0.4,2.1,0.5c2,0.5,4.1,1,6.2,1.3c0.8,0.1,1.6,0.3,2.4,0.4c2.8,0.3,5.6,0.6,8.5,0.6
		c2.9,0,5.7-0.2,8.5-0.6c0.8-0.1,1.6-0.2,2.4-0.4c2.1-0.3,4.2-0.8,6.2-1.3c0.7-0.2,1.4-0.3,2.1-0.5c2.6-0.8,5.2-1.7,7.7-2.7
		c0.4-0.2,0.7-0.4,1.1-0.5c2.1-1,4.2-2,6.2-3.2c0.7-0.4,1.4-0.8,2-1.2c1.8-1.1,3.5-2.3,5.2-3.6c0.5-0.4,1-0.7,1.4-1.1
		c2.1-1.7,4-3.5,5.9-5.4c0.4-0.4,0.8-0.9,1.2-1.3c1.4-1.5,2.8-3.2,4.1-4.8c0.5-0.6,1-1.3,1.4-1.9c1.3-1.9,2.6-3.8,3.7-5.8
		c0.2-0.3,0.4-0.5,0.5-0.8c0.2,0.3,0.4,0.5,0.5,0.8c1.2,2,2.4,3.9,3.7,5.8c0.5,0.7,0.9,1.3,1.4,1.9c1.3,1.7,2.7,3.3,4.1,4.8
		c0.4,0.5,0.8,0.9,1.2,1.3c1.9,1.9,3.8,3.7,5.9,5.4c0.5,0.4,1,0.7,1.4,1.1c1.7,1.3,3.4,2.5,5.2,3.6c0.7,0.4,1.3,0.8,2,1.2
		c2,1.1,4,2.2,6.2,3.2c0.4,0.2,0.7,0.4,1.1,0.5c2.5,1.1,5,2,7.7,2.7c0.7,0.2,1.4,0.4,2.1,0.5c2,0.5,4.1,1,6.2,1.3
		c0.8,0.1,1.6,0.3,2.4,0.4c2.8,0.3,5.6,0.6,8.5,0.6c2.2,0,4.4-0.1,6.5-0.3c0.6,0,1.1-0.2,1.7-0.2c1.6-0.2,3.3-0.4,4.9-0.8
		c0.5-0.1,1-0.2,1.5-0.3c1.7-0.4,3.4-0.8,5.1-1.3c0.3-0.1,0.7-0.2,1-0.3c2-0.6,3.9-1.3,5.8-2.1c0,0,0,0,0.1,0
		c5.8-2.5,11.2-5.6,16.1-9.6v279.5H458.2z M466.8-67c-4.7,0-8.5,3.8-8.5,8.5s3.8,8.5,8.5,8.5v25.9c0,2.9-0.3,5.6-0.7,8.4
		c-4.4,0.4-7.8,3.9-7.8,8.4c0,2.6,1.2,4.8,3,6.3c-0.2,0.4-0.4,0.9-0.6,1.3l-0.3,0.6c-0.3,0.5-0.6,1-0.9,1.5
		c-1.1,1.9-2.4,3.7-3.7,5.4c0,0,0,0.1-0.1,0.1c-1.3,1.7-2.7,3.2-4.2,4.7c-0.3,0.3-0.6,0.6-1,0.9c-0.5,0.5-1,0.9-1.5,1.3
		c-1.4-2.9-4.3-4.9-7.7-4.9c-4.7,0-8.5,3.8-8.5,8.5c0,2,0.8,3.7,1.9,5.2c-0.5,0.2-0.9,0.3-1.4,0.5c-1.1,0.4-2.2,0.8-3.3,1.1
		c-0.8,0.2-1.6,0.4-2.4,0.6c-1.2,0.3-2.5,0.5-3.8,0.8c-0.7,0.1-1.3,0.2-2,0.3c-2,0.3-4,0.4-6,0.4c-6.7,0-13.1-1.3-19-3.7
		c1.1-1.5,1.9-3.2,1.9-5.2c0-4.7-3.8-8.5-8.5-8.5c-3.4,0-6.4,2.1-7.7,5c-5.3-4.5-9.5-9.8-12.6-15.8c1.8-1.6,3-3.8,3-6.3
		c0-4.4-3.4-8-7.8-8.4c-0.4-2.7-0.7-5.5-0.7-8.4v-25.9c4.7,0,8.5-3.8,8.5-8.5s-3.8-8.5-8.5-8.5v-8.2h102.4V-67L466.8-67z"/>
	<path class="st0" d="M142.6-32.9c0,4.7-3.8,8.5-8.5,8.5s-8.5-3.8-8.5-8.5s3.8-8.5,8.5-8.5C138.7-41.4,142.6-37.6,142.6-32.9z"/>
	<polygon class="st1" points="47.1,274.6 41.4,308.8 4.7,308.8 -1,274.6 	"/>
	<path class="st1" d="M53.9,119.5c0,3.6-1,7.7-2.9,12.7l0,0c-1.7,4.2-3.5,7.7-5.6,10.5c-4.2,5.8-5.7,13.3-4.4,20.8
		c0.4,2.5,1.2,5,2.2,7.5c1,2.3,1.6,5,1.7,7.6c0.1,2.7-0.1,5.4-0.9,7.8c-0.4,1.4-0.9,2.7-1.5,3.9c-1.2,2.5-2.7,4.8-4.7,7
		c-0.1,0.1-0.2,0.2-0.3,0.3c-0.9,1-1.8,1.9-2.8,2.8c-3.4,3-6.9,5.2-9.5,6.5h-0.1c-1.3,0.7-2.7,1.2-4.1,1.7c-3.4,1.1-6.8,1.4-8.7-0.2
		c-2.6-2.3-3.9-8.4-4.8-12.4c-1.1-5.1-2.3-10.9-1.8-15.9c0.1-0.9,0.2-1.9,0.5-2.8c2-8.1,0.3-17-4.7-23.7c-0.6-0.8-1.2-1.8-1.6-2.7
		c-3.9-8.9-2.7-21,3-29.4c4.8-7.2,6.3-15.7,4-23.5c-0.7-2.5-0.9-5.2-0.5-7.7c0.6-3.2,2.3-6.2,4.5-8.2l0.6-0.5
		c0.8-0.7,1.5-1.1,2.1-1.4l7.7-6.3c0.6-0.6,1.4-1.1,2.2-1.4c0.2-0.1,0.4-0.1,0.6-0.2c1.6-0.6,3.3-0.7,4.7-0.7c0.9,0,1.7,0.1,2.3,0.2
		c3.1,0.4,5.9,1.5,8.3,3l1.9,1.5c0.9,0.7,1.6,1.5,2.2,2.1c0.6,0.8,1.2,1.5,1.7,2.4c1.3,2.5,1.7,6,1.1,9c-1.6,7.7,0.3,15.8,5.3,21.8
		c1,1.2,1.8,2.9,2.1,4.5C53.7,117.2,53.9,118.4,53.9,119.5z"/>
	<path class="st1" d="M62.2,78.4c0.1,0.2,0,0.5,0.1,0.7c0.5,1.9,0.8,3.9,0.9,5.9c0,0.6,0.1,1.2,0.1,1.7c0,2.3-0.1,4.6-0.6,6.8
		c-0.5,2.5,0.2,5.5,1.7,7.4c2.8,3.4,4.8,7.6,5.7,12c1.5,7.6,0.4,16-3.5,25.7c-1.5,3.9-3.3,7.3-5.3,10.5c-0.8,1.3-1.5,2.7-2.4,3.8
		c-2,2.8-2.2,7.3-0.3,11.5c1.8,4.2,2.8,8.8,3.1,13.4c0.1,2.3,0.1,4.7-0.2,7s-0.7,4.6-1.4,6.7c-0.6,1.8-1.3,3.6-2.1,5.4
		c-0.3,0.6-0.6,1.2-0.9,1.8c-0.6,1.2-1.2,2.3-1.9,3.4c-0.4,0.6-0.8,1.2-1.2,1.8c-0.9,1.3-1.9,2.7-3,4c-0.2,0.2-0.4,0.5-0.6,0.8
		c-1.4,1.6-2.9,3.1-4.6,4.6c-0.1,0.1-0.1,0.1-0.2,0.2l0,0c-3.7,3.3-8,6.3-12.8,8.7c-0.5,0.2-0.9,0.5-1.4,0.7v34.7h221.8V78.4H62.2z
		 M179.2,123.5l25.6-25.6c3.3-3.3,8.7-3.3,12.1,0c3.3,3.3,3.3,8.7,0,12.1l-25.6,25.6c-1.7,1.7-3.8,2.5-6,2.5s-4.4-0.8-6-2.5
		C175.9,132.3,175.9,126.9,179.2,123.5z M127.9,132.1L162.1,98c3.3-3.3,8.7-3.3,12.1,0c3.3,3.3,3.3,8.7,0,12.1l-34.1,34
		c-1.7,1.7-3.8,2.5-6,2.5s-4.4-0.8-6-2.5C124.6,140.8,124.6,135.4,127.9,132.1z M176.7,146.6c0,2.2-0.9,4.4-2.5,6.1
		c-1.6,1.5-3.8,2.5-6.1,2.5s-4.4-0.9-6.1-2.6c-1.5-1.5-2.5-3.8-2.5-6s0.9-4.5,2.5-6.1c3.2-3.2,9-3.2,12.1,0
		C175.7,142.2,176.7,144.4,176.7,146.6z M127.9,174.7l17.1-17.1c3.3-3.3,8.7-3.3,12.1,0c3.3,3.3,3.3,8.7,0,12.1l-17,17.1
		c-1.7,1.7-3.8,2.5-6,2.5s-4.4-0.8-6-2.5C124.6,183.5,124.6,178.1,127.9,174.7z M216.9,152.7l-76.8,76.8c-1.7,1.7-3.8,2.5-6,2.5
		s-4.4-0.8-6-2.5c-3.3-3.3-3.3-8.7,0-12.1l76.8-76.8c3.3-3.3,8.7-3.3,12.1,0C220.2,143.9,220.2,149.3,216.9,152.7z M233.9,135.6
		c-1.6,1.5-3.8,2.5-6.1,2.5c-2.2,0-4.5-0.9-6.1-2.5c-1.5-1.6-2.5-3.8-2.5-6.1c0-2.2,0.9-4.4,2.5-6.1c3.2-3.1,9-3.1,12.1,0
		c1.5,1.6,2.5,3.8,2.5,6.1C236.4,131.8,235.4,134,233.9,135.6z"/>
	<path class="st1" d="M458.2,29.3v279.5H441V61.3H287.7v247.5h-229l5.7-34.1h206.1V61.3H49.6c-4.7-3.2-10.2-5.4-16.3-6.3
		c-2.2-0.3-4.4-0.4-6.4-0.3c-0.6,0-1.1,0.1-1.6,0.1c-1.6,0.1-3.2,0.4-4.6,0.8c-0.4,0.1-0.9,0.2-1.3,0.3c-1.7,0.5-3.3,1.1-4.8,1.9
		V29.3c4.9,4,10.3,7.1,16.1,9.6c0,0,0,0,0.1,0c1.9,0.8,3.8,1.5,5.8,2.1c0.3,0.1,0.7,0.2,1,0.3c1.7,0.5,3.3,0.9,5.1,1.3
		c0.5,0.1,1,0.2,1.5,0.3c1.6,0.3,3.2,0.6,4.9,0.8c0.6,0.1,1.1,0.2,1.7,0.2c2.2,0.2,4.4,0.3,6.6,0.3c2.9,0,5.7-0.2,8.5-0.6
		c0.8-0.1,1.6-0.2,2.4-0.4c2.1-0.3,4.2-0.8,6.2-1.3c0.7-0.2,1.4-0.3,2.1-0.5c2.6-0.8,5.2-1.7,7.7-2.7c0.4-0.2,0.7-0.4,1.1-0.5
		c2.1-1,4.2-2,6.1-3.2c0.7-0.4,1.4-0.8,2-1.2c1.8-1.1,3.5-2.3,5.2-3.6c0.5-0.4,1-0.7,1.4-1.1c2.1-1.7,4-3.5,5.9-5.4
		c0.4-0.4,0.8-0.9,1.2-1.3c1.5-1.5,2.8-3.2,4.1-4.8c0.5-0.6,1-1.3,1.4-1.9c1.3-1.9,2.6-3.8,3.7-5.8c0.2-0.3,0.4-0.5,0.5-0.8
		c0.2,0.3,0.4,0.5,0.5,0.8c1.1,2,2.4,3.9,3.7,5.8c0.5,0.7,0.9,1.3,1.4,1.9c1.3,1.7,2.7,3.3,4.1,4.8c0.4,0.5,0.8,0.9,1.2,1.3
		c1.9,1.9,3.8,3.7,5.9,5.4c0.5,0.4,1,0.7,1.4,1.1c1.7,1.3,3.4,2.5,5.2,3.6c0.7,0.4,1.3,0.8,2,1.2c2,1.1,4,2.2,6.2,3.2
		c0.4,0.2,0.7,0.4,1.1,0.5c2.5,1.1,5,2,7.7,2.7c0.7,0.2,1.4,0.4,2.1,0.5c2,0.5,4.1,1,6.2,1.3c0.8,0.1,1.6,0.3,2.4,0.4
		c2.8,0.3,5.6,0.6,8.5,0.6s5.7-0.2,8.5-0.6c0.8-0.1,1.6-0.2,2.4-0.4c2.1-0.3,4.2-0.8,6.2-1.3c0.7-0.2,1.4-0.3,2.1-0.5
		c2.6-0.8,5.2-1.7,7.7-2.7c0.4-0.2,0.7-0.4,1.1-0.5c2.1-1,4.2-2,6.2-3.2c0.7-0.4,1.4-0.8,2-1.2c1.8-1.1,3.5-2.3,5.2-3.6
		c0.5-0.4,1-0.7,1.4-1.1c2.1-1.7,4-3.5,5.9-5.4c0.4-0.4,0.8-0.9,1.2-1.3c1.4-1.5,2.8-3.2,4.1-4.8c0.5-0.6,1-1.3,1.4-1.9
		c1.3-1.9,2.6-3.8,3.7-5.8c0.2-0.3,0.4-0.5,0.5-0.8c0.2,0.3,0.4,0.5,0.5,0.8c1.1,2,2.4,3.9,3.7,5.8c0.5,0.7,0.9,1.3,1.4,1.9
		c1.3,1.7,2.7,3.3,4.1,4.8c0.4,0.5,0.8,0.9,1.2,1.3c1.9,1.9,3.8,3.7,5.9,5.4c0.5,0.4,1,0.7,1.4,1.1c1.7,1.3,3.4,2.5,5.2,3.6
		c0.7,0.4,1.3,0.8,2,1.2c2,1.1,4,2.2,6.1,3.2c0.4,0.2,0.7,0.4,1.1,0.5c2.5,1.1,5,2,7.7,2.7c0.7,0.2,1.4,0.4,2.1,0.5
		c2,0.5,4.1,1,6.2,1.3c0.8,0.1,1.6,0.3,2.4,0.4c2.8,0.3,5.6,0.6,8.5,0.6c2.9,0,5.7-0.2,8.5-0.6c0.8-0.1,1.6-0.2,2.4-0.4
		c2.1-0.3,4.2-0.8,6.2-1.3c0.7-0.2,1.4-0.3,2.1-0.5c2.6-0.8,5.2-1.7,7.7-2.7c0.4-0.2,0.7-0.4,1.1-0.5c2.1-1,4.2-2,6.2-3.2
		c0.7-0.4,1.4-0.8,2-1.2c1.8-1.1,3.5-2.3,5.2-3.6c0.5-0.4,1-0.7,1.4-1.1c2.1-1.7,4-3.5,5.9-5.4c0.4-0.4,0.8-0.9,1.2-1.3
		c1.4-1.5,2.8-3.2,4.1-4.8c0.5-0.6,1-1.3,1.4-1.9c1.3-1.9,2.6-3.8,3.7-5.8c0.2-0.3,0.4-0.5,0.5-0.8c0.2,0.3,0.4,0.5,0.5,0.8
		c1.2,2,2.4,3.9,3.7,5.8c0.5,0.7,0.9,1.3,1.4,1.9c1.3,1.7,2.7,3.3,4.1,4.8c0.4,0.5,0.8,0.9,1.2,1.3c1.9,1.9,3.8,3.7,5.9,5.4
		c0.5,0.4,1,0.7,1.4,1.1c1.7,1.3,3.4,2.5,5.2,3.6c0.7,0.4,1.3,0.8,2,1.2c2,1.1,4,2.2,6.2,3.2c0.4,0.2,0.7,0.4,1.1,0.5
		c2.5,1.1,5,2,7.7,2.7c0.7,0.2,1.4,0.4,2.1,0.5c2,0.5,4.1,1,6.2,1.3c0.8,0.1,1.6,0.3,2.4,0.4c2.8,0.3,5.6,0.6,8.5,0.6
		c2.2,0,4.4-0.1,6.5-0.3c0.6,0,1.1-0.2,1.7-0.2c1.6-0.2,3.3-0.4,4.9-0.8c0.5-0.1,1-0.2,1.5-0.3c1.7-0.4,3.4-0.8,5.1-1.3
		c0.3-0.1,0.7-0.2,1-0.3c2-0.6,3.9-1.3,5.8-2.1c0,0,0,0,0.1,0C448,36.4,453.5,33.2,458.2,29.3z"/>
	<path class="st1" d="M304.7,78.4v230.4h119.5V78.4H304.7z M407.2,214.9c0,4.7-3.8,8.5-8.5,8.5s-8.5-3.8-8.5-8.5v-25.6
		c0-4.7,3.8-8.5,8.5-8.5s8.5,3.8,8.5,8.5V214.9z"/>
	<path class="st1" d="M466.8-67v-8.2H364.5v8.2c4.7,0,8.5,3.8,8.5,8.5s-3.8,8.5-8.5,8.5v25.9c0,2.8,0.3,5.6,0.7,8.4
		c4.4,0.4,7.8,3.9,7.8,8.4c0,2.6-1.2,4.8-3,6.3c3.1,6,7.3,11.3,12.3,15.7c1.3-2.9,4.3-5,7.7-5c4.7,0,8.5,3.8,8.5,8.5
		c0,2-0.8,3.7-1.9,5.2c5.9,2.3,12.3,3.7,19,3.7c2,0,4-0.2,6-0.4c0.7-0.1,1.4-0.2,2-0.3c1.3-0.2,2.5-0.5,3.8-0.8
		c0.8-0.2,1.6-0.4,2.4-0.6c1.1-0.3,2.2-0.7,3.3-1.1c0.5-0.2,1-0.3,1.4-0.5c-1.1-1.5-1.9-3.2-1.9-5.2c0-4.7,3.8-8.5,8.5-8.5
		c3.4,0,6.3,2,7.7,4.9c0.5-0.4,1-0.9,1.5-1.3c0.3-0.3,0.7-0.6,1-0.9c1.5-1.5,2.9-3,4.2-4.7c0,0,0-0.1,0.1-0.1
		c1.3-1.7,2.6-3.5,3.7-5.4c0.3-0.5,0.6-1,0.9-1.5l0.3-0.6c0.2-0.4,0.4-0.8,0.6-1.3c-1.8-1.6-3-3.8-3-6.3c0-4.5,3.4-8,7.8-8.4
		c0.5-2.7,0.7-5.5,0.7-8.4v-25.9c-4.7,0-8.5-3.8-8.5-8.5S462.2-67,466.8-67z M390-24.3c-4.7,0-8.5-3.8-8.5-8.5s3.8-8.5,8.5-8.5
		s8.5,3.8,8.5,8.5C398.5-28.2,394.7-24.3,390-24.3z M415.7,1.2c-4.7,0-8.5-3.8-8.5-8.5s3.8-8.5,8.5-8.5s8.5,3.8,8.5,8.5
		S420.3,1.2,415.7,1.2z M415.7-50c-4.7,0-8.5-3.8-8.5-8.5s3.8-8.5,8.5-8.5s8.5,3.8,8.5,8.5S420.3-50,415.7-50z M441.2-24.3
		c-4.7,0-8.5-3.8-8.5-8.5s3.8-8.5,8.5-8.5s8.5,3.8,8.5,8.5C449.7-28.2,446-24.3,441.2-24.3z"/>
	<path class="st0" d="M424.2-7.3c0,4.7-3.8,8.5-8.5,8.5s-8.5-3.8-8.5-8.5s3.8-8.5,8.5-8.5S424.2-12,424.2-7.3z"/>
	<path class="st0" d="M449.7-32.9c0,4.7-3.8,8.5-8.5,8.5s-8.5-3.8-8.5-8.5s3.8-8.5,8.5-8.5S449.7-37.6,449.7-32.9z"/>
	<path class="st0" d="M424.2-58.5c0,4.7-3.8,8.5-8.5,8.5s-8.5-3.8-8.5-8.5s3.8-8.5,8.5-8.5S424.2-63.2,424.2-58.5z"/>
	<path class="st0" d="M398.5-32.9c0,4.7-3.8,8.5-8.5,8.5s-8.5-3.8-8.5-8.5s3.8-8.5,8.5-8.5C394.7-41.4,398.5-37.6,398.5-32.9z"/>
	<path class="st1" d="M462.5-92.3H363l-7-38.4l-7-38.4h66.6c7,0,13.5,4.1,16.4,10.5L462.5-92.3z"/>
	<path class="st1" d="M339.5-126.9c-0.2,0-0.4,0.1-0.5,0.1c-4.7,0-8.5-3.8-8.5-8.5c0-3.8,2.6-7,6.1-8l-4.7-25.8H315
		c3.9,0.8,7,4.1,7,8.2c0,4.7-3.8,8.5-8.5,8.5s-8.5-3.8-8.5-8.5c0-4.2,3-7.5,7-8.2h-48.1c3.9,0.8,7,4.1,7,8.2c0,4.7-3.8,8.5-8.5,8.5
		s-8.5-3.8-8.5-8.5c0-4.2,3-7.5,7-8.2h-15.9v76.8h100.7L339.5-126.9z M262-101.1c-4.7,0-8.5-3.8-8.5-8.5s3.8-8.5,8.5-8.5
		c4.7,0,8.5,3.8,8.5,8.5C270.5-105,266.7-101.1,262-101.1z M287.7-126.8c-4.7,0-8.5-3.8-8.5-8.5s3.8-8.5,8.5-8.5s8.5,3.8,8.5,8.5
		S292.3-126.8,287.7-126.8z M313.2-101.1c-4.7,0-8.5-3.8-8.5-8.5s3.8-8.5,8.5-8.5s8.5,3.8,8.5,8.5C321.7-105,318-101.1,313.2-101.1z
		"/>
	<path class="st0" d="M321.7-109.7c0,4.7-3.8,8.5-8.5,8.5s-8.5-3.8-8.5-8.5s3.8-8.5,8.5-8.5S321.7-114.4,321.7-109.7z"/>
	<path class="st0" d="M270.5-109.7c0,4.7-3.8,8.5-8.5,8.5s-8.5-3.8-8.5-8.5s3.8-8.5,8.5-8.5C266.7-118.2,270.5-114.4,270.5-109.7z"
		/>
	<path class="st0" d="M296.2-135.3c0,4.7-3.8,8.5-8.5,8.5s-8.5-3.8-8.5-8.5s3.8-8.5,8.5-8.5S296.2-140,296.2-135.3z"/>
	<path class="st1" d="M347.3-75.2V-24c0,28.2-23,51.2-51.2,51.2s-51.2-23-51.2-51.2v-51.2H347.3z"/>
	<path class="st1" d="M125.4-75.2v42.3c0-4.7,3.8-8.5,8.5-8.5s8.5,3.8,8.5,8.5s-3.8,8.5-8.5,8.5s-8.5-3.8-8.5-8.5v8.8
		c0,28.2,23,51.2,51.2,51.2c2.5,0,4.9-0.2,7.3-0.6c-4.1-0.6-7.3-4-7.3-8.3c0-4.7,3.8-8.5,8.5-8.5s8.5,3.8,8.5,8.5
		c0,3.1-1.7,5.6-4.1,7.1c22-5.8,38.3-25.7,38.3-49.5v-51.2H125.4V-75.2z M159.6,1.2c-4.7,0-8.5-3.8-8.5-8.5s3.8-8.5,8.5-8.5
		s8.5,3.8,8.5,8.5S164.4,1.2,159.6,1.2z M159.6-50c-4.7,0-8.5-3.8-8.5-8.5s3.8-8.5,8.5-8.5s8.5,3.8,8.5,8.5S164.4-50,159.6-50z
		 M185.2-24.3c-4.7,0-8.5-3.8-8.5-8.5s3.8-8.5,8.5-8.5s8.5,3.8,8.5,8.5C193.7-28.2,189.9-24.3,185.2-24.3z M210.9,1.2
		c-4.7,0-8.5-3.8-8.5-8.5s3.8-8.5,8.5-8.5s8.5,3.8,8.5,8.5S215.6,1.2,210.9,1.2z M210.9-50c-4.7,0-8.5-3.8-8.5-8.5s3.8-8.5,8.5-8.5
		s8.5,3.8,8.5,8.5S215.6-50,210.9-50z"/>
	<path class="st0" d="M219.4-7.3c0,4.7-3.8,8.5-8.5,8.5s-8.5-3.8-8.5-8.5s3.8-8.5,8.5-8.5C215.4-15.8,219.4-12,219.4-7.3z"/>
	<path class="st0" d="M219.4-58.5c0,4.7-3.8,8.5-8.5,8.5s-8.5-3.8-8.5-8.5s3.8-8.5,8.5-8.5C215.4-67,219.4-63.2,219.4-58.5z"/>
	<path class="st0" d="M168.1-58.5c0,4.7-3.8,8.5-8.5,8.5s-8.5-3.8-8.5-8.5s3.8-8.5,8.5-8.5C164.4-67,168.1-63.2,168.1-58.5z"/>
	<path class="st0" d="M168.1-7.3c0,4.7-3.8,8.5-8.5,8.5s-8.5-3.8-8.5-8.5s3.8-8.5,8.5-8.5C164.4-15.8,168.1-12,168.1-7.3z"/>
	<path class="st0" d="M193.7-32.9c0,4.7-3.8,8.5-8.5,8.5s-8.5-3.8-8.5-8.5s3.8-8.5,8.5-8.5C189.9-41.4,193.7-37.6,193.7-32.9z"/>
	<polygon class="st1" points="227.9,-169.1 227.9,-92.3 127.1,-92.3 134.1,-130.7 141.1,-169.1 	"/>
	<path class="st1" d="M110-169.1c3.9,0.8,7,4.1,7,8.2c0,4.7-3.8,8.5-8.5,8.5s-8.5-3.8-8.5-8.5c0-4.2,3-7.5,6.9-8.2h-48
		c3.9,0.8,7,4.1,7,8.2c0,4.7-3.8,8.5-8.5,8.5s-8.5-3.8-8.5-8.5c0-3.4,2-6.3,5-7.7c-5.6,1.1-10.4,4.7-12.9,10l-7,15.2
		c3.6,1,6.4,4.1,6.4,8.1c0,4.7-3.8,8.5-8.5,8.5c-1.8,0-3.4-0.7-4.7-1.6l-17,36.1h99.6l1.7-9.5c-1,0.4-2,0.6-3.1,0.6
		c-4.7,0-8.5-3.8-8.5-8.5s3.8-8.5,8.5-8.5c2.2,0,4.2,0.9,5.7,2.3l2.7-14.8l7-38.4H110L110-169.1z M57.2-101.1
		c-4.7,0-8.5-3.8-8.5-8.5s3.8-8.5,8.5-8.5s8.5,3.8,8.5,8.5C65.7-105,61.9-101.1,57.2-101.1z M82.9-126.8c-4.7,0-8.5-3.8-8.5-8.5
		s3.8-8.5,8.5-8.5s8.5,3.8,8.5,8.5S87.5-126.8,82.9-126.8z"/>
	<path class="st0" d="M91.4-135.3c0,4.7-3.8,8.5-8.5,8.5s-8.5-3.8-8.5-8.5s3.8-8.5,8.5-8.5S91.4-140,91.4-135.3z"/>
	<path class="st0" d="M65.7-109.7c0,4.7-3.8,8.5-8.5,8.5s-8.5-3.8-8.5-8.5s3.8-8.5,8.5-8.5S65.7-114.4,65.7-109.7z"/>
	<path class="st1" d="M108.4-75.2V-24c0,28.2-23,51.2-51.2,51.2c-2,0-4-0.2-6-0.4c-0.7-0.1-1.4-0.2-2-0.3c-1.3-0.2-2.5-0.4-3.8-0.7
		c-0.8-0.2-1.6-0.4-2.4-0.6c-1.1-0.3-2.2-0.7-3.3-1.1c-0.8-0.3-1.5-0.5-2.3-0.8c-1.6-0.7-3.2-1.5-4.7-2.3c-0.8-0.4-1.5-0.9-2.3-1.4
		c-0.9-0.6-1.8-1.2-2.7-1.8c-0.7-0.5-1.3-1-2-1.5c-1.1-0.9-2.2-1.8-3.3-2.8c-0.3-0.3-0.7-0.6-1-0.9c-1.5-1.5-2.9-3-4.2-4.7l-0.1-0.1
		c-1.3-1.7-2.6-3.5-3.7-5.4c-0.3-0.5-0.6-1-0.9-1.5l-0.3-0.6C8.2-6.9,6-15.2,6-24v-51.2H108.4z"/>
	<path class="st0" d="M407.2,189.3v25.6c0,4.7-3.8,8.5-8.5,8.5s-8.5-3.8-8.5-8.5v-25.6c0-4.7,3.8-8.5,8.5-8.5
		C403.2,180.8,407.2,184.6,407.2,189.3z"/>
	<path class="st0" d="M174.2,110l-34.1,34.1c-1.7,1.7-3.8,2.5-6,2.5s-4.4-0.8-6-2.5c-3.3-3.3-3.3-8.7,0-12.1l34.1-34.1
		c3.3-3.3,8.7-3.3,12.1,0C177.6,101.3,177.6,106.7,174.2,110z"/>
	<path class="st0" d="M157.1,169.7l-17.1,17.1c-1.7,1.7-3.8,2.5-6,2.5s-4.4-0.8-6-2.5c-3.3-3.3-3.3-8.7,0-12.1l17.1-17.1
		c3.3-3.3,8.7-3.3,12.1,0C160.4,161,160.4,166.4,157.1,169.7z"/>
	<path class="st0" d="M176.7,146.6c0,2.2-0.9,4.4-2.5,6.1c-1.6,1.5-3.8,2.5-6.1,2.5s-4.4-0.9-6.1-2.6c-1.5-1.5-2.5-3.8-2.5-6
		s0.9-4.5,2.5-6.1c3.2-3.2,9-3.2,12.1,0C175.7,142.2,176.7,144.4,176.7,146.6z"/>
	<path class="st0" d="M216.9,110l-25.6,25.6c-1.7,1.7-3.8,2.5-6,2.5s-4.4-0.8-6-2.5c-3.3-3.3-3.3-8.7,0-12.1l25.6-25.6
		c3.3-3.3,8.7-3.3,12.1,0C220.2,101.3,220.2,106.7,216.9,110z"/>
	<path class="st0" d="M216.9,152.7l-76.8,76.8c-1.7,1.7-3.8,2.5-6,2.5s-4.4-0.8-6-2.5c-3.3-3.3-3.3-8.7,0-12.1l76.8-76.8
		c3.3-3.3,8.7-3.3,12.1,0C220.2,143.9,220.2,149.3,216.9,152.7z"/>
	<path class="st0" d="M236.4,129.6c0,2.2-0.9,4.4-2.5,6.1c-1.6,1.5-3.8,2.5-6.1,2.5c-2.2,0-4.5-0.9-6.1-2.5
		c-1.5-1.6-2.5-3.8-2.5-6.1c0-2.2,0.9-4.4,2.5-6.1c3.2-3.1,9-3.1,12.1,0C235.4,125.1,236.4,127.3,236.4,129.6z"/>
</g>
</svg>
