<?xml version="1.0" encoding="utf-8"?>
<!-- Generator: Adobe Illustrator 19.0.0, SVG Export Plug-In . SVG Version: 6.00 Build 0)  -->
<svg version="1.1" id="Capa_1" xmlns="http://www.w3.org/2000/svg" xmlns:xlink="http://www.w3.org/1999/xlink" x="0px" y="0px"
	 viewBox="160 -186.3 887 512" style="enable-background:new 160 -186.3 887 512;" xml:space="preserve">
<style type="text/css">
	.st0{fill:#2850A7;}
	.st1{fill:#FFFFFF;}
	.st2{fill:#3367D6;}
</style>
<g>
	<g>
		<path class="st0" d="M669.2-53.6c-1.3-4.4-1.9-8.8-1.9-13.1v0c-0.1,0-0.2,0-0.3,0.1v0c0,4.3,0.6,8.8,1.9,13.1
			c0.3,1.1,0.4,2.2,0.2,3.3c0,0.1,0,0.1,0,0.2c0.1,0,0.1,0,0.2,0v0.3c0-0.1,0-0.2,0.1-0.3C669.5-51.2,669.5-52.4,669.2-53.6z
			 M661.9-99.7C661.8-99.6,661.8-99.6,661.9-99.7c-1.6,2.4-3,4.8-4.2,7.4h7.5L661.9-99.7z M668.1-75.1c0,0,0-0.1,0-0.1
			c1.8-9,6.3-17.2,12.8-23.6c4.7-4.5,10.3-8.1,16.9-10.4c-6.5,2.2-12.3,5.7-16.9,10.2c-6.7,6.4-11.2,14.7-13,23.7h-15.4
			c0,0,0,0.1,0,0.1c-0.8,5.4-0.9,11-0.1,16.6C622-54.9,599-29.2,599,1.4c0,4.5,0.5,9.1,1.5,13.5c0,0.3,0.1,0.5,0.2,0.7c0,0,0,0,0,0
			c0.1,0.3,0.2,0.5,0.2,0.8c0,0,0,0,0,0.1c0.1,0.4,0.2,0.9,0.3,1.3c0.7,2.4,1.5,4.8,2.5,7.2c0,0.1,0,0.1,0.1,0.2
			c4.6,1.4,9.5,2.1,14.5,2.1c1.2,0,2.4,0,3.6-0.1c0.6,0.8,1.2,1.7,1.8,2.4c0.2,0.2,0.3,0.3,0.4,0.5c2.4,3.5,1.5,8.2-2,10.5
			c-1.6,1.1-3.2,2.3-4.7,3.6h-0.1c-2.9,0-5.7-0.3-8.5-0.6c-0.8-0.1-1.6-0.3-2.4-0.4c-2.1-0.3-4.2-0.8-6.2-1.3
			c-0.4-0.1-0.8-0.2-1.2-0.3c-4.9,6-8.6,12.6-11.1,19.7h16.2c-2.7,5.5-4.3,11.3-5,17.1h-15c-1.5,17.5,3.6,35.6,16,50
			c2.3,2.8,4.9,5.3,7.6,7.6c-5.8,9.4-8.8,20.3-8.8,31.3c0,4.7,0.5,9.2,1.5,13.5h0.1c0.2,0,0.4,0,0.7,0c0.3,0,0.6,0,0.9,0
			c0.3,0,0.5,0.1,0.8,0.1c0.2,0,0.3,0.1,0.5,0.1c0.1,0,0.3,0.1,0.4,0.1c2.1,0.7,3.9,2.3,5,4.3c0.1,0.1,0.2,0.3,0.2,0.5
			c0.1,0.1,0.1,0.3,0.2,0.4c0.1,0.3,0.2,0.5,0.3,0.8c0,0.1,0.1,0.2,0.1,0.3c0,0.2,0.1,0.3,0.1,0.5c0,0.3,0.1,0.6,0.1,0.9
			c0,0.2,0,0.3,0,0.4v12.4c4.5,6.5,10.3,12.1,17,16.4v-19.2c4.7,4.8,10.4,8.6,16.8,11v15.7c5,1.3,10.3,2.1,15.7,2.1h1.5v-14.9h-1.3
			v-0.2c-5.6,0-11-1-15.9-2.9c-6.4-2.4-12.1-6.2-16.8-11.1c-7.8-8.1-12.5-19.1-12.6-31.3c0-10.3,3.5-20.2,9.9-28.2
			c2.6-3.3,2.1-8-1.2-10.6c-0.2-0.1-0.3-0.2-0.5-0.4c-16.9-11.4-25.1-30.8-23-49.7c0.6-5.8,2.3-11.6,4.9-17.1
			c1.1-2.2,2.3-4.4,3.7-6.5c2.7-4,5.8-7.5,9.4-10.6c1.5-1.3,3.2-2.6,4.9-3.7c3.5-2.3,4.4-7,2-10.5c-0.1-0.2-0.2-0.3-0.3-0.5
			c-0.6-0.8-1.2-1.6-1.8-2.4c-0.1-0.1-0.1-0.2-0.2-0.2c-5.2-7.5-8-16.4-8-25.6c0-0.4,0-0.8,0-1.1c0.1-5.6,1.3-11,3.3-15.9
			C621.4-25.2,628.3-33,637-38c0,0,0.1-0.1,0.1-0.1c2.2-1.2,4.4-2.3,6.8-3.2c-2.3,0.8-4.6,1.9-6.7,3.1c1.6-1.9,3.9-3.1,6.6-3.1
			c0.1,0,0.2,0,0.3,0h0c0.1,0,0.2-0.1,0.3-0.1c0.4-0.2,0.9-0.3,1.3-0.5c0.4-0.1,0.7-0.2,1.1-0.3c4-1.2,8.3-1.8,12.7-1.8l2,0.1
			c0.8,0,1.6-0.1,2.4-0.3c0.1,0,0.1,0,0.2,0c1.5-0.5,2.8-1.3,3.7-2.5c0.7-0.9,1.2-1.9,1.4-2.9c0-0.1,0-0.2,0.1-0.3
			c0.2-1.2,0.2-2.4-0.2-3.6c-1.3-4.4-1.9-8.8-1.9-13.1v0C667.3-69.6,667.6-72.4,668.1-75.1z M614,0c-0.4-0.3-0.8-0.5-1.2-0.8
			c-0.2-0.1-0.3-0.3-0.5-0.4c-0.1-0.1-0.2-0.2-0.3-0.3c-0.1-0.1-0.3-0.3-0.4-0.4c-0.1-0.1-0.2-0.2-0.3-0.3c-0.1-0.1-0.2-0.2-0.3-0.4
			C611.1-2.9,611-3,611-3.1c-0.4-0.6-0.7-1.3-0.8-2c0-0.2-0.1-0.3-0.1-0.5c0-0.2-0.1-0.3-0.1-0.5c0-0.2,0-0.4-0.1-0.6
			c0-0.2,0-0.4,0-0.6c0-0.4,0-0.9,0.1-1.3c0-0.1,0-0.2,0-0.3c0-0.1,0-0.2,0.1-0.4c0-0.2,0.1-0.3,0.1-0.5c0-0.2,0.1-0.3,0.2-0.5
			c0-0.1,0.1-0.3,0.2-0.4c0.1-0.2,0.2-0.5,0.3-0.7c0,0,0,0,0,0c0.1-0.2,0.2-0.4,0.4-0.6c0,0,0.1-0.1,0.1-0.1
			c0.1-0.2,0.2-0.3,0.3-0.5c0.1-0.1,0.2-0.3,0.4-0.4c0.1-0.1,0.3-0.3,0.4-0.4c0,0,0.1-0.1,0.2-0.1c0.1-0.1,0.3-0.3,0.5-0.4
			c0.1-0.1,0.1-0.1,0.2-0.1c0.1-0.1,0.3-0.2,0.5-0.3c0.1,0,0.2-0.1,0.3-0.2c0.2-0.1,0.4-0.3,0.7-0.4c0,0,0,0,0,0
			c0.2-0.1,0.5-0.2,0.7-0.3c0.2-0.1,0.3-0.1,0.5-0.2c0.1,0,0.2-0.1,0.3-0.1c0.2,0,0.4-0.1,0.6-0.1c0.2,0,0.4-0.1,0.5-0.1
			C615.3-10.9,614.1-5.6,614,0z M668.8-53.5c0.3,1.1,0.4,2.2,0.2,3.3c-2.2,0-4.3-1-5.8-2.4c-0.1,0-0.1-0.1-0.2-0.2
			c-1.4-1.5-2.2-3.5-2.2-5.7c0-3.8,2.5-7.1,6-8.1C667-62.3,667.5-57.9,668.8-53.5z M684.7,65.9C684.7,65.9,684.7,65.9,684.7,65.9
			c0,0.1,0,0.1,0,0.2C684.6,66,684.6,66,684.7,65.9C684.7,65.9,684.7,65.9,684.7,65.9C684.7,65.8,684.7,65.9,684.7,65.9z M683.9,69
			c0,0.1,0,0.3-0.1,0.4c-0.1,0.2-0.1,0.4-0.1,0.7c0-0.1,0-0.2,0.1-0.3c0,0,0,0,0,0c0.1-0.3,0.1-0.7,0.2-1
			C683.9,68.9,683.9,68.9,683.9,69z M683.4,97.3c0,0.2,0.1,0.4,0.1,0.5c0,0.2,0.1,0.4,0.1,0.6c0,0.1,0,0.2,0.1,0.3
			c0,0.1,0,0.2,0.1,0.3C683.6,98.5,683.5,97.9,683.4,97.3z M683.3,96.7C683.3,96.6,683.2,96.6,683.3,96.7
			C683.2,96.6,683.3,96.6,683.3,96.7c0,0.1,0,0.1,0,0.2C683.3,96.8,683.3,96.7,683.3,96.7z M683.2,96.5
			C683.2,96.5,683.2,96.5,683.2,96.5C683.2,96.5,683.2,96.5,683.2,96.5C683.2,96.6,683.2,96.6,683.2,96.5
			C683.2,96.5,683.2,96.5,683.2,96.5z M683.1,95.8c0-0.1,0-0.2-0.1-0.4c0,0.2,0.1,0.5,0.1,0.7c0,0.1,0,0.1,0,0.2
			C683.2,96.1,683.1,95.9,683.1,95.8z M682.9,94.2c0-0.2-0.1-0.5-0.1-0.7c0,0.1,0,0.2,0,0.3C682.8,94,682.8,94.1,682.9,94.2
			c0,0.3,0.1,0.6,0.1,0.9c0,0.1,0,0.2,0,0.3C683,95,682.9,94.6,682.9,94.2z M682.7,93.3c0-0.3-0.1-0.5-0.1-0.8
			c0-0.3-0.1-0.5-0.1-0.8C682.6,92.3,682.7,92.8,682.7,93.3c0,0.1,0,0.2,0,0.3C682.8,93.5,682.7,93.4,682.7,93.3z M682.6,76
			c0,0,0,0.1,0,0.1C682.6,76.1,682.6,76,682.6,76L682.6,76C682.6,76,682.6,76,682.6,76z M682.2,81.9v0.2c0-0.3,0-0.6,0-0.9
			C682.2,81.4,682.2,81.7,682.2,81.9z M682.2,85.9C682.1,85.9,682.1,86,682.2,85.9c0,0.2,0,0.2,0,0.3c0,0.4,0,0.9,0,1.3
			C682.2,86.9,682.2,86.4,682.2,85.9z M682.2,82.3c0,0.1,0,0.2,0,0.2c0,0.6,0,1.2,0,1.8c0,0.5,0,1,0,1.5
			C682.1,84.6,682.1,83.4,682.2,82.3z M684.2,101.1l-0.1-0.6c0,0.2,0.1,0.3,0.1,0.4c0,0.1,0,0.2,0.1,0.3s0,0.2,0.1,0.3
			c0,0.1,0.1,0.2,0.1,0.3C684.3,101.6,684.3,101.3,684.2,101.1z M691.5,118.8c0.6,1,1.3,2.1,1.9,3.1
			C692.8,120.9,692.1,119.9,691.5,118.8z M697.3,170.6l-35.7-35.7c-0.3-0.3-0.6-0.6-0.8-1v-8.4c-0.3,0.4-0.5,0.9-0.7,1.3
			c-0.3,0.7-0.5,1.5-0.6,2.2c0,0.4,0,0.9,0,1.3c0.1,0.8,0.3,1.6,0.6,2.3c0.2,0.5,0.4,0.9,0.7,1.3c0.2,0.3,0.5,0.7,0.8,1l16.5,16.5
			l19.2,19.2c0,0.1,0,0.2,0,0.3C697.4,170.9,697.4,170.7,697.3,170.6z M663.7-1.2C663.7-1.2,663.8-1.2,663.7-1.2
			c-0.3-0.3-0.6-0.6-0.9-1c-0.1-0.1-0.2-0.3-0.3-0.4c-0.2-0.3-0.4-0.5-0.5-0.8c0,0,0,0,0,0c0,0-0.1,0-0.1,0c-0.1,0-0.2,0.1-0.3,0.2
			c-0.1,0.1-0.3,0.1-0.4,0.2c-0.1,0.1-0.2,0.1-0.3,0.2c-0.2,0.1-0.3,0.3-0.5,0.4c-0.2,0.2-0.4,0.3-0.6,0.5c-1.4,1.5-2.1,3.4-2.1,5.3
			c0,0.2,0,0.4,0,0.6c0,0.5,0.1,1.1,0.3,1.6c0,0.2,0.1,0.4,0.2,0.6c0.1,0.2,0.1,0.3,0.2,0.5c0.1,0.1,0.1,0.3,0.2,0.4
			c0,0.1,0.1,0.2,0.2,0.3c1.2-1.5,2.3-3.2,3.3-4.9l0.9-1.5l0.3-0.6c0.2-0.4,0.4-0.9,0.6-1.3L663.7-1.2z M679.3,6.6l-8.8-8.8
			L679.3,6.6l26.3,26.4l0.1-0.1L679.3,6.6z M716.3,211.4c-0.8-0.8-1.6-1.6-2.4-2.4c-0.6-0.6-1.2-1.3-1.8-2c-0.7-0.9-1.4-1.7-2.1-2.6
			c-0.5-0.7-1.1-1.4-1.6-2.2c-0.7-0.9-1.3-1.8-1.9-2.8c-0.5-0.8-0.9-1.5-1.4-2.3c-0.6-0.9-1.1-2-1.6-3c-0.4-0.8-0.8-1.6-1.2-2.4
			c-0.5-1.1-0.9-2.2-1.3-3.3c-0.3-0.9-0.6-1.7-0.9-2.5c-0.4-1.2-0.7-2.4-1-3.6l-0.6-2.4c-0.3-1.3-0.5-2.7-0.7-4.1
			c-0.1-0.7-0.2-1.4-0.3-2.1c0,0,0-0.1,0-0.2c0,0.1,0,0.2,0,0.3c0.1,0.7,0.2,1.4,0.3,2.1c0.2,1.4,0.4,2.8,0.7,4.1
			c0.2,0.8,0.4,1.6,0.6,2.4c0.3,1.2,0.6,2.4,1,3.6c0.3,0.8,0.6,1.6,0.9,2.5c0.4,1.1,0.8,2.2,1.3,3.3c0.4,0.8,0.8,1.6,1.2,2.4
			c0.5,1,1,2.1,1.6,3c0.5,0.8,0.9,1.5,1.4,2.3c0.6,1,1.2,1.9,1.9,2.8c0.5,0.8,1.1,1.5,1.6,2.2c0.7,0.9,1.4,1.7,2.1,2.6
			c0.6,0.7,1.2,1.4,1.8,2C714.8,209.9,715.5,210.7,716.3,211.4c0.4,0.5,0.7,0.8,1.1,1.2h0.1C717.2,212.2,716.8,211.8,716.3,211.4z
			 M750.5-58.7c-10.7,1.3-20.4,5.3-28.6,11.4c1-0.8,2.1-1.5,3.1-2.1c0.3-0.2,0.6-0.4,0.8-0.5c0.4-0.2,0.7-0.4,1.1-0.6
			c0.5-0.3,0.9-0.5,1.4-0.8c0.4-0.2,0.8-0.4,1.2-0.6c0.2-0.1,0.5-0.3,0.7-0.4c0.3-0.1,0.5-0.3,0.8-0.4c0.4-0.2,0.9-0.4,1.3-0.6
			c0.1,0,0.2-0.1,0.2-0.1c0.5-0.2,0.9-0.4,1.4-0.6c0.3-0.1,0.5-0.2,0.8-0.3c0.4-0.2,0.8-0.3,1.2-0.5c0.2-0.1,0.3-0.1,0.5-0.2
			c0.5-0.2,1-0.4,1.6-0.6c0.1,0,0.3-0.1,0.4-0.1c0.4-0.1,0.8-0.3,1.1-0.4c0.4-0.1,0.8-0.3,1.2-0.4c0.1,0,0.2-0.1,0.4-0.1
			c0.5-0.1,1-0.3,1.5-0.4c0.2-0.1,0.4-0.1,0.6-0.2c0.5-0.1,1-0.2,1.5-0.3c0.6-0.1,1.2-0.3,1.7-0.4c0.5-0.1,1-0.2,1.4-0.3
			C748.7-58.4,749.6-58.5,750.5-58.7C750.5-58.6,750.5-58.7,750.5-58.7z M768.2-83.2c-1.1,2.6-1.9,5.3-2.4,8v0.3
			c-0.5,2.7-0.8,5.5-0.8,8.3c0,4.4,0.6,8.8,1.9,13c0.7,2.3,0.2,4.9-1.3,6.8c-0.6,0.8-1.3,1.5-2.2,1.9c1-0.5,1.8-1.2,2.5-2
			c1.5-1.9,2-4.5,1.3-6.8c-1.3-4.2-1.9-8.6-1.9-13c0-2.8,0.3-5.6,0.8-8.3v-0.3c0.5-2.7,1.3-5.4,2.4-8c4.9-12.4,14.9-21.8,27-26.1
			C783.2-105.1,773.1-95.8,768.2-83.2z M770.5,124.2c-1.1-1.1-2.5-1.8-4-2c0.2,0,0.4,0.1,0.6,0.1c0.2,0,0.4,0.1,0.6,0.2
			c0.4,0.1,0.7,0.3,1,0.5c0,0,0.1,0,0.1,0.1c0.1,0,0.1,0.1,0.2,0.1c0.3,0.1,0.5,0.3,0.7,0.5c0.1,0.1,0.2,0.1,0.3,0.2
			c0.2,0.1,0.3,0.3,0.4,0.4l32.4,32.4v-0.1L770.5,124.2z M757.7,212.5c-25,0-45.3-20.3-45.3-45.3c0-10.3,3.5-20.2,9.9-28.2
			c2.6-3.3,2.1-8-1.2-10.6c-0.2-0.1-0.3-0.2-0.5-0.4c-24.2-16.3-30.6-49.1-14.3-73.3c3.8-5.7,8.7-10.5,14.3-14.3
			c3.4-2.3,4.4-7,2-10.5c-0.1-0.2-0.2-0.3-0.4-0.5c-6.4-8-9.9-17.9-9.9-28.2c0-16.7,9-31.2,22.4-39C721.1-30,712-15.4,712,1.3
			c0,10.3,3.5,20.2,9.9,28.2c0.2,0.2,0.3,0.3,0.4,0.5c2.4,3.5,1.4,8.2-2,10.5c-5.6,3.8-10.5,8.6-14.3,14.3
			c-16.3,24.2-9.9,57,14.3,73.3c0.2,0.2,0.3,0.3,0.5,0.4c3.3,2.6,3.8,7.3,1.2,10.6c-6.4,8-9.9,17.9-9.9,28.2
			c0.1,25,20.3,45.3,45.3,45.3h45.3v-0.1H757.7z M768.5-2.1l34.3,34.4v-0.2L768.5-2.1z M810.5-28.8c-2.4,0-4.5,1.1-5.9,2.8
			c1.4-1.7,3.5-2.8,5.8-2.8c4.1,0,7.5,3.3,7.5,7.5v110l0.5-0.5V-21.4C818-25.4,814.5-28.8,810.5-28.8z M867.8-85.4
			c1,2.9,1.7,5.8,2.2,8.7v-0.1C869.5-79.7,868.8-82.6,867.8-85.4z M870.2-75.3c0-0.1-0.1-0.3-0.1-0.4
			C870.1-75.5,870.1-75.4,870.2-75.3c0.2,1.2,0.3,2.3,0.4,3.5C870.5-73,870.3-74.2,870.2-75.3z M863.7,212.4h-45.3v-103
			c0.6-0.3,1.1-0.6,1.6-1l49-49c2.9-3,2.8-7.8-0.2-10.7c-2.3-2.2-5.5-2.7-8.3-1.5c2.6-1,5.7-0.4,7.8,1.7c3,2.9,3.1,7.7,0.2,10.7
			l-49,49c-0.5,0.4-1,0.7-1.6,1v103h45.3c6,0,11.7-1.2,16.9-3.3C875,211.3,869.5,212.4,863.7,212.4z M870.4-58.5
			C870.4-58.5,870.3-58.4,870.4-58.5c13.8,1.7,26,7.9,35.3,17C896.4-50.7,884.1-56.9,870.4-58.5z M867.7-85.6c0.1,0,0.1,0.1,0.1,0.2
			C867.8-85.5,867.8-85.6,867.7-85.6c8.4-17.4,26.5-27.1,44.7-25.6C894.1-112.8,876-103.1,867.7-85.6z M914.7,135.9
			C914.7,135.9,914.7,135.9,914.7,135.9c5,8.3,8,17.6,8.6,27.2C922.7,153.5,919.8,144.1,914.7,135.9z M936.7,68.1
			c-3.4-13.8-11-26.2-21.8-35.4c0,0,0,0.1,0,0.1c10.8,9.2,18.4,21.6,21.8,35.4l4.3-4.4L936.7,68.1z M966.5,48.8
			c-0.5-0.5-1.1-0.9-1.8-1.3c0.6,0.3,1.1,0.7,1.6,1.2c3,2.9,3.1,7.7,0.2,10.7l-21,21l21.2-20.9C969.5,56.5,969.5,51.7,966.5,48.8z
			 M1004.2,152.8c0.6,1.8,1.1,3.7,1.5,5.6C1005.3,156.5,1004.8,154.6,1004.2,152.8z M624.5,30c-0.1-0.2-0.2-0.3-0.3-0.5
			c-0.6-0.8-1.2-1.6-1.8-2.4c-0.1,0-0.2,0-0.4,0c0.6,0.8,1.2,1.7,1.8,2.4c0.2,0.2,0.3,0.3,0.4,0.5c2.4,3.5,1.5,8.2-2,10.5
			c-1.6,1.1-3.2,2.3-4.7,3.6h0.1c1.5-1.3,3.2-2.6,4.9-3.7C626,38.2,626.8,33.5,624.5,30z M669.2-53.6c-1.3-4.4-1.9-8.8-1.9-13.1v0
			c-0.1,0-0.2,0-0.3,0.1v0c0,4.3,0.6,8.8,1.9,13.1c0.3,1.1,0.4,2.2,0.2,3.3c0,0.1,0,0.1,0,0.2c0.1,0,0.1,0,0.2,0v0.3
			c0-0.1,0-0.2,0.1-0.3C669.5-51.2,669.5-52.4,669.2-53.6z"/>
		<path class="st1" d="M1036.7,84.4c0-19.9-8.7-38.8-23.9-51.7c5.8-9.4,8.8-20.3,8.8-31.3c-0.1-30.6-23-56.3-53.3-59.9
			c0.3-2.6,0.5-5.3,0.5-8c0.1-33.3-26.8-60.3-60.1-60.3c-19.6,0-37.9,9.4-49.3,25.4c-19.2-27.1-56.8-33.5-83.9-14.3
			c-5.5,3.9-10.4,8.8-14.3,14.3c-19.3-27.1-56.9-33.4-84-14.1c-1,0.7-1.9,1.4-2.9,2.2l6.6,14.4c4.7-4.5,10.4-8,16.9-10.2
			c0.1,0,0.1,0,0.2-0.1c0.5-0.2,0.9-0.3,1.4-0.5c0.1,0,0.2-0.1,0.3-0.1c21.3-6.3,44,3.8,53.6,23.9c0,0.1,0,0.1-0.1,0.2c0,0,0,0,0,0
			s0,0,0,0c-0.9,2.8-1.7,5.7-2.2,8.7c-0.1,0.5-0.1,1-0.2,1.5c-0.9,5.6-1,11.2-0.2,16.8c0,0-0.1,0-0.1,0c0,0,0,0.1,0,0.1
			c-0.9,0.1-1.8,0.2-2.7,0.4c-0.5,0.1-1,0.2-1.4,0.3c-0.6,0.1-1.2,0.2-1.7,0.4c-0.5,0.1-1,0.2-1.5,0.3c-0.2,0-0.4,0.1-0.6,0.2
			c-0.5,0.1-1,0.3-1.5,0.4c-0.1,0-0.2,0.1-0.4,0.1c-0.4,0.1-0.8,0.2-1.2,0.4c-0.4,0.1-0.8,0.2-1.1,0.4c-0.1,0-0.3,0.1-0.4,0.1
			c-0.5,0.2-1,0.4-1.6,0.6c-0.2,0.1-0.3,0.1-0.5,0.2c-0.4,0.2-0.8,0.3-1.2,0.5c-0.3,0.1-0.5,0.2-0.8,0.3c-0.5,0.2-0.9,0.4-1.4,0.6
			c-0.1,0-0.2,0.1-0.2,0.1c-0.4,0.2-0.9,0.4-1.3,0.6c-0.3,0.1-0.5,0.2-0.8,0.4c-0.3,0.1-0.5,0.3-0.7,0.4c-0.4,0.2-0.8,0.4-1.2,0.6
			c-0.5,0.3-0.9,0.5-1.4,0.8c-0.4,0.2-0.7,0.4-1.1,0.6c-0.3,0.2-0.6,0.4-0.8,0.5c-1.1,0.7-2.1,1.4-3.1,2.1c-0.5,0.4-1.1,0.8-1.6,1.2
			c-0.4,0.3-0.7,0.6-1,0.8c-0.3,0.3-0.6,0.5-0.9,0.8c-1.7,1.5-3.3,3-4.9,4.7c-0.3,0.3-0.6,0.7-0.9,1c-0.3,0.3-0.6,0.7-0.9,1
			c-9,10.6-14.3,24.3-14.3,39.1c0,11,3,21.9,8.8,31.3l-0.5,0.5L679.3,6.7c-0.4,0.7-0.8,1.5-1.2,2.2v18l17.2,17.2
			c-0.8,1.1-1.6,2.3-2.4,3.5c-0.8,1.2-1.5,2.4-2.2,3.6c-0.2,0.3-0.3,0.6-0.5,0.9c0,0.1-0.1,0.1-0.1,0.2c-0.1,0.3-0.3,0.5-0.4,0.8
			c-0.1,0.3-0.3,0.5-0.4,0.8c-0.6,1.2-1.2,2.5-1.7,3.7c-0.3,0.8-0.6,1.5-0.9,2.3c-0.2,0.5-0.4,1-0.6,1.5c0,0,0,0.1-0.1,0.1
			c-0.2,0.5-0.3,1-0.5,1.4c-0.2,0.5-0.3,1-0.5,1.5c0,0,0,0,0,0c-0.2,0.5-0.3,1-0.5,1.5c0,0.1,0,0.1,0,0.2c0,0,0,0,0,0.1c0,0,0,0,0,0
			c-0.2,0.6-0.3,1.1-0.4,1.7c0,0.1-0.1,0.3-0.1,0.4c-0.1,0.2-0.1,0.4-0.2,0.7c-0.1,0.3-0.2,0.7-0.2,1c0,0,0,0,0,0
			c-0.1,0.6-0.3,1.2-0.4,1.7c0,0.1-0.1,0.2-0.1,0.3c-0.1,0.3-0.1,0.7-0.2,1c-0.1,0.3-0.1,0.7-0.2,1c-0.1,0.7-0.2,1.4-0.3,2v0
			c-0.2,1.4-0.3,2.7-0.4,4.1v0.1c0,0.6-0.1,1.3-0.1,1.9v0.1c0,1.2,0,2.4,0,3.6v0.1c0,0.5,0,1,0,1.6c0,0.5,0,1.1,0.1,1.6
			c0.1,0.6,0.1,1.3,0.2,1.9c0,0,0,0.1,0,0.1c0,0.1,0,0.1,0,0.2c0,0.1,0,0.1,0,0.2c0,0.4,0.1,0.7,0.1,1.1c0,0.3,0,0.5,0.1,0.8
			c0,0.1,0,0.2,0,0.3c0,0.2,0.1,0.4,0.1,0.7c0,0.4,0.1,0.8,0.2,1.2c0,0.1,0,0.2,0.1,0.4c0,0.2,0,0.4,0.1,0.5c0,0.1,0,0.1,0,0.2
			c0,0,0,0,0,0c0,0,0,0.1,0,0.1c0,0,0,0.1,0,0.1c0,0.1,0,0.1,0,0.2c0,0.1,0,0.2,0.1,0.2c0,0,0,0,0,0.1c0,0,0,0.1,0,0.1
			c0,0.2,0.1,0.4,0.1,0.5c0,0.2,0.1,0.4,0.1,0.6c0,0.1,0,0.2,0.1,0.3c0,0.1,0,0.2,0.1,0.3c0,0.1,0,0.2,0.1,0.3
			c0,0.2,0.1,0.4,0.2,0.7c0,0.1,0.1,0.3,0.1,0.4c0,0.2,0.1,0.3,0.1,0.4c0,0.1,0,0.1,0,0.2c0,0,0,0.1,0,0.1c0,0.1,0,0.2,0.1,0.3
			c0,0.1,0.1,0.2,0.1,0.3c0,0.2,0.1,0.4,0.2,0.6c0,0,0,0.1,0,0.1c0,0.2,0.1,0.3,0.1,0.5c0.1,0.3,0.2,0.5,0.2,0.8
			c0.1,0.3,0.1,0.5,0.2,0.8c0.2,0.5,0.3,1,0.5,1.5c0.3,1,0.7,2,1.1,3c0.2,0.6,0.5,1.1,0.7,1.7c0.2,0.6,0.5,1.1,0.7,1.7
			c0.2,0.5,0.5,1.1,0.7,1.6c0,0.1,0.1,0.2,0.1,0.3c0.2,0.5,0.5,1,0.7,1.4c0.6,1.1,1.2,2.1,1.8,3.2c0.6,1,1.3,2.1,1.9,3.1
			c0.1,0.1,0.2,0.3,0.3,0.4c0.3,0.5,0.6,0.9,1,1.4c0.1,0.1,0.1,0.2,0.2,0.2c0.4,0.5,0.7,1,1.1,1.5c0.3,0.5,0.7,0.9,1.1,1.4
			c0.3,0.3,0.5,0.7,0.8,1c2.4,2.9,5.1,5.6,8.1,8.2c-0.7,1.2-1.4,2.4-2,3.6c-0.6,1.2-1.2,2.5-1.8,3.8c-0.5,1.3-1,2.6-1.5,3.9
			c0,0,0,0,0,0c-0.5,1.3-0.9,2.7-1.3,4l-21.2-21.2v21.3l19.2,19.2c0,0.1,0,0.3,0,0.4c0,0.1,0,0.3,0,0.4c0,0.5,0.1,1,0.1,1.5
			c0,0.1,0,0.3,0,0.4c0,0.1,0,0.1,0,0.2v0c0,0,0,0.1,0,0.2c0.1,0.7,0.2,1.4,0.3,2.1c0.2,1.4,0.4,2.8,0.7,4.1l0.6,2.4
			c0.3,1.2,0.6,2.4,1,3.6c0.3,0.8,0.6,1.6,0.9,2.5c0.4,1.1,0.8,2.2,1.3,3.3c0.4,0.8,0.8,1.6,1.2,2.4c0.5,1,1,2.1,1.6,3
			c0.5,0.8,0.9,1.5,1.4,2.3c0.6,1,1.2,1.9,1.9,2.8c0.5,0.8,1.1,1.5,1.6,2.2c0.7,0.9,1.4,1.7,2.1,2.6c0.6,0.7,1.2,1.4,1.8,2
			c0.8,0.8,1.6,1.6,2.4,2.4c0.4,0.4,0.8,0.8,1.2,1.2h-0.1c0,0,0.1,0.1,0.1,0.1h-39.4v14.9h26.5v83H682c-1.4,0-2.8,0.4-3.9,1.1v12.9
			c1.1,0.7,2.5,1.1,3.9,1.1h256.6c4.2,0,7.6-3.4,7.6-7.5c0-4.2-3.4-7.6-7.6-7.6H916v-83h45.3c33.3,0,60.3-27,60.4-60.3
			c0-11-3-21.9-8.8-31.3C1027.9,123.1,1036.7,104.2,1036.7,84.4z M802.8,310.6h-83v-83h83V310.6z M868.3,48.9
			c-2.1-2.1-5.2-2.6-7.8-1.7c0,0,0,0,0,0c-0.8,0.3-1.5,0.8-2.2,1.4l-39.9,39.9v-0.3l-0.5,0.5v-110c0-4.2-3.4-7.5-7.5-7.5
			c-2.3,0-4.4,1.1-5.8,2.8c-0.1,0.1-0.2,0.3-0.3,0.4c0,0-0.1,0.1-0.1,0.1c-0.8,1.2-1.3,2.6-1.3,4.2v53.5l-0.1-0.1v0.2L768.5-2.1
			c-3-2.9-7.8-2.8-10.7,0.2c-2.8,2.9-2.8,7.6,0,10.5l45,44.9v103.1l-0.1-0.1v0.1l-32.4-32.4c-0.1-0.1-0.3-0.3-0.4-0.4
			c-0.1-0.1-0.2-0.1-0.3-0.2c-0.2-0.2-0.5-0.4-0.7-0.5c-0.1,0-0.1-0.1-0.2-0.1c0,0-0.1,0-0.1-0.1c-0.3-0.2-0.7-0.3-1-0.5
			c-0.2-0.1-0.4-0.1-0.6-0.2c-0.2-0.1-0.4-0.1-0.6-0.1c-0.2,0-0.4-0.1-0.6-0.1c-0.5,0-0.9,0-1.4,0c-1.7,0.2-3.4,0.9-4.7,2.3
			c-2.8,2.9-2.8,7.6,0,10.5l43.1,43v34.6h-0.1v0.1h-45.3c-25,0-45.2-20.3-45.3-45.3c0-10.3,3.5-20.2,9.9-28.2
			c2.6-3.3,2.1-8-1.2-10.6c-0.2-0.1-0.3-0.2-0.5-0.4C696.2,111.8,689.8,79,706,54.8c3.8-5.7,8.7-10.5,14.3-14.3
			c3.4-2.3,4.4-7,2-10.5c-0.1-0.2-0.2-0.3-0.4-0.5c-6.4-8-9.9-17.9-9.9-28.2c0-16.7,9.1-31.3,22.6-39.1c0.4-0.3,0.9-0.5,1.3-0.7
			c0.3-0.2,0.7-0.4,1.1-0.6c0.2-0.1,0.4-0.2,0.6-0.3c0.7-0.3,1.5-0.7,2.2-1c0.3-0.1,0.7-0.3,1-0.4c5.2-2.1,10.8-3.2,16.7-3.2l2,0.1
			c1.1,0,2.1-0.2,3.1-0.5c0.1-0.1,0.3-0.1,0.4-0.2c0.1,0,0.2-0.1,0.3-0.1c0.9-0.5,1.6-1.1,2.2-1.9c1.5-1.9,2-4.5,1.3-6.8
			c-1.3-4.2-1.9-8.6-1.9-13c0-2.8,0.3-5.6,0.8-8.3v-0.3c0.5-2.7,1.3-5.4,2.4-8c4.9-12.5,15-21.9,27.3-26.2c0.4-0.2,0.9-0.3,1.3-0.5
			c4.4-1.4,9-2.1,13.7-2.2c18.6,0,35.3,11.4,42.1,28.7c1,2.6,1.8,5.3,2.4,8v0.3c0.5,2.7,0.8,5.5,0.8,8.2c0,4.4-0.7,8.8-1.9,13
			c-0.7,2.3-0.2,4.9,1.3,6.8c1.5,2,3.8,3,6.3,2.9l2-0.1c25,0,45.2,20.3,45.3,45.3c0,10.3-3.5,20.2-9.9,28.2c-2.6,3.3-2.1,8,1.2,10.6
			c0.2,0.1,0.3,0.2,0.5,0.4c24.2,16.3,30.6,49.1,14.3,73.3c-3.8,5.7-8.7,10.5-14.3,14.3c-3.5,2.3-4.4,7-2,10.5
			c0.1,0.2,0.2,0.3,0.4,0.5c6.4,8,9.9,18,9.9,28.2c0,18.9-11.7,35.1-28.2,41.9c-0.2,0.1-0.5,0.2-0.7,0.3c-5.2,2.1-11,3.3-16.9,3.3
			h-45.3v-103c0.6-0.3,1.1-0.6,1.6-1l49-49C871.3,56.6,871.3,51.8,868.3,48.9z M901,310.6h-83v-83h83V310.6z M996.3,138.6
			c0.1,0.2,0.2,0.3,0.4,0.5c0.4,0.5,0.8,1,1.2,1.5c0.8,1,1.5,2.1,2.1,3.2c0.7,1.2,1.4,2.3,2,3.6c0.2,0.5,0.5,1,0.7,1.5
			c0.2,0.4,0.3,0.8,0.5,1.2c0.1,0.3,0.3,0.6,0.4,0.9c0.2,0.4,0.3,0.8,0.5,1.2c0.1,0.2,0.2,0.5,0.2,0.7c0.6,1.8,1.1,3.7,1.5,5.6
			c0.1,0.5,0.2,1,0.3,1.6c0,0.2,0.1,0.5,0.1,0.7c0.2,1.6,0.4,3.1,0.5,4.7c0,0.1,0,0.3,0,0.4c0,0.5,0,1,0,1.5
			c0,25-20.3,45.2-45.3,45.3H903c0.4-0.4,0.8-0.8,1.2-1.2c0.2-0.2,0.4-0.4,0.6-0.6c0.6-0.6,1.2-1.2,1.8-1.8c0.6-0.7,1.2-1.3,1.8-2
			c0.8-0.8,1.5-1.7,2.1-2.6c0.6-0.7,1.1-1.4,1.6-2.2c0.7-0.9,1.3-1.8,1.9-2.8c0.5-0.8,1-1.5,1.4-2.3c0.6-1,1.1-2,1.6-3
			c0.4-0.8,0.8-1.6,1.2-2.4c0.5-1.1,0.9-2.2,1.3-3.3c0.3-0.8,0.6-1.6,0.9-2.5c0.4-1.2,0.7-2.4,1-3.6c0.2-0.8,0.4-1.6,0.6-2.4
			c0.2-0.7,0.3-1.4,0.4-2.1c0.1-0.7,0.2-1.4,0.3-2.1s0.2-1.4,0.3-2.1c0-0.6,0.1-1.2,0.2-1.8c0.1-0.6,0.1-1.2,0.1-1.9
			c0-0.4,0.1-0.8,0.1-1.2c0-0.5,0-1,0-1.5c0-1.4,0-2.8-0.1-4.1c-0.7-9.6-3.6-19-8.7-27.2c0,0,0,0,0,0c0,0,0,0,0-0.1
			c14.2-12.2,22.8-29.7,23.7-48.4l6.4-6.3l0.6-0.6l21-21c2.9-3,2.8-7.8-0.2-10.7c-0.5-0.5-1-0.9-1.6-1.2c0,0-0.1-0.1-0.1-0.1
			c-2.8-1.4-6.3-0.9-8.6,1.3l-14.5,14.5l-0.4,0.4l-4.3,4.4c-3.4-13.8-11-26.2-21.8-35.4c0,0,0,0,0-0.1c0,0,0,0,0,0
			c3.5-5.7,6-11.9,7.4-18.3c0.1-0.6,0.2-1.2,0.4-1.8c0.2-1.2,0.4-2.4,0.6-3.6c0.1-0.6,0.1-1.2,0.2-1.8c0.1-0.6,0.1-1.2,0.2-1.8
			c0-0.1,0-0.3,0-0.4c0.1-1.2,0.1-2.4,0.1-3.6c0-0.7,0-1.5-0.1-2.2c0-0.3,0-0.5,0-0.8c0-0.1,0-0.2,0-0.3c0-0.3,0-0.5,0-0.8
			c0-0.1,0-0.2,0-0.3c-0.1-1.2-0.2-2.3-0.3-3.5c-0.2-1.1-0.3-2.3-0.5-3.4c-0.1-0.6-0.2-1.1-0.3-1.7c-0.1-0.4-0.2-0.8-0.3-1.2
			c-0.1-0.4-0.2-0.8-0.3-1.2c-0.7-2.5-1.4-4.9-2.4-7.2c-0.2-0.5-0.4-1-0.7-1.5c-0.1-0.3-0.3-0.6-0.4-1c-0.8-1.7-1.6-3.4-2.6-5
			c-0.3-0.5-0.6-1-0.9-1.5c-0.5-0.8-0.9-1.5-1.5-2.3c-0.3-0.4-0.5-0.7-0.8-1.1c-0.3-0.5-0.6-0.9-1-1.3c-0.3-0.4-0.7-0.9-1-1.3
			c-0.3-0.4-0.6-0.8-1-1.2c-1-1.1-2-2.3-3-3.3c-0.3-0.3-0.6-0.6-1-1c-9.3-9.1-21.5-15.3-35.3-16.9c0,0,0-0.1,0-0.1h0
			c0.2-1.3,0.3-2.6,0.4-3.8c0.1-1.7,0.2-3.4,0.1-5c0-0.3,0-0.7,0-1c0-0.4,0-0.8-0.1-1.1c0-0.8-0.1-1.5-0.2-2.3
			c-0.1-1.1-0.3-2.3-0.4-3.4c0-0.2-0.1-0.3-0.1-0.5v0c-0.1-0.3-0.1-0.6-0.1-0.9c0,0,0,0,0-0.1c-0.5-2.9-1.2-5.8-2.2-8.7
			c0-0.1,0-0.2-0.1-0.2c8.4-17.5,26.5-27.2,44.7-25.6c0.4,0,0.9,0.1,1.3,0.1c0.3,0,0.7,0.1,1,0.1c0.4,0,0.8,0.1,1.2,0.2
			c4.1,0.7,8.3,2,12.3,3.8c20,9.6,30.2,32.3,23.9,53.6c-0.7,2.3-0.2,4.9,1.3,6.8c1.3,1.6,3.1,2.6,5.1,2.9c0.1,0,0.3,0,0.4,0
			c0.2,0,0.4,0,0.6,0l2-0.1c0.8,0,1.6,0,2.3,0.1c0.8,0,1.5,0.1,2.3,0.2c0.4,0,0.7,0.1,1.1,0.1c22.3,2.8,39.6,21.8,39.7,44.9
			c0,10.3-3.5,20.2-9.9,28.2c-2.6,3.3-2.1,8,1.2,10.6c0.2,0.1,0.3,0.2,0.5,0.4c24.2,16.3,30.6,49.1,14.3,73.3
			c-3.8,5.7-8.7,10.5-14.3,14.3c-2,1.1-3.2,2.9-3.6,4.8c0,0.3-0.1,0.5-0.1,0.8c0,0.2,0,0.4,0,0.6C995,135.9,995.4,137.3,996.3,138.6
			z"/>
		<path class="st2" d="M995,133.9c0,0.2,0,0.4,0,0.6c0,1.4,0.4,2.8,1.3,4.1c0.1,0.2,0.2,0.3,0.4,0.5c0.4,0.5,0.8,1,1.2,1.5
			c0.8,1,1.5,2.1,2.1,3.2c0.7,1.2,1.4,2.3,2,3.6c0.3,0.5,0.5,1,0.7,1.5c0.2,0.4,0.3,0.8,0.5,1.2c0.1,0.3,0.3,0.6,0.4,0.9
			c0.2,0.4,0.3,0.8,0.5,1.2c0.1,0.2,0.2,0.5,0.2,0.7c0.6,1.8,1.1,3.7,1.5,5.6c0.1,0.5,0.2,1,0.3,1.6c0,0.2,0.1,0.5,0.1,0.7
			c0.2,1.6,0.4,3.1,0.5,4.7c0,0.1,0,0.3,0,0.4c0,0.5,0,1,0,1.5c0,25-20.3,45.2-45.3,45.3H903c0.4-0.4,0.8-0.8,1.2-1.2
			c0.2-0.2,0.4-0.4,0.6-0.6c0.6-0.6,1.2-1.1,1.8-1.8c0.6-0.7,1.2-1.3,1.8-2c0.8-0.8,1.5-1.7,2.1-2.6c0.6-0.7,1.1-1.4,1.6-2.2
			c0.7-0.9,1.3-1.8,1.9-2.8c0.5-0.8,1-1.5,1.4-2.3c0.6-1,1.1-2,1.6-3c0.4-0.8,0.8-1.6,1.2-2.4c0.5-1.1,0.9-2.2,1.3-3.3
			c0.3-0.8,0.6-1.6,0.9-2.5c0.4-1.2,0.7-2.4,1-3.6c0.2-0.8,0.4-1.6,0.6-2.4c0.2-0.7,0.3-1.4,0.4-2.1c0.1-0.7,0.2-1.3,0.3-2
			c0.1-0.7,0.2-1.4,0.3-2.1c0.1-1.3,0.2-2.5,0.3-3.8c0-0.4,0.1-0.8,0.1-1.2c0-0.5,0-1,0-1.5c0-1.4,0-2.8-0.1-4.1
			c-0.7-9.6-3.6-19-8.7-27.2c0,0,0,0,0,0c14.2-12.2,22.8-29.7,23.7-48.4l6.4-6.4l0.6-0.6l21-21c2.9-3,2.8-7.8-0.2-10.7
			c-0.5-0.5-1-0.9-1.6-1.2c0,0-0.1-0.1-0.1-0.1c-2.8-1.5-6.4-1.1-8.8,1.2l-14.3,14.6l-0.4,0.4l-4.3,4.4c-3.4-13.8-11-26.2-21.8-35.4
			c0,0,0,0,0-0.1c3.5-5.7,6-11.9,7.3-18.3c0.1-0.6,0.3-1.2,0.4-1.8c0.2-1.2,0.4-2.4,0.6-3.6c0.1-0.6,0.2-1.2,0.2-1.8
			c0.1-0.6,0.1-1.2,0.2-1.8c0-0.1,0-0.3,0-0.4c0.1-1.2,0.1-2.4,0.1-3.6c0-0.7,0-1.5-0.1-2.2c0-0.3,0-0.5,0-0.8c0-0.1,0-0.2,0-0.3
			c0-0.3,0-0.5,0-0.8c0-0.1,0-0.2,0-0.3c-0.7-9.3-3.4-18-7.9-25.7c-0.3-0.5-0.6-1-0.9-1.5c-0.5-0.8-0.9-1.5-1.5-2.3
			c-0.3-0.4-0.5-0.7-0.8-1.1c-0.3-0.4-0.6-0.9-1-1.3c-0.3-0.4-0.7-0.9-1-1.3c-0.3-0.4-0.6-0.8-1-1.2c-1-1.1-2-2.3-3-3.3
			c-0.3-0.3-0.6-0.7-1-1c-9.3-9.1-21.5-15.3-35.3-16.9c0,0,0-0.1,0-0.1c0.2-1.3,0.3-2.6,0.4-3.8c0.1-1.7,0.2-3.4,0.1-5
			c0-0.3,0-0.7,0-1c0-0.4,0-0.8-0.1-1.1c0-0.8-0.1-1.5-0.2-2.3c-0.1-1.1-0.3-2.3-0.4-3.4c0-0.2-0.1-0.3-0.1-0.5v0
			c0-0.3-0.1-0.6-0.1-0.9c0,0,0,0,0-0.1c-0.5-2.9-1.2-5.8-2.2-8.7c0-0.1,0-0.2-0.1-0.2c8.4-17.5,26.5-27.2,44.7-25.6
			c0.4,0,0.9,0.1,1.3,0.1c0.3,0,0.7,0.1,1,0.1c0.4,0,0.8,0.1,1.2,0.2c4.1,0.7,8.2,2,12.2,3.8c20,9.6,30.2,32.3,23.9,53.6
			c-0.7,2.3-0.2,4.9,1.3,6.8c1.3,1.6,3.2,2.7,5.2,2.9c0.1,0,0.3,0,0.4,0c0.2,0,0.4,0,0.6,0l2-0.1c0.8,0,1.6,0,2.3,0.1
			c0.8,0,1.5,0.1,2.3,0.2c22.8,2.3,40.6,21.6,40.7,45.1c0,10.3-3.5,20.2-9.9,28.2c-2.6,3.3-2.1,8,1.2,10.6c0.2,0.1,0.3,0.2,0.5,0.4
			c24.2,16.3,30.6,49.1,14.3,73.3c-3.8,5.7-8.7,10.5-14.3,14.3c-2,1.1-3.1,2.8-3.5,4.8C995.1,133.4,995,133.7,995,133.9z"/>
		<path class="st2" d="M898.2,138.6c0.1,0.2,0.2,0.3,0.4,0.5c6.4,8,9.9,17.9,9.9,28.2c0,18.8-11.4,34.8-27.7,41.7
			c-0.2,0.1-0.5,0.2-0.7,0.3c-5.2,2.1-11,3.3-16.9,3.3h-45.3v-103c0.6-0.3,1.1-0.6,1.6-1l49-49c2.9-3,2.8-7.8-0.2-10.7
			c-2.1-2.1-5.2-2.6-7.8-1.7c0,0,0,0,0,0c-1,0.3-1.9,0.9-2.7,1.6l-39.4,39.4l-0.5,0.5v-110c0-4.2-3.4-7.5-7.5-7.5
			c-2.3,0-4.4,1.1-5.8,2.8c-0.1,0.1-0.2,0.3-0.3,0.4c0,0-0.1,0.1-0.1,0.1c-0.9,1.2-1.4,2.7-1.4,4.3v53.5L768.5-2.1
			c-3-2.9-7.8-2.8-10.7,0.2c-2.8,2.9-2.8,7.6,0,10.5l44.9,44.9v103.1l-32.4-32.4c-1.3-1.2-2.9-1.9-4.5-2.1c-0.5,0-0.9,0-1.4,0
			c-1.8,0.2-3.5,0.9-4.8,2.3c-2.8,2.9-2.8,7.6,0,10.5l43.1,43.1v34.6h-45.3c-25,0-45.2-20.3-45.3-45.3c0-10.3,3.5-20.2,9.9-28.2
			c2.6-3.3,2.1-8-1.2-10.6c-0.2-0.1-0.3-0.2-0.5-0.4C696.2,111.8,689.8,79,706,54.8c3.8-5.7,8.7-10.5,14.3-14.3
			c3.4-2.3,4.4-7,2-10.5c-0.1-0.2-0.2-0.3-0.4-0.5c-6.4-8-9.9-17.9-9.9-28.2c0-16.7,9.1-31.3,22.6-39.1c0.4-0.3,0.9-0.5,1.3-0.7
			c0.3-0.2,0.7-0.4,1.1-0.6c0.2-0.1,0.4-0.2,0.6-0.3c0.7-0.3,1.5-0.7,2.2-1c5.4-2.3,11.3-3.5,17.6-3.6l2,0.1
			c1.1,0.1,2.3-0.2,3.3-0.6c0.1-0.1,0.3-0.1,0.4-0.2c0.1,0,0.2-0.1,0.3-0.1c0.9-0.5,1.6-1.1,2.2-1.9c1.5-1.9,2-4.5,1.3-6.8
			c-1.3-4.2-1.9-8.6-1.9-13c0-2.8,0.3-5.6,0.8-8.3v-0.3c0.5-2.7,1.3-5.4,2.4-8c4.9-12.5,15-21.9,27.3-26.2c0.4-0.2,0.9-0.3,1.3-0.5
			c4.3-1.3,8.8-2.1,13.4-2.1c18.6,0,35.3,11.4,42.1,28.7c1,2.6,1.8,5.3,2.4,8v0.3c0.5,2.7,0.8,5.5,0.8,8.2c0,4.4-0.7,8.8-1.9,13
			c-0.7,2.3-0.2,4.9,1.3,6.8c1.5,2,3.8,3,6.2,2.9l2-0.1c25,0,45.2,20.3,45.3,45.3c0,10.3-3.5,20.2-9.9,28.2c-2.6,3.3-2.1,8,1.2,10.6
			c0.2,0.1,0.3,0.2,0.5,0.4c24.2,16.3,30.6,49.1,14.3,73.3c-3.8,5.7-8.7,10.5-14.3,14.3C896.8,130.5,895.8,135.2,898.2,138.6z"/>
		<path class="st2" d="M693,47.5c-11.5,17.8-13.7,39.4-7.3,58.5c0.3,1,0.7,2,1.1,3c0.2,0.6,0.5,1.1,0.7,1.7c0.2,0.6,0.5,1.1,0.7,1.7
			c0.2,0.5,0.5,1.1,0.7,1.6c0,0.1,0.1,0.2,0.1,0.3c0.2,0.5,0.5,1,0.7,1.4c0.6,1.1,1.2,2.1,1.8,3.2c0.6,1,1.3,2.1,1.9,3.1
			c0.1,0.1,0.2,0.3,0.3,0.4c0.3,0.5,0.6,0.9,1,1.4c0.1,0.1,0.1,0.2,0.2,0.2c0.4,0.5,0.7,1,1.1,1.5c0.3,0.5,0.7,0.9,1.1,1.4
			c0.3,0.3,0.5,0.7,0.8,1c2.4,2.9,5.1,5.6,8.1,8.2c-0.7,1.2-1.4,2.4-2,3.6c-0.6,1.2-1.2,2.5-1.8,3.8c-0.5,1.3-1,2.6-1.5,3.9
			c0,0,0,0,0,0c-0.5,1.3-0.9,2.6-1.3,3.9L678.2,130V26.9l17.2,17.2C694.5,45.2,693.7,46.4,693,47.5z"/>
		<path class="st2" d="M699.5-109.7c-0.5,0.1-1,0.3-1.4,0.5c-0.1,0-0.1,0-0.2,0.1c-6.5,2.2-12.3,5.7-16.9,10.2
			c-6.7,6.4-11.2,14.7-13,23.7c0,0,0,0.1,0,0.1c-0.6,2.8-0.8,5.6-0.9,8.4v0c0,4.3,0.6,8.8,1.9,13.1c0.3,1.1,0.4,2.2,0.2,3.3
			c0,0.1,0,0.1,0,0.2c-0.2,1.2-0.7,2.4-1.5,3.3c-0.9,1.1-2.1,2-3.4,2.5c0,0-0.1,0-0.2,0c-0.9,0.3-1.8,0.4-2.7,0.4l-2-0.1
			c-4.3,0-8.5,0.6-12.4,1.8c-0.4,0.1-0.7,0.2-1.1,0.3c-0.4,0.1-0.9,0.3-1.3,0.5c0,0,0,0,0,0c-0.1,0-0.2,0-0.2,0.1
			c4.4,0.2,7.9,3.7,8.1,8c0,0.1,0,0.2,0,0.3c0,0.2,0,0.4,0,0.5c0,0.1,0,0.3,0,0.4c0,0.2,0,0.4-0.1,0.6c0,0.1,0,0.2-0.1,0.3
			c0,0.2-0.1,0.4-0.1,0.5c0,0.2-0.1,0.4-0.2,0.6c-0.1,0.3-0.2,0.5-0.3,0.8c-1.4,2.9-4.3,4.8-7.7,4.8s-6.3-2-7.7-4.8
			c-0.2-0.3-0.3-0.6-0.4-1c0-0.1-0.1-0.2-0.1-0.3c0-0.1-0.1-0.3-0.1-0.5c0-0.2-0.1-0.4-0.1-0.6c0-0.2,0-0.4-0.1-0.6
			c0-0.2,0-0.5,0-0.7c0-0.1,0-0.2,0-0.3c0.1-1.8,0.7-3.5,1.8-4.8c2.2-1.2,4.4-2.3,6.8-3.2c-2.3,0.8-4.6,1.9-6.7,3.1c0,0,0,0,0,0
			c0,0-0.1,0-0.1,0.1c-8.9,5-15.9,12.9-19.8,22.3c-2,4.9-3.2,10.2-3.4,15.7c0,0.5,0,0.9,0,1.4c0,9.2,2.8,18,7.9,25.5
			c0,0.1,0.1,0.2,0.2,0.2c0.6,0.8,1.2,1.7,1.8,2.4c0.2,0.2,0.3,0.3,0.4,0.5c2.4,3.5,1.5,8.2-2,10.5c-1.6,1.1-3.2,2.3-4.7,3.6
			c-3.6,3.1-6.9,6.7-9.6,10.7c-1.4,2.1-2.6,4.2-3.7,6.4c-2.7,5.5-4.3,11.3-5,17.1c-2.2,18.9,6.1,38.4,23,49.8
			c0.2,0.2,0.3,0.3,0.5,0.4c3.3,2.6,3.8,7.3,1.2,10.6c-6.4,8-9.9,17.9-9.9,28.2c0,12.2,4.9,23.3,12.8,31.5c4.7,4.8,10.4,8.6,16.8,11
			c4.9,1.8,10.2,2.8,15.7,2.8h1.5V134c0.2,0.3,0.5,0.7,0.8,1l16.5,16.5v61.1h39.4c-0.4-0.4-0.8-0.8-1.2-1.2
			c-0.8-0.8-1.6-1.6-2.4-2.4c-0.6-0.6-1.2-1.3-1.8-2c-0.7-0.9-1.4-1.7-2.1-2.6c-0.5-0.7-1.1-1.4-1.6-2.2c-0.7-0.9-1.3-1.8-1.9-2.8
			c-0.5-0.8-0.9-1.5-1.4-2.3c-0.6-0.9-1.1-2-1.6-3c-0.4-0.8-0.8-1.6-1.2-2.4c-0.5-1.1-0.9-2.2-1.3-3.3c-0.3-0.9-0.6-1.7-0.9-2.5
			c-0.4-1.2-0.7-2.4-1-3.6l-0.6-2.4c-0.3-1.3-0.5-2.7-0.7-4.1c-0.1-0.7-0.2-1.4-0.3-2.1c0,0,0-0.1,0-0.2v0c0-0.1,0-0.1,0-0.2
			c0-0.1,0-0.2,0-0.4c0-0.5,0-1-0.1-1.5c0-0.1,0-0.3,0-0.4c0-0.1,0-0.3,0-0.4l-35.7-35.7c-0.3-0.3-0.6-0.6-0.8-1
			c-0.3-0.4-0.5-0.9-0.7-1.3c-0.3-0.7-0.5-1.5-0.6-2.2c0-0.4,0-0.9,0-1.3c0.1-0.8,0.3-1.6,0.6-2.3c0.2-0.5,0.4-0.9,0.7-1.3V29.3
			c-0.2,0.2-0.5,0.4-0.7,0.6v-0.6c-4.9,4-10.3,7.1-16.1,9.6c-0.1,0-0.1,0-0.1,0c-1.9,0.8-3.8,1.5-5.8,2.1c-0.3,0.1-0.7,0.2-1,0.3
			c-1.7,0.5-3.4,0.9-5.1,1.3c-0.5,0.1-1,0.2-1.5,0.3c-1.6,0.4-3.3,0.6-4.9,0.8c-0.6,0-1.1,0.2-1.7,0.2c-2.1,0.2-4.2,0.3-6.4,0.3
			c1.5-1.3,3.2-2.6,4.9-3.7c3.5-2.3,4.4-7,2-10.5c-0.1-0.2-0.2-0.3-0.3-0.5c-0.6-0.8-1.2-1.6-1.8-2.4c0.7,0,1.4-0.1,2.1-0.2
			c0.7-0.1,1.3-0.2,2-0.3c1.3-0.3,2.6-0.5,3.8-0.8c0.8-0.2,1.6-0.4,2.4-0.6c1.1-0.3,2.2-0.7,3.3-1.1c0.5-0.2,0.9-0.3,1.4-0.5
			c-1.1-1.5-1.9-3.2-1.9-5.2c0-4.7,3.8-8.5,8.5-8.5c2.1,0,4,0.8,5.5,2.1c0.2,0.2,0.4,0.4,0.6,0.6c0.5,0.6,1,1.3,1.3,2
			c0,0,0,0,0.1-0.1c0,0.1,0.1,0.2,0.1,0.3c0.5-0.4,1-0.8,1.5-1.3c0.4-0.3,0.7-0.6,1-0.9c1.5-1.5,2.9-3,4.2-4.7
			c0.1,0,0.1-0.1,0.1-0.1c0.1-0.2,0.3-0.3,0.4-0.5c-0.1-0.1-0.1-0.2-0.2-0.3c-0.1-0.1-0.1-0.3-0.2-0.4c-0.1-0.2-0.1-0.3-0.2-0.5
			c-0.1-0.2-0.2-0.4-0.2-0.6c-0.2-0.5-0.3-1-0.3-1.6c0-0.2,0-0.4,0-0.6c0-1.9,0.7-3.8,2.1-5.3c0.2-0.2,0.4-0.3,0.6-0.5
			c0.2-0.1,0.3-0.3,0.5-0.4c0.1-0.1,0.2-0.1,0.3-0.2c0.1-0.1,0.2-0.2,0.4-0.2c0.1-0.1,0.2-0.1,0.3-0.2c0,0,0,0,0.1,0c0,0,0,0,0,0
			c-0.6-1.1-1-2.5-1-3.9c0-4.5,3.4-8,7.8-8.4c0.4-2.8,0.7-5.5,0.7-8.4V-50h-0.1c0.2-1.2,0.2-2.4-0.2-3.6c-1.3-4.4-1.9-8.8-1.9-13.1
			c0.2,0,0.3-0.1,0.5-0.1c0.3,0,0.5-0.1,0.8-0.1c0.3,0,0.6,0,0.9,0v-8.2h-1.3c1.8-9,6.3-17.2,12.8-23.6l4.5,9.8
			c0.2,0.8,0.4,1.7,0.4,2.5c0.5,1.1,0.8,2.3,0.8,3.6v58.8c0,11.1-2.7,21.5-7.3,30.8l-8.8-8.8l8.8,8.8l26.3,26.4l0.4-0.4
			c-5.8-9.4-8.8-20.3-8.8-31.3c0-14.9,5.4-28.6,14.4-39.2c0.3-0.3,0.6-0.7,0.9-1c0.3-0.4,0.6-0.7,0.9-1c1.5-1.6,3.2-3.2,4.9-4.7
			c0.3-0.3,0.6-0.5,0.9-0.8c0.3-0.3,0.7-0.6,1-0.8c0.5-0.4,1.1-0.8,1.6-1.2c1-0.8,2.1-1.5,3.1-2.1c0.3-0.2,0.6-0.4,0.8-0.5
			c0.4-0.2,0.7-0.4,1.1-0.6c0.5-0.3,0.9-0.5,1.4-0.8c0.4-0.2,0.8-0.4,1.2-0.6c0.2-0.1,0.5-0.3,0.7-0.4c0.3-0.1,0.5-0.3,0.8-0.4
			c0.4-0.2,0.9-0.4,1.3-0.6c0.1,0,0.2-0.1,0.2-0.1c0.5-0.2,0.9-0.4,1.4-0.6c0.3-0.1,0.5-0.2,0.8-0.3c0.4-0.2,0.8-0.3,1.2-0.5
			c0.2-0.1,0.3-0.1,0.5-0.2c0.5-0.2,1-0.4,1.6-0.6c0.1,0,0.3-0.1,0.4-0.1c0.4-0.1,0.8-0.3,1.1-0.4c0.4-0.1,0.8-0.3,1.2-0.4
			c0.1,0,0.2-0.1,0.4-0.1c0.5-0.1,1-0.3,1.5-0.4c0.2-0.1,0.4-0.1,0.6-0.2c0.5-0.1,1-0.2,1.5-0.3c0.6-0.1,1.2-0.3,1.7-0.4
			c0.5-0.1,1-0.2,1.4-0.3c0.9-0.1,1.8-0.3,2.7-0.4c0,0,0-0.1,0-0.1c-0.8-5.6-0.7-11.1,0.2-16.7c0-0.5,0.1-1,0.2-1.5
			c0.5-3,1.3-5.9,2.2-8.7c0,0,0.1,0,0.1-0.1c0,0,0,0,0,0c0,0,0-0.1,0-0.1C743.7-105.9,721-116,699.5-109.7z M643.7,61.3v148.3
			c-6.4-2.4-12.1-6.2-16.8-11.1V78.4h-27.4c0.6-5.8,2.3-11.6,4.9-17.1H643.7z M617.6-15.8L617.6-15.8c0.3,0,0.5,0,0.8,0
			c4.7,0,8.5,3.8,8.5,8.5c0,0.2,0,0.5,0,0.7c0,0.2,0,0.4-0.1,0.6c0,0.1,0,0.2,0,0.2c0,0.1,0,0.2-0.1,0.2c0,0.2-0.1,0.4-0.1,0.6
			c0,0.1-0.1,0.2-0.1,0.3c-0.1,0.2-0.1,0.3-0.2,0.5c-0.1,0.3-0.2,0.5-0.4,0.8c-0.1,0.2-0.2,0.4-0.4,0.6c-0.1,0.1-0.2,0.3-0.3,0.5
			c0,0,0,0,0,0c-0.1,0.1-0.2,0.3-0.3,0.4c-0.1,0.1-0.2,0.2-0.3,0.3c0,0,0,0,0,0c0,0,0,0,0,0c-0.1,0.1-0.2,0.2-0.3,0.3
			c-0.1,0.1-0.1,0.1-0.2,0.2c0,0,0,0,0,0c-0.1,0-0.1,0.1-0.2,0.1c-0.2,0.1-0.3,0.3-0.5,0.4c-0.2,0.2-0.4,0.3-0.7,0.5
			c-0.2,0.1-0.3,0.2-0.5,0.3c-0.2,0.1-0.4,0.2-0.6,0.3c0,0-0.1,0.1-0.2,0.1c-0.1,0-0.1,0-0.2,0.1c-0.1,0-0.2,0.1-0.3,0.1
			c-0.1,0-0.1,0-0.2,0.1c-0.2,0.1-0.4,0.1-0.6,0.2c-0.1,0-0.3,0.1-0.4,0.1c-0.2,0-0.5,0.1-0.7,0.1c-0.2,0-0.4,0-0.7,0
			c-0.2,0-0.4,0-0.5,0c-0.2,0-0.3,0-0.5,0c-0.2,0-0.4,0-0.6-0.1c0,0-0.1,0-0.1,0c-0.2,0-0.5-0.1-0.7-0.2c-0.2-0.1-0.3-0.1-0.5-0.2
			c-0.4-0.1-0.8-0.3-1.2-0.5C614.4-5.5,615.6-10.9,617.6-15.8z"/>
	</g>
</g>
<g>
	<path class="st0" d="M663.3-52.6c1.5,1.5,3.5,2.5,5.7,2.6c0-0.1,0-0.1,0-0.2C666.8-50.3,664.8-51.2,663.3-52.6z M600.6,14.9
		c0,0.3,0.1,0.5,0.2,0.7c0,0,0,0,0,0c0.1,0.3,0.2,0.5,0.2,0.8c0,0,0,0,0,0.1c0.1,0.4,0.2,0.9,0.3,1.3
		C601.3,16.8,601,15.8,600.6,14.9z M650.1,12.6c0.5,0.6,1,1.3,1.3,2c0,0,0,0,0.1-0.1C651.2,13.8,650.7,13.2,650.1,12.6z M662.8-2.2
		c0.3,0.3,0.6,0.7,0.9,1c0,0,0,0,0,0C663.4-1.5,663.1-1.8,662.8-2.2z M670.5-2.1l8.8,8.8c0,0,0,0,0,0L670.5-2.1z M669.2-53.6
		c-1.3-4.4-1.9-8.8-1.9-13.1c-0.1,0-0.2,0-0.3,0.1c0,4.3,0.6,8.8,1.9,13.1c0.3,1.1,0.4,2.2,0.2,3.3c-2.2,0-4.3-1-5.8-2.4
		c1.5,1.5,3.5,2.5,5.7,2.6c0.1,0,0.1,0,0.2,0h0.1C669.5-51.2,669.5-52.4,669.2-53.6z M681-98.8l-0.1-0.1c-6.7,6.4-11.2,14.7-13,23.7
		H567.2v0.1h102.3v-0.1h-1.3C669.9-84.2,674.4-92.4,681-98.8z M650.1,12.6c0.5,0.6,1,1.3,1.3,2c0,0,0,0,0.1-0.1
		C651.2,13.8,650.7,13.2,650.1,12.6z M661.7,124.5c2.9-3,7.7-3.1,10.7-0.2l5.8,5.8V130l-5.8-5.8
		C669.3,121.3,664.5,121.4,661.7,124.5c-0.3,0.2-0.6,0.5-0.8,0.9V29.3c-0.2,0.2-0.5,0.4-0.7,0.6v278.9h0.7v-96.1h17.3v-0.1h-17.3
		V134c0.2,0.3,0.5,0.7,0.8,1l16.5,16.5v-0.1l-16.5-16.5c-0.3-0.3-0.6-0.6-0.8-1v-8.4C661.1,125.1,661.3,124.8,661.7,124.5z
		 M650.1,12.6c0.5,0.6,1,1.3,1.3,2c0,0,0,0,0.1-0.1C651.2,13.8,650.7,13.2,650.1,12.6z M624.5,30c-0.1-0.2-0.2-0.3-0.3-0.5
		c-0.6-0.8-1.2-1.6-1.8-2.4c-0.1,0-0.2,0-0.4,0c0.6,0.8,1.2,1.7,1.8,2.4c0.2,0.2,0.3,0.3,0.4,0.5c2.4,3.5,1.5,8.2-2,10.5
		c-1.6,1.1-3.2,2.3-4.7,3.6h0.1c1.5-1.3,3.2-2.6,4.9-3.7C626,38.2,626.8,33.5,624.5,30z M626.8,198.5v0.3c4.7,4.8,10.4,8.6,16.8,11
		v-0.2C637.2,207.2,631.5,203.4,626.8,198.5z M604.3,61.3c-2.7,5.5-4.3,11.3-5,17.1h0.2c0.6-5.8,2.3-11.6,4.9-17.1H604.3z
		 M601.3,17.8c-0.1-1-0.3-2-0.8-3c-0.4-0.9-1-1.7-1.6-2.4c0.8,0.9,1.4,2,1.8,3.1c0,0,0,0,0,0c0.1,0.3,0.2,0.5,0.2,0.8c0,0,0,0,0,0.1
		c0.1,0.5,0.2,1.1,0.2,1.7c0,2-0.8,3.7-1.9,5.2c0.1,0,0.2,0.1,0.3,0.1c1.1-1.5,1.8-3.1,1.8-5.1C601.3,18.2,601.3,18,601.3,17.8z
		 M567.2-50L567.2-50c2.2,0.1,4.2-0.8,5.7-2.2C571.3-50.9,569.3-50,567.2-50z M542.2-126.9c-0.2,0-0.4,0.1-0.5,0.1l6.3,34.5h0.4
		L542.2-126.9z M533.2-135.3c0-3.8,2.6-7,6.1-8l-4.7-25.8H534l4.7,25.8c-3.5,1.1-6.1,4.2-6.1,8c0,4.7,3.8,8.5,8.5,8.5c0,0,0,0,0.1,0
		C536.7-127.1,533.2-130.8,533.2-135.3z M507.7-160.9c0-4.2,3-7.5,7-8.2h-0.5c-3.9,0.8-7,4.1-7,8.2c0,4.7,3.8,8.5,8.5,8.5
		c0.1,0,0.2,0,0.3,0C511.3-152.6,507.7-156.3,507.7-160.9z M456.5-160.9c0-4.2,3-7.5,7-8.2H463c-3.9,0.8-7,4.1-7,8.2
		c0,4.7,3.8,8.5,8.5,8.5c0.1,0,0.2,0,0.3,0C460.2-152.6,456.5-156.3,456.5-160.9z M234.3,257.5v-34.7c-0.1,0-0.1,0.1-0.2,0.1v34.7
		h221.8v-0.1H234.3z M395.4,14.5c0.5,1.1,0.8,2.3,0.8,3.7c0,3.1-1.7,5.6-4.1,7.1c0.2-0.1,0.4-0.1,0.7-0.2c2.1-1.5,3.5-4,3.5-6.7
		C396.3,17,396,15.7,395.4,14.5z M386,26.4c-0.3-0.1-0.5-0.1-0.8-0.2c-0.2-0.1-0.4-0.1-0.7-0.2c-0.1,0-0.2-0.1-0.3-0.1
		c-0.1,0-0.2-0.1-0.3-0.1c-0.1,0-0.1-0.1-0.2-0.1c0,0,0,0,0,0c0,0,0,0,0,0c0,0,0,0,0,0c0,0,0,0,0,0c0,0-0.1-0.1-0.2-0.1
		c0,0,0,0-0.1,0c0,0,0,0-0.1,0c0,0,0,0,0,0c0,0-0.1,0-0.1-0.1c-0.1-0.1-0.2-0.1-0.3-0.2c-0.1,0-0.1-0.1-0.2-0.1
		c-0.1-0.1-0.2-0.1-0.2-0.2c1,0.9,2.2,1.5,3.6,1.8c0.2,0,0.3,0,0.5-0.1C386.3,26.4,386.2,26.4,386,26.4z M328.2-75.2h102.3v-0.2H328
		v51.3c0,1.8,0.1,3.5,0.3,5.3c0,0.4,0.1,0.9,0.1,1.3c0,0.2,0.1,0.4,0.1,0.6c0,0.3,0.1,0.7,0.2,1c0,0.3,0.1,0.7,0.2,1
		c0.1,0.4,0.2,0.8,0.2,1.3c0.1,0.5,0.2,1,0.4,1.6c0.1,0.3,0.1,0.6,0.2,0.9c0,0,0,0.1,0,0.1c0.1,0.4,0.2,0.8,0.3,1.1
		c0.1,0.4,0.2,0.8,0.4,1.2c0.2,0.6,0.4,1.2,0.6,1.7c-1.8-5.3-2.8-10.9-2.8-16.8V-75.2z M326-169.1l-7,38.4l-2.6,14.5
		c0.1,0.1,0.2,0.2,0.3,0.3l2.7-14.8l7-38.4H326z M313.7-101.7l-1.7,9.4h0.4l1.7-9.5C314-101.8,313.9-101.7,313.7-101.7z
		 M302.7-160.9c0-4.2,3-7.5,6.9-8.2h-0.4c-3.9,0.8-6.9,4.1-6.9,8.2c0,4.7,3.8,8.5,8.5,8.5h0.2C306.3-152.5,302.7-156.3,302.7-160.9z
		 M302.5-109.7c0-4.6,3.7-8.4,8.3-8.5h-0.2c-4.7,0-8.5,3.8-8.5,8.5s3.8,8.5,8.5,8.5h0.2C306.2-101.3,302.5-105.1,302.5-109.7z
		 M264.2,149c1.9-3.2,3.7-6.6,5.3-10.5c3.9-9.7,5-18.1,3.5-25.7c-0.9-4.4-2.9-8.6-5.7-12c-1.6-1.9-2.3-4.9-1.7-7.4
		c0.5-2.2,0.6-4.5,0.6-6.8c0-0.6,0-1.2-0.1-1.7c-0.1-2-0.4-4-0.9-5.9c-0.1-0.2,0-0.3-0.1-0.6h-0.2c0.1,0.2,0,0.5,0.1,0.7
		c0.5,1.9,0.8,3.9,0.9,5.9c0,0.6,0.1,1.2,0.1,1.7c0,2.3-0.1,4.6-0.6,6.8c-0.5,2.5,0.2,5.5,1.7,7.4c2.8,3.4,4.8,7.6,5.7,12
		c1.5,7.6,0.4,16-3.5,25.7c-1.5,3.9-3.3,7.3-5.3,10.5c-0.8,1.3-1.5,2.7-2.4,3.8c-2,2.8-2.2,7.3-0.3,11.5c1.8,4.2,2.8,8.8,3.1,13.4
		c0.1,2.3,0.1,4.7-0.2,7c-0.3,2.3-0.7,4.6-1.4,6.7c-0.6,1.8-1.3,3.6-2.1,5.4c-0.3,0.6-0.6,1.2-0.9,1.8c-0.6,1.2-1.2,2.3-1.9,3.4
		c-0.4,0.6-0.8,1.2-1.2,1.8c-0.9,1.3-1.9,2.7-3,4c-0.2,0.2-0.4,0.5-0.6,0.8c-1.4,1.6-2.9,3.1-4.6,4.6c-0.1,0.1-0.1,0.1-0.2,0.2
		c-0.9,0.8-1.8,1.5-2.7,2.3c1-0.8,2-1.6,2.9-2.4c0.1-0.1,0.1-0.1,0.2-0.2c1.6-1.5,3.2-3,4.6-4.6c0.2-0.3,0.4-0.5,0.6-0.8
		c1.1-1.3,2.1-2.6,3-4c0.4-0.6,0.8-1.2,1.2-1.8c0.7-1.1,1.3-2.3,1.9-3.4c0.3-0.6,0.6-1.2,0.9-1.8c0.8-1.8,1.5-3.5,2.1-5.4
		c0.7-2.2,1.1-4.4,1.4-6.7c0.2-2.3,0.2-4.6,0.2-7c-0.3-4.7-1.3-9.3-3.1-13.4c-1.8-4.2-1.7-8.7,0.3-11.5
		C262.5,151.7,263.3,150.3,264.2,149z M251.5-160.9c0-3.4,2-6.3,5-7.7c-0.2,0-0.5,0.1-0.7,0.2c-2.7,1.5-4.7,4.3-4.7,7.5
		c0,4.7,3.8,8.5,8.5,8.5h0.2C255.2-152.5,251.5-156.3,251.5-160.9z M256.3,116.1c-0.3-1.6-1.1-3.3-2.1-4.5c-5-6-6.9-14.1-5.3-21.8
		c0.6-3,0.2-6.5-1.1-9c-0.5-0.9-1.1-1.6-1.7-2.4c-0.6-0.6-1.3-1.4-2.2-2.1l-1.9-1.5c-2.4-1.5-5.2-2.6-8.3-3
		c-0.6-0.1-1.4-0.2-2.3-0.2c-1.4,0-3.1,0.1-4.7,0.7c-0.2,0.1-0.4,0.1-0.6,0.2c-0.8,0.3-1.6,0.8-2.2,1.4l-7.7,6.3
		c-0.6,0.3-1.3,0.7-2.1,1.4l-0.6,0.5c0,0-0.1,0.1-0.1,0.1l0.6-0.5c0.8-0.7,1.5-1.1,2.1-1.4l7.7-6.3c0.6-0.6,1.4-1.1,2.2-1.4
		c0.2-0.1,0.4-0.1,0.6-0.2c1.6-0.6,3.3-0.7,4.7-0.7c0.9,0,1.7,0.1,2.3,0.2c3.1,0.4,5.9,1.5,8.3,3l1.9,1.5c0.9,0.7,1.6,1.5,2.2,2.1
		c0.6,0.8,1.2,1.5,1.7,2.4c1.3,2.5,1.7,6,1.1,9c-1.6,7.7,0.3,15.8,5.3,21.8c1,1.2,1.8,2.9,2.1,4.5c0.1,0.3,0.1,0.7,0.2,1
		C256.4,116.8,256.3,116.4,256.3,116.1z M201.7,274.6l0,0.1h48.1l0-0.1H201.7z M245.8,171c-1-2.5-1.8-5-2.2-7.5
		c-0.1-0.3-0.1-0.6-0.2-0.9c0,0.3,0.1,0.7,0.2,1C244,166.1,244.8,168.6,245.8,171s1.6,5.1,1.7,7.7v-0.1
		C247.5,176,246.8,173.3,245.8,171z M234.5,222.7c0.3-0.2,0.7-0.3,1-0.5C235.1,222.3,234.8,222.5,234.5,222.7z M229.8-128.4
		l-0.1,0.2c1.3,0.8,2.8,1.4,4.4,1.4c0.1,0,0.2,0,0.3,0C232.7-126.9,231.1-127.5,229.8-128.4z"/>
	<path class="st1" d="M678.2,311.7v12.9c-2.2-1.3-3.6-3.7-3.6-6.4C674.5,315.4,676,313,678.2,311.7z"/>
	<path class="st1" d="M669.1-50.2c-2.2,0-4.3-1-5.8-2.4c-0.1,0-0.1-0.1-0.2-0.2c-1.4-1.5-2.2-3.5-2.2-5.7c0-3.8,2.5-7.1,6-8.1
		c0,4.3,0.6,8.8,1.9,13.1C669.2-52.4,669.2-51.3,669.1-50.2z"/>
	<path class="st1" d="M622.3,40.6c-1.6,1.1-3.2,2.3-4.7,3.6h-0.1c-2.9,0-5.7-0.3-8.5-0.6c-0.8-0.1-1.6-0.3-2.4-0.4
		c-2.1-0.3-4.2-0.8-6.2-1.3c-0.4-0.1-0.8-0.2-1.2-0.3c2.6-3.2,5.5-6.2,8.7-8.9c-1.5-2.4-2.8-4.9-3.9-7.5c4.6,1.4,9.5,2.1,14.5,2.1
		c1.2,0,2.4,0,3.6-0.1c0.6,0.8,1.2,1.7,1.8,2.4c0.2,0.2,0.3,0.3,0.4,0.5C626.7,33.6,625.8,38.3,622.3,40.6z"/>
	<path class="st1" d="M643.7,209.8v15.7c-6-1.6-11.7-4.2-16.8-7.4v-19.2C631.5,203.6,637.2,207.4,643.7,209.8z"/>
	<rect x="660.8" y="212.7" class="st1" width="17.3" height="14.9"/>
	<path class="st1" d="M678.2,130.1v21.3l-16.5-16.5c-0.3-0.3-0.6-0.6-0.8-1v-8.4c0.2-0.3,0.5-0.7,0.8-1c2.9-3,7.7-3.1,10.7-0.2
		L678.2,130.1z"/>
	<path class="st1" d="M678.2,151.5v61.1h-17.3V134c0.2,0.3,0.5,0.7,0.8,1L678.2,151.5z"/>
	<path class="st1" d="M604.3,61.3c-2.7,5.5-4.3,11.3-5,17.1h-15c0.5-5.8,1.8-11.6,3.8-17.1H604.3z"/>
	<path class="st1" d="M643.7,61.3v148.3c-6.4-2.4-12.1-6.2-16.8-11.1V78.4h-27.4c0.6-5.8,2.3-11.6,4.9-17.1H643.7z"/>
	<path class="st1" d="M680.9-99c-6.7,6.4-11.2,14.7-13,23.7h-15.4c0.9-6,2.7-11.7,5.2-17.1h7.5l-3.4-7.4c3.4-5.1,7.5-9.7,12.4-13.7
		L680.9-99z"/>
	<path class="st1" d="M686.7-82.9v58.8c0,11.1-2.7,21.5-7.3,30.8l-8.8-8.8c-1.5-1.4-3.4-2.1-5.3-2.1c-0.3,0-0.5,0-0.7,0
		c-0.2,0-0.4,0-0.6,0.1c-0.1,0-0.3,0-0.4,0.1c-0.3,0-0.5,0.1-0.8,0.2c-0.3,0.1-0.6,0.2-0.9,0.4c-0.6-1.1-1-2.5-1-3.9
		c0-4.5,3.4-8,7.8-8.4c0.4-2.8,0.7-5.5,0.7-8.4V-50h-0.1c0.2-1.2,0.2-2.4-0.2-3.6c-1.3-4.4-1.9-8.8-1.9-13.1c0.2,0,0.3-0.1,0.5-0.1
		c0.3,0,0.5-0.1,0.8-0.1c0.3,0,0.6,0,0.9,0v-8.2h-1.3c1.8-9,6.3-17.2,12.8-23.6l4.5,9.8c0.2,0.8,0.4,1.7,0.4,2.5
		C686.3-85.4,686.7-84.2,686.7-82.9z"/>
	<path class="st1" d="M679.3,6.7c-0.4,0.7-0.8,1.5-1.2,2.2v18L659.8,8.6c-0.3-0.3-0.6-0.7-0.8-1c-0.1-0.1-0.1-0.2-0.2-0.3
		c1.2-1.5,2.3-3.2,3.3-4.9l0.9-1.5l0.3-0.6c0.2-0.4,0.4-0.9,0.6-1.3l-0.2-0.2c0,0,0,0,0,0c-0.3-0.3-0.7-0.6-1-1
		c-0.1-0.1-0.2-0.3-0.3-0.4c-0.2-0.3-0.4-0.5-0.5-0.8c0.3-0.2,0.6-0.3,0.9-0.4c0.3-0.1,0.5-0.2,0.8-0.2c0.1,0,0.3-0.1,0.4-0.1
		c0.2,0,0.4-0.1,0.6-0.1c0.2,0,0.5,0,0.7,0c1.9,0,3.8,0.7,5.3,2.1L679.3,6.7z"/>
	<path class="st1" d="M678.2,26.9V130l-5.8-5.8c-3-2.9-7.8-2.8-10.7,0.2c-0.3,0.3-0.6,0.6-0.8,1V29.3c-0.2,0.2-0.5,0.4-0.7,0.6v-0.6
		c-4.9,4-10.3,7.1-16.1,9.6c-0.1,0-0.1,0-0.1,0c-1.9,0.8-3.8,1.5-5.8,2.1c-0.3,0.1-0.7,0.2-1,0.3c-1.7,0.5-3.4,0.9-5.1,1.3
		c-0.5,0.1-1,0.2-1.5,0.3c-1.6,0.4-3.3,0.6-4.9,0.8c-0.6,0-1.1,0.2-1.7,0.2c-2.1,0.2-4.2,0.3-6.4,0.3c1.5-1.3,3.2-2.6,4.9-3.7
		c3.5-2.3,4.4-7,2-10.5c-0.1-0.2-0.2-0.3-0.3-0.5c-0.6-0.8-1.2-1.6-1.8-2.4c0.7,0,1.4-0.1,2.1-0.2c0.7-0.1,1.3-0.2,2-0.3
		c1.3-0.3,2.6-0.5,3.8-0.8c0.8-0.2,1.6-0.4,2.4-0.6c1.1-0.3,2.2-0.7,3.3-1.1c0.5-0.2,0.9-0.3,1.4-0.5c-1.1-1.5-1.9-3.2-1.9-5.2
		c0-4.7,3.8-8.5,8.5-8.5c2.1,0,4,0.8,5.5,2.1c0.2,0.2,0.4,0.4,0.6,0.6c0.5,0.6,1,1.3,1.3,2c0,0,0,0,0.1-0.1c0,0.1,0.1,0.2,0.1,0.3
		c0.5-0.4,1-0.8,1.5-1.3c0.4-0.3,0.7-0.6,1-0.9c1.5-1.5,2.9-3,4.2-4.7c0.1,0,0.1-0.1,0.1-0.1c0.1-0.2,0.3-0.3,0.4-0.5
		c0,0.1,0.1,0.2,0.2,0.3c0.2,0.4,0.5,0.7,0.8,1L678.2,26.9z"/>
	<path class="st1" d="M678.2,311.7v-84.1h-17.3v81.2h-17.2v-83.3c-6-1.6-11.7-4.2-16.8-7.4v90.7H507.3V78.4h76.9
		c0.5-5.8,1.8-11.6,3.8-17.1h-97.7v247.5h-229l5.7-34.1h206.1V61.3H252.3c-4.7-3.2-10.2-5.4-16.3-6.3c-2.2-0.3-4.4-0.4-6.4-0.3
		c-0.6,0-1.1,0.1-1.6,0.1c-1.6,0.1-3.2,0.4-4.6,0.8c-0.4,0.1-0.9,0.2-1.3,0.3c-1.7,0.5-3.3,1.1-4.8,1.9V29.3
		c4.9,4,10.3,7.1,16.1,9.6c0,0,0,0,0.1,0c1.9,0.8,3.8,1.5,5.8,2.1c0.3,0.1,0.7,0.2,1,0.3c1.7,0.5,3.3,0.9,5.1,1.3
		c0.5,0.1,1,0.2,1.5,0.3c1.6,0.3,3.2,0.6,4.9,0.8c0.6,0.1,1.1,0.2,1.7,0.2c2.2,0.2,4.4,0.3,6.6,0.3c2.9,0,5.7-0.2,8.5-0.6
		c0.8-0.1,1.6-0.2,2.4-0.4c2.1-0.3,4.2-0.8,6.2-1.3c0.7-0.2,1.4-0.3,2.1-0.5c2.6-0.8,5.2-1.7,7.7-2.7c0.4-0.2,0.7-0.4,1.1-0.5
		c2.1-1,4.2-2,6.1-3.2c0.7-0.4,1.4-0.8,2-1.2c1.8-1.1,3.5-2.3,5.2-3.6c0.5-0.4,1-0.7,1.4-1.1c2.1-1.7,4-3.5,5.9-5.4
		c0.4-0.4,0.8-0.9,1.2-1.3c1.5-1.5,2.8-3.2,4.1-4.8c0.5-0.6,1-1.3,1.4-1.9c1.3-1.9,2.6-3.8,3.7-5.8c0.2-0.3,0.4-0.5,0.5-0.8
		c0.2,0.3,0.4,0.5,0.5,0.8c1.1,2,2.4,3.9,3.7,5.8c0.5,0.7,0.9,1.3,1.4,1.9c1.3,1.7,2.7,3.3,4.1,4.8c0.4,0.5,0.8,0.9,1.2,1.3
		c1.9,1.9,3.8,3.7,5.9,5.4c0.5,0.4,1,0.7,1.4,1.1c1.7,1.3,3.4,2.5,5.2,3.6c0.7,0.4,1.3,0.8,2,1.2c2,1.1,4,2.2,6.2,3.2
		c0.4,0.2,0.7,0.4,1.1,0.5c2.5,1.1,5,2,7.7,2.7c0.7,0.2,1.4,0.4,2.1,0.5c2,0.5,4.1,1,6.2,1.3c0.8,0.1,1.6,0.3,2.4,0.4
		c2.8,0.3,5.6,0.6,8.5,0.6c2.9,0,5.7-0.2,8.5-0.6c0.8-0.1,1.6-0.2,2.4-0.4c2.1-0.3,4.2-0.8,6.2-1.3c0.7-0.2,1.4-0.3,2.1-0.5
		c2.6-0.8,5.2-1.7,7.7-2.7c0.4-0.2,0.7-0.4,1.1-0.5c2.1-1,4.2-2,6.2-3.2c0.7-0.4,1.4-0.8,2-1.2c1.8-1.1,3.5-2.3,5.2-3.6
		c0.5-0.4,1-0.7,1.4-1.1c2.1-1.7,4-3.5,5.9-5.4c0.4-0.4,0.8-0.9,1.2-1.3c1.4-1.5,2.8-3.2,4.1-4.8c0.5-0.6,1-1.3,1.4-1.9
		c1.3-1.9,2.6-3.8,3.7-5.8c0.2-0.3,0.4-0.5,0.5-0.8c0.2,0.3,0.4,0.5,0.5,0.8c1.1,2,2.4,3.9,3.7,5.8c0.5,0.7,0.9,1.3,1.4,1.9
		c1.3,1.7,2.7,3.3,4.1,4.8c0.4,0.5,0.8,0.9,1.2,1.3c1.9,1.9,3.8,3.7,5.9,5.4c0.5,0.4,1,0.7,1.4,1.1c1.7,1.3,3.4,2.5,5.2,3.6
		c0.7,0.4,1.3,0.8,2,1.2c2,1.1,4,2.2,6.1,3.2c0.4,0.2,0.7,0.4,1.1,0.5c2.5,1.1,5,2,7.7,2.7c0.7,0.2,1.4,0.4,2.1,0.5
		c2,0.5,4.1,1,6.2,1.3c0.8,0.1,1.6,0.3,2.4,0.4c2.8,0.3,5.6,0.6,8.5,0.6s5.7-0.2,8.5-0.6c0.8-0.1,1.6-0.2,2.4-0.4
		c2.1-0.3,4.2-0.8,6.2-1.3c0.7-0.2,1.4-0.3,2.1-0.5c2.6-0.8,5.2-1.7,7.7-2.7c0.4-0.2,0.7-0.4,1.1-0.5c2.1-1,4.2-2,6.2-3.2
		c0.7-0.4,1.4-0.8,2-1.2c1.8-1.1,3.5-2.3,5.2-3.6c0.5-0.4,1-0.7,1.4-1.1c2.1-1.7,4-3.5,5.9-5.4c0.4-0.4,0.8-0.9,1.2-1.3
		c1.4-1.5,2.8-3.2,4.1-4.8c0.5-0.6,1-1.3,1.4-1.9c1.3-1.9,2.6-3.8,3.7-5.8c0.2-0.3,0.4-0.5,0.5-0.8c0.2,0.3,0.4,0.5,0.5,0.8
		c1.2,2,2.4,3.9,3.7,5.8c0.5,0.7,0.9,1.3,1.4,1.9c1.3,1.7,2.7,3.3,4.1,4.8c0.4,0.5,0.8,0.9,1.2,1.3c1.9,1.9,3.8,3.7,5.9,5.4
		c0.5,0.4,1,0.7,1.4,1.1c1.7,1.3,3.4,2.5,5.2,3.6c0.7,0.4,1.3,0.8,2,1.2c2,1.1,4,2.2,6.2,3.2c0.4,0.2,0.7,0.4,1.1,0.5
		c2.5,1.1,5,2,7.7,2.7c0.3,0.1,0.6,0.2,0.9,0.2c2.6-3.2,5.5-6.2,8.7-8.9c-1.5-2.4-2.8-4.9-3.9-7.5c-1.5-0.5-3-1-4.5-1.6
		c0,0,0-0.1,0.1-0.1c-0.1,0-0.2-0.1-0.3-0.1c1.1-1.5,1.9-3.2,1.9-5.2c0-0.6-0.1-1.1-0.2-1.7c0,0,0,0,0-0.1c-0.1-0.3-0.1-0.5-0.2-0.8
		c0,0,0,0,0,0c-0.4-1.2-1-2.2-1.8-3.1c0,0-0.1-0.1-0.2-0.2c-1.5-1.5-3.6-2.4-5.9-2.4c-3.4,0-6.4,2.1-7.7,5
		c-5.3-4.5-9.5-9.8-12.6-15.8c0,0,0.1-0.1,0.1-0.1c0.1-0.1,0.2-0.1,0.2-0.2c1.6-1.6,2.7-3.6,2.7-6c0-4.4-3.4-8-7.8-8.4
		c-0.4-2.7-0.7-5.5-0.7-8.4v-25.9h0.1V-50c2.2,0,4.2-0.8,5.7-2.2c0.2-0.1,0.3-0.3,0.5-0.5c1.4-1.5,2.2-3.5,2.2-5.7
		c0-4.7-3.8-8.5-8.5-8.5v-8.2h0.1v-0.1h85.3c0.9-6,2.7-11.7,5.2-17.1h-92l-7-38.4l-7-38.4h66.6c0.2,0,0.4,0,0.7,0
		c0.4,0,0.8,0,1.3,0.1h0c6.3,0.6,11.9,4.6,14.6,10.4l27.1,58.9c3.4-5.1,7.5-9.7,12.4-13.7l-24-52.4c-5.7-12.4-18.2-20.5-31.9-20.5
		H259.8c-13.7,0-26.2,8-31.9,20.4l-34.7,75.3l-0.5,1.2c-0.3,1.2-0.4,2.4-0.3,3.6c-0.6,1.3-0.9,2.8-0.9,4.3v57.3
		c0,12,3.1,23.2,8.5,33v62.7c-3.9,4.3-6.8,9.7-7.9,15.6c-0.9,5.1-0.6,10.5,0.9,15.6c0.8,2.8,0.2,6.2-1.8,9.1
		c-8.9,13.2-10.8,31.6-4.5,45.8c0.9,2.2,2.1,4.2,3.5,6c2,2.7,2.7,6.2,1.9,9.4c-0.5,1.8-0.8,3.5-0.9,5.3c-0.7,7.6,0.9,15.1,2.1,21
		c1.3,6.3,3.3,15.8,10.4,21.8c3.8,3.2,8.4,4.9,13.5,5.2v30.9h-25l-4.3,0.2l-5.2,6.5l10.3,61.6h485.1v-1c-2.2-1.3-3.6-3.7-3.6-6.4
		C674.5,315.4,676,313,678.2,311.7z M447.5-169.1h16c-4,0.7-7,4-7,8.2c0,4.6,3.7,8.4,8.3,8.5c4.6-0.1,8.3-3.9,8.3-8.5
		c0-4.2-3-7.5-7-8.2h48.6c-4,0.7-7,4-7,8.2c0,4.6,3.7,8.4,8.3,8.5c4.6-0.1,8.3-3.9,8.3-8.5c0-4.2-3-7.5-7-8.2h17.4l4.7,25.8
		c-3.5,1-6.1,4.2-6.1,8c0,4.5,3.6,8.3,8.1,8.5c0,0,0,0,0,0c0.2,0,0.3-0.1,0.4-0.1l0,0.1c0.1,0,0.3-0.1,0.5-0.1l6.2,34.6H447.5
		V-169.1z M447.5-75.2H550V-24c0,28.2-23,51.2-51.2,51.2s-51.2-23-51.2-51.2V-75.2z M257.8,202.1c0.7-1.1,1.3-2.2,1.9-3.4
		c0.3-0.6,0.6-1.2,0.9-1.8c0.8-1.8,1.5-3.6,2.1-5.4c0.7-2.1,1.1-4.4,1.4-6.7c0.3-2.3,0.3-4.7,0.2-7c-0.3-4.6-1.3-9.2-3.1-13.4
		c-1.9-4.2-1.7-8.7,0.3-11.5c0.9-1.1,1.6-2.5,2.4-3.8c2-3.2,3.8-6.6,5.3-10.5c3.9-9.7,5-18.1,3.5-25.7c-0.9-4.4-2.9-8.6-5.7-12
		c-1.5-1.9-2.2-4.9-1.7-7.4c0.5-2.2,0.6-4.5,0.6-6.8c0-0.5-0.1-1.1-0.1-1.7c-0.1-2-0.4-4-0.9-5.9c-0.1-0.2,0-0.5-0.1-0.7h0.2
		c0,0,0-0.1,0-0.1h191.2v179.2h-0.4v0.1H234v-34.7c0.1,0,0.1-0.1,0.2-0.1c0.1,0,0.1-0.1,0.2-0.1c0.3-0.2,0.6-0.4,1-0.5l0.4-0.2
		c2.9-1.5,5.6-3.2,8.1-5c0.2-0.1,0.4-0.3,0.6-0.5c0.3-0.2,0.6-0.5,0.9-0.7c0.9-0.7,1.8-1.5,2.7-2.3c0.1-0.1,0.1-0.1,0.2-0.2
		c1.7-1.5,3.2-3,4.6-4.6c0.2-0.3,0.4-0.6,0.6-0.8c1.1-1.3,2.1-2.7,3-4C257,203.3,257.5,202.7,257.8,202.1z M336.8-130.7l7-38.4h86.8
		v76.8H329.8L336.8-130.7z M328-75.4h102.4v0.2h0.1V-24c0,23.8-16.3,43.7-38.3,49.5c0.2-0.1,0.4-0.3,0.6-0.4
		c-0.2,0.1-0.4,0.1-0.7,0.2c2.4-1.5,4.1-4,4.1-7.1c0-1.3-0.3-2.5-0.8-3.7c0-0.1-0.1-0.1-0.1-0.2c-1.4-2.6-4.2-4.4-7.5-4.4
		c-4.7,0-8.5,3.8-8.5,8.5c0,1.3,0.3,2.6,0.9,3.7c0.1,0.2,0.2,0.3,0.3,0.5c0.2,0.3,0.3,0.5,0.5,0.7c0,0,0,0,0,0
		c0.1,0.2,0.3,0.4,0.4,0.5c0.3,0.3,0.6,0.6,1,0.9c0.1,0.1,0.2,0.1,0.2,0.2c0.1,0,0.1,0.1,0.2,0.1c0.1,0.1,0.2,0.1,0.3,0.2
		c0,0,0.1,0,0.1,0.1c0,0,0,0,0,0c0,0,0,0,0.1,0c0,0,0,0,0.1,0c0.1,0,0.1,0.1,0.2,0.1c0,0,0,0,0,0c0,0,0,0,0,0c0,0,0,0,0,0
		c0,0,0,0,0,0c0.1,0,0.1,0.1,0.2,0.1c0.1,0,0.2,0.1,0.3,0.1c0.1,0,0.2,0.1,0.3,0.1c0.2,0.1,0.4,0.2,0.7,0.2c0.3,0.1,0.5,0.2,0.8,0.2
		c0.2,0,0.4,0.1,0.6,0.1c-0.2,0-0.3,0-0.5,0.1c0.2,0,0.4,0.1,0.6,0.1c-2.4,0.3-4.8,0.6-7.3,0.6c-19.5,0-36.5-11-45.1-27
		c-0.6-1-1.1-2.1-1.6-3.1c-0.3-0.6-0.5-1.2-0.8-1.8c-0.2-0.5-0.4-1.1-0.6-1.6c-0.1-0.2-0.2-0.5-0.3-0.7c0,0,0-0.1,0-0.1c0,0,0,0,0,0
		c-0.2-0.6-0.4-1.2-0.6-1.7c-0.1-0.4-0.3-0.8-0.4-1.2c-0.1-0.4-0.2-0.8-0.3-1.1c0,0,0-0.1,0-0.1c-0.1-0.3-0.1-0.6-0.2-0.9
		c-0.1-0.5-0.2-1-0.4-1.6c-0.1-0.4-0.2-0.8-0.2-1.3c-0.1-0.3-0.1-0.7-0.2-1c-0.1-0.3-0.1-0.7-0.2-1c0-0.2,0-0.4-0.1-0.6
		c-0.1-0.4-0.1-0.9-0.1-1.3c-0.2-1.7-0.3-3.5-0.3-5.3V-75.4z M229.5-128.4c0.1,0.1,0.2,0.1,0.3,0.2l0.1-0.2c1.3,0.9,2.8,1.6,4.6,1.6
		c4.6-0.1,8.2-3.9,8.2-8.5c0-4-2.7-7.1-6.4-8.1l7-15.2c2.4-5.3,7.3-8.8,12.9-10c-0.1,0-0.2,0.1-0.3,0.2c0.2-0.1,0.5-0.1,0.7-0.2
		c-3,1.4-5,4.3-5,7.7c0,4.6,3.7,8.4,8.3,8.5c4.6-0.1,8.3-3.9,8.3-8.5c0-4.2-3-7.5-7-8.2h48.4c-3.9,0.7-6.9,4-6.9,8.2
		c0,4.6,3.7,8.4,8.3,8.5c4.6-0.1,8.3-3.9,8.3-8.5c0-4.2-3-7.5-7-8.2h14.2l-7,38.4l-2.7,14.8c-0.1-0.1-0.2-0.2-0.3-0.3l-0.1,0.3
		c-1.5-1.4-3.4-2.3-5.5-2.3c-4.6,0.1-8.3,3.9-8.3,8.5s3.7,8.4,8.3,8.5c1,0,2.1-0.3,2.9-0.6l0,0.1c0.1,0,0.3-0.1,0.4-0.1l-1.7,9.5
		h-99.6L229.5-128.4z M208.7-75.2H311V-24c0,28.2-23,51.2-51.2,51.2c-2,0-4-0.2-6-0.4c-0.7-0.1-1.4-0.2-2-0.3
		c-1.3-0.2-2.5-0.4-3.8-0.7c-0.8-0.2-1.6-0.4-2.4-0.6c-1.1-0.3-2.2-0.7-3.3-1.1c-0.8-0.3-1.5-0.5-2.3-0.8c-1.6-0.7-3.2-1.5-4.7-2.3
		c-0.8-0.4-1.5-0.9-2.3-1.4c-0.9-0.6-1.8-1.2-2.7-1.8c-0.7-0.5-1.3-1-2-1.5c-1.1-0.9-2.2-1.8-3.3-2.8c-0.3-0.3-0.7-0.6-1-0.9
		c-1.5-1.5-2.9-3-4.2-4.7l-0.1-0.1c-1.3-1.7-2.6-3.5-3.7-5.4l-0.9-1.5l-0.3-0.6c-4-7.2-6.2-15.5-6.2-24.3V-75.2z M214.8,208.5
		c-2.6-2.3-3.9-8.4-4.8-12.4c-1.1-5.1-2.3-10.9-1.8-15.9c0.1-0.9,0.2-1.9,0.5-2.8c2-8.1,0.3-17-4.7-23.7c-0.6-0.8-1.2-1.8-1.6-2.7
		c-3.9-8.9-2.7-21,3-29.4c4.8-7.2,6.3-15.7,4-23.5c-0.7-2.5-0.9-5.2-0.5-7.7c0.5-2.9,1.9-5.5,3.8-7.5c0.2-0.3,0.5-0.5,0.7-0.7
		c0,0,0.1-0.1,0.1-0.1l0.6-0.5c0.8-0.7,1.5-1.1,2.1-1.4l7.7-6.3c0.6-0.6,1.4-1.1,2.2-1.4c0.2-0.1,0.4-0.1,0.6-0.2
		c1.6-0.6,3.3-0.7,4.7-0.7c0.9,0,1.7,0.1,2.3,0.2c3.1,0.4,5.9,1.5,8.3,3l1.9,1.5c0.9,0.7,1.6,1.5,2.2,2.1c0.6,0.8,1.2,1.5,1.7,2.4
		c1.3,2.5,1.7,6,1.1,9c-1.6,7.7,0.3,15.8,5.3,21.8c1,1.2,1.8,2.9,2.1,4.5c0,0.4,0,0.7,0.1,1.1c0,0.2,0,0.4,0,0.5
		c0,0.3,0.1,0.5,0.1,0.8v0c0,0.3,0,0.5,0,0.8c0,0.1,0,0.1,0,0.2c0,0.2,0,0.5,0,0.7c0,0.4,0,0.9-0.1,1.3c0,0.5-0.1,0.9-0.2,1.4
		c-0.4,2.8-1.3,5.9-2.6,9.5c-1.7,4.2-3.5,7.7-5.6,10.5c-2.8,3.9-4.4,8.6-4.8,13.5c0,0.3,0,0.7-0.1,1c0,0.7,0,1.5,0,2.3
		c0,0.3,0,0.5,0,0.8c0,0.3,0,0.5,0.1,0.8c0,0.5,0.1,1,0.2,1.5c0,0.3,0.1,0.6,0.2,0.9c0.4,2.5,1.2,5,2.2,7.5c1,2.3,1.6,5,1.7,7.6v0.1
		c0,1,0,1.9,0,2.8c0,0.6-0.1,1.3-0.2,1.9c0,0,0,0,0,0c0,0,0,0,0,0c-0.1,1-0.4,2.1-0.7,3c-0.4,1.4-0.9,2.7-1.5,3.9
		c-1.2,2.5-2.7,4.8-4.7,7c-0.1,0.1-0.2,0.2-0.3,0.3c-0.9,1-1.8,1.9-2.8,2.8c-3.4,3-6.9,5.2-9.5,6.5h-0.1c-1.3,0.7-2.7,1.2-4.1,1.7
		C220.2,209.8,216.8,210.2,214.8,208.5z M249.8,274.7l-5.7,34.1h-36.7l-5.7-34.1h0l0-0.1h48.1V274.7L249.8,274.7z"/>
	<path class="st1" d="M345-32.9c0,4.6-3.6,8.3-8.1,8.5c-0.1,0-0.3,0-0.4,0c-0.1,0-0.2,0-0.2,0c-0.1,0-0.3,0-0.4,0
		c-4.3-0.4-7.6-4-7.6-8.5c0-4.4,3.3-8,7.6-8.5c0.1,0,0.3,0,0.4,0c0.1,0,0.2,0,0.2,0c0.2,0,0.3,0,0.4,0C341.5-41.2,345-37.5,345-32.9
		z"/>
	<path class="st0" d="M345.3-32.9c0,4.6-3.7,8.4-8.3,8.5c4.5-0.2,8.1-3.9,8.1-8.5c0-4.5-3.6-8.3-8.1-8.5
		C341.5-41.3,345.3-37.5,345.3-32.9z"/>
	<polygon class="st2" points="249.8,274.6 249.7,274.7 244,308.8 207.3,308.8 201.7,274.7 201.7,274.6 	"/>
	<path class="st2" d="M256.5,119.5c0,0.2,0,0.5,0,0.7c-0.1,3.4-1.1,7.3-2.9,12c-1.7,4.2-3.5,7.7-5.6,10.5c-3,4.2-4.7,9.3-4.8,14.6
		c0,0.7,0,1.5,0,2.3c0.1,1.3,0.2,2.6,0.4,3.9c0.4,2.5,1.2,5,2.2,7.5c1,2.3,1.6,5,1.7,7.6v0.1c0,1,0,1.9,0,2.8
		c-0.1,1.7-0.4,3.3-0.9,4.9c-0.4,1.4-0.9,2.7-1.5,3.9c-1.2,2.5-2.7,4.8-4.7,7l-0.3,0.3c-0.9,1-1.8,1.9-2.8,2.8
		c-3.4,3-6.9,5.2-9.5,6.5h-0.1c-1.3,0.7-2.7,1.2-4.1,1.7c-3.4,1.1-6.8,1.4-8.7-0.2c-2.6-2.3-3.9-8.4-4.8-12.4
		c-1.1-5.1-2.3-10.9-1.8-15.9c0.1-0.9,0.2-1.9,0.5-2.8c2-8.1,0.3-17-4.7-23.7c-0.6-0.8-1.2-1.8-1.6-2.7c-3.9-8.9-2.7-21,3-29.4
		c4.8-7.2,6.3-15.7,4-23.5c-0.7-2.5-0.9-5.2-0.5-7.7c0.5-2.8,1.9-5.5,3.7-7.4c0.2-0.3,0.5-0.5,0.7-0.7c0,0,0.1-0.1,0.1-0.1l0.6-0.5
		c0.8-0.7,1.5-1.1,2.1-1.4l7.7-6.3c0.6-0.6,1.4-1.1,2.2-1.4c0.2-0.1,0.4-0.1,0.6-0.2c1.6-0.6,3.3-0.7,4.7-0.7c0.9,0,1.7,0.1,2.3,0.2
		c3.1,0.4,5.9,1.5,8.3,3l1.9,1.5c0.9,0.7,1.6,1.5,2.2,2.1c0.6,0.8,1.2,1.5,1.7,2.4c1.3,2.5,1.7,6,1.1,9c-1.6,7.7,0.3,15.8,5.3,21.8
		c1,1.2,1.8,2.9,2.1,4.5c0,0.4,0,0.7,0.1,1.1c0.1,0.7,0.1,1.4,0.1,2.1C256.5,119.4,256.5,119.4,256.5,119.5z"/>
	<path class="st2" d="M264.8,78.4c0.1,0.2,0,0.5,0.1,0.7c0.5,1.9,0.8,3.9,0.9,5.9c0,0.6,0.1,1.2,0.1,1.7c0,2.3-0.1,4.6-0.6,6.8
		c-0.5,2.5,0.2,5.5,1.7,7.4c2.8,3.4,4.8,7.6,5.7,12c1.5,7.6,0.4,16-3.5,25.7c-1.5,3.9-3.3,7.3-5.3,10.5c-0.8,1.3-1.5,2.7-2.4,3.8
		c-2,2.8-2.2,7.3-0.3,11.5c1.8,4.2,2.8,8.8,3.1,13.4c0.1,2.3,0.1,4.7-0.2,7c-0.3,2.3-0.7,4.6-1.4,6.7c-0.6,1.8-1.3,3.6-2.1,5.4
		c-0.3,0.6-0.6,1.2-0.9,1.8c-0.6,1.2-1.2,2.3-1.9,3.4c-0.4,0.6-0.8,1.2-1.2,1.8c-0.9,1.3-1.9,2.7-3,4c-0.2,0.2-0.4,0.5-0.6,0.8
		c-1.4,1.6-2.9,3.1-4.6,4.6c-0.1,0.1-0.1,0.1-0.2,0.2c-0.9,0.8-1.8,1.5-2.7,2.3c-0.3,0.2-0.6,0.5-0.9,0.7c-0.2,0.2-0.4,0.3-0.6,0.5
		c-2.5,1.9-5.2,3.6-8.1,5l-0.4,0.2c-0.4,0.1-0.7,0.3-1,0.5c-0.1,0-0.1,0.1-0.2,0.1c-0.1,0-0.1,0.1-0.2,0.1v34.7h221.8V78.4H264.8z
		 M330.8,217.4l76.8-76.8c3.3-3.3,8.7-3.3,12.1,0c3.2,3.3,3.2,8.7-0.1,12.1l-76.8,76.8c-1.7,1.7-3.8,2.5-6,2.5s-4.4-0.8-6-2.5
		C327.5,226.2,327.5,220.8,330.8,217.4z M362.2,146.6c0-2.2,0.9-4.5,2.5-6.1c3.2-3.2,9-3.2,12.1,0c1.6,1.7,2.6,3.9,2.6,6.1
		c0,2.2-0.9,4.4-2.5,6.1c-1.6,1.5-3.8,2.5-6.1,2.5s-4.4-0.9-6.1-2.6C363.2,151.1,362.2,148.8,362.2,146.6z M436.5,123.4
		c0.4,0.4,0.8,0.9,1.1,1.4c0,0,0,0,0,0c0.9,1.4,1.4,3,1.4,4.7c0.1,2.3-0.9,4.5-2.4,6.1c-1.6,1.5-3.8,2.5-6.1,2.5
		c-2.2,0-4.5-0.9-6.1-2.5c-1.4-1.5-2.4-3.5-2.5-5.7c0-0.1,0-0.2,0-0.3c0-0.2,0-0.3,0-0.5c0-0.1,0-0.1,0-0.2c0-0.1,0-0.1,0-0.2
		c0-0.1,0-0.3,0-0.4c0.2-1.8,1.1-3.6,2.4-5C427.5,120.3,433.3,120.3,436.5,123.4z M407.5,97.9c1.5-1.5,3.4-2.3,5.3-2.4
		c0.5,0,1-0.1,1.5,0c1.9,0.2,3.8,1,5.3,2.4c3.1,3.1,3.3,8,0.6,11.4c0,0,0,0.1-0.1,0.1c-0.2,0.2-0.3,0.4-0.5,0.6L394,135.6
		c-1.7,1.7-3.8,2.5-6,2.5s-4.4-0.8-6-2.5c-3.4-3.3-3.4-8.7-0.1-12.1L407.5,97.9z M330.5,132.1L364.8,98l0.1-0.1
		c0.1-0.1,0.3-0.3,0.4-0.4c0,0,0.1-0.1,0.1-0.1c3.3-2.7,8.3-2.5,11.5,0.6c2.8,2.8,3.2,7.2,1.2,10.5c0,0,0,0.1-0.1,0.1
		c-0.3,0.5-0.7,1-1.1,1.4l-34.1,34c-1.7,1.7-3.8,2.5-6,2.5s-4.4-0.8-6-2.5C327.3,140.8,327.3,135.4,330.5,132.1z M330.5,174.7
		l17.1-17.1c1.5-1.5,3.4-2.3,5.3-2.4c0.5,0,1,0,1.5,0c1.9,0.2,3.8,1,5.3,2.4c3.1,3.1,3.3,8,0.6,11.4c0,0,0,0.1-0.1,0.1
		c-0.2,0.2-0.3,0.4-0.5,0.6l-17,17.1c-1.3,1.3-2.8,2.1-4.5,2.4c-0.3,0-0.5,0.1-0.8,0.1c-0.3,0-0.5,0-0.8,0c-0.2,0-0.5,0-0.7,0
		c-0.3,0-0.5,0-0.7-0.1c-0.2,0-0.3,0-0.5-0.1c0,0-0.1,0-0.1,0c0,0,0,0,0,0c0,0,0,0,0,0c0,0-0.1,0-0.1,0c-0.1,0-0.1,0-0.2,0
		c-0.1,0-0.1,0-0.2,0c-0.1,0-0.2-0.1-0.3-0.1c-0.2-0.1-0.3-0.1-0.5-0.2c0,0-0.1,0-0.1,0c-0.2-0.1-0.4-0.2-0.5-0.3
		c-0.2-0.1-0.3-0.2-0.5-0.3c-0.2-0.1-0.3-0.2-0.4-0.3c-0.2-0.1-0.3-0.2-0.5-0.4c-0.2-0.2-0.4-0.4-0.6-0.6c-0.6-0.5-1-1.1-1.4-1.7
		c-0.1-0.1-0.2-0.3-0.3-0.4C327.4,181.5,327.9,177.4,330.5,174.7z"/>
	<path class="st2" d="M660.8,29.3v279.5h-17.2V61.3H490.3v247.5h-229l5.7-34.1h206.1V61.3H252.3c-4.7-3.2-10.2-5.4-16.3-6.3
		c-2.2-0.3-4.4-0.4-6.4-0.3c-0.6,0-1.1,0.1-1.6,0.1c-1.6,0.1-3.2,0.4-4.6,0.8c-0.4,0.1-0.9,0.2-1.3,0.3c-1.7,0.5-3.3,1.1-4.8,1.9
		V29.3c4.9,4,10.3,7.1,16.1,9.6c0,0,0,0,0.1,0c1.9,0.8,3.8,1.5,5.8,2.1c0.3,0.1,0.7,0.2,1,0.3c1.7,0.5,3.3,0.9,5.1,1.3
		c0.5,0.1,1,0.2,1.5,0.3c1.6,0.3,3.2,0.6,4.9,0.8c0.6,0.1,1.1,0.2,1.7,0.2c2.2,0.2,4.4,0.3,6.6,0.3c2.9,0,5.7-0.2,8.5-0.6
		c0.8-0.1,1.6-0.2,2.4-0.4c2.1-0.3,4.2-0.8,6.2-1.3c0.7-0.2,1.4-0.3,2.1-0.5c2.6-0.8,5.2-1.7,7.7-2.7c0.4-0.2,0.7-0.4,1.1-0.5
		c2.1-1,4.2-2,6.1-3.2c0.7-0.4,1.4-0.8,2-1.2c1.8-1.1,3.5-2.3,5.2-3.6c0.5-0.4,1-0.7,1.4-1.1c2.1-1.7,4-3.5,5.9-5.4
		c0.4-0.4,0.8-0.9,1.2-1.3c1.5-1.5,2.8-3.2,4.1-4.8c0.5-0.6,1-1.3,1.4-1.9c1.3-1.9,2.6-3.8,3.7-5.8c0.2-0.3,0.4-0.5,0.5-0.8
		c0.2,0.3,0.4,0.5,0.5,0.8c1.1,2,2.4,3.9,3.7,5.8c0.5,0.7,0.9,1.3,1.4,1.9c1.3,1.7,2.7,3.3,4.1,4.8c0.4,0.5,0.8,0.9,1.2,1.3
		c1.9,1.9,3.8,3.7,5.9,5.4c0.5,0.4,1,0.7,1.4,1.1c1.7,1.3,3.4,2.5,5.2,3.6c0.7,0.4,1.3,0.8,2,1.2c2,1.1,4,2.2,6.2,3.2
		c0.4,0.2,0.7,0.4,1.1,0.5c2.5,1.1,5,2,7.7,2.7c0.7,0.2,1.4,0.4,2.1,0.5c2,0.5,4.1,1,6.2,1.3c0.8,0.1,1.6,0.3,2.4,0.4
		c2.8,0.3,5.6,0.6,8.5,0.6c2.9,0,5.7-0.2,8.5-0.6c0.8-0.1,1.6-0.2,2.4-0.4c2.1-0.3,4.2-0.8,6.2-1.3c0.7-0.2,1.4-0.3,2.1-0.5
		c2.6-0.8,5.2-1.7,7.7-2.7c0.4-0.2,0.7-0.4,1.1-0.5c2.1-1,4.2-2,6.2-3.2c0.7-0.4,1.4-0.8,2-1.2c1.8-1.1,3.5-2.3,5.2-3.6
		c0.5-0.4,1-0.7,1.4-1.1c2.1-1.7,4-3.5,5.9-5.4c0.4-0.4,0.8-0.9,1.2-1.3c1.4-1.5,2.8-3.2,4.1-4.8c0.5-0.6,1-1.3,1.4-1.9
		c1.3-1.9,2.6-3.8,3.7-5.8c0.2-0.3,0.4-0.5,0.5-0.8c0.2,0.3,0.4,0.5,0.5,0.8c1.1,2,2.4,3.9,3.7,5.8c0.5,0.7,0.9,1.3,1.4,1.9
		c1.3,1.7,2.7,3.3,4.1,4.8c0.4,0.5,0.8,0.9,1.2,1.3c1.9,1.9,3.8,3.7,5.9,5.4c0.5,0.4,1,0.7,1.4,1.1c1.7,1.3,3.4,2.5,5.2,3.6
		c0.7,0.4,1.3,0.8,2,1.2c2,1.1,4,2.2,6.1,3.2c0.4,0.2,0.7,0.4,1.1,0.5c2.5,1.1,5,2,7.7,2.7c0.7,0.2,1.4,0.4,2.1,0.5
		c2,0.5,4.1,1,6.2,1.3c0.8,0.1,1.6,0.3,2.4,0.4c2.8,0.3,5.6,0.6,8.5,0.6s5.7-0.2,8.5-0.6c0.8-0.1,1.6-0.2,2.4-0.4
		c2.1-0.3,4.2-0.8,6.2-1.3c0.7-0.2,1.4-0.3,2.1-0.5c2.6-0.8,5.2-1.7,7.7-2.7c0.4-0.2,0.7-0.4,1.1-0.5c2.1-1,4.2-2,6.2-3.2
		c0.7-0.4,1.4-0.8,2-1.2c1.8-1.1,3.5-2.3,5.2-3.6c0.5-0.4,1-0.7,1.4-1.1c2.1-1.7,4-3.5,5.9-5.4c0.4-0.4,0.8-0.9,1.2-1.3
		c1.4-1.5,2.8-3.2,4.1-4.8c0.5-0.6,1-1.3,1.4-1.9c1.3-1.9,2.6-3.8,3.7-5.8c0.2-0.3,0.4-0.5,0.5-0.8c0.2,0.3,0.4,0.5,0.5,0.8
		c1.2,2,2.4,3.9,3.7,5.8c0.5,0.7,0.9,1.3,1.4,1.9c1.3,1.7,2.7,3.3,4.1,4.8c0.4,0.5,0.8,0.9,1.2,1.3c1.9,1.9,3.8,3.7,5.9,5.4
		c0.5,0.4,1,0.7,1.4,1.1c1.7,1.3,3.4,2.5,5.2,3.6c0.7,0.4,1.3,0.8,2,1.2c2,1.1,4,2.2,6.2,3.2c0.4,0.2,0.7,0.4,1.1,0.5
		c2.5,1.1,5,2,7.7,2.7c0.3,0.1,0.6,0.2,0.9,0.2c0.4,0.1,0.8,0.2,1.2,0.3c2,0.5,4.1,1,6.2,1.3c0.8,0.1,1.6,0.3,2.4,0.4
		c2.8,0.3,5.6,0.6,8.5,0.6h0.1c2.1,0,4.3-0.1,6.4-0.3c0.6,0,1.1-0.2,1.7-0.2c1.6-0.2,3.3-0.4,4.9-0.8c0.5-0.1,1-0.2,1.5-0.3
		c1.7-0.4,3.4-0.8,5.1-1.3c0.3-0.1,0.7-0.2,1-0.3c2-0.6,3.9-1.3,5.8-2.1c0,0,0,0,0.1,0c6.3-2.4,11.6-5.4,16.1-9
		C660.4,29.7,660.6,29.5,660.8,29.3z"/>
	<path class="st2" d="M507.3,78.4v230.4h119.5V78.4H507.3z M609.8,214.9c0,4.7-3.8,8.5-8.5,8.5c-4.7,0-8.5-3.8-8.5-8.5v-25.6
		c0-0.3,0-0.5,0-0.8c0-0.2,0-0.3,0.1-0.5c0-0.2,0.1-0.4,0.1-0.5c0-0.1,0-0.2,0.1-0.3c0-0.1,0.1-0.3,0.1-0.4c0.1-0.3,0.2-0.5,0.3-0.8
		c0-0.1,0.1-0.3,0.2-0.4s0.1-0.3,0.2-0.4c0.2-0.4,0.5-0.8,0.8-1.2c0.1-0.2,0.3-0.3,0.4-0.5c0.4-0.5,0.9-0.9,1.5-1.3
		c0.1-0.1,0.2-0.1,0.3-0.2c0.1-0.1,0.2-0.1,0.2-0.2c0.4-0.3,0.9-0.5,1.4-0.6c0.2-0.1,0.3-0.1,0.5-0.2c0.5-0.2,1.1-0.3,1.6-0.3h0.1
		c0.2,0,0.4,0,0.7,0c0.3,0,0.6,0,0.9,0c0.3,0,0.5,0.1,0.8,0.1c0.2,0,0.3,0.1,0.5,0.1c2.4,0.6,4.4,2.3,5.4,4.4
		c0.1,0.1,0.2,0.3,0.2,0.5c0.1,0.1,0.1,0.3,0.2,0.4c0.1,0.3,0.2,0.5,0.3,0.8c0,0.1,0.1,0.2,0.1,0.3c0,0.2,0.1,0.3,0.1,0.5
		c0,0.3,0.1,0.6,0.1,0.9c0,0.2,0,0.3,0,0.4V214.9z"/>
	<path class="st2" d="M567.2-75.2v8.2c4.7,0,8.5,3.8,8.5,8.5c0,2.3-0.9,4.3-2.3,5.8c-0.2,0.2-0.3,0.3-0.5,0.5
		c-1.5,1.4-3.5,2.2-5.7,2.2v25.9c0,2.8,0.3,5.6,0.7,8.4c4.4,0.4,7.8,3.9,7.8,8.4c0,2.5-1.1,4.6-2.8,6.1c-0.1,0.1-0.2,0.1-0.2,0.2
		c3.1,6,7.3,11.3,12.3,15.7c1.3-2.9,4.3-5,7.7-5c2.4,0,4.6,1,6.1,2.6c0.1,0,0.1,0.1,0.2,0.2c0.8,0.9,1.4,2,1.8,3.1c0,0,0,0,0,0
		c0.1,0.3,0.2,0.5,0.2,0.8c0,0,0,0,0,0.1c0.1,0.5,0.2,1.1,0.2,1.7c0,2-0.8,3.7-1.9,5.2c0.1,0,0.2,0.1,0.3,0.1c1.4,0.5,2.9,1,4.3,1.5
		c4.6,1.3,9.4,2.1,14.4,2.1c1.2,0,2.4-0.1,3.6-0.2c0.1,0,0.2,0,0.3,0c0.7-0.1,1.4-0.1,2-0.2c0.7-0.1,1.4-0.2,2-0.3
		c1.3-0.2,2.5-0.5,3.8-0.8c0.8-0.2,1.6-0.4,2.4-0.6c1.1-0.3,2.2-0.7,3.3-1.1c0.5-0.2,1-0.3,1.4-0.5c-1.1-1.5-1.9-3.2-1.9-5.2
		c0-4.7,3.8-8.5,8.5-8.5c2.2,0,4.2,0.9,5.8,2.3c0.2,0.2,0.4,0.4,0.6,0.6c0.5,0.6,1,1.3,1.3,2c0,0,0,0,0.1-0.1c0.5-0.4,1-0.9,1.4-1.2
		c0.3-0.3,0.7-0.6,1-0.9c1.5-1.5,2.9-3,4.2-4.7c0,0,0-0.1,0.1-0.1c0.2-0.2,0.3-0.4,0.4-0.6c1.2-1.5,2.3-3.1,3.3-4.8l0.9-1.5l0.3-0.6
		c0.2-0.4,0.4-0.8,0.6-1.3c0,0,0,0,0,0c-0.3-0.3-0.7-0.6-1-1c-0.1-0.1-0.2-0.3-0.3-0.4c-0.2-0.3-0.4-0.5-0.6-0.8
		c-0.7-1.2-1.2-2.6-1.2-4.1c0-4.5,3.4-8,7.8-8.4c0.5-2.7,0.7-5.5,0.7-8.4v-25.9h-0.2c-2.2,0-4.3-1-5.8-2.4c-0.1,0-0.1-0.1-0.2-0.2
		c-1.5-1.5-2.4-3.6-2.4-5.9c0-3.8,2.7-6.9,6.2-8c0.1,0,0.2-0.1,0.3-0.1c0.1,0,0.3-0.1,0.5-0.1c0.3,0,0.5-0.1,0.8-0.1
		c0.3,0,0.6,0,0.9,0v-8.2H567.2z M624.2-52.4c-0.1,0.1-0.1,0.1-0.2,0.2c0,0,0,0,0,0c-0.1,0-0.1,0.1-0.2,0.1
		c-0.2,0.1-0.3,0.3-0.5,0.4c-0.2,0.2-0.4,0.3-0.7,0.5c-0.2,0.1-0.3,0.2-0.5,0.3c-0.2,0.1-0.4,0.2-0.6,0.3c0,0-0.1,0-0.2,0.1
		c-0.1,0.1-0.2,0.1-0.4,0.1c0,0-0.1,0-0.1,0c-0.1,0-0.1,0-0.2,0.1c-0.2,0.1-0.4,0.1-0.6,0.2c-0.1,0-0.3,0.1-0.4,0.1
		c-0.1,0-0.2,0-0.3,0c-0.1,0-0.2,0-0.3,0c-0.2,0-0.4,0-0.7,0c-4.7,0-8.5-3.8-8.5-8.5s3.8-8.5,8.5-8.5c4.7,0,8.5,3.8,8.5,8.5
		c0,0.2,0,0.5,0,0.7c0,0.2,0,0.4-0.1,0.6c0,0.1,0,0.2,0,0.2c0,0.1,0,0.2-0.1,0.2c0,0.2-0.1,0.4-0.1,0.6c0,0.1-0.1,0.2-0.1,0.3
		c-0.1,0.2-0.1,0.3-0.2,0.5c-0.1,0.3-0.2,0.5-0.4,0.8c-0.1,0.2-0.2,0.4-0.4,0.6c-0.1,0.2-0.2,0.3-0.3,0.5c0,0,0,0,0,0
		c-0.1,0.1-0.2,0.3-0.3,0.4c-0.1,0.1-0.1,0.2-0.2,0.2C624.5-52.7,624.4-52.5,624.2-52.4z M592.7-24.3c-3.7,0-6.9-2.4-8-5.7
		c-0.1-0.3-0.2-0.7-0.3-1c0-0.2-0.1-0.4-0.1-0.6c0-0.2,0-0.4-0.1-0.6c0-0.2,0-0.5,0-0.7c0-0.1,0-0.2,0-0.3c0-0.1,0-0.3,0-0.4
		c0-0.4,0.1-0.8,0.2-1.2c0-0.1,0.1-0.3,0.1-0.4c0.1-0.2,0.1-0.3,0.2-0.5c0.1-0.2,0.1-0.3,0.2-0.5c0.1-0.2,0.1-0.3,0.2-0.5
		c0,0,0,0,0,0c0.1-0.2,0.2-0.3,0.3-0.5c0.3-0.4,0.5-0.8,0.8-1.1c0.1-0.1,0.2-0.2,0.3-0.3c0.1-0.1,0.3-0.3,0.4-0.4
		c0.1-0.1,0.3-0.3,0.5-0.4c0.1-0.1,0.2-0.2,0.3-0.3c0.1-0.1,0.2-0.2,0.4-0.2c0.1-0.1,0.3-0.2,0.5-0.3c0.1,0,0.2-0.1,0.3-0.2
		c0.3-0.1,0.5-0.2,0.8-0.3c0.2-0.1,0.4-0.2,0.6-0.2c0,0,0,0,0.1,0c0.2-0.1,0.5-0.1,0.7-0.2c0.5-0.1,1.1-0.2,1.7-0.2
		c0.6,0,1.1,0.1,1.7,0.2c0.2,0,0.5,0.1,0.7,0.2c0,0,0,0,0.1,0c0.2,0.1,0.4,0.1,0.6,0.2c0.3,0.1,0.5,0.2,0.8,0.3
		c0.1,0,0.2,0.1,0.3,0.2c0.1,0.1,0.3,0.2,0.4,0.3c0.1,0.1,0.2,0.2,0.4,0.2c0.1,0.1,0.2,0.2,0.3,0.3c0.2,0.1,0.3,0.3,0.5,0.4l0,0
		c0.2,0.2,0.3,0.3,0.5,0.5c0.4,0.4,0.7,0.9,1,1.3c0.1,0.1,0.2,0.3,0.3,0.5c0,0,0,0,0,0c0.1,0.2,0.2,0.3,0.2,0.5
		c0.1,0.2,0.1,0.3,0.2,0.5c0.1,0.2,0.1,0.3,0.2,0.5c0,0.1,0.1,0.3,0.1,0.4c0.1,0.2,0.1,0.4,0.1,0.7c0,0.2,0.1,0.4,0.1,0.6
		c0,0.1,0,0.3,0,0.4c0,0.1,0,0.2,0,0.3c0,0.2,0,0.4,0,0.5c0,0.1,0,0.3,0,0.4c0,0.2,0,0.4-0.1,0.6c0,0.1,0,0.2-0.1,0.3
		c0,0.1,0,0.2-0.1,0.3c-0.1,0.2-0.1,0.4-0.2,0.6c-0.1,0.2-0.1,0.4-0.2,0.6c-0.1,0.3-0.2,0.5-0.4,0.8
		C598.7-26.2,595.9-24.3,592.7-24.3z M626.8-6.6c0,0.2,0,0.4-0.1,0.6c0,0.1,0,0.2,0,0.2c0,0.1,0,0.2-0.1,0.2c0,0.2-0.1,0.4-0.1,0.6
		c0,0.1-0.1,0.2-0.1,0.3c-0.1,0.2-0.1,0.3-0.2,0.5c-0.1,0.3-0.2,0.5-0.4,0.8c-0.1,0.2-0.2,0.4-0.4,0.6c-0.1,0.1-0.2,0.3-0.3,0.5
		c0,0,0,0,0,0c-0.1,0.1-0.2,0.3-0.3,0.4c-0.1,0.1-0.2,0.2-0.3,0.3c0,0,0,0,0,0c0,0,0,0,0,0c-0.1,0.1-0.2,0.2-0.3,0.3
		c-0.1,0.1-0.1,0.1-0.2,0.2c0,0,0,0,0,0c-0.1,0-0.1,0.1-0.2,0.1c-0.2,0.1-0.3,0.3-0.5,0.4c-0.2,0.2-0.4,0.3-0.7,0.5
		c-0.2,0.1-0.3,0.2-0.5,0.3c-0.2,0.1-0.4,0.2-0.6,0.3c0,0-0.1,0.1-0.2,0.1c-0.1,0-0.1,0-0.2,0.1c-0.1,0-0.2,0.1-0.3,0.1
		c-0.1,0-0.1,0-0.2,0.1c-0.2,0.1-0.4,0.1-0.6,0.2c-0.1,0-0.3,0.1-0.4,0.1c-0.2,0-0.5,0.1-0.7,0.1c-0.2,0-0.4,0-0.7,0
		c-0.2,0-0.4,0-0.5,0c-0.2,0-0.3,0-0.5,0c-0.2,0-0.4,0-0.6-0.1c0,0-0.1,0-0.1,0c-0.2,0-0.5-0.1-0.7-0.2c-0.2-0.1-0.3-0.1-0.5-0.2
		c-0.4-0.1-0.8-0.3-1.2-0.5C614.2,0.1,614.1,0,614,0c-0.4-0.3-0.8-0.5-1.2-0.8c-0.2-0.1-0.3-0.3-0.5-0.4c-0.1-0.1-0.2-0.2-0.3-0.3
		c-0.1-0.1-0.3-0.3-0.4-0.4c-0.1-0.1-0.2-0.2-0.3-0.3c-0.1-0.1-0.2-0.2-0.3-0.4C611.1-2.9,611-3,611-3.1c-0.4-0.6-0.7-1.3-0.8-2
		c0-0.2-0.1-0.3-0.1-0.5c0-0.2-0.1-0.3-0.1-0.5c0-0.2,0-0.4-0.1-0.6c0-0.2,0-0.4,0-0.6c0-0.4,0-0.9,0.1-1.3c0-0.1,0-0.2,0-0.3
		c0-0.1,0-0.2,0.1-0.4c0-0.2,0.1-0.3,0.1-0.5c0-0.2,0.1-0.3,0.2-0.5c0-0.1,0.1-0.3,0.2-0.4c0.1-0.2,0.2-0.5,0.3-0.7c0,0,0,0,0,0
		c0.1-0.2,0.2-0.4,0.4-0.6c0,0,0.1-0.1,0.1-0.1c0.1-0.2,0.2-0.3,0.3-0.5c0.1-0.1,0.2-0.3,0.4-0.4c0.1-0.1,0.3-0.3,0.4-0.4
		c0,0,0.1-0.1,0.2-0.1c0.1-0.1,0.3-0.3,0.5-0.4c0.1-0.1,0.1-0.1,0.2-0.1c0.1-0.1,0.3-0.2,0.5-0.3c0.1,0,0.2-0.1,0.3-0.2
		c0.2-0.1,0.4-0.3,0.7-0.4c0,0,0,0,0,0c0.2-0.1,0.5-0.2,0.7-0.3c0.2-0.1,0.3-0.1,0.5-0.2c0.1,0,0.2-0.1,0.3-0.1
		c0.2,0,0.4-0.1,0.6-0.1c0.2,0,0.4-0.1,0.5-0.1c0.1,0,0.2,0,0.3,0h0.1c0.2,0,0.5,0,0.7,0c4.7,0,8.5,3.8,8.5,8.5
		C626.8-7.1,626.8-6.8,626.8-6.6z M652.3-32.4c0,0.1,0,0.3,0,0.4c0,0.2,0,0.4-0.1,0.6c0,0.1,0,0.2-0.1,0.3c0,0.2-0.1,0.4-0.1,0.5
		c0,0.2-0.1,0.4-0.2,0.6c-0.1,0.3-0.2,0.5-0.3,0.8c-1.3,2.9-4.2,4.9-7.7,4.9c-3.4,0-6.4-2-7.7-4.9c-0.2-0.3-0.3-0.6-0.4-1
		c0-0.1-0.1-0.2-0.1-0.3c0-0.1-0.1-0.3-0.1-0.5c0-0.2-0.1-0.4-0.1-0.6c0-0.2,0-0.4-0.1-0.6c0-0.2,0-0.5,0-0.7c0-0.1,0-0.2,0-0.3
		c0.1-1.8,0.7-3.5,1.8-4.8c0,0,0.1-0.1,0.1-0.1c0,0,0,0,0,0c1.6-1.9,3.9-3.1,6.6-3.1c0.1,0,0.2,0,0.3,0h0c4.4,0.2,7.9,3.7,8.1,8
		c0,0.1,0,0.2,0,0.3C652.3-32.7,652.3-32.6,652.3-32.4z"/>
	<path class="st1" d="M626.8-7.3c0,0.2,0,0.5,0,0.7c0,0.2,0,0.4-0.1,0.6c0,0.1,0,0.2,0,0.2c0,0.1,0,0.2-0.1,0.2
		c0,0.2-0.1,0.4-0.1,0.6c0,0.1-0.1,0.2-0.1,0.3c-0.1,0.2-0.1,0.3-0.2,0.5c-0.1,0.3-0.2,0.5-0.4,0.8c-0.1,0.2-0.2,0.4-0.4,0.6
		c-0.8,1.2-1.9,2.3-3.3,3c-0.2,0.1-0.4,0.2-0.6,0.3c0,0-0.1,0.1-0.2,0.1c-0.1,0-0.1,0-0.2,0.1c-0.1,0-0.2,0.1-0.3,0.1
		c-0.1,0-0.1,0-0.2,0.1c-0.2,0.1-0.4,0.1-0.6,0.2c-0.1,0-0.3,0.1-0.4,0.1c-0.2,0-0.5,0.1-0.7,0.1c-0.2,0-0.4,0-0.7,0
		c-0.2,0-0.4,0-0.5,0c-0.2,0-0.3,0-0.5,0c-0.2,0-0.4,0-0.6-0.1c0,0-0.1,0-0.1,0c-0.2,0-0.5-0.1-0.7-0.2c-0.2-0.1-0.3-0.1-0.5-0.2
		c-0.4-0.1-0.8-0.3-1.2-0.5c0.1-5.6,1.3-11,3.3-15.9h0.1c0.2,0,0.5,0,0.7,0C623-15.8,626.8-12,626.8-7.3z"/>
	<path class="st1" d="M617.3-15.8c-2,4.9-3.2,10.2-3.4,15.7c-0.4-0.3-0.8-0.5-1.2-0.8c-0.2-0.1-0.3-0.3-0.5-0.4
		c-0.1-0.1-0.2-0.2-0.3-0.3c-0.1-0.1-0.3-0.3-0.4-0.4c-0.1-0.1-0.2-0.2-0.3-0.3c-0.1-0.1-0.2-0.2-0.3-0.4C611.1-2.9,611-3,611-3.1
		c-0.4-0.6-0.7-1.3-0.8-2c0-0.2-0.1-0.3-0.1-0.5c0-0.2-0.1-0.3-0.1-0.5c0-0.2,0-0.4-0.1-0.6c0-0.2,0-0.4,0-0.6c0-0.4,0-0.9,0.1-1.3
		c0-0.1,0-0.2,0-0.3c0-0.1,0-0.2,0.1-0.4c0-0.2,0.1-0.3,0.1-0.5c0-0.2,0.1-0.3,0.2-0.5c0-0.1,0.1-0.3,0.2-0.4
		c0.1-0.2,0.2-0.5,0.3-0.7c0,0,0,0,0,0c0.1-0.2,0.2-0.4,0.4-0.6c0,0,0.1-0.1,0.1-0.1c0.1-0.2,0.2-0.3,0.3-0.5
		c0.1-0.1,0.2-0.3,0.4-0.4c0.1-0.1,0.3-0.3,0.4-0.4c0,0,0.1-0.1,0.2-0.1c0.1-0.1,0.3-0.3,0.5-0.4c0.1-0.1,0.1-0.1,0.2-0.1
		c0.1-0.1,0.3-0.2,0.5-0.3c0.1,0,0.2-0.1,0.3-0.2c0.2-0.1,0.4-0.3,0.7-0.4c0,0,0,0,0,0c0.2-0.1,0.5-0.2,0.7-0.3
		c0.2-0.1,0.3-0.1,0.5-0.2c0.1,0,0.2-0.1,0.3-0.1c0.2,0,0.4-0.1,0.6-0.1C617-15.7,617.1-15.7,617.3-15.8z"/>
	<path class="st0" d="M617.6-15.8c-2,4.9-3.2,10.3-3.3,15.9C614.2,0.1,614.1,0,614,0c0.2-5.6,1.3-10.9,3.4-15.7
		C617.4-15.8,617.5-15.8,617.6-15.8z"/>
	<path class="st0" d="M625.5-2.7c-0.8,1.3-1.9,2.3-3.3,3C623.5-0.4,624.7-1.5,625.5-2.7z"/>
	<path class="st1" d="M652.3-32.9c0,0.2,0,0.4,0,0.5c0,0.1,0,0.3,0,0.4c0,0.2,0,0.4-0.1,0.6c0,0.1,0,0.2-0.1,0.3
		c0,0.2-0.1,0.4-0.1,0.5c0,0.2-0.1,0.4-0.2,0.6c-0.1,0.3-0.2,0.5-0.3,0.8c-1.4,2.9-4.3,4.8-7.7,4.8s-6.3-2-7.7-4.8
		c-0.2-0.3-0.3-0.6-0.4-1c0-0.1-0.1-0.2-0.1-0.3c0-0.1-0.1-0.3-0.1-0.5c0-0.2-0.1-0.4-0.1-0.6c0-0.2,0-0.4-0.1-0.6
		c0-0.2,0-0.5,0-0.7c0-0.1,0-0.2,0-0.3c0.1-1.8,0.7-3.5,1.8-4.8c2.2-1.2,4.4-2.3,6.8-3.2c0.1,0,0.1-0.1,0.2-0.1h0
		c4.4,0.2,7.9,3.7,8.1,8C652.3-33.1,652.3-33,652.3-32.9z"/>
	<path class="st1" d="M644.2-41.3c-0.1,0-0.1,0-0.2,0.1c-2.3,0.8-4.6,1.9-6.7,3.1c1.6-1.9,3.9-3.1,6.6-3.1
		C644-41.3,644.1-41.3,644.2-41.3z"/>
	<path class="st0" d="M652.3-33.3c-0.2-4.4-3.7-7.9-8.1-8h0c-0.1,0-0.2,0-0.3,0c-2.7,0-5,1.2-6.6,3.1c2.1-1.2,4.4-2.2,6.7-3.1
		c-2.4,0.9-4.7,1.9-6.8,3.2c-1.1,1.3-1.7,3-1.8,4.8c0.1-1.8,0.7-3.4,1.7-4.7c0,0,0.1-0.1,0.1-0.1c1.5-2,4-3.3,6.7-3.3
		c0.2,0,0.4,0,0.6,0c0,0,0,0,0,0C648.8-41.1,652.2-37.6,652.3-33.3z"/>
	<path class="st1" d="M626.8-58.5c0,0.2,0,0.5,0,0.7c0,0.2,0,0.4-0.1,0.6c0,0.1,0,0.2,0,0.2c0,0.1,0,0.2-0.1,0.2
		c0,0.2-0.1,0.4-0.1,0.6c0,0.1-0.1,0.2-0.1,0.3c-0.1,0.2-0.1,0.3-0.2,0.5c-0.1,0.3-0.2,0.5-0.4,0.8c-0.1,0.2-0.2,0.4-0.4,0.6
		c-0.8,1.2-1.9,2.3-3.3,3c-0.2,0.1-0.4,0.2-0.6,0.3c0,0-0.1,0-0.2,0.1c-0.1,0.1-0.2,0.1-0.4,0.1c0,0-0.1,0-0.1,0
		c-0.1,0-0.1,0-0.2,0.1c-0.2,0.1-0.4,0.1-0.6,0.2c-0.1,0-0.3,0.1-0.4,0.1c-0.1,0-0.2,0-0.3,0c-0.1,0-0.2,0-0.3,0c-0.2,0-0.4,0-0.7,0
		c-4.7,0-8.5-3.8-8.5-8.5s3.8-8.5,8.5-8.5C623-67,626.8-63.2,626.8-58.5z"/>
	<path class="st0" d="M625.5-53.9c-0.8,1.3-1.9,2.3-3.3,3C623.5-51.6,624.7-52.7,625.5-53.9z"/>
	<path class="st1" d="M601.2-32.9c0,0.2,0,0.4,0,0.5c0,0.1,0,0.3,0,0.4c0,0.2,0,0.4-0.1,0.6c0,0.1,0,0.2-0.1,0.3
		c0,0.1,0,0.2-0.1,0.3c-0.1,0.2-0.1,0.4-0.2,0.6c-0.1,0.2-0.1,0.4-0.2,0.6c-0.1,0.3-0.2,0.5-0.4,0.8c-1.4,2.6-4.2,4.4-7.5,4.4
		c-3.7,0-6.8-2.3-8-5.6c-0.1-0.3-0.2-0.7-0.3-1c0-0.2-0.1-0.4-0.1-0.6c0-0.2,0-0.4-0.1-0.6c0-0.2,0-0.5,0-0.7c0-0.1,0-0.2,0-0.3
		c0.2-4.5,3.9-8.1,8.5-8.1c4.5,0,8.3,3.6,8.5,8.1C601.2-33.1,601.2-33,601.2-32.9z"/>
	<path class="st0" d="M601.1-33.3c-0.2-4.5-3.9-8.1-8.5-8.1c-4.6,0-8.3,3.6-8.5,8.1c0.2-4.5,3.9-8.2,8.5-8.2
		C597.2-41.4,601-37.8,601.1-33.3z"/>
	<path class="st2" d="M665.2-92.3h-99.5l-7-38.4l-7-38.4h66.6c0.2,0,0.4,0,0.7,0c0.4,0,0.8,0.1,1.3,0.1h0
		c6.3,0.7,11.9,4.6,14.5,10.4l27.2,59L665.2-92.3z"/>
	<path class="st2" d="M542.2-126.9c-0.2,0-0.4,0.1-0.5,0.1c0,0,0,0,0,0c-0.1,0-0.3,0-0.4,0c0,0,0,0,0,0c-4.5-0.2-8.1-3.9-8.1-8.5
		c0-3.8,2.6-7,6.1-8l-4.7-25.8h-16.9c3.9,0.8,7,4.1,7,8.2c0,4.7-3.8,8.5-8.5,8.5c-0.1,0-0.2,0-0.3,0c-4.6-0.1-8.3-3.9-8.3-8.5
		c0-4.2,3-7.5,7-8.2h-48.1c3.9,0.8,7,4.1,7,8.2c0,4.7-3.8,8.5-8.5,8.5c-0.1,0-0.2,0-0.3,0c-4.6-0.1-8.3-3.9-8.3-8.5
		c0-4.2,3-7.5,7-8.2h-15.9v76.8h100.7L542.2-126.9z M473.1-108.8c-0.4,4.2-4,7.7-8.4,7.7c-4.4,0-8.1-3.4-8.5-7.7c0-0.3,0-0.6,0-0.9
		c0-0.1,0-0.2,0-0.3c0-0.1,0-0.3,0-0.4c0-0.2,0-0.4,0.1-0.7c0,0,0-0.1,0-0.1c0-0.1,0-0.3,0.1-0.4c0-0.1,0.1-0.3,0.1-0.4
		c0-0.2,0.1-0.3,0.1-0.4c0-0.1,0.1-0.2,0.1-0.3c0.1-0.3,0.2-0.5,0.3-0.7c0.1-0.2,0.2-0.3,0.3-0.5c0.2-0.3,0.3-0.5,0.5-0.8
		c0.1-0.1,0.2-0.3,0.3-0.4c0.1-0.1,0.1-0.1,0.2-0.2c0.2-0.2,0.3-0.4,0.5-0.5v0c0.1-0.1,0.3-0.3,0.5-0.4c0.1-0.1,0.2-0.2,0.3-0.2
		c0.1-0.1,0.3-0.2,0.5-0.3c0.2-0.1,0.4-0.3,0.7-0.4c0.2-0.1,0.4-0.2,0.6-0.3c0,0,0.1,0,0.1-0.1c0.2-0.1,0.4-0.1,0.6-0.2
		c0,0,0,0,0.1,0c0.2-0.1,0.5-0.1,0.7-0.2c0,0,0.1,0,0.1,0c0.2,0,0.5-0.1,0.7-0.1c0,0,0,0,0,0c0.3,0,0.5,0,0.8,0c0.3,0,0.5,0,0.8,0
		c0,0,0,0,0,0c0.2,0,0.5,0.1,0.7,0.1c0,0,0.1,0,0.1,0c0.2,0,0.5,0.1,0.7,0.2c0,0,0.1,0,0.1,0c0.2,0.1,0.4,0.1,0.6,0.2
		c0.1,0,0.1,0,0.1,0.1c0.2,0.1,0.4,0.2,0.6,0.3c0.2,0.1,0.5,0.2,0.7,0.4c0.1,0.1,0.3,0.2,0.4,0.3c0.1,0.1,0.2,0.2,0.3,0.2
		c0.2,0.1,0.3,0.3,0.5,0.4l0,0c0.2,0.2,0.3,0.3,0.5,0.5c0.1,0.1,0.1,0.1,0.2,0.2c0.1,0.1,0.2,0.3,0.3,0.4c0.2,0.2,0.3,0.5,0.5,0.8
		c0.1,0.2,0.2,0.3,0.3,0.5c0.1,0.2,0.2,0.5,0.3,0.7c0,0.1,0.1,0.2,0.1,0.3c0.1,0.1,0.1,0.3,0.1,0.4c0,0.1,0.1,0.3,0.1,0.4
		c0,0.1,0.1,0.3,0.1,0.4c0,0,0,0.1,0,0.1c0,0.2,0.1,0.4,0.1,0.7c0,0.1,0,0.3,0,0.4c0,0.1,0,0.2,0,0.3
		C473.2-109.4,473.1-109.1,473.1-108.8z M498.8-134.6L498.8-134.6c0,0.2,0,0.4-0.1,0.6c-0.1,0.7-0.3,1.3-0.5,1.9
		c0,0.1-0.1,0.3-0.2,0.4c0,0,0,0,0,0c-0.1,0.1-0.1,0.3-0.2,0.4c-0.6,1.2-1.5,2.2-2.6,3c0,0,0,0,0,0c-0.4,0.3-0.8,0.5-1.2,0.7
		c-0.3,0.1-0.5,0.3-0.8,0.4c-0.2,0.1-0.3,0.1-0.5,0.2c-0.2,0-0.4,0.1-0.6,0.1c-0.1,0-0.3,0.1-0.4,0.1c0,0,0,0,0,0
		c-0.1,0-0.2,0-0.3,0c-0.1,0-0.3,0-0.4,0c-0.2,0-0.4,0-0.7,0c-4.7,0-8.5-3.8-8.5-8.5s3.8-8.5,8.5-8.5c4.7,0,8.5,3.8,8.5,8.5
		C498.8-135.1,498.8-134.8,498.8-134.6z M524.3-109.2c0,0.1,0,0.3,0,0.4c0,0.4-0.1,0.8-0.2,1.2c-0.9,3.7-4.2,6.5-8.2,6.5
		c-4.1,0-7.5-2.9-8.3-6.8c0-0.2-0.1-0.4-0.1-0.5c0-0.2,0-0.4-0.1-0.6c0-0.2,0-0.5,0-0.7c0-0.1,0-0.2,0-0.3c0.2-4.5,3.9-8.1,8.5-8.1
		c4.6,0,8.3,3.6,8.5,8.1c0,0.1,0,0.2,0,0.3C524.3-109.5,524.3-109.4,524.3-109.2z"/>
	<path class="st1" d="M524.3-109.7c0,0.2,0,0.4,0,0.5c0,0.1,0,0.3,0,0.4c0,0.4-0.1,0.8-0.2,1.2c-0.9,3.7-4.3,6.4-8.2,6.4
		c-4.1,0-7.5-2.8-8.3-6.7c0-0.2-0.1-0.4-0.1-0.5c0-0.2,0-0.4-0.1-0.6c0-0.2,0-0.5,0-0.7c0-0.1,0-0.2,0-0.3c0.2-4.5,3.9-8.1,8.5-8.1
		c4.6,0,8.3,3.6,8.5,8.1C524.3-109.9,524.3-109.8,524.3-109.7z"/>
	<path class="st0" d="M524.3-110.1c-0.2-4.5-3.9-8.1-8.5-8.1c-4.5,0-8.3,3.6-8.5,8.1c0.2-4.5,3.9-8.2,8.5-8.2
		C520.4-118.2,524.2-114.6,524.3-110.1z"/>
	<path class="st1" d="M473.2-109.7c0,0.3,0,0.6-0.1,0.9c-0.5,4.3-4.1,7.6-8.4,7.6c-4.4,0-8-3.3-8.5-7.6c0-0.3,0-0.6,0-0.9
		c0-0.1,0-0.2,0-0.3c0.2-4.5,3.9-8.1,8.5-8.1c4.5,0,8.3,3.6,8.5,8.1C473.2-109.9,473.2-109.8,473.2-109.7z"/>
	<path class="st0" d="M473.1-110.1c-0.2-4.5-3.9-8.1-8.5-8.1c-4.6,0-8.3,3.6-8.5,8.1c0.2-4.5,3.9-8.2,8.5-8.2
		C469.2-118.2,473-114.6,473.1-110.1z"/>
	<path class="st1" d="M498.8-135.3c0,0.2,0,0.5,0,0.7v0.1c0,0.2,0,0.4-0.1,0.5c-0.1,0.7-0.3,1.3-0.5,1.9c-0.9,2.2-2.8,4-5,4.8
		c-0.2,0.1-0.3,0.1-0.5,0.2c-0.2,0-0.4,0.1-0.6,0.1c-0.1,0-0.3,0.1-0.4,0.1c0,0,0,0,0,0c-0.1,0-0.2,0-0.3,0c-0.1,0-0.3,0-0.4,0
		c-0.2,0-0.4,0-0.7,0c-4.7,0-8.5-3.8-8.5-8.5s3.8-8.5,8.5-8.5C495-143.8,498.8-140,498.8-135.3z"/>
	<path class="st0" d="M498.2-132.1c-0.9,2.3-2.7,4-5,4.8C495.5-128.1,497.3-129.9,498.2-132.1z"/>
	<path class="st2" d="M550-75.2V-24c0,28.2-23,51.2-51.2,51.2s-51.2-23-51.2-51.2v-51.2H550z"/>
	<path class="st2" d="M328-75.4v42.5c0-0.4,0-0.9,0.1-1.3c0.6-3.9,3.8-6.9,7.7-7.2c0.1,0,0.3,0,0.4,0c0.1,0,0.2,0,0.2,0
		c0.2,0,0.3,0,0.4,0c4.5,0.2,8.1,3.9,8.1,8.5c0,4.6-3.6,8.3-8.1,8.5c-0.1,0-0.3,0-0.4,0c-0.1,0-0.2,0-0.2,0c-0.1,0-0.3,0-0.4,0
		c-4-0.3-7.1-3.3-7.7-7.2c-0.1-0.4-0.1-0.9-0.1-1.3v8.8c0,1.8,0.1,3.5,0.3,5.3c0,0.4,0.1,0.9,0.1,1.3c0,0.2,0.1,0.4,0.1,0.6
		c0,0.3,0.1,0.7,0.2,1c0,0.3,0.1,0.7,0.2,1c0.1,0.4,0.2,0.8,0.2,1.3c0.1,0.5,0.2,1,0.4,1.6c0.1,0.3,0.1,0.6,0.2,0.9c0,0,0,0.1,0,0.1
		c0.1,0.4,0.2,0.8,0.3,1.1c0.1,0.4,0.2,0.8,0.4,1.2c0.2,0.6,0.4,1.2,0.6,1.7c0,0,0,0,0,0c0,0,0,0.1,0,0.1c0.1,0.2,0.1,0.5,0.3,0.7
		c0.2,0.5,0.4,1.1,0.6,1.6c0.3,0.6,0.5,1.2,0.8,1.8c0.5,1.1,1,2.1,1.6,3.1c8.7,16,25.6,26.8,45,26.8c2.3,0,4.6-0.2,6.8-0.5
		c0.2,0,0.3,0,0.5-0.1c-0.2,0-0.4-0.1-0.6-0.1c-0.3,0-0.5-0.1-0.8-0.2c-0.2-0.1-0.4-0.1-0.7-0.2c-0.1,0-0.2-0.1-0.3-0.1
		c-0.1,0-0.2-0.1-0.3-0.1c-0.1,0-0.1-0.1-0.2-0.1c0,0,0,0,0,0c0,0,0,0,0,0c0,0,0,0,0,0c0,0,0,0,0,0c0,0-0.1-0.1-0.2-0.1
		c0,0,0,0-0.1,0v0c0,0,0,0-0.1,0c0,0,0,0,0,0c0,0-0.1,0-0.1-0.1c-0.1-0.1-0.2-0.1-0.3-0.2c-0.1,0-0.1-0.1-0.2-0.1
		c-0.1-0.1-0.2-0.1-0.2-0.2c-0.3-0.3-0.7-0.6-1-0.9c-0.1-0.2-0.3-0.3-0.4-0.5c0,0,0,0,0,0c-0.2-0.2-0.4-0.5-0.5-0.7
		c-0.1-0.2-0.2-0.3-0.3-0.5c-0.6-1.2-1-2.5-1-3.9c0-4.7,3.8-8.5,8.5-8.5c3.3,0,6.2,1.9,7.6,4.6c0,0.1,0.1,0.1,0.1,0.2
		c0.5,1.1,0.8,2.3,0.8,3.7c0,3.1-1.7,5.6-4.1,7.1c0.2-0.1,0.4-0.1,0.7-0.2c21.7-6,37.6-25.8,37.6-49.3v-51.2H328z M370.7-6.6
		c0,0.2,0,0.3,0,0.5c0,0.1,0,0.1,0,0.2c0,0.1,0,0.2-0.1,0.3c0,0.1,0,0.1,0,0.2c0,0.1,0,0.2-0.1,0.3c-0.1,0.3-0.1,0.5-0.3,0.8
		c0,0.1-0.1,0.2-0.1,0.3c0,0.1-0.1,0.1-0.1,0.2c0,0,0,0.1,0,0.1c-0.1,0.3-0.2,0.5-0.3,0.7c-0.2,0.3-0.3,0.5-0.5,0.8
		c-0.7,1-1.7,1.9-2.9,2.5c0,0,0,0,0,0c-0.4,0.2-0.9,0.4-1.3,0.6c0,0-0.1,0-0.1,0c-0.2,0-0.4,0.1-0.6,0.1c-0.2,0-0.4,0.1-0.5,0.1
		c-0.1,0-0.1,0-0.2,0c-0.2,0-0.4,0-0.6,0.1c-0.2,0-0.4,0-0.7,0c-4.7,0-8.5-3.8-8.5-8.5s3.8-8.5,8.5-8.5c0.6,0,1.2,0.1,1.7,0.2
		c0.2,0,0.4,0.1,0.5,0.1c0.2,0,0.3,0.1,0.5,0.2c0.2,0.1,0.3,0.1,0.5,0.2c0.2,0.1,0.4,0.2,0.6,0.3c0,0,0.1,0,0.1,0h0
		c0.1,0.1,0.3,0.1,0.4,0.2c0,0,0,0,0.1,0c0,0,0.1,0,0.1,0c0,0,0,0,0,0c0.1,0,0.1,0.1,0.2,0.1c0.1,0.1,0.2,0.2,0.3,0.2c0,0,0,0,0,0
		c0.1,0,0.1,0.1,0.2,0.2c0,0,0,0,0,0c0,0,0,0,0,0c0,0,0,0,0,0s0,0,0,0c0,0,0.1,0.1,0.1,0.1c0,0,0,0,0,0c0.1,0.1,0.3,0.3,0.4,0.4
		c0.1,0.1,0.3,0.3,0.4,0.4c0.2,0.2,0.3,0.3,0.4,0.5c0,0,0.1,0.1,0.1,0.1c0,0,0.1,0.1,0.1,0.2c0,0,0,0,0,0c0.1,0.1,0.1,0.2,0.2,0.3
		c0.1,0.1,0.1,0.2,0.2,0.3c0,0,0.1,0.1,0.1,0.2c0.1,0.2,0.2,0.5,0.3,0.7c0.1,0.2,0.1,0.3,0.2,0.5c0,0.1,0.1,0.2,0.1,0.3
		c0,0.1,0.1,0.2,0.1,0.3c0.1,0.2,0.1,0.4,0.2,0.6c0.1,0.6,0.2,1.1,0.2,1.7C370.8-7.1,370.7-6.9,370.7-6.6z M370.3-55.9
		c-0.1,0.3-0.2,0.5-0.3,0.8c0,0.1-0.1,0.2-0.1,0.3c-0.1,0.3-0.3,0.5-0.4,0.8c-0.6,1-1.4,1.9-2.4,2.5c-0.1,0.1-0.3,0.2-0.4,0.3
		c-0.2,0.1-0.5,0.3-0.7,0.4c-0.1,0-0.2,0.1-0.3,0.1c-0.3,0.1-0.5,0.2-0.8,0.3c-0.8,0.3-1.7,0.4-2.6,0.4c-4.7,0-8.5-3.8-8.5-8.5
		s3.8-8.5,8.5-8.5c0.6,0,1.2,0.1,1.7,0.2c0.5,0.1,0.9,0.2,1.4,0.4c0,0,0,0,0,0h0c0,0,0,0,0,0c0,0,0,0,0.1,0c0,0,0.1,0,0.1,0h0
		c0.1,0,0.3,0.1,0.4,0.2c0.1,0,0.2,0.1,0.3,0.2c0,0,0.1,0,0.1,0.1c0,0,0.1,0,0.1,0c0.1,0,0.2,0.1,0.3,0.2c0.1,0.1,0.2,0.1,0.3,0.2
		c0.2,0.2,0.4,0.3,0.7,0.5c0.2,0.2,0.3,0.3,0.5,0.5c0.2,0.2,0.4,0.4,0.6,0.7c0,0,0.1,0.1,0.1,0.1c0.1,0.1,0.1,0.2,0.2,0.3
		c0.1,0.1,0.2,0.3,0.3,0.4c0,0,0.1,0.1,0.1,0.1c0,0.1,0.1,0.1,0.1,0.1c0,0,0.1,0.1,0.1,0.1c0,0,0,0,0,0c0,0,0,0.1,0,0.1c0,0,0,0,0,0
		c0.1,0.1,0.1,0.2,0.2,0.3c0.1,0.1,0.1,0.2,0.2,0.4c0,0,0,0,0,0c0,0.1,0.1,0.1,0.1,0.2c0,0.1,0,0.1,0.1,0.2c0.1,0.2,0.1,0.4,0.2,0.6
		c0.1,0.2,0.1,0.4,0.2,0.6c0.1,0.6,0.2,1.1,0.2,1.7C370.8-57.6,370.6-56.7,370.3-55.9z M396.3-32.4c0,0.1,0,0.3,0,0.4
		c0,0.2,0,0.4-0.1,0.6c0,0.2-0.1,0.4-0.1,0.6c-0.1,0.4-0.3,0.8-0.4,1.2c0,0.1-0.1,0.2-0.1,0.3c-1.3,2.9-4.3,4.9-7.7,4.9
		c-3.9,0-7.1-2.5-8.1-6.1c-0.1-0.4-0.2-0.8-0.3-1.2c0-0.2,0-0.4-0.1-0.5v0c0-0.2,0-0.5,0-0.7c0-0.1,0-0.2,0-0.3c0-0.1,0-0.3,0-0.4
		c0-0.2,0-0.5,0.1-0.7c0,0,0-0.1,0-0.1c0-0.1,0-0.3,0.1-0.4c0-0.1,0.1-0.3,0.1-0.4c0-0.1,0.1-0.3,0.1-0.4c0-0.1,0.1-0.2,0.1-0.3
		c0.1-0.3,0.2-0.5,0.3-0.7c0.1-0.2,0.2-0.3,0.3-0.5c0.2-0.3,0.3-0.5,0.5-0.8c0.1-0.1,0.2-0.3,0.3-0.4c0.1-0.1,0.1-0.1,0.2-0.2
		c0.2-0.2,0.3-0.4,0.5-0.5v0c0.1-0.1,0.3-0.3,0.5-0.4c0.1-0.1,0.2-0.2,0.3-0.2c0.1-0.1,0.3-0.2,0.4-0.3c0.2-0.1,0.4-0.3,0.7-0.4
		c0.2-0.1,0.4-0.2,0.6-0.3c0,0,0.1,0,0.1-0.1c0.2-0.1,0.4-0.2,0.6-0.2c0,0,0,0,0.1,0c0.2-0.1,0.5-0.1,0.7-0.2c0,0,0.1,0,0.1,0
		c0.2,0,0.5-0.1,0.7-0.1c0,0,0,0,0,0c0.3,0,0.5,0,0.8,0c0.3,0,0.6,0,0.8,0c0,0,0,0,0,0c0.2,0,0.5,0.1,0.7,0.1c0,0,0.1,0,0.1,0
		c0.2,0,0.5,0.1,0.7,0.2c0,0,0.1,0,0.1,0c0.2,0.1,0.4,0.1,0.6,0.2c0,0,0.1,0,0.1,0.1c0.2,0.1,0.4,0.2,0.6,0.3
		c0.2,0.1,0.5,0.2,0.7,0.4c0.2,0.1,0.3,0.2,0.5,0.3c0.1,0.1,0.2,0.2,0.3,0.2c0.2,0.1,0.3,0.3,0.5,0.4l0,0c0.2,0.2,0.3,0.3,0.5,0.5
		c0.1,0.1,0.1,0.1,0.2,0.2c0.1,0.1,0.2,0.3,0.3,0.4c0.2,0.2,0.3,0.5,0.5,0.8c0.1,0.2,0.2,0.3,0.3,0.5c0.1,0.2,0.2,0.5,0.3,0.7
		c0.1,0.1,0.1,0.2,0.1,0.3c0.1,0.1,0.1,0.3,0.1,0.4c0,0.1,0.1,0.3,0.1,0.4c0,0.1,0.1,0.3,0.1,0.4c0,0,0,0.1,0,0.1
		c0,0.2,0.1,0.4,0.1,0.7c0,0.1,0,0.3,0,0.4c0,0.1,0,0.2,0,0.3C396.3-32.7,396.3-32.6,396.3-32.4z M413.5,1.2c-4.7,0-8.5-3.8-8.5-8.5
		s3.8-8.5,8.5-8.5c0.3,0,0.6,0,0.9,0c0.3,0,0.5,0.1,0.8,0.1c2.8,0.5,5.1,2.5,6.1,5c0.2,0.4,0.3,0.8,0.4,1.2c0,0.1,0.1,0.2,0.1,0.3
		c0,0.2,0.1,0.3,0.1,0.5c0,0.3,0.1,0.6,0.1,0.9c0,0.1,0,0.3,0,0.4C422-2.6,418.3,1.2,413.5,1.2z M413.5-50c-4.7,0-8.5-3.8-8.5-8.5
		s3.8-8.5,8.5-8.5c0.3,0,0.6,0,0.9,0c0.3,0,0.5,0.1,0.8,0.1c0.2,0,0.3,0.1,0.5,0.1c2.6,0.7,4.6,2.5,5.6,4.9c0.1,0.2,0.2,0.4,0.2,0.6
		c0.1,0.2,0.1,0.4,0.2,0.6c0,0.1,0.1,0.2,0.1,0.3c0,0.2,0.1,0.3,0.1,0.5c0,0.3,0.1,0.6,0.1,0.9c0,0.2,0,0.3,0,0.4
		C422-53.8,418.3-50,413.5-50z"/>
	<path class="st1" d="M422-7.3c0,4.7-3.8,8.5-8.5,8.5S405-2.6,405-7.3s3.8-8.5,8.5-8.5c0.3,0,0.6,0,0.9,0c0.3,0,0.5,0.1,0.8,0.1
		c2.7,0.6,5,2.5,6.1,5c0.2,0.4,0.3,0.8,0.4,1.2c0,0.1,0.1,0.2,0.1,0.3c0,0.2,0.1,0.3,0.1,0.5c0,0.3,0.1,0.6,0.1,0.9
		C422-7.6,422-7.5,422-7.3z"/>
	<path class="st1" d="M422-58.5c0,4.7-3.8,8.5-8.5,8.5s-8.5-3.8-8.5-8.5s3.8-8.5,8.5-8.5c0.3,0,0.6,0,0.9,0c0.3,0,0.5,0.1,0.8,0.1
		c2.7,0.6,5,2.5,6.1,5c0.1,0.2,0.2,0.4,0.2,0.6c0.1,0.2,0.1,0.4,0.2,0.6c0,0.1,0.1,0.2,0.1,0.3c0,0.2,0.1,0.3,0.1,0.5
		c0,0.3,0.1,0.6,0.1,0.9C422-58.8,422-58.7,422-58.5z"/>
	<path class="st1" d="M370.8-58.5c0,0.9-0.1,1.8-0.4,2.6c-0.9,2.6-2.9,4.7-5.5,5.5c-0.8,0.3-1.7,0.4-2.6,0.4c-4.7,0-8.5-3.8-8.5-8.5
		s3.8-8.5,8.5-8.5c0.6,0,1.2,0.1,1.7,0.2c2.9,0.6,5.3,2.7,6.3,5.4c0.1,0.2,0.1,0.4,0.2,0.6c0.1,0.2,0.1,0.4,0.2,0.6
		C370.7-59.7,370.8-59.1,370.8-58.5z"/>
	<path class="st0" d="M370.2-61.4c-1-2.7-3.4-4.8-6.3-5.4C366.9-66.3,369.3-64.2,370.2-61.4z"/>
	<path class="st1" d="M370.8-7.3c0,0.2,0,0.5,0,0.7c0,0.2,0,0.3,0,0.5c0,0.1,0,0.1,0,0.2c0,0.1,0,0.2-0.1,0.3c0,0.1,0,0.1,0,0.2
		c0,0.1,0,0.2-0.1,0.3c-0.1,0.3-0.1,0.5-0.3,0.8c-0.9,2.4-2.9,4.3-5.3,5.2c0,0-0.1,0-0.1,0c-0.2,0-0.4,0.1-0.6,0.1
		c-0.2,0-0.4,0.1-0.5,0.1c-0.1,0-0.1,0-0.2,0c-0.2,0-0.4,0-0.6,0.1c-0.2,0-0.4,0-0.7,0c-4.7,0-8.5-3.8-8.5-8.5s3.8-8.5,8.5-8.5
		c0.6,0,1.2,0.1,1.7,0.2c0.2,0,0.4,0.1,0.5,0.1c0.2,0,0.3,0.1,0.5,0.2c0.2,0.1,0.3,0.1,0.5,0.2c2,0.8,3.6,2.4,4.5,4.4
		c0.1,0.2,0.1,0.3,0.2,0.5c0,0.1,0.1,0.2,0.1,0.3c0,0.1,0.1,0.2,0.1,0.3c0.1,0.2,0.1,0.4,0.2,0.6C370.7-8.5,370.8-7.9,370.8-7.3z"/>
	<path class="st0" d="M370-10.8c-0.9-2-2.5-3.6-4.5-4.4C367.6-14.3,369.2-12.7,370-10.8z"/>
	<path class="st1" d="M396.3-32.9c0,0.2,0,0.4,0,0.5c0,0.1,0,0.3,0,0.4c0,0.2,0,0.4-0.1,0.6c0,0.2-0.1,0.4-0.1,0.6
		c-0.1,0.4-0.3,0.8-0.4,1.2c0,0.1-0.1,0.2-0.1,0.3c-1.4,2.9-4.3,4.8-7.7,4.8c-3.8,0-7-2.5-8.1-6c-0.1-0.4-0.2-0.8-0.3-1.2
		c0-0.2,0-0.4-0.1-0.5v0c0-0.2,0-0.5,0-0.7c0-0.1,0-0.2,0-0.3c0.2-4.5,3.9-8.1,8.5-8.1c4.6,0,8.3,3.6,8.5,8.1
		C396.3-33.1,396.3-33,396.3-32.9z"/>
	<path class="st0" d="M396.3-33.3c-0.2-4.5-3.9-8.1-8.5-8.1c-4.5,0-8.3,3.6-8.5,8.1c0.2-4.5,3.9-8.2,8.5-8.2
		C392.4-41.4,396.2-37.8,396.3-33.3z"/>
	<polygon class="st2" points="430.5,-169.1 430.5,-92.3 329.8,-92.3 336.8,-130.7 343.8,-169.1 	"/>
	<path class="st2" d="M312.7-169.1c3.9,0.8,7,4.1,7,8.2c0,4.7-3.8,8.5-8.5,8.5H311c-4.6-0.1-8.3-3.9-8.3-8.5c0-4.2,3-7.5,6.9-8.2
		h-48c3.9,0.8,7,4.1,7,8.2c0,4.7-3.8,8.5-8.5,8.5h-0.2c-4.6-0.1-8.3-3.9-8.3-8.5c0-3.4,2-6.3,5-7.7c-0.2,0-0.5,0.1-0.7,0.2
		c-5.3,1.3-9.8,4.8-12.2,9.8l-7,15.2c3.6,1,6.4,4.1,6.4,8.1c0,4.7-3.8,8.5-8.5,8.5c0,0-0.1,0-0.1,0c-1.8,0-3.3-0.7-4.6-1.6l-0.1,0.2
		l-16.9,35.9h99.6l1.7-9.5c-0.1,0.1-0.3,0.1-0.4,0.1c-0.9,0.3-1.7,0.5-2.7,0.5h-0.2c-4.6-0.1-8.3-3.9-8.3-8.5s3.7-8.4,8.3-8.5h0.2
		c2,0,3.9,0.8,5.4,2c0.1,0.1,0.2,0.2,0.3,0.3l2.7-14.8l7-38.4H312.7z M268.3-108.8c-0.4,4.2-4,7.7-8.5,7.7c-4.4,0-8.1-3.4-8.5-7.7
		c0-0.3,0-0.6,0-0.9c0-0.1,0-0.2,0-0.3c0-0.1,0-0.3,0-0.4c0.4-4.3,4-7.6,8.5-7.6c4.4,0,8,3.3,8.5,7.6c0,0.1,0,0.3,0,0.4
		c0,0.1,0,0.2,0,0.3C268.3-109.4,268.3-109.1,268.3-108.8z M294-134.6L294-134.6c0,0.2,0,0.4-0.1,0.6c-0.1,0.7-0.3,1.3-0.5,1.9
		c-0.9,2.2-2.8,4-5,4.8c-0.2,0.1-0.3,0.1-0.5,0.2c-0.2,0-0.4,0.1-0.6,0.1c-0.1,0-0.3,0.1-0.4,0.1c0,0,0,0-0.1,0c-0.1,0-0.2,0-0.3,0
		c-0.1,0-0.3,0-0.4,0c-0.2,0-0.4,0-0.7,0c-4.7,0-8.5-3.8-8.5-8.5s3.8-8.5,8.5-8.5s8.5,3.8,8.5,8.5C294-135.1,294-134.8,294-134.6z"
		/>
	<path class="st1" d="M294-135.3c0,0.2,0,0.5,0,0.7v0.1c0,0.2,0,0.4-0.1,0.5c-0.1,0.7-0.3,1.3-0.5,1.9c-0.9,2.2-2.8,4-5,4.8
		c-0.2,0.1-0.3,0.1-0.5,0.2c-0.2,0-0.4,0.1-0.6,0.1c-0.1,0-0.3,0.1-0.4,0.1c0,0,0,0-0.1,0c-0.1,0-0.2,0-0.3,0c-0.1,0-0.3,0-0.4,0
		c-0.2,0-0.4,0-0.7,0c-4.7,0-8.5-3.8-8.5-8.5s3.8-8.5,8.5-8.5S294-140,294-135.3z"/>
	<path class="st0" d="M293.4-132.1c-0.9,2.3-2.7,4-5,4.8C290.7-128.1,292.5-129.9,293.4-132.1z"/>
	<path class="st1" d="M268.3-109.7c0,0.3,0,0.6,0,0.9c-0.5,4.3-4.1,7.6-8.5,7.6c-4.4,0-8-3.3-8.5-7.6c0-0.3,0-0.6,0-0.9
		c0-0.1,0-0.2,0-0.3c0.2-4.5,3.9-8.1,8.5-8.1c4.6,0,8.3,3.6,8.5,8.1C268.3-109.9,268.3-109.8,268.3-109.7z"/>
	<path class="st0" d="M268.3-110.1c-0.2-4.5-3.9-8.1-8.5-8.1c-4.5,0-8.3,3.6-8.5,8.1c0.2-4.5,3.9-8.2,8.5-8.2
		C264.4-118.2,268.2-114.6,268.3-110.1z"/>
	<path class="st2" d="M311-75.2V-24c0,28.2-23,51.2-51.2,51.2c-2,0-4-0.2-6-0.4c-0.7-0.1-1.4-0.2-2-0.3c-1.3-0.2-2.5-0.4-3.8-0.7
		c-0.8-0.2-1.6-0.4-2.4-0.6c-1.1-0.3-2.2-0.7-3.3-1.1c-0.8-0.3-1.5-0.5-2.3-0.8c-1.6-0.7-3.2-1.5-4.7-2.3c-0.8-0.4-1.5-0.9-2.3-1.4
		c-0.9-0.6-1.8-1.2-2.7-1.8c-0.7-0.5-1.3-1-2-1.5c-1.1-0.9-2.2-1.8-3.3-2.8c-0.3-0.3-0.7-0.6-1-0.9c-1.5-1.5-2.9-3-4.2-4.7l-0.1-0.1
		c-1.3-1.7-2.6-3.5-3.7-5.4l-0.9-1.5l-0.3-0.6c-4-7.2-6.2-15.5-6.2-24.3v-51.2H311z"/>
	<path class="st1" d="M609.8,201.7v13.2c0,4.7-3.8,8.5-8.5,8.5c-4.7,0-8.5-3.8-8.5-8.5v-25.6c0-0.3,0-0.5,0-0.8c0-0.2,0-0.3,0.1-0.5
		c0-0.2,0.1-0.4,0.1-0.5c0-0.1,0-0.2,0.1-0.3c0-0.1,0.1-0.3,0.1-0.4c0.1-0.3,0.2-0.5,0.3-0.8c0-0.1,0.1-0.3,0.2-0.4s0.1-0.3,0.2-0.4
		c0.2-0.4,0.5-0.8,0.8-1.2c0.1-0.2,0.3-0.3,0.4-0.5c0.4-0.5,0.9-0.9,1.5-1.3c0.1-0.1,0.2-0.1,0.3-0.2c0.1-0.1,0.2-0.1,0.2-0.2
		c0.4-0.3,0.9-0.5,1.4-0.6c0.2-0.1,0.3-0.1,0.5-0.2c0.5-0.2,1.1-0.3,1.6-0.3C602.3,188.4,605.5,195.5,609.8,201.7z"/>
	<path class="st1" d="M609.8,189.3v12.4c-4.3-6.2-7.5-13.3-9.3-20.9h0.1c0.2,0,0.4,0,0.7,0c0.3,0,0.6,0,0.9,0c0.3,0,0.5,0.1,0.8,0.1
		c0.2,0,0.3,0.1,0.5,0.1c2.3,0.6,4.3,2.3,5.4,4.4c0.1,0.1,0.2,0.3,0.2,0.5c0.1,0.1,0.1,0.3,0.2,0.4c0.1,0.3,0.2,0.5,0.3,0.8
		c0,0.1,0.1,0.2,0.1,0.3c0,0.2,0.1,0.3,0.1,0.5c0,0.3,0.1,0.6,0.1,0.9C609.8,189,609.8,189.1,609.8,189.3z"/>
	<path class="st1" d="M378,108.5c0,0,0,0.1-0.1,0.1c-0.3,0.5-0.7,0.9-1.1,1.3l-34.1,34.1c-1.7,1.7-3.8,2.5-6,2.5s-4.4-0.8-6-2.5
		c-3.3-3.3-3.3-8.7,0-12.1l34.1-34.1c0.1-0.1,0.3-0.3,0.4-0.4c0,0,0.1-0.1,0.1-0.1c3.3-2.7,8.3-2.5,11.5,0.6
		C379.7,100.8,380.1,105.2,378,108.5z"/>
	<path class="st0" d="M378,108.5c2-3.3,1.6-7.7-1.2-10.5c-3.2-3.1-8.1-3.3-11.5-0.6c3.3-2.8,8.3-2.6,11.6,0.5
		C379.8,100.8,380.2,105.3,378,108.5z"/>
	<path class="st1" d="M360.3,169C360.3,169.1,360.3,169.1,360.3,169c-0.2,0.3-0.4,0.5-0.6,0.7l-17.1,17.1c-1.3,1.3-2.8,2-4.4,2.4
		c-0.3,0-0.5,0.1-0.8,0.1c-0.3,0-0.5,0-0.8,0c-0.2,0-0.5,0-0.7,0c-1.9-0.2-3.8-1-5.2-2.5c-0.6-0.5-1-1.1-1.4-1.7
		c-0.1-0.1-0.2-0.3-0.3-0.4c-1.6-3.2-1.1-7.2,1.6-10l17.1-17.1c1.4-1.4,3.3-2.3,5.2-2.4c0.5,0,1,0,1.5,0c1.9,0.2,3.8,1,5.3,2.4
		C362.8,160.7,363,165.6,360.3,169z"/>
	<path class="st0" d="M330.8,186.8c1.4,1.5,3.3,2.3,5.2,2.5C334,189.1,332.1,188.3,330.8,186.8c-0.6-0.5-1.1-1.1-1.4-1.7
		C329.7,185.7,330.2,186.3,330.8,186.8z"/>
	<path class="st0" d="M360.3,169c2.7-3.4,2.5-8.3-0.6-11.4c-1.5-1.4-3.4-2.3-5.3-2.4c2,0.2,3.9,1,5.4,2.4
		C362.8,160.8,363,165.7,360.3,169z"/>
	<path class="st1" d="M379.3,146.6c0,2.2-0.9,4.4-2.5,6.1c-1.6,1.5-3.8,2.5-6.1,2.5s-4.4-0.9-6.1-2.6c-1.5-1.5-2.5-3.8-2.5-6
		c0-2.2,0.9-4.5,2.5-6.1c3.2-3.2,9-3.2,12.1,0C378.3,142.2,379.3,144.4,379.3,146.6z"/>
	<path class="st1" d="M420.1,109.3C420.1,109.4,420.1,109.4,420.1,109.3c-0.2,0.3-0.4,0.5-0.6,0.7L394,135.6c-1.7,1.7-3.8,2.5-6,2.5
		s-4.4-0.8-6-2.5c-3.3-3.3-3.3-8.7,0-12.1l25.6-25.6c1.4-1.4,3.3-2.3,5.2-2.4c0.5,0,1-0.1,1.5,0c1.9,0.2,3.8,1,5.3,2.4
		C422.6,101,422.8,105.9,420.1,109.3z"/>
	<path class="st0" d="M420.1,109.3c2.7-3.4,2.5-8.4-0.6-11.4c-1.5-1.4-3.4-2.3-5.3-2.4c1.9,0.1,3.9,1,5.4,2.4
		C422.7,101.1,422.8,106,420.1,109.3z"/>
	<path class="st1" d="M419.5,152.7l-76.8,76.8c-1.7,1.7-3.8,2.5-6,2.5s-4.4-0.8-6-2.5c-3.3-3.3-3.3-8.7,0-12.1l76.8-76.8
		c3.3-3.3,8.7-3.3,12.1,0C422.8,143.9,422.8,149.3,419.5,152.7z"/>
	<path class="st1" d="M439,129.5c0.1,2.3-0.9,4.5-2.4,6.1c-1.6,1.5-3.8,2.5-6.1,2.5c-2.2,0-4.5-0.9-6.1-2.5
		c-1.4-1.5-2.4-3.5-2.5-5.7c0-0.1,0-0.2,0-0.3c0-0.2,0-0.3,0-0.5c0-0.1,0-0.1,0-0.2c0-0.1,0-0.1,0-0.2c0-0.1,0-0.3,0-0.4
		c0.3-1.8,1.1-3.5,2.4-4.9c3.2-3.1,9-3.1,12.1,0c0.4,0.4,0.8,0.8,1.1,1.3c0,0,0,0,0,0C438.4,126.2,439,127.8,439,129.5z"/>
	<path class="st0" d="M439,129.6c0,2.2-0.9,4.4-2.5,6.1c-1.6,1.5-3.8,2.5-6.1,2.5c-2.2,0-4.5-0.9-6.1-2.5c-1.4-1.5-2.4-3.6-2.5-5.8
		c0.1,2.1,1.1,4.2,2.5,5.7c1.6,1.6,3.9,2.5,6.1,2.5c2.3,0,4.5-1,6.1-2.5C438,134,439,131.8,439,129.6c-0.1-1.8-0.6-3.4-1.5-4.8
		C438.5,126.2,439,127.9,439,129.6z"/>
</g>
</svg>
