<?xml version="1.0" encoding="utf-8"?>
<!-- Generator: Adobe Illustrator 19.0.0, SVG Export Plug-In . SVG Version: 6.00 Build 0)  -->
<svg version="1.1" xmlns="http://www.w3.org/2000/svg" xmlns:xlink="http://www.w3.org/1999/xlink" x="0px" y="0px"
	 viewBox="-27 -186.3 840 512" style="enable-background:new -27 -186.3 840 512;" xml:space="preserve">
<style type="text/css">
	.st0{fill:#2850A7;}
	.st1{fill:#3367D6;}
</style>
<g id="Capa_1">
	<g>
		<g>
			<path class="st0" d="M807,100.7c0-18.6-8.1-36.3-22.3-48.4c5.4-8.8,8.2-19,8.2-29.3c0-28.6-21.5-52.7-49.9-56.1
				c0.3-2.5,0.5-5,0.5-7.4c0.1-31.1-25.1-56.4-56.2-56.5c-18.3,0-35.5,8.8-46.1,23.7c-18-25.4-53.1-31.4-78.5-13.4
				c-5.2,3.7-9.7,8.2-13.4,13.4c-18.1-25.4-53.3-31.3-78.6-13.2c-17,12.1-25.9,32.7-23.2,53.4c-28.4,3.4-49.9,27.5-49.9,56.1
				c0,10.3,2.8,20.5,8.2,29.3c-26.7,22.8-29.9,62.9-7.1,89.6c2.2,2.6,4.6,5,7.1,7.1c-5.4,8.8-8.2,19-8.2,29.3
				c0,31.2,25.3,56.4,56.5,56.5h42.4v77.6h-21.2c-3.9,0-7.1,3.2-7.1,7.1c0,3.9,3.2,7.1,7.1,7.1h240c3.9,0,7.1-3.2,7.1-7.1
				c0-3.9-3.2-7.1-7.1-7.1h-21.2v-77.6h42.4c31.2,0,56.4-25.3,56.5-56.5c0-10.3-2.8-20.5-8.2-29.3C798.9,137,807,119.3,807,100.7z
				 M454.1,220.6c-23.4,0-42.3-18.9-42.4-42.3c0-9.6,3.3-18.9,9.3-26.4c2.4-3.1,1.9-7.5-1.1-9.9c-0.1-0.1-0.3-0.2-0.5-0.3
				c-22.6-15.2-28.6-45.9-13.4-68.6c3.6-5.3,8.1-9.9,13.4-13.4c3.2-2.2,4.1-6.6,1.9-9.8c-0.1-0.2-0.2-0.3-0.3-0.5
				c-6-7.5-9.3-16.8-9.3-26.4c0-23.4,19-42.3,42.4-42.4l1.8,0.1c2.3,0.1,4.5-0.9,5.9-2.7c1.4-1.8,1.8-4.2,1.2-6.4
				c-6.6-22.4,6.2-46,28.7-52.6c19.9-5.9,41.2,3.6,50.2,22.4c0,0.1,0,0.1,0,0.2c-0.9,2.6-1.6,5.4-2,8.1c-0.1,0.5-0.1,1-0.2,1.4
				c-0.8,5.2-0.9,10.5-0.2,15.8c-28.4,3.4-49.9,27.5-49.9,56.1c0,10.3,2.8,20.5,8.2,29.3c-0.1,0.1-0.2,0.2-0.4,0.3l-32.9-32.9
				c-2.8-2.7-7.3-2.6-10,0.2c-2.6,2.7-2.6,7.1,0,9.8l33.3,33.3c-19.8,26.8-15.4,64.4,9.9,86c-2.7,4.4-4.8,9.2-6.2,14.3L466.1,138
				c-2.8-2.7-7.3-2.6-10,0.2c-2.6,2.7-2.6,7.1,0,9.8l33.4,33.4c0.1,1,0.1,2,0.2,2.9c0.1,0.7,0.2,1.3,0.3,2c0.2,1.3,0.4,2.6,0.6,3.9
				c0.2,0.8,0.4,1.5,0.6,2.3c0.3,1.1,0.6,2.3,0.9,3.4c0.3,0.8,0.6,1.5,0.8,2.3c0.4,1,0.8,2.1,1.2,3.1c0.3,0.8,0.7,1.5,1.1,2.2
				c0.5,1,1,1.9,1.5,2.8c0.4,0.7,0.9,1.4,1.3,2.1c0.6,0.9,1.1,1.8,1.8,2.6c0.5,0.7,1,1.4,1.5,2c0.6,0.8,1.3,1.6,2,2.4
				c0.6,0.6,1.1,1.3,1.7,1.9c0.7,0.8,1.5,1.5,2.3,2.2c0.4,0.4,0.7,0.8,1.1,1.1H454.1z M588.2,312.4h-77.7v-77.6h77.7V312.4z
				 M595.2-5.2c-3.9,0-7.1,3.2-7.1,7.1v50l-32.1-32.1c-2.8-2.7-7.3-2.6-10,0.2c-2.6,2.7-2.6,7.1,0,9.8l42.1,42v96.5L557.9,138
				c-2.8-2.7-7.3-2.6-10,0.2c-2.6,2.7-2.6,7.1,0,9.8l40.3,40.3v32.4h-42.4c-23.4,0-42.3-19-42.4-42.4c0-9.6,3.2-18.9,9.3-26.4
				c2.4-3.1,1.9-7.5-1.1-9.9c-0.1-0.1-0.3-0.2-0.5-0.3c-22.6-15.2-28.7-45.9-13.4-68.6c3.6-5.3,8.1-9.9,13.4-13.4
				c3.2-2.2,4.1-6.6,1.9-9.8c-0.1-0.2-0.2-0.3-0.3-0.5c-6-7.5-9.3-16.8-9.3-26.4c0-23.4,19-42.3,42.4-42.4l1.8,0.1
				c2.3,0.1,4.5-0.9,5.8-2.7c1.4-1.8,1.8-4.2,1.2-6.4c-1.2-4-1.8-8.1-1.8-12.2c0-2.6,0.2-5.2,0.7-7.8c0-0.1,0-0.2,0-0.3
				c0.5-2.5,1.2-5,2.2-7.5c6.4-16.2,22-26.8,39.4-26.8c17.4,0,33,10.7,39.4,26.8c1,2.4,1.7,4.9,2.2,7.5c0,0.1,0,0.2,0,0.3
				c0.5,2.5,0.7,5.1,0.7,7.7c0,4.1-0.6,8.2-1.8,12.2c-0.7,2.2-0.2,4.5,1.2,6.4c1.4,1.8,3.6,2.9,5.8,2.7l1.8-0.1
				C668-19.3,687-0.3,687,23c0,9.6-3.2,18.9-9.3,26.4c-2.4,3-1.9,7.5,1.1,9.9c0.1,0.1,0.3,0.2,0.5,0.3
				c22.6,15.2,28.6,45.9,13.4,68.6c-3.6,5.3-8.1,9.9-13.4,13.4c-3.2,2.2-4.1,6.6-1.9,9.8c0.1,0.2,0.2,0.3,0.3,0.5
				c6,7.5,9.3,16.8,9.3,26.4c0,23.4-19,42.3-42.4,42.4h-42.4v-96.4c0.5-0.3,1-0.6,1.5-1l45.9-45.9c2.7-2.8,2.6-7.3-0.2-10
				c-2.7-2.6-7.1-2.6-9.8,0l-37.4,37.4V1.9C602.3-2,599.1-5.2,595.2-5.2z M679.9,312.4h-77.7v-77.6h77.7V312.4z M769.2,151.5
				c0.1,0.2,0.2,0.3,0.3,0.5c6,7.5,9.3,16.8,9.3,26.4c0,23.4-19,42.3-42.4,42.4H682c0.4-0.3,0.8-0.8,1.1-1.1
				c0.8-0.7,1.5-1.4,2.3-2.2c0.6-0.6,1.1-1.2,1.7-1.9c0.7-0.8,1.4-1.6,2-2.4c0.5-0.7,1-1.3,1.5-2c0.6-0.9,1.2-1.7,1.8-2.6
				c0.4-0.7,0.9-1.4,1.3-2.1c0.5-0.9,1-1.9,1.5-2.8c0.4-0.7,0.7-1.5,1.1-2.2c0.4-1,0.8-2,1.2-3.1c0.3-0.8,0.6-1.5,0.9-2.3
				c0.4-1.1,0.6-2.2,0.9-3.4c0.2-0.7,0.4-1.5,0.6-2.2c0.3-1.3,0.5-2.6,0.6-3.9c0.1-0.7,0.2-1.3,0.3-2c0.2-2,0.3-4,0.3-6.1
				c0-10.3-2.8-20.5-8.2-29.3c13.3-11.4,21.3-27.8,22.2-45.3l26.3-26.3c2.7-2.8,2.6-7.3-0.2-10c-2.7-2.6-7.1-2.6-9.8,0l-18.1,18.1
				C710.2,72.6,703,61,692.9,52.4c5.4-8.8,8.3-19,8.2-29.3c0-28.6-21.5-52.7-49.9-56.1c0.7-5.2,0.6-10.5-0.2-15.8
				c-0.1-0.5-0.1-1-0.2-1.4c-0.5-2.7-1.2-5.5-2-8.1c0-0.1,0-0.1,0-0.2c10.1-21.1,35.4-30,56.5-19.9c18.8,9,28.2,30.2,22.4,50.2
				c-0.7,2.2-0.2,4.5,1.2,6.4c1.4,1.8,3.6,2.8,5.9,2.7l1.8-0.1c23.4,0,42.3,19,42.4,42.4c0,9.6-3.2,18.9-9.3,26.4
				c-2.4,3-1.9,7.5,1.1,9.9c0.1,0.1,0.3,0.2,0.5,0.3c22.6,15.2,28.7,45.9,13.4,68.6c-3.6,5.3-8.1,9.9-13.4,13.4
				C767.8,143.9,767,148.3,769.2,151.5z"/>
			<path class="st1" d="M769.2,151.5c0.1,0.2,0.2,0.3,0.3,0.5c6,7.5,9.3,16.8,9.3,26.4c0,23.4-19,42.3-42.4,42.4H682
				c0.4-0.3,0.8-0.8,1.1-1.1c0.8-0.7,1.5-1.4,2.3-2.2c0.6-0.6,1.1-1.2,1.7-1.9c0.7-0.8,1.4-1.6,2-2.4c0.5-0.7,1-1.3,1.5-2
				c0.6-0.9,1.2-1.7,1.8-2.6c0.4-0.7,0.9-1.4,1.3-2.1c0.5-0.9,1-1.9,1.5-2.8c0.4-0.7,0.7-1.5,1.1-2.2c0.4-1,0.8-2,1.2-3.1
				c0.3-0.8,0.6-1.5,0.9-2.3c0.4-1.1,0.6-2.2,0.9-3.4c0.2-0.7,0.4-1.5,0.6-2.2c0.3-1.3,0.5-2.6,0.6-3.9c0.1-0.7,0.2-1.3,0.3-2
				c0.2-2,0.3-4,0.3-6.1c0-10.3-2.8-20.5-8.2-29.3c13.3-11.4,21.3-27.8,22.2-45.3l26.3-26.3c2.7-2.8,2.6-7.3-0.2-10
				c-2.7-2.6-7.1-2.6-9.8,0l-18.1,18.1C710.2,72.6,703,61,692.9,52.4c5.4-8.8,8.3-19,8.2-29.3c0-28.6-21.5-52.7-49.9-56.1
				c0.7-5.2,0.6-10.5-0.2-15.8c-0.1-0.5-0.1-1-0.2-1.4c-0.5-2.7-1.2-5.5-2-8.1c0-0.1,0-0.1,0-0.2c10.1-21.1,35.4-30,56.5-19.9
				c18.8,9,28.2,30.2,22.4,50.2c-0.7,2.2-0.2,4.5,1.2,6.4c1.4,1.8,3.6,2.8,5.9,2.7l1.8-0.1c23.4,0,42.3,19,42.4,42.4
				c0,9.6-3.2,18.9-9.3,26.4c-2.4,3-1.9,7.5,1.1,9.9c0.1,0.1,0.3,0.2,0.5,0.3c22.6,15.2,28.7,45.9,13.4,68.6
				c-3.6,5.3-8.1,9.9-13.4,13.4C767.8,143.9,767,148.3,769.2,151.5z"/>
			<path class="st1" d="M677.4,151.5c0.1,0.2,0.2,0.3,0.3,0.5c6,7.5,9.3,16.8,9.3,26.4c0,23.4-19,42.3-42.4,42.4h-42.4v-96.4
				c0.5-0.3,1-0.6,1.5-1l45.9-45.9c2.7-2.8,2.6-7.3-0.2-10c-2.7-2.6-7.1-2.6-9.8,0l-37.4,37.4V1.9c0-3.9-3.2-7.1-7.1-7.1
				c-3.9,0-7.1,3.2-7.1,7.1v50l-32.1-32.1c-2.8-2.7-7.3-2.6-10,0.2c-2.6,2.7-2.6,7.1,0,9.8l42.1,42v96.5L557.9,138
				c-2.8-2.7-7.3-2.6-10,0.2c-2.6,2.7-2.6,7.1,0,9.8l40.3,40.3v32.4h-42.4c-23.4,0-42.3-19-42.4-42.4c0-9.6,3.2-18.9,9.3-26.4
				c2.4-3.1,1.9-7.5-1.1-9.9c-0.1-0.1-0.3-0.2-0.5-0.3c-22.6-15.2-28.7-45.9-13.4-68.6c3.6-5.3,8.1-9.9,13.4-13.4
				c3.2-2.2,4.1-6.6,1.9-9.8c-0.1-0.2-0.2-0.3-0.3-0.5c-6-7.5-9.3-16.8-9.3-26.4c0-23.4,19-42.3,42.4-42.4l1.8,0.1
				c2.3,0.1,4.5-0.9,5.8-2.7c1.4-1.8,1.8-4.2,1.2-6.4c-1.2-4-1.8-8.1-1.8-12.2c0-2.6,0.2-5.2,0.7-7.8c0-0.1,0-0.2,0-0.3
				c0.5-2.5,1.2-5,2.2-7.5c6.4-16.2,22-26.8,39.4-26.8c17.4,0,33,10.7,39.4,26.8c1,2.4,1.7,4.9,2.2,7.5c0,0.1,0,0.2,0,0.3
				c0.5,2.5,0.7,5.1,0.7,7.7c0,4.1-0.6,8.2-1.8,12.2c-0.7,2.2-0.2,4.5,1.2,6.4c1.4,1.8,3.6,2.9,5.8,2.7l1.8-0.1
				C668-19.3,687-0.3,687,23c0,9.6-3.2,18.9-9.3,26.4c-2.4,3-1.9,7.5,1.1,9.9c0.1,0.1,0.3,0.2,0.5,0.3
				c22.6,15.2,28.6,45.9,13.4,68.6c-3.6,5.3-8.1,9.9-13.4,13.4C676.1,143.9,675.2,148.3,677.4,151.5z"/>
			<path class="st1" d="M541.8-58.5c0,0.1,0,0.1,0,0.2c-0.9,2.6-1.6,5.4-2,8.1c-0.1,0.5-0.1,1-0.2,1.4c-0.8,5.2-0.9,10.5-0.2,15.8
				c-28.4,3.4-49.9,27.5-49.9,56.1c0,10.3,2.8,20.5,8.2,29.3c-0.1,0.1-0.2,0.2-0.4,0.3l-32.9-32.9c-2.8-2.7-7.3-2.6-10,0.2
				c-2.6,2.7-2.6,7.1,0,9.8l33.3,33.3c-19.8,26.8-15.4,64.4,9.9,86c-2.7,4.4-4.8,9.2-6.2,14.3L466.1,138c-2.8-2.7-7.3-2.6-10,0.2
				c-2.6,2.7-2.6,7.1,0,9.8l33.4,33.4c0.1,1,0.1,2,0.2,2.9c0.1,0.7,0.2,1.3,0.3,2c0.2,1.3,0.4,2.6,0.6,3.9c0.2,0.8,0.4,1.5,0.6,2.3
				c0.3,1.1,0.6,2.3,0.9,3.4c0.3,0.8,0.6,1.5,0.8,2.3c0.4,1,0.8,2.1,1.2,3.1c0.3,0.8,0.7,1.5,1.1,2.2c0.5,1,1,1.9,1.5,2.8
				c0.4,0.7,0.9,1.4,1.3,2.1c0.6,0.9,1.1,1.8,1.8,2.6c0.5,0.7,1,1.4,1.5,2c0.6,0.8,1.3,1.6,2,2.4c0.6,0.6,1.1,1.3,1.7,1.9
				c0.7,0.8,1.5,1.5,2.3,2.2c0.4,0.4,0.7,0.8,1.1,1.1h-54.5c-23.4,0-42.3-18.9-42.4-42.3c0-9.6,3.3-18.9,9.3-26.4
				c2.4-3.1,1.9-7.5-1.1-9.9c-0.1-0.1-0.3-0.2-0.5-0.3c-22.6-15.2-28.6-45.9-13.4-68.6c3.6-5.3,8.1-9.9,13.4-13.4
				c3.2-2.2,4.1-6.6,1.9-9.8c-0.1-0.2-0.2-0.3-0.3-0.5c-6-7.5-9.3-16.8-9.3-26.4c0-23.4,19-42.3,42.4-42.4l1.8,0.1
				c2.3,0.1,4.5-0.9,5.9-2.7c1.4-1.8,1.8-4.2,1.2-6.4c-6.6-22.4,6.2-46,28.7-52.6C511.5-86.8,532.8-77.3,541.8-58.5z"/>
		</g>
	</g>
</g>
<g id="Layer_1">
	<g>
		<g>
			<path class="st0" d="M472.9-22.4L233.5-184.9c-2.7-1.8-6.3-1.8-9,0L-14.9-22.4c-2.2,1.5-3.5,4-3.5,6.6v333.5c0,4.4,3.6,8,8,8
				h478.9c4.4,0,8-3.6,8-8V-15.8C476.5-18.4,475.1-20.9,472.9-22.4z M169.7,309.7H83.1v-86.6h18.2v43.3c0,4.4,3.6,8,8,8h34.2
				c4.4,0,8-3.6,8-8v-43.3h18.2V309.7z M117.3,258.4v-35.3h18.2v35.3H117.3z M169.7,207.1H83.1v-86.6h18.2v43.3c0,4.4,3.6,8,8,8
				h34.2c4.4,0,8-3.6,8-8v-43.3h18.2V207.1z M66,19V0.8h326V19H66z M117.3,155.8v-35.3h18.2v35.3H117.3z M272.3,309.7h-86.6v-86.6
				h18.2v43.3c0,4.4,3.6,8,8,8h34.2c4.4,0,8-3.6,8-8v-43.3h18.2V309.7z M219.9,258.4v-35.3h18.2v35.3H219.9z M460.4,309.7h-69.5
				V138.1c0-4.4-3.6-8-8-8s-8,3.6-8,8v171.6h-86.6v-94.6c0-4.4-3.6-8-8-8h-94.6v-94.6c0-4.4-3.6-8-8-8H83.1V35h291.8v68.9
				c0,4.4,3.6,8,8,8s8-3.6,8-8V35h9.1c4.4,0,8-3.6,8-8V-7.2c0-4.4-3.6-8-8-8H58c-4.4,0-8,3.6-8,8V27c0,4.4,3.6,8,8,8h9.1v274.7H-2.4
				V-11.5l231.4-157l231.4,157V309.7z"/>
			<rect x="117.3" y="223.1" class="st1" width="18.2" height="35.3"/>
			<path class="st1" d="M169.7,223.1v86.6H83.1v-86.6h18.2v43.3c0,4.4,3.6,8,8,8h34.2c4.4,0,8-3.6,8-8v-43.3H169.7z"/>
			<rect x="66" y="0.8" class="st1" width="326" height="18.2"/>
			<rect x="117.3" y="120.5" class="st1" width="18.2" height="35.3"/>
			<path class="st1" d="M169.7,120.5v86.6H83.1v-86.6h18.2v43.3c0,4.4,3.6,8,8,8h34.2c4.4,0,8-3.6,8-8v-43.3H169.7z"/>
			<rect x="219.9" y="223.1" class="st1" width="18.2" height="35.3"/>
			<path class="st1" d="M272.3,223.1v86.6h-86.6v-86.6h18.2v43.3c0,4.4,3.6,8,8,8h34.2c4.4,0,8-3.6,8-8v-43.3H272.3z"/>
			<path class="st1" d="M460.4-11.5v321.2h-69.5V138.1c0-4.4-3.6-8-8-8s-8,3.6-8,8v171.6h-86.6v-94.6c0-4.4-3.6-8-8-8h-94.6v-94.6
				c0-4.4-3.6-8-8-8H83.1V35h291.8v68.9c0,4.4,3.6,8,8,8s8-3.6,8-8V35h9.1c4.4,0,8-3.6,8-8V-7.2c0-4.4-3.6-8-8-8H58
				c-4.4,0-8,3.6-8,8V27c0,4.4,3.6,8,8,8h9.1v274.7H-2.4V-11.5l231.4-157L460.4-11.5z"/>
		</g>
	</g>
	<g>
		<g>
			<path class="st0" d="M263.2-117.9h-68.4c-4.4,0-8,3.6-8,8s3.6,8,8,8h68.4c4.4,0,8-3.6,8-8S267.6-117.9,263.2-117.9z"/>
		</g>
	</g>
	<g>
		<g>
			<path class="st0" d="M263.2-83.7h-68.4c-4.4,0-8,3.6-8,8s3.6,8,8,8h68.4c4.4,0,8-3.6,8-8S267.6-83.7,263.2-83.7z"/>
		</g>
	</g>
	<g>
		<g>
			<path class="st0" d="M263.2-49.5h-68.4c-4.4,0-8,3.6-8,8s3.6,8,8,8h68.4c4.4,0,8-3.6,8-8S267.6-49.5,263.2-49.5z"/>
		</g>
	</g>
	<g>
		<g>
			<path class="st0" d="M143.5,181.4h-34.2c-4.4,0-8,3.6-8,8c0,4.4,3.6,8,8,8h34.2c4.4,0,8-3.6,8-8
				C151.5,185,147.9,181.4,143.5,181.4z"/>
		</g>
	</g>
	<g>
		<g>
			<path class="st0" d="M143.5,284h-34.2c-4.4,0-8,3.6-8,8c0,4.4,3.6,8,8,8h34.2c4.4,0,8-3.6,8-8C151.5,287.6,147.9,284,143.5,284z"
				/>
		</g>
	</g>
	<g>
		<g>
			<path class="st0" d="M246.1,284h-34.2c-4.4,0-8,3.6-8,8c0,4.4,3.6,8,8,8h34.2c4.4,0,8-3.6,8-8C254.1,287.6,250.5,284,246.1,284z"
				/>
		</g>
	</g>
</g>
</svg>
